<svg xmlns="http://www.w3.org/2000/svg" viewBox="0 0 515 343">
  <g fill="#FFF">
    <path d="M482.5 291.1c-7.7 0-14-5.9-14-13.1s6.3-13.1 14-13.1 14 5.9 14 13.1-6.3 13.1-14 13.1zm0-18.7c-3.3 0-6 2.5-6 5.6s2.7 5.6 6 5.6 6-2.5 6-5.6-2.7-5.6-6-5.6z"/>
    <path d="M482.5 338.8h-.1c-1.6 0-3.1-.8-4-2-2.9-4-28-39.2-28-57.3 0-16.7 14.4-30.2 32.1-30.2 17.7 0 32.1 13.6 32.1 30.2 0 21.9-27 56-28.2 57.5-.8 1.1-2.3 1.8-3.9 1.8zm0-80.2c-12.2 0-22.2 9.4-22.2 20.9 0 10.9 13.8 33.6 22.4 46.4 8.6-11.9 22-33.2 22-46.4.1-11.6-9.9-20.9-22.2-20.9zm-108.3 35.5c3.7-7.8 7.6-19.2 4.9-29.8-2-7.8-8.9-15.9-18.4-17.9-.4-1.7-1.8-3.1-3.8-3.4-2.5-.4-5 1.2-5.4 3.5l-1.2 6.3c-.4 2.4 1.2 4.6 3.8 5.1.3 0 .5.1.8.1 1.9 0 3.7-1.1 4.4-2.8 5.3 1.4 9.4 6.3 10.7 11.2 3.4 13.4-7.6 31.2-11.7 35.7-.6-.4-1.3-.7-2-1-.3-.1-.7-.2-1-.3-7.8-4.2-22.5-15-25.5-26.5-1.4-5.3.1-11.2 3.2-14.3.9.7 2 1.1 3.1 1.1.9 0 1.9-.3 2.7-.8 2.1-1.4 2.6-4.1 1.1-6.1L336 249c-1.5-2-4.4-2.5-6.5-1.1-1.7 1.1-2.3 3-1.8 4.8-6.3 5.1-9.2 14.6-6.9 23.6 2.7 10.5 11.8 19.4 19 24.9 1.1.8 8.3 6.3 14.5 8.8 5 3.1 5.8 7.7 5.8 10.4-.1 5.6-3.4 10.7-8.4 12.8-5.8 2.5-13.1.7-20.7-5.1.3-.9.4-1.9.4-2.9 0-6.6-5.7-11.9-12.7-11.9s-12.7 5.3-12.7 11.9c0 6.6 5.7 11.9 12.7 11.9 2.5 0 4.9-.7 6.9-1.9 8.1 6 15.1 7.8 20.6 7.8 4 0 7.1-.9 9.3-1.9 8.2-3.5 13.8-11.8 13.9-20.7 0-4.7-1.4-9-4.2-12.5.7-.8 1.5-1.7 2.4-2.9 2.4-3.1 4.7-7 6.6-10.9zm-55.5 34.3c-1.9 0-3.4-1.4-3.4-3.2 0-1.8 1.5-3.2 3.4-3.2s3.4 1.4 3.4 3.2c0 1.8-1.5 3.2-3.4 3.2zM182.3 335c-2.5 0-5.1-1.1-10.9-6.4-3.9-3.6-8.1-8.1-11.9-12.8-7.5-9.3-16.4-23-16.4-35.4 0-11 10.7-20.2 23.3-20.2 5.9 0 11.1 2.8 14.7 5.1 4.1-5.2 11.8-13.2 24.1-13.2 16.2 0 29.9 11.8 29.8 25.8 0 9.6-8 21.9-23.9 36.8-5.3 4.9-11.1 9.8-16.5 13.8-8.8 6.4-10.8 6.5-12.3 6.5zm-15.9-64.2c-6.4 0-11.9 4.4-11.9 9.5 0 15.4 20.9 37.9 27.9 43.2 4-2.5 13-9.2 22.2-18 12.1-11.6 19-21.7 19-27.8 0-8-8.6-15-18.4-15.1-8.3 0-13.6 7.1-16.4 10.8-1.7 2.2-3.3 4.4-6.6 4.4-2.2 0-3.6-1-5.4-2.3-2.1-1.4-6.6-4.7-10.4-4.7zM20.3 320c-3 0-5.7 0-19.2-18.4-2-2.8-1.3-6.6 1.7-8.4 3-1.8 7-1.2 9 1.6 3 4.1 6.8 8.9 9.2 11.7 6.3-4.8 20.6-17.9 36.5-36.3 2.3-2.6 6.3-3 9.1-.9 2.8 2.2 3.2 5.9.9 8.5-9.5 11-19.5 21.4-28.3 29.5C25.5 320 22.6 320 20.3 320"/>
  </g>
  <path fill="#FFF" d="M286.6 0h-.3c-20.7 0-32.9 17.1-38.2 24.5-5.3-4-14.4-10.6-24.9-10.6-18.2 0-33.9 14.1-34.1 30.8 0 14.9 8.6 29.5 13.7 36.8 1.3 1.9 13 18.4 20.2 18.4 1.3 0 5.3 0 14.6-13.2 3.5-5 9.5-14.8 10.9-24.4 1.6-11.4-3.9-19.7-15.2-22.8-.2-.1-.4-.1-.7-.1-2.1-3.3-5.7-5.5-9.9-5.5-6.4 0-11.6 5.2-11.6 11.5s5.2 11.5 11.6 11.5c3.1 0 6-1.2 8.2-3.4 1-1 1.8-2.1 2.3-3.3 3.9 1.8 4.8 4.3 5.1 6.5 1.5 10.4-10.4 27.3-15.7 32.4-6.3-5-23.4-25.8-23.4-44.2.2-11.3 11.1-20.8 23.9-20.8 7.6 0 15.4 5.9 19.5 9.1 2.7 2.1 4.1 3.2 6.3 3.2 3.2 0 4.8-2.2 7.4-5.9 4.7-6.6 14.5-20.4 30-20.4h.2c20.8 0 34.3 11.9 34.3 30.3 0 30.3-58.7 76.8-71.4 83.9-3.3-3.2-10.5-12.3-14.1-17-1.7-2.2-4.9-2.6-7.2-.9-2.2 1.7-2.7 4.9-.9 7.1 14.1 18.1 17.6 21.6 21.8 21.6 5.9 0 29.9-19.2 43.7-32.4C310.2 86 331 61.7 331 40.5 331 20.3 317.2 0 286.6 0zm-61.2 48.1c-.7.7-1.7 1.1-2.8 1.1V53v-3.8c-2.1 0-3.9-1.7-3.9-3.8 0-2.1 1.7-3.9 3.9-3.9 2.1 0 3.9 1.7 3.9 3.8 0 1.1-.4 2.1-1.1 2.8z"/>
  <path fill="#EADD9E" d="M261.5 203.5V159h-3v44.5h-230V228h3v-21.5H180V228h3v-21.5h158V228h3v-21.5h144.5V221h3v-17.5"/>
</svg>