<svg xmlns="http://www.w3.org/2000/svg" viewBox="398 77 117 117">
  <path fill="#FFF" d="M453.2 162.5c-1.6 0-3.2-.7-6.9-4.1-2.5-2.3-5.1-5.1-7.5-8.1-4.8-5.9-10.4-14.6-10.4-22.4 0-7 6.8-12.8 14.8-12.8 3.7 0 7 1.8 9.3 3.2 2.6-3.3 7.5-8.4 15.3-8.4 10.3 0 19 7.5 18.9 16.4 0 6.1-5.1 13.9-15.1 23.3-3.4 3.1-7 6.2-10.5 8.7-5.7 4.2-6.9 4.2-7.9 4.2zm-10.1-40.6c-4.1 0-7.5 2.8-7.5 6 0 9.8 13.2 24 17.7 27.4 2.5-1.6 8.2-5.8 14.1-11.4 7.7-7.4 12-13.8 12-17.6 0-5.1-5.5-9.5-11.7-9.6-5.3 0-8.6 4.5-10.4 6.8-1.1 1.4-2.1 2.8-4.2 2.8-1.4 0-2.3-.6-3.4-1.5-1.3-.9-4.1-2.9-6.6-2.9z"/>
</svg>