<svg xmlns="http://www.w3.org/2000/svg" viewBox="200.9 -182.2 141.9 135.1">
  <path fill="#FFF" d="M298.4-182.2h-.3c-20.7 0-32.9 17.1-38.2 24.5-5.3-4-14.4-10.6-24.9-10.6-18.2 0-33.9 14.1-34.1 30.8 0 14.9 8.6 29.5 13.7 36.8 1.3 1.9 13 18.4 20.2 18.4 1.3 0 5.3 0 14.6-13.2 3.5-5 9.5-14.8 10.9-24.4 1.6-11.4-3.9-19.7-15.2-22.8-.2-.1-.4-.1-.7-.1-2.1-3.3-5.7-5.5-9.9-5.5-6.4 0-11.6 5.2-11.6 11.5s5.2 11.5 11.6 11.5c3.1 0 6-1.2 8.2-3.4 1-1 1.8-2.1 2.3-3.3 3.9 1.8 4.8 4.3 5.1 6.5 1.5 10.4-10.4 27.3-15.7 32.4-6.3-5-23.4-25.8-23.4-44.2.2-11.3 11.1-20.8 23.9-20.8 7.6 0 15.4 5.9 19.5 9.1 2.7 2.1 4.1 3.2 6.3 3.2 3.2 0 4.8-2.2 7.4-5.9 4.7-6.6 14.5-20.4 30-20.4h.2c20.8 0 34.3 11.9 34.3 30.3 0 30.3-58.7 76.8-71.4 83.9-3.3-3.2-10.5-12.3-14.1-17-1.7-2.2-4.9-2.6-7.2-.9-2.2 1.7-2.7 4.9-.9 7.1 14.1 18.1 17.6 21.6 21.8 21.6 5.9 0 29.9-19.2 43.7-32.4 17.5-16.7 38.3-41 38.3-62.2 0-20.2-13.7-40.5-44.4-40.5zm-61.2 48.1c-.7.7-1.7 1.1-2.8 1.1v3.8-3.8c-2.1 0-3.9-1.7-3.9-3.8s1.7-3.9 3.9-3.9c2.1 0 3.9 1.7 3.9 3.8 0 1.1-.4 2.1-1.1 2.8z"/>
</svg>