<svg xmlns="http://www.w3.org/2000/svg" viewBox="783 77 117 117">
  <g fill="#FFF">
    <path d="M841.5 134.1c-5.4 0-9.9-4.2-9.9-9.2 0-5.1 4.4-9.2 9.9-9.2 5.4 0 9.9 4.2 9.9 9.2 0 5.1-4.5 9.2-9.9 9.2zm0-13.2c-2.3 0-4.2 1.8-4.2 4s1.9 4 4.2 4c2.3 0 4.2-1.8 4.2-4s-1.9-4-4.2-4z"/>
    <path d="M841.5 167.7c-1.2 0-2.3-.6-2.9-1.4-2-2.8-19.8-27.7-19.8-40.4 0-11.8 10.2-21.3 22.6-21.3 12.5 0 22.6 9.6 22.6 21.3 0 15.5-19 39.5-19.9 40.6-.4.8-1.5 1.2-2.6 1.2zm0-56.6c-8.6 0-15.7 6.6-15.7 14.7 0 7.7 9.7 23.7 15.8 32.7 6.1-8.4 15.5-23.4 15.5-32.7.1-8-6.9-14.7-15.6-14.7z"/>
  </g>
</svg>