<svg xmlns="http://www.w3.org/2000/svg" viewBox="9.6 50.5 117.4 179">
  <path fill="#FFF" d="M90.1 51h-.2c-17.1 0-27.1 14.1-31.5 20.2-4.4-3.3-11.9-8.7-20.5-8.7-15 0-28 11.6-28.1 25.4 0 12.3 7.1 24.3 11.3 30.3 1.1 1.6 10.7 15.2 16.7 15.2 1.1 0 4.4 0 12-10.9 2.9-4.1 7.8-12.2 9-20.1C60 93 55.5 86.2 46.2 83.6c-.2-.1-.3-.1-.6-.1-1.7-2.7-4.7-4.5-8.2-4.5-5.3 0-9.6 4.3-9.6 9.5s4.3 9.5 9.6 9.5c2.6 0 4.9-1 6.8-2.8.8-.8 1.5-1.7 1.9-2.7 3.2 1.5 4 3.5 4.2 5.4 1.2 8.6-8.6 22.5-12.9 26.7-5.2-4.1-19.3-21.3-19.3-36.4.2-9.3 9.2-17.2 19.7-17.2 6.3 0 12.7 4.9 16.1 7.5 2.2 1.7 3.4 2.6 5.2 2.6 2.6 0 4-1.8 6.1-4.9 3.9-5.4 12-16.8 24.7-16.8h.1c17.2 0 28.3 9.8 28.3 25 0 25-48.4 63.3-58.9 69.2-2.7-2.6-8.7-10.1-11.6-14-1.4-1.8-4-2.1-5.9-.7-1.8 1.4-2.2 4-.7 5.9 11.6 14.9 14.5 17.8 18 17.8 4.9 0 24.7-15.8 36-26.7 14.4-13.8 31.6-33.8 31.6-51.3-.1-16.8-11.4-33.6-36.7-33.6zM39.7 90.7c-.6.6-1.4.9-2.3.9v3.1-3.1c-1.7 0-3.2-1.4-3.2-3.1 0-1.7 1.4-3.2 3.2-3.2 1.7 0 3.2 1.4 3.2 3.1 0 .9-.4 1.7-.9 2.3z"/>
  <path fill="#EADD9E" d="M67.2 229.5v-34.4h2v34.4"/>
  <path fill="#EADD9E" d="M9.7 227.5h117v2H9.7"/>
</svg>