<svg xmlns="http://www.w3.org/2000/svg" viewBox="587 77 117 117">
  <path fill="#FFF" d="M669.8 136c2.9-6.1 5.9-15 3.8-23.2-1.6-6.1-6.9-12.4-14.3-14-.3-1.3-1.4-2.4-3-2.7-1.9-.3-3.9.9-4.2 2.7l-.9 4.9c-.3 1.9.9 3.6 3 4 .2 0 .4.1.6.1 1.5 0 2.9-.9 3.4-2.2 4.1 1.1 7.3 4.9 8.3 8.7 2.7 10.4-5.9 24.3-9.1 27.8-.5-.3-1-.5-1.6-.8-.2-.1-.5-.2-.8-.2-6.1-3.3-17.5-11.7-19.9-20.7-1.1-4.1.1-8.7 2.5-11.1.7.5 1.6.9 2.4.9.7 0 1.5-.2 2.1-.6 1.6-1.1 2-3.2.9-4.8l-3-4.1c-1.2-1.6-3.4-1.9-5.1-.9-1.3.9-1.8 2.3-1.4 3.7-4.9 4-7.2 11.4-5.4 18.4 2.1 8.2 9.2 15.1 14.8 19.4.9.6 6.5 4.9 11.3 6.9 3.9 2.4 4.5 6 4.5 8.1-.1 4.4-2.7 8.3-6.5 10-4.5 1.9-10.2.5-16.1-4 .2-.7.3-1.5.3-2.3 0-5.1-4.4-9.3-9.9-9.3s-9.9 4.1-9.9 9.3c0 5.1 4.4 9.3 9.9 9.3 1.9 0 3.8-.5 5.4-1.5 6.3 4.7 11.8 6.1 16.1 6.1 3.1 0 5.5-.7 7.2-1.5 6.4-2.7 10.8-9.2 10.8-16.1 0-3.7-1.1-7-3.3-9.7.5-.6 1.2-1.3 1.9-2.3 1.9-2.2 3.7-5.2 5.2-8.3zm-43.2 26.8c-1.5 0-2.7-1.1-2.7-2.5s1.2-2.5 2.7-2.5 2.7 1.1 2.7 2.5c-.1 1.3-1.3 2.5-2.7 2.5z"/>
</svg>