<svg xmlns="http://www.w3.org/2000/svg" viewBox="0 0 100 100">
  <g fill="#1E1B1C">
    <path d="M52.2 6.2s0-.1 0 0c0-.1.1-.1 0 0zM72.4 11.9l-.2-.1c.2 0 .2.1.2.1zM39.7 6.9c-.1 0-.4.1-.8.2l.8-.2zM93.9 49v-.3.3zM86.4 23.7c0 .1.1.2.2.3-.1-.2-.2-.3-.2-.3zM33.4 9.2l.3-.1c.1 0 0 0-.3.1zM21.9 14.3c.1-.1.1 0 0 0zM26.2 11.7c.1 0 .2-.1.3-.1-.2.1-.3.1-.3.1zM26.7 11.5s-.1 0-.1.1l.1-.1zM18 25.4c.3-.3.5-.4.8-.6l-.8.6zM75.8 84.7zM18.7 25.4l.2-.2-.2.2zM40 7.7c.4 0 1.1-.2 1.1-.1-.4 0-1 .2-1.1.1zM67.7 87.9l-.2.1c.1-.1.2-.1.2-.1zM18.7 25.4l-.2.2v-.1c.1 0 .1 0 .2-.1zM35.3 90.7h.1-.1zM33.2 89.9c.1.1.3.1.4.2-.3-.1-.4-.1-.4-.2zM18.8 24.8l.5-.4c-.2.2-.3.3-.5.4zM14.2 74.8c0 .1.1.1.1.2 0-.1-.1-.2-.1-.2zM85.4 22.4l-.1-.1.1.1zM91.5 37.7zM91.3 36.8c.1.3.1.7.1.9 0-.3 0-.5-.1-.9zM91.9 39.5v-.1.1zM84.7 23.7zM86.7 26.5s.1.1.1.2c0 0 0-.1-.1-.2zM92.4 48.2z"/>
    <path d="M80.1 77.9c1.1-1.3 2.2-2.7 3.3-4.3.3-.4.5-.8.8-1.2s.5-.8.7-1.2c.1-.2.3-.4.4-.6l.3-.6c.2-.4.4-.8.6-1.1.2-.3.4-.7.7-1.1.2-.4.5-.9.7-1.3l-.1-.1.4-.8c.1-.3-.3.6-.1 0l.2-.3s.2-.5.4-.9c.1-.4.2-.5-.1.1l.6-1.6c.2-.4.3-.8.4-1.1.1-.3.2-.5.2-.5.3-.7.3-.4.5-1.2 0-.2-.1.3-.1.2.1-.6.3-1.1.4-1.4.1-.2.1-.4.2-.5.1-.2.1-.3.2-.5.2-.7.5-1.3.7-2.4l-.1.2c.1-.2.1-.5.2-.7 0-.2.1-.4.1-.4.1.3-.1.4-.2 1.1.1 0 .3-.8.3-.8.1-.5.2-.8.3-1.3 0-.4.1-.9.2-1.3 0-.5.1-.9.1-1.2.1-.4.3-.8.3-1.7 0-.6-.1.1-.1-.7l.1-.1v-.5c0-.7.1-.6.1-1.5l-.1.5v-1.9.7c-.1-.5 0-.9 0-1.1 0 .1.1.7.1.4 0-.5.1-1 0-1.3v.6c0-1 0-.5-.1-1.6v.1c0-.7-.2-1.6-.3-2.6v.2c0-.4 0-.7-.1-.9.1.6.1.4.2.5-.4-.7-.4-1-.4-1.4 0-.2 0-.4-.1-.6 0-.2-.1-.5-.2-.8 0 0 0 .3.1.7 0 .4-.1.5 0 1.3-.1-.5-.1-1.1-.2-.9l.1-.2c0-.3-.1-.5-.2-.7 0-.1.3.5.1-.1-.1-.8-.2-.4-.2-.5-.2-1 0-.5-.3-1.4 0 .1.1.3.1.4-.3-.7-.5-1.7-.7-1.9 0 .1 0 .1.1.4.1.8-.2-.7-.2-.4.1 0-.3-.9-.5-1.3l.1.1c-.2-.8-.2-.7-.3-.7 0 0-.1.1-.4-.6-.3-.9.2.3 0-.3l-.8-1.6c-.1-.2-.4-.7-.5-.7-.2-.5-.9-1.5-1-1.8.3.4.4.6.5.9.1.1.1.3.2.4.1.1.2.3.4.6l-.1-.3c-.4-.7-.9-1.6-1.2-2.1.1.1.1.1.1 0-.3-.5-.5-.8-.7-1.1-.2-.3-.4-.6-.7-1.1-.1 0 0 .1.1.3s.3.4.4.6c-.4-.6-.4-.6-1.1-1.5-.1 0 .5.6.5.7l-.7-1c0-.1-.1-.3-.4-.5-.2-.2-.5-.5-.7-.8-.3-.3-.5-.6-.7-.8-.2-.2-.3-.4-.5-.6-.3-.3-.4-.6-.8-1-.2-.2-.3-.2-.2-.1l.4.4c-.2-.2-.5-.4-.7-.5-.2-.1-.3-.1-.2 0-.7-.7.3.2-.1-.2l-1-.9c.1.1.5.4 0-.1-.4-.4-.7-.5-1.2-1 .1.1-.2-.1.2.3-.3-.2-.7-.6-.9-.8.3.3.1 0-.2-.2-.3-.2-.6-.5-.3-.3l-.7-.4c.1.1.1.1.4.3-.3-.1-.5-.4-.8-.6-.2-.2-.9-.5-.9-.6-.2-.1-.8-.5-.9-.5-.3-.2 0-.1-.1-.1 0 0-.3-.2-.5-.4-.3-.2-.6-.3-.6-.3-.1 0-.3.1-.1.2-.4-.3-.1-.2-.7-.6.3.3-.9-.4-.4 0-.4-.1-1.5-.7-2.1-1.1-.3-.3.7.3.7.2-.4-.2-.7-.4-1-.5-.3-.1-.5-.3-.7-.4-.4-.3-.7-.4-1.3-.7l.3.1c-.8-.4-.7-.3-1.1-.6.1.1-.1 0-.6-.1-.4-.1-1.1-.3-1.7-.6-.1-.1.8.2.6 0l-.4-.2c-.2-.1-.4-.1-.4-.1-.1 0 0 0 .1.1-.8-.3-1.5-.4-1.7-.6l-.9-.1h.3c-.1-.1-1-.4-1.2-.4-.7-.4-1.1-.5-1.6-.5.2 0 .6 0-.1-.2 0 .1-1.6-.3-1.6-.2-.3-.1-.8-.1-.9-.2v.1c0-.1-.3-.1-.7-.2-.4-.1-.9-.2-1.3-.2.2.2-.9-.1-1.3 0-.1-.1-1.5-.2-1.7-.3-.7 0-.6.1-.8.1l-.3-.1h-2.3-.8l-.3.1c-.1 0-.7 0-.3-.1h-.4c0-.1-.5 0-1.3 0-.2 0-.1.1 0 .1-.4 0-.2.1-.4.1.3 0-1.3-.1-.4-.2h-.9V7h-.4c-.6 0-.8.1-1.3.2.5-.1 1.1 0-.1.2.7-.1 1-.1 1.3-.1-.3 0-.4.1 0 .1-.9.1-.3 0-1.3.1.1.1-.2.1-1 .3l.6-.1h-.1c.2 0 .3-.1.3-.1-.2 0-1.1 0-1.3.1.9-.3-1.7.2-1.1 0-.1 0-.8.1-.8.2.9-.2-.5.1-.4.2-.3 0 .6-.2.2-.1-.5.1-.8.2-1.1.3h.2s-.2 0-.4.1-.4.1-.4.1c-.1 0 .7-.3 0-.1-.2.1-.8.2-.8.3.3 0 .1.1.7 0-.2.1-.7.2-1.1.3-.4.1-.6.1-.3 0h-.4c.3-.1 1.3-.5.2-.2l-.8.1-.3.1s-.1 0-.4.1c-.1 0-.3.1-.3.2-.8.3-.8.2-.9.2-.5.1-.6.3-.4.2-.6.2-1.7.6-2.1.8-.8.3.1-.1-.3 0-.7.4-2.6 1.2-3.9 1.8.3-.3-.4.2-.7.2.3-.1-1.2.7 0 .2 0 0-.2.1-.3.2-.2.1-.3.2-.3.2-.4.3 1.1-.5.5-.1-.4.2-.7.3-1.1.5-.3.1-.7.3-1.1.6.3-.1-.7.4-.4.3.2-.1.4-.2.7-.4l-.1.1c-1.6 1-.5.2-1.4.7-1 .6-.7.5-.7.6-.1.1-.6.4-.9.6.6-.4 1-.8.7-.7-.4.4-1.4 1-1.7 1.1 1.3-1 .9-.7 2.1-1.6.2-.1.2 0 1-.5-.5.3 0-.1.1-.2-.1.1.5-.3.8-.4.2-.2-.5.1.3-.3h.2c.3-.2-.2 0 .5-.4-.4.1.1-.1-.9.3.5-.4.9-.6 1.3-.8.4-.2.8-.3 1.3-.5-.1 0-.1 0-.2.1.2-.1.5-.3.8-.4.6-.3-.5.2-.4.1l.9-.4c.3-.1.5-.2.6-.3-.3.1-.4.1-.7.2 0 0 .3-.1.5-.2.3-.1.5-.2.5-.2-.1 0 .8-.4.1-.1 0 0 .4-.1.8-.3.2-.1.4-.1.5-.2.1-.1.3-.1.3-.1l.1-.1c.4-.1.4-.1 0 .1.3-.1.8-.3 1.3-.5.5-.1.9-.3.7-.3.6-.2 1-.3 1.5-.4.4-.1.9-.3 1.7-.5-1.2.3 1.3-.5.1-.2.7-.3.9-.2 1.4-.3.5-.2.3-.2-.3-.1l.7-.1.6-.1c.6-.2.1-.1.8-.3h.1l.4-.1c-.1.1.2 0 .7-.1l.5-.2c-.4.1.7 0 .4 0 .5-.1.5-.1 1.4-.2H41c1.2-.1 0-.1 1-.2v.1c1.3-.3 2.3-.2 3.3-.4-.6 0-.4-.1-.4 0 .4 0 1-.1 1.6-.1h1.6c.3-.1.4-.1 1.3-.1.7 0 .8 0 1 .1h1.9c.1.1.6 0 .9.1h.1l-.1.1c.6 0 1.1.1 1.6.1.3 0 .5.1.7.1.3 0 .5.1.8.1h-.2l.5.1c.1 0-.1-.1-.1-.1s.1 0 .4.1c.2 0 .5.1.8.1.6.1 1.1.2 1.1.2h-.4c.5.1.8.2 1.3.3-.9-.3.7.2.9.1l-.5-.1c.7.2.7.2.6.2.8.2.6 0 1.4.3l-.5-.1c-.2 0 .2.1.6.3.1 0 .4.1.1 0 .3.1.7.2 1.1.3.4.1.7.2.8.3.4.1.3 0 .1-.1 1.4.5.7.2 2 .8l.5.2s.2 0 .4.1c.2 0 .4.1.4.1l-.3-.1c.4.2.7.3 1.2.5l-.2-.2c1.2.5 1.5.6 2.6 1.2.1 0-.1-.1-.2-.1 1.1.6.9.3 1.9 1-.1 0 .1 0 0 0l.5.3v-.1l.3.3.3.1.2.1c.3.1.6.3.9.4.3.2.7.4 1.1.6h-.2c.4.3.8.6 1.3.9.5.3.9.7 1.4 1 .5.3 1 .7 1.5 1.1.5.4 1 .8 1.4 1.2v-.1l.7.8c.4.3-.2-.3 0-.2.8.8.3.4 1.1 1.3.5.4-.1-.2-.3-.4.4.4.9 1 1.4 1.5.4.5.9 1 1.2 1.3 0 0 0 .1 0 0 .3.3.5.7.8 1.1.3.4.6.7.8 1.1l-.2-.4c.2.3.4.6.6.8l-.1-.3c.4.5 1.1 1.7 1.2 1.7-.1-.1-.1 0 .2.5.1.1.3.5.5.9s.4.9.7 1.3c0-.1-.3-.7-.3-.5.3.4.4.8.5 1.2v-.1s.1.1.1.3c.1.2.2.4.3.7l.4 1c.3.3.7 1.9.7 1.7.3.7-.3-.6.1.3.1.2.3.8.3.8v-.1l.2.7-.1-.4c.1.6.2 1 .2 1.1.2.5.3 1.3.5 1.5v-.2c.2.8.4 1.4.5 2 .1.3.1.6.2.9.1.3.1.6.1.9v-.1l.1 1v-.3s0 .4.1.8v.8c0 .5.1 1.2.1 1.9s.1 1.5 0 2.1v-.2c-.1 1.5 0 1.4-.1 2.5v-.1l-.1 1v-.2c0 .2 0 .4-.1.6v1c-.1.4-.2 1.1-.3 1.2-.2 1.1 0 .3-.1.9-.1.8-.2.9-.4 1.9-.1.5-.2.8-.3 1.4l.1-.2c-.3 1.1-.2 1.4-.6 2.2-.1.5-.4 1.3-.3 1.3-.1.3-.2.7-.3.9l-.3.9c-.2.6-.4 1.2-.7 1.8 0 .3-.1.3-.4 1.1v-.1c-.1.2-.2.5-.3.7-.1.2-.2.5-.3.7-.2.5-.4 1-.6 1.4-.5 1-.9 2-1.4 2.9v.1l.1.4c-1.1 2-2.7 4.5-3.8 6-.4.5-1 1.1-1.6 1.9l.1-.1c-.1.1-.3.3-.4.5s-.3.3-.4.5l-.9.9-.9.9s-.6.7-.9 1c.1-.1 0 .1.1 0-.4.3-.8.7-1.1 1l.3-.3c-.4.3-.9.9-1.1 1.1l-.7.5-.1.1-.1.1-.3.3c-.1.1-1.1.7-1.4.9 0 .1-.7.5-.2.2 0 0-.1.1-.4.3-.2.2-.5.4-.9.6l-.9.6c-.2.1-.4.3-.4.3s.1-.1.2-.1c.1-.1.2-.1.2-.1 0-.1-.8.3-1.2.6.5-.3.1 0-.1.2-.4.2.3-.2.1-.1-.2.1-.6.3-.9.5-.3.1-.6.3-.8.4l.3-.1c-.6.3-.9.6-1.5.8-.6.2-1 .4-.9.3-.8.4-.3.2-.5.3-.4.1-1.6.6-1.7.7-.3 0-.8.2-1.3.4s-1 .4-1.1.3l-.7.3s-.2-.1-.8.1c-.5.2-.4.2-.5.3h-.4l-1.2.3c-.4.1-.9.2-1.3.3-.9.2-1.8.3-2.8.4-1.9.1-3.8.2-5.6.2-.4 0-.8-.1-1.2-.1-.4 0-.9-.1-1.3-.1-.9-.1-1.8-.3-2.8-.4h.2s-.4-.1-.9-.1c-.2 0-.4-.1-.6-.1-.2 0-.3-.1-.3-.1s.3.1.7.1c.3 0 .7.1.7.1-.4-.1-.7-.1-1.1-.3-2-.4-4.6-1-6.8-2-1.4-.7-1.1-.3-2.4-1 .1.1.1.1.3.2-.4-.2-.7-.3-1-.5-.3-.1-.6-.3-.9-.5s-.5-.3-.9-.5l-.9-.6c.1.2-.9-.5-.8-.4l-.1-.1c-.3-.1-1.1-.6-1-.5l-.6-.4h-.1c-.8-.5-2.5-1.7-3-1.9-1.1-1.1-2.3-2.1-3.5-3.1-.6-.5-1.2-1.1-1.8-1.7-.3-.3-.6-.6-.9-.8-.3-.3-.5-.6-.8-.9-.3-.4-.8-1-1.2-1.6l-.5-.5c-.4-.5-.8-1.2-1.2-1.7v.1c-.2-.3-.4-.5-.6-.8-.2-.3-.4-.6-.5-.9-.2-.3-.4-.7-.6-.8-.1-.2-.2-.3-.2-.2.1-.1-.8-1.4-.8-1.4l-.1-.1s-.1-.1-.2-.3c-.1-.3-.3-.7-.6-1.1-.1-.3-.3-.5-.4-.8-.1-.3-.3-.7-.5-1-.4-.7-.7-1.5-1-2.4-.7-1.8-1.4-4-1.9-6.5s-.8-5.2-.7-8c0-2.8.4-5.7 1.2-8.4.8-2.7 1.8-5.3 3.1-7.5 1.1-2.4 2.6-4.2 3.9-5.7.7-.7 1.3-1.4 1.9-2 .6-.5 1.1-1.1 1.6-1.4.3-.2 1-.7.8-.4.5-.4.7-.7.8-.8-.7.7.3-.1-.3.6l.4-.4c.1 0-.6.5-.5.5h-.2c-.4.3-.5.5-.6.7-.2.1-.4.2-.6.4-.2.1-.5.4-.8.8l.2-.2c-.6.6-.3.4-.4.6l.3-.4-.5.5c.4-.4 1.1-1 .7-.7-.7.8.2-.2-.4.3-.4.3-.2.3-.1.3l-.3.3-.3.3s.4-.4.2-.1l-.8.8c0 .1-.2.3-.5.6l-.4.4c-.1.1-.2.3-.3.4.5-.6 0 .1.1 0l-1.2 1.5c-.1.1.3-.4.1-.1-.2.3-.4.5-.5.6-.1.1-.8 1.2-.7 1.2-.2.3-.3.4-.3.5s-.1.1-.1.2c-.1.1-.2.2-.4.7 0 .2.5-.8.3-.3l-.7 1.1c.1-.1.2-.2.4-.6-.2.4-.4.7-.5 1.1-.1.4-.3.7-.4 1-.3.6-.5 1.2-.7 1.8l-.3.9-.3.9-.3.9c-.1.3-.2.7-.3 1.1 0 .4.1-.3.3-.6-.1.5-.3 1-.4 1.4-.1.4-.1.8-.2 1.2 0 .4-.1.7-.1 1.1 0 .4-.1.8-.1 1.2h-.1c-.1 2.6-.3 5.7.2 8.7l-.1-.3v.7c0 .3.1.5.1.8 0 .1.1-.4.2.5 0-.2-.1-.5-.1-.4.1.3.1.7.2 1.1.1.4.2.8.3 1.3 0 .2.1.5.2.7.1.2.1.5.2.7.1.5.3 1 .4 1.5.7 2.1 1.6 4.2 2.5 6.1 1.2 2.5 2.8 5 4.7 7.2 1.8 2.3 3.9 4.3 6 6.1-.7-.5-.5-.2 0 .2.4.2.7.5 1 .7.3.2.6.4.9.7.3.2.6.5.9.7.3.2.7.4 1.1.7 2.6 1.8 5.3 3 8 4.3h.1c.4.1.5.2.9.4.5.2 1.1.4 1.6.6.5.2 1 .4 1.3.4V90c.6.2.4 0 1 .3l.7.3c0-.1 1.8.4 2.3.5.4.1 1 .2 1.7.4.7.1 1.4.2 2 .3H49c2 .1 4.7 0 7.2-.4v.1l.7-.1s.1 0 0 0c.3-.1.6-.1 1-.2s.8-.1 1-.2c-.3.1-.4.1-.8.2-.5.1 0 .1.7-.1l.5-.1c0-.1.5-.2.5-.3.5-.1 1-.3 1.4-.4.5-.1.9-.3 1.3-.4.9-.3 1.7-.6 2.8-1-.3 0 1.4-.7 1-.6 1.2-.5-.1.2.4 0 .3-.1.7-.3.7-.4-.2 0 .2-.2 0-.1l.8-.4c.1 0-.1 0-.2.1.8-.4 1.5-.8 2.2-1.2.7-.4 1.3-.9 2-1.3.1 0-.5.4-.4.3.4-.2.6-.4.8-.5.2-.1.3-.3.5-.4s.3-.2.4-.4.4-.3.7-.5l-.2.2c.4-.3.6-.4 1.2-.9.1-.1-.6.4-.9.6.4-.4 1.5-1.2 1.2-.9.5-.4.7-.7.9-.9 0 0-.4.5-.1.2.7-.6 1.6-1.6 2.4-2.4 0 0 0-.1-.1 0 .9-.6.7-.6 1.5-1.5z"/>
    <path d="M84.5 23.3l.3.4.1.2-.4-.6zM92.3 42.8v0zM92.3 48v.1c.1.1 0 .1 0-.1zM75.6 15.1c.1 0 .1.1 0 0zM43.6 7.2h0zM45.5 6.9h.4c-.2 0-.3.1-.4 0zM81.9 20.3c.1.1.2.2.2.3-.1-.2-.2-.3-.2-.3zM46.3 6.9h.5-.5zM43 7.3c.2 0 .4 0 .6-.1-.2 0-.4.1-.6.1zM64.6 9.5c.4.2.2.1 0 0zM48.3 7h.2-.2zM41.1 7.6h.2-.2zM57.8 7.8c-.1 0-.2-.1-.2-.1.2 0 .3.1.2.1z"/>
  </g>
  <path fill="#1E1B1C" d="M69.6 67.6c-.1 2.9-.8 5.9-2.2 8.7-1.2 2.4-4.6 3.8-7.3 3-4.1-1.2-6.1-4.4-7-8.3-.8-3.4-.5-6.7 2.3-9.3 3.3-3 9-3.1 12.2-.1 1.7 1.6 1.9 3.7 2 6zm-13.8 1.3c0 3.9 2.2 6.3 5.9 6.6 1.4.1 2.8-.3 3.5-1.7 1.1-2.4 1.7-5 1.5-7.7-.2-2.7-1.8-4.5-4.3-4.9-2.7-.4-4.9.8-5.8 3.4-.6 1.5-.8 2.9-.8 4.3zM78.3 39.9c.1 2.5-.5 4.3-1 6.1-1.3 5.1-7.8 7.9-12.6 2.2-2.5-3-3.4-6.6-2.7-10.5.8-4.1 4.8-7.2 8.9-6.6 4.9.8 7 3.1 7.4 7.9v.9zm-2.6-.8c0-3-1.1-4.9-3.3-5.7s-4.3-.3-5.8 1.3c-2.7 3-2.4 9.9.5 12.7 2.5 2.3 5.7 1.7 6.9-1.5 1-2.2 1.7-4.5 1.7-6.8zM48.2 62.2c.1 3.9-.2 8.7-1.4 13.5-.3 1.2-.8 2.4-1.5 3.4-1.5 2.3-3.4 2.6-5.7.8-2-1.6-3.4-3.6-4.4-5.9-.4-.9-1.2-2.1.1-2.7 1.3-.6 2.1.6 2.6 1.5.8 1.4 1.6 2.9 2.8 3.9 1.4 1.2 2.1.9 2.7-.8 1.7-5 2-10.3 1.8-15.5-.1-2.3-.3-3.5-.4-5.8-.1-1-.1-2 1.3-2.1 1.2 0 1.5.7 1.7 1.8.4 2.9.4 4.4.4 7.9zM40.6 47.6c-.1-1.3-.4-3.6-.3-5.1.1-1.3-.1-2.6-.2-4.2 0-.4-.2-1.3-.4-3-.5-2.4-.7-3.3-1.3-5-.3-.9-.7-1.9-1.6-1.9-.5 0-1.3.2-1.7.7-.3.4-1.3.3-2.9.4-1.2.1-2.4.3-3.6.4-4.4.7-7.5 3.5-7.8 7.5-.3 4.5 1.3 8.5 4.9 11.4 2.9 2.4 8.6 2.7 11.9-.2 0 .3.1.6.2.8.2.7 1.3.8 1.9.6 1-.3 1-1.6.9-2.4zm-8.7-.3c-4.2-.5-7.3-4.1-7.6-8.8-.2-2.6.8-4.2 3.2-5.1 1.8-.7 3.8-1.1 5.8-1.3 1.7-.2 2.8.6 3.3 2.2 1.2 4.1 1.8 8.3.2 11.2-.9 1.4-3.4 2-4.9 1.8zM47.7 47.6c.1 1.2-.7 2.1-1.6 2.1-1 0-1.8-.9-1.9-2 0-.8.2-1.6.6-2.4.2-.4.4-.8 1.2-.8.7 0 .9.4 1.2.8.3.8.5 1.5.5 2.3zM47.5 30.7c.8-.8 1.3-1.4 1.9-1.9 2.1-1.9 4.2-1.6 5.8.7 2.2 3.2 2.9 6.8 3.5 10.5.8 4.7 1.2 9.6 1.2 14.4 0 1.2-.2 2.2-1.7 2.2-1.4 0-1.3-1.2-1.3-2.1.1-6.7-.4-13.2-2.5-19.6-.3-.8-.5-1.6-.8-2.4-.7-1.7-1.7-2.1-3.7-.9-1.3.8-2.5 2.2-2.5 3.8 0 2.5.1 3.7.1 4.2-.1 1.3-.3 2.1-1.7 2.1-.8 0-1.3-.4-1.5-1.3-.5-2.4-.5-9.9-.4-12.3 0-1.1.5-2.2 1.9-2.1 1.3.1 1.6 1 1.7 2.1v2.6z"/>
</svg>