<svg xmlns="http://www.w3.org/2000/svg" viewBox="0 0 480 366">
  <path fill="#0C80B9" d="M119.8 250.3h-.2c-10.9 0-17.4 9.1-20.2 13.1-2.8-2.2-7.6-5.7-13.2-5.7-9.6 0-17.9 7.5-18 16.5 0 8 4.5 15.8 7.2 19.7.7 1 6.9 9.8 10.7 9.8.7 0 2.8 0 7.7-7.1 1.8-2.7 5-7.9 5.7-13 .8-6.1-2.1-10.5-8-12.2-.1 0-.2 0-.4-.1-1.1-1.8-3-2.9-5.2-2.9-3.4 0-6.1 2.8-6.1 6.2 0 3.4 2.8 6.1 6.2 6.1 1.6 0 3.2-.6 4.3-1.8.5-.5.9-1.1 1.2-1.8 2 1 2.5 2.3 2.7 3.5.8 5.5-5.5 14.6-8.3 17.3-3.3-2.7-12.4-13.8-12.4-23.6.1-6 5.9-11.1 12.6-11.1 4 0 8.1 3.2 10.3 4.9 1.5 1.1 2.2 1.7 3.3 1.7 1.7 0 2.5-1.2 3.9-3.1 2.5-3.5 7.6-10.9 15.9-10.9h.1c11 0 18.1 6.4 18.1 16.2 0 16.2-31 41.1-37.8 44.9-1.8-1.7-5.5-6.6-7.5-9.1-.9-1.2-2.6-1.4-3.8-.5-1.2.9-1.4 2.6-.5 3.8 7.5 9.7 9.3 11.5 11.5 11.5 3.1 0 15.8-10.3 23.1-17.3 9.2-8.9 20.3-21.9 20.3-33.2.3-11-7-21.8-23.2-21.8zM87.4 276c-.4.4-.9.6-1.5.6v2-2c-1.1 0-2.1-.9-2.1-2.1 0-1.1.9-2.1 2.1-2.1 1.1 0 2.1.9 2.1 2.1 0 .6-.2 1.1-.6 1.5z"/>
  <g fill="#191818">
    <path d="M199.8 264.7h3.7c.5 0 1 .4 1 1v38.4c0 .5-.4 1-1 1h-3.7c-.5 0-1-.4-1-1v-38.4c0-.6.4-1 1-1zM219.2 305.1h-3.7c-.5 0-1-.4-1-1v-30.8c0-.5.4-1 1-1h3.7c.5 0 1 .4 1 1v30.8c0 .5-.5 1-1 1zM273.4 305.1h-3.7c-.5 0-1-.4-1-1v-30.8c0-.5.4-1 1-1h3.7c.5 0 1 .4 1 1v30.8c0 .5-.4 1-1 1zM310.3 274.2l-15.8 13.2 17.3 15.9c.7.6.2 1.7-.7 1.7h-5c-.6 0-1.1-.2-1.6-.6l-14.9-13.8v13.5c0 .5-.4 1-1 1h-3.7c-.5 0-1-.4-1-1v-38.4c0-.5.4-1 1-1h3.7c.5 0 1 .4 1 1v18.4l13.4-11.2c.4-.3.9-.5 1.5-.5h5c1.1.1 1.5 1.2.8 1.8zM345.3 274.2l-15.8 13.2 17.3 15.9c.7.6.2 1.7-.7 1.7h-5c-.6 0-1.1-.2-1.6-.6l-14.9-13.8v13.5c0 .5-.4 1-1 1h-3.7c-.5 0-1-.4-1-1v-38.4c0-.5.4-1 1-1h3.7c.5 0 1 .4 1 1v18.4l13.4-11.2c.4-.3.9-.5 1.5-.5h5c1.1.1 1.5 1.2.8 1.8zM191.8 266.5l-21.2 18.1 21.2 18.7c.7.6.3 1.7-.7 1.7h-5c-.6 0-1.1-.2-1.5-.6l-16.7-14.8V304c0 .5-.4 1-1 1h-3.7c-.5 0-1-.4-1-1v-38.4c0-.5.4-1 1-1h3.7c.5 0 1 .4 1 1v13.8l16.6-14.2c.4-.4.9-.5 1.5-.5h5.3c.7.1 1.2 1.2.5 1.8zM244.4 271.8c-7.6 0-14.1 5.6-14.4 12.8-.2 4.9 0 19.4 0 19.4 0 .6.5.9 1.1.9h3.4c.6 0 1.1-.3 1.1-.9 0 0-.4-14 0-19.4.3-4.1 4.3-7.3 8.7-7.3s8.4 3.2 8.7 7.3c.3 4.9 0 19.4 0 19.4 0 .6.5.9 1.1.9h3.4c.6 0 1.2-.3 1.2-.9 0 0 .2-14.6 0-19.4-.3-7.2-6.7-12.8-14.3-12.8zM409 273.3c0-.5-.4-.9-.9-.9-1.4 0-4-.1-5.7-.1-7.6 0-14.1 5.5-14.4 12.6-.2 4.8 0 19.1 0 19.1 0 .6.5 1 1.1 1h3.4c.6 0 1.1-.5 1.1-1 0 0-.4-13.8 0-19.1.3-4.1 4.2-7.2 8.7-7.2h5.7c.5 0 .9-.4.9-.8l.1-3.6zM365.5 272.3c-8.5 0-15 7.4-15 16.5s6.5 16.5 15 16.5 13.8-6.7 13.8-6.7c.4-.3.5-.8.2-1.2l-2.7-2.5c-.3-.4-.8-.5-1.2-.2 0 0-4.2 5.3-10.2 5.3-4.9 0-8.5-3.7-9.5-8.8h23.6c.5 0 .8-.3.9-.8.1-.5.1-1 .1-1.6 0-9.2-6.5-16.5-15-16.5zm-9.6 13.6c1.1-4.7 4.7-8.5 9.5-8.5s8.4 3.8 9.5 8.5h-19z"/>
  </g>
  <path fill="#F27778" d="M437.7 351.8H38.5V220.5h399.2v131.3zm-397.6-1.5h396.1V222H40.1v128.3z"/>
  <path fill="#F27778" d="M409.4 324H67.7v-74h341.7v74zm-340.2-1.5h338.7v-71H69.2v71z"/>
  <path fill="none" d="M142 254.4h37.2v16H142z"/>
  <text transform="translate(142.033 260.45)" fill="#F27778" font-family="'ProximaNova-Bold'" font-size="9.098">
    0,75 X
  </text>
  <path fill="none" d="M272.8 310.3H310v16h-37.2z"/>
  <text transform="translate(272.815 316.415)" fill="#F27778" font-family="'ProximaNova-Bold'" font-size="9.098">
    0,67 X
  </text>
  <path fill="none" d="M272.8 254.4H310v16h-37.2z"/>
  <text transform="translate(272.815 260.45)" fill="#F27778" font-family="'ProximaNova-Bold'" font-size="9.098">
    0,5 X
  </text>
  <path fill="none" d="M126.8 230.2h23v24.1h-23z"/>
  <text transform="translate(126.792 237.327)" fill="#F27778" font-family="'ProximaNova-Bold'" font-size="10.614">
    X
  </text>
  <path fill="none" d="M51.2 258.3h23v24.1h-23z"/>
  <text transform="translate(51.228 265.418)" fill="#F27778" font-family="'ProximaNova-Bold'" font-size="10.614">
    X
  </text>
  <path fill="none" d="M171.5 310.3h23v24.1h-23z"/>
  <text transform="translate(171.505 317.427)" fill="#F27778" font-family="'ProximaNova-Bold'" font-size="10.614">
    X
  </text>
  <path fill="#F27778" d="M120 222h1.5v27.5H120z"/>
  <path fill="#F27778" d="M115.8 221.3h9.9v1.5h-9.9zM115.8 248.8h9.9v1.5h-9.9zM268 251.5h1.5V264H268z"/>
  <path fill="#F27778" d="M263.8 250.7h9.9v1.5h-9.9zM263.8 263.2h9.9v1.5h-9.9zM268 305.5h1.5v16.9H268z"/>
  <path fill="#F27778" d="M263.8 304.8h9.9v1.5h-9.9zM263.8 321.7h9.9v1.5h-9.9zM40.1 267.9h27.5v1.5H40.1z"/>
  <path fill="#F27778" d="M66.8 263.7h1.5v9.9h-1.5zM39.3 263.7h1.5v9.9h-1.5z"/>
  <path fill="none" d="M419.4 258.3h23v24.1h-23z"/>
  <text transform="translate(419.425 265.418)" fill="#F27778" font-family="'ProximaNova-Bold'" font-size="10.614">
    X
  </text>
  <g>
    <path fill="#F27778" d="M409.8 267.9h26.1v1.5h-26.1z"/>
    <path fill="#F27778" d="M435.1 263.7h1.5v9.9h-1.5zM409 263.7h1.5v9.9H409z"/>
  </g>
  <g>
    <path fill="#F27778" d="M144 270.7h17.3v1.5H144z"/>
    <path fill="#F27778" d="M160.6 266.5h1.5v9.9h-1.5zM143.3 266.5h1.5v9.9h-1.5z"/>
  </g>
  <g>
    <path fill="#F27778" d="M162.9 304.1h28.4v1.5h-28.4z"/>
    <path fill="#F27778" d="M190.6 300h1.5v9.9h-1.5zM162.1 300h1.5v9.9h-1.5z"/>
  </g>
  <path fill="#F27778" d="M163.1 264.3h245.5v.9H163.1zM163.1 304.8h245.5v.9H163.1z"/>
  <path fill="#0C80B9" d="M136.6 52.9h-.3c-16.2 0-25.8 12.9-30 18.8C102.1 68.5 95 63 86.8 63 72.5 63 60.2 74 60 87.3c0 11.8 6.7 23.3 10.7 29.1 1 1.5 10.2 14.5 15.9 14.5 1 0 4.2 0 11.4-10.5 2.7-3.9 7.5-11.7 8.5-19.4 1.2-9-3.1-15.6-11.9-18.1-.2 0-.3-.1-.5-.1-1.6-2.6-4.5-4.3-7.8-4.3-5 0-9.1 4.6-9.1 9.7 0 5 4.1 9.6 9.1 9.6 3.7 0 6.8-2.7 8.3-5.9 3 1.4 3.8 3.2 4 4.9 1.2 8.2-8.2 21.5-12.3 25.5-4.9-4-18.3-20.5-18.3-35.1.1-8.9 8.7-16.5 18.8-16.5 6 0 12 4.7 15.3 7.2 2.2 1.7 3.2 2.5 4.9 2.5 2.5 0 3.7-1.1 5.8-4 3.7-5.2 11.3-15.5 23.5-15.5h.2c16.3 0 26.9 8.8 26.9 23.4 0 24-46 60.6-56 66.3-2.6-2.5-8.2-9.9-11.1-13.7-1.3-1.8-3.9-2.2-5.6-.8-1.8 1.3-2.1 3.8-.7 5.6 11.1 14.4 13.8 17.1 17.1 17.1 4.7 0 23.4-15.3 34.3-25.7 13.7-13.2 30.1-31.9 30.1-48.7 0-16-10.8-31.5-34.9-31.5zM86.2 90.8l-.2 3v-3c-2 0-2.8-1.4-2.8-3.1 0-1.7 1.5-3.1 3.2-3.1 1.7 0 3 1.4 3 3.1 0 1.7-1.5 3.1-3.2 3.1z"/>
  <g>
    <path fill="#0C80B9" d="M371.2 48.1h-.3c-16.5 0-26.3 13.8-30.5 19.8-4.2-3.3-11.5-8.5-19.9-8.5-14.6 0-27 11.4-27.2 24.9 0 12.1 6.8 23.8 10.9 29.7 1 1.5 10.4 14.8 16.2 14.8 1.1 0 4.3 0 11.6-10.7 2.8-4 7.6-11.9 8.7-19.7 1.3-9.2-3.1-15.9-12.1-18.4-.2 0-.4-.1-.5-.1-1.6-2.6-4.6-4.4-7.9-4.4-5.1 0-9.3 4.2-9.3 9.3 0 5.1 4.2 9.3 9.3 9.3 2.5 0 4.8-1 6.6-2.7.8-.8 1.4-1.7 1.9-2.7 3.1 1.5 3.8 3.5 4.1 5.2 1.2 8.4-8.3 22-12.5 26.1-5-4.1-18.7-20.8-18.7-35.7.1-9.1 8.9-16.8 19.1-16.8 6.1 0 12.3 4.8 15.6 7.4 2.2 1.7 3.3 2.5 5 2.5 2.5 0 3.8-1.8 5.9-4.7 3.8-5.3 11.5-16.4 23.9-16.4h.2c16.6 0 27.4 9.6 27.4 24.5 0 24.4-46.8 62-57.1 67.8-2.7-2.6-8.4-10-11.3-13.8-1.4-1.8-3.9-2.1-5.7-.7-1.8 1.4-2.1 3.9-.7 5.7 11.3 14.7 14 17.4 17.4 17.4 4.7 0 23.9-15.5 34.9-26.2 14-13.5 30.6-33.1 30.6-50.2-.1-16.3-11.1-32.7-35.6-32.7zM322.3 87c-.6.6-1.4.9-2.2.9V91v-3.1c-1.7 0-3.1-1.4-3.1-3.1 0-1.7 1.4-3.1 3.1-3.1 1.7 0 3.1 1.4 3.1 3.1 0 .8-.3 1.6-.9 2.2z"/>
    <path fill="#F27778" d="M292.4 11.3h.4v188.8h-.4zM407.4 11.3h.4v188.8h-.4zM378.5 11.3h.4v188.8h-.4z"/>
    <path fill="#F27778" d="M407.4 11.3h.4v188.8h-.4zM349.5 11.3h.4v188.8h-.4zM378.5 11.3h.4v188.8h-.4zM320.6 11.3h.4v188.8h-.4z"/>
    <path fill="#F27778" d="M349.5 11.3h.4v188.8h-.4z"/>
    <path fill="#F27778" d="M256 47.3h188.8v.4H256zM256 162.3h188.8v.4H256zM256 133.4h188.8v.4H256z"/>
    <path fill="#F27778" d="M256 162.3h188.8v.4H256zM256 104.4h188.8v.4H256zM256 133.4h188.8v.4H256zM256 75.5h188.8v.4H256z"/>
    <path fill="#F27778" d="M256 104.4h188.8v.4H256z"/>
    <path fill="none" d="M274.6 112.2h24v25.2h-24z"/>
    <text transform="translate(274.55 119.61)" fill="#F27778" font-family="'ProximaNova-Bold'" font-size="11.105">
      X
    </text>
    <path fill="#F27778" d="M264.5 122.2h27.3v1.6h-27.3z"/>
    <path fill="#F27778" d="M291 117.8h1.6v10.3H291zM263.7 117.8h1.6v10.3h-1.6z"/>
    <path fill="none" d="M417.7 112.2h24v25.2h-24z"/>
    <text transform="translate(417.678 119.61)" fill="#F27778" font-family="'ProximaNova-Bold'" font-size="11.105">
      X
    </text>
    <path fill="#F27778" d="M408.4 122.2h27.3v1.6h-27.3z"/>
    <path fill="#F27778" d="M434.9 117.8h1.6v10.3h-1.6zM407.6 117.8h1.6v10.3h-1.6zM341.87 162.334l-1.598-.04.263-10.298 1.6.04z"/>
    <path fill="#F27778" d="M338.94 151.985l1.6.04-.264 10.297-1.6-.04z"/>
    <path fill="#F27778" d="M437.1 191.8h-174V18.1h174v173.7zm-172.4-1.6h170.8V19.7H264.7v170.5z"/>
    <path fill="#F27778" d="M406.8 48.4v113.2H293.5V48.4h113.3m1.6-1.6H291.9V163.2H408.4V46.8z"/>
    <path fill="none" d="M304.4 74.9h24v25.2h-24z"/>
    <text transform="translate(304.428 82.327)" fill="#F27778" font-family="'ProximaNova-Bold'" font-size="11.105">
      X
    </text>
    <g>
      <path fill="#F27778" d="M292.9 86.8h27.3v1.6h-27.3z"/>
      <path fill="#F27778" d="M319.5 82.4h1.6v10.3h-1.6zM292.1 82.4h1.6v10.3h-1.6z"/>
    </g>
  </g>
</svg>