<svg viewBox="0 0 288 288" xmlns="http://www.w3.org/2000/svg">
  <defs>
    <filter x="-2.7%" y="-2.7%" width="107.6%" height="107.6%" filterUnits="objectBoundingBox" id="a">
      <feOffset dx="3" dy="3" in="SourceAlpha" result="shadowOffsetOuter1"/>
      <feGaussianBlur stdDeviation="3" in="shadowOffsetOuter1" result="shadowBlurOuter1"/>
      <feColorMatrix values="0 0 0 0 0.543951956 0 0 0 0 0.543951956 0 0 0 0 0.543951956 0 0 0 0.5 0" in="shadowBlurOuter1" result="shadowMatrixOuter1"/>
      <feMerge>
        <feMergeNode in="shadowMatrixOuter1"/>
        <feMergeNode in="SourceGraphic"/>
      </feMerge>
    </filter>
    <linearGradient x1="0%" y1="0%" x2="98.4674%" y2="98.4674%" id="b">
      <stop stop-color="#4CC1AA" offset="0%"/>
      <stop stop-color="#1D97A9" offset="100%"/>
    </linearGradient>
  </defs>
  <g filter="url(#a)" transform="translate(3 3)" fill="none" fill-rule="evenodd">
    <rect fill="url(#b)" width="276" height="276" rx="51"/>
    <path d="M213.1526 105.4292c-5.407 0-10.485 1.4716-14.869 4.01-11.8366-12.4717-24.3674-21.191-34.9254-27.114.5845-2.2443.9133-4.562.9133-6.9902 0-15.084-12.1655-27.335-27.144-27.335C122.149 48 110.02 60.251 110.02 75.3718c0 1.6555.1827 3.2743.4385 4.8563-15.9284 7.248-30.286 16.703-40.369 24.098-3.288-2.722-7.4892-4.378-12.0924-4.378C47.513 99.948 39 108.52 39 119.079c0 10.5587 8.5126 19.1308 18.997 19.1308 10.485 0 18.9977-8.572 18.9977-19.1307 0-2.943-.6942-5.739-1.8632-8.241 9.6083-7.027 23.1985-15.93 37.9944-22.773 4.53 8.72 13.59 14.643 24.038 14.643 9.644 0 18.084-5.077 22.906-12.692 9.644 5.482 20.97 13.429 31.71 24.539-5.224 5.408-8.476 12.803-8.476 20.971 0 16.593 13.371 30.058 29.847 30.058 16.478-.002 29.849-13.467 29.849-30.059s-13.371-30.094-29.8477-30.094zM75.3138 213.8126c-1.9363 1.6556-4.0917 2.9432-6.503 3.863-2.411.883-4.8953 1.3244-7.4526 1.3244-1.9728 0-3.8725-.2575-5.6992-.7726-1.8266-.515-3.5437-1.251-5.1146-2.2074-1.571-.9565-3.0322-2.0602-4.3474-3.3847-1.3152-1.3244-2.4477-2.796-3.361-4.378-.95-1.6187-1.644-3.311-2.192-5.1506-.5115-1.8395-.7672-3.7526-.7672-5.7392 0-1.9867.2557-3.8998.7672-5.7393.5114-1.8395 1.242-3.5686 2.192-5.1874.9498-1.6187 2.0458-3.0535 3.361-4.378 1.3152-1.3244 2.7765-2.465 4.3474-3.3847 1.571-.919 3.288-1.655 5.1146-2.207 1.8267-.552 3.7264-.772 5.6992-.772 2.5573 0 5.0415.442 7.4527 1.325 2.411.883 4.566 2.171 6.502 3.863l-4.421 7.285c-1.206-1.324-2.667-2.354-4.311-3.053-1.644-.699-3.398-1.067-5.224-1.067-1.827 0-3.544.368-5.152 1.067s-2.996 1.656-4.202 2.833c-1.206 1.214-2.156 2.612-2.85 4.231-.694 1.619-1.0597 3.348-1.0597 5.188 0 1.8395.3652 3.5318 1.0594 5.1506.694 1.619 1.644 3.017 2.8494 4.231s2.594 2.1707 4.201 2.8697c1.6074.699 3.3244 1.067 5.151 1.067 1.8267 0 3.5438-.368 5.2243-1.067 1.6803-.699 3.105-1.729 4.311-3.0536l4.4202 7.2475zm32.916-11.6256c0 2.3177-.4017 4.525-1.242 6.5118-.8402 2.0234-1.9728 3.7526-3.3975 5.2242-1.4248 1.4716-3.1053 2.612-5.0416 3.4582-1.9362.8462-3.982 1.2877-6.174 1.2877s-4.238-.442-6.174-1.288c-1.9364-.846-3.617-1.987-5.0417-3.458-1.4248-1.472-2.5573-3.201-3.3975-5.225-.8403-2.024-1.2422-4.194-1.2422-6.512 0-2.392.402-4.562 1.2422-6.586s1.9727-3.753 3.3975-5.224 3.1053-2.612 5.0416-3.459c1.9362-.846 3.982-1.251 6.174-1.251s4.2744.404 6.174 1.177c1.9364.772 3.617 1.913 5.0417 3.348 1.4247 1.434 2.5573 3.2 3.3975 5.224.8403 2.023 1.242 4.304 1.242 6.769zm-8.0006 0c0-1.2877-.2192-2.465-.621-3.495-.402-1.0302-.9864-1.95-1.6805-2.6858-.7307-.7358-1.5344-1.3244-2.5208-1.729-.987-.4048-1.973-.5887-3.069-.5887-1.096 0-2.119.184-3.069.5886-.95.405-1.79.957-2.484 1.73s-1.279 1.656-1.681 2.686c-.402 1.03-.621 2.208-.621 3.495 0 1.214.219 2.318.621 3.348.402 1.03.95 1.913 1.68 2.686.731.773 1.534 1.362 2.484 1.803.95.442 1.973.663 3.069.663 1.096 0 2.119-.221 3.069-.625.949-.4046 1.79-.9932 2.52-1.729.73-.736 1.278-1.619 1.68-2.6857.402-1.067.621-2.1706.621-3.4582zm20.349 15.93h-8.0008v-43.7065h7.964v43.7065h.0367zm13.992 0h-7.9642v-43.7065h7.9642v43.7065zm36.0946 0h-7.9642v-1.6555s-1.1325.699-2.046 1.1405c-.9132.4415-1.863.7726-2.8494 1.03-.9864.2576-1.9728.368-2.9592.368-2.192 0-4.2378-.368-6.174-1.1037-1.9363-.7358-3.6168-1.8027-5.0416-3.2375-1.4248-1.398-2.5573-3.1272-3.3976-5.1874-.8402-2.0603-1.242-4.378-1.242-6.99 0-2.4283.4017-4.6724 1.242-6.696.8403-2.0234 1.9728-3.7893 3.3976-5.224 1.4248-1.4717 3.1053-2.5754 5.0415-3.3848 1.936-.8093 3.982-1.214 6.174-1.214 1.023 0 2.009.1103 2.995.368.986.2574 1.936.5885 2.886 1.0668.913.4415 2.046 1.1037 2.046 1.1037v-2.17h7.891v31.787zm-8.0008-15.599c0-1.1036-.2192-2.1337-.621-3.164-.402-1.03-.9864-1.913-1.6805-2.7223-.7307-.7726-1.5344-1.4348-2.5208-1.913-.9864-.4784-1.9728-.699-3.0688-.699-1.096 0-2.119.1838-3.069.5517-.95.368-1.79.9198-2.485 1.6188-.694.699-1.279 1.6188-1.681 2.6857-.402 1.066-.621 2.28-.621 3.642 0 1.361.219 2.575.621 3.642.402 1.067.95 1.95 1.68 2.685.73.735 1.534 1.25 2.484 1.618.949.368 1.972.552 3.068.552s2.119-.221 3.068-.699c.95-.479 1.79-1.104 2.521-1.913.7306-.773 1.2786-1.693 1.6805-2.723.4017-1.03.621-2.061.621-3.164zm45.0817-.331c0 2.465-.402 4.6723-1.242 6.6957-.8404 2.0235-1.973 3.7526-3.3977 5.2242-1.4248 1.471-3.1053 2.575-5.0415 3.384-1.9363.809-3.982 1.214-6.174 1.214s-4.238-.405-6.1742-1.214c-1.9362-.81-3.6167-1.95-5.0415-3.422-1.4248-1.472-2.5573-3.201-3.3976-5.224-.8402-2.024-1.242-4.231-1.242-6.659V174.41h7.9276v14.6057c.4383-.5516.9498-1.03 1.5343-1.4714.622-.4414 1.279-.7726 1.973-1.067.694-.2574 1.425-.478 2.192-.6253.767-.147 1.498-.2206 2.192-.2206 2.192 0 4.275.4046 6.174 1.2508 1.937.8094 3.617 1.9867 5.042 3.4583 1.425 1.4716 2.558 3.2375 3.398 5.2242.877 2.0232 1.279 4.2306 1.279 6.622zm-7.9642 0c0-1.214-.2192-2.3178-.621-3.3847-.402-1.067-.9864-1.95-1.6806-2.6857-.731-.7726-1.535-1.3612-2.521-1.766-.95-.4414-1.973-.6253-3.069-.6253-1.096 0-2.119.2207-3.069.699-.95.4782-1.79 1.1037-2.521 1.913-.731.7726-1.279 1.6924-1.681 2.7225-.402 1.03-.621 2.0603-.621 3.164 0 1.214.219 2.3177.621 3.3478.402 1.0302.95 1.913 1.68 2.6857.73.7726 1.534 1.3612 2.52 1.8027s1.972.6622 3.068.6622 2.119-.2207 3.069-.6622c.95-.4415 1.79-1.03 2.5206-1.8027.731-.7726 1.279-1.6555 1.6807-2.6857.402-1.03.621-2.1706.621-3.3846zm42.3417 0c0 2.3177-.402 4.525-1.242 6.5118-.8404 2.0234-1.973 3.7526-3.3977 5.2242-1.4248 1.4716-3.1053 2.612-5.0415 3.4582-1.9363.8462-3.982 1.2877-6.174 1.2877s-4.238-.442-6.1742-1.288c-1.9362-.846-3.6167-1.987-5.0415-3.458-1.4248-1.472-2.5573-3.201-3.3976-5.225-.8402-2.024-1.242-4.194-1.242-6.512 0-2.392.4018-4.562 1.242-6.586.8403-2.024 1.9728-3.753 3.3976-5.224s3.1053-2.612 5.0415-3.459c1.9363-.846 3.982-1.251 6.174-1.251s4.2745.404 6.1742 1.177c1.8997.772 3.6167 1.913 5.0415 3.348 1.4248 1.434 2.5573 3.2 3.3976 5.224.841 2.023 1.243 4.304 1.243 6.769zm-7.9642 0c0-1.2877-.2192-2.465-.621-3.495-.402-1.0302-.9864-1.95-1.6806-2.6858-.694-.7358-1.5343-1.3244-2.5207-1.729-.9864-.4048-1.9728-.5887-3.0688-.5887-1.096 0-2.119.184-3.069.5886-.95.405-1.79.957-2.484 1.73-.695.736-1.279 1.656-1.681 2.686-.402 1.03-.621 2.208-.621 3.495 0 1.214.219 2.318.621 3.348.402 1.03.95 1.913 1.68 2.686.694.773 1.534 1.362 2.484 1.803.95.442 1.973.663 3.069.663 1.096 0 2.119-.221 3.068-.625.95-.4046 1.79-.9932 2.52-1.729.73-.736 1.278-1.619 1.68-2.6857.402-1.03.621-2.1706.621-3.4582z" fill="#FFF" fill-rule="nonzero"/>
  </g>
</svg>