<?xml version="1.0" encoding="utf-8"?>
<!-- Generator: Adobe Illustrator 18.0.0, SVG Export Plug-In . SVG Version: 6.00 Build 0)  -->
<!DOCTYPE svg PUBLIC "-//W3C//DTD SVG 1.1//EN" "http://www.w3.org/Graphics/SVG/1.1/DTD/svg11.dtd">
<svg version="1.1" id="Layer_1" xmlns="http://www.w3.org/2000/svg" xmlns:xlink="http://www.w3.org/1999/xlink" x="0px" y="0px"
	 viewBox="0 0 780 294" enable-background="new 0 0 780 294" xml:space="preserve">
<title>Group 2</title>
<desc>Created with Sketch.</desc>
<g id="collabo_logo_notext" transform="translate(214.000000, 70.000000)">
	<path fill="#F2F4F8" d="M339.3,223.7c-33.5,0-60.7-27.2-60.7-60.7c0-15.1,5.5-29.4,15.5-40.6c-17-17.1-36.3-32-57.5-44.2
		c-10.4,14.9-27.2,23.8-45.4,23.8c-19.9,0-38-10.5-47.9-27.5C115,87.7,90,104.1,73.4,116.1c2,4.8,3.1,9.9,3.1,15.2
		c0,21.8-17.7,39.5-39.5,39.5s-39.5-17.7-39.5-39.5S15.2,91.8,37,91.8c8.5,0,16.8,2.8,23.6,7.9c18.2-13.1,45.5-31,75.8-44.9
		c-0.4-2.6-0.6-5.2-0.6-7.9c0-30.5,24.9-55.3,55.4-55.3s55.4,24.9,55.4,55.4c0,4-0.5,8-1.4,12.2c24.4,13.8,46.5,30.8,65.6,50.5
		c9-4.8,18.6-7.2,28.5-7.2c33.5,0,60.7,27.1,60.7,60.5C400,196.5,372.8,223.7,339.3,223.7z M235,71.6l2.1,1.2
		c23.2,13.1,44.1,29.2,62.4,47.9l1.7,1.7l-1.7,1.7c-10.2,10.5-15.8,24.3-15.8,38.9c0,30.7,25,55.7,55.7,55.7s55.7-25,55.7-55.7
		c0-30.6-25-55.5-55.7-55.5c-9.7,0-19.1,2.5-27.8,7.5l-1.7,1l-1.3-1.4c-19.5-20.4-42.2-37.9-67.4-51.9l-1.7-0.9l0.5-1.9
		c1.2-4.5,1.7-8.7,1.7-12.9c0-27.8-22.6-50.4-50.4-50.4c-27.8,0-50.4,22.6-50.4,50.3c0,3.1,0.3,6.1,0.9,8.9l0.4,2l-1.8,0.8
		c-31.5,14.2-60,33.1-78.3,46.3l-1.6,1.1l-1.5-1.2c-6.2-5.1-14-7.9-21.9-7.9c-19,0-34.5,15.5-34.5,34.5S18,165.8,37,165.8
		s34.5-15.5,34.5-34.5c0-5.2-1.2-10.2-3.4-14.9l-0.9-1.9l1.7-1.2c17.2-12.5,44-30.3,74.5-44.3l2.2-1l1.1,2.1
		c8.7,16.6,25.8,27,44.6,27c17.3,0,33.2-8.8,42.5-23.4L235,71.6z"/>
</g>
<g enable-background="new    ">
	<path fill="#9EEADE" d="M384.6,3.4c-0.1,0-0.2,0.2-0.3,0.4c-0.2,0.2-0.3,0.3-0.4,0.3c-0.8,0-3.5,0.3-7.9,0.9c0,0.3,0,0.6,0.1,0.9
		c-0.1-0.1-0.4,0-0.8,0.1c-0.1-0.1-0.2-0.2-0.4-0.3c-0.2-0.1-0.3-0.1-0.4-0.1c-0.3,0-0.6,0.7-0.8,2.2c-0.1,1-0.2,1.7-0.2,2.2
		c0,0.2,0.2,1.3,0.6,3.4c0.3,0.2,0.5,0.3,0.6,0.4c0.1,0.3,0.1,0.7,0.3,1.2c0,0-0.2,0.1-0.4,0.3c-0.2,0.1-0.3,0.2-0.4,0.2
		c-0.9,0-1.5-1.1-1.9-3.3c-0.2-1.3-0.4-2.5-0.4-3.6c0-0.1,0-0.2,0.1-0.4c0.1-0.2,0.1-0.4,0.1-0.5c0-0.1,0-0.2-0.1-0.6
		c0.1-0.1,0.2-0.3,0.3-0.6V5.7c-0.3,0-0.9,0.1-1.8,0.2c-0.9,0.2-1.4,0.3-1.5,0.3c-0.5,0-0.9-0.1-1.3-0.4c-0.5-0.3-0.8-0.7-0.8-1.1
		c0-0.3,0.1-0.5,0.3-0.6c0.4,0,1,0,1.8,0c0.9-0.1,1.3-0.1,1.2-0.1c0.1,0,0.2,0,0.3,0.1c0.2,0.1,0.3,0.1,0.3,0.1s0.2-0.1,0.4-0.2
		c0.2-0.1,0.3-0.2,0.4-0.2c1.7-0.3,3.2-0.4,4.7-0.6c1.1-0.1,2.8-0.2,4.9-0.2c0.1,0,0.2,0,0.3-0.1c0.1-0.1,0.2-0.1,0.3-0.1
		c-0.1,0,0.1,0,0.5,0.1s1.1,0,2,0c0.1,0,0.1,0.1,0.2,0.3C384.5,3.2,384.6,3.3,384.6,3.4z"/>
	<path fill="#9EEADE" d="M396,3c0,0.2-0.2,0.9-0.5,2c-0.3,1-0.5,1.7-0.6,1.9c-0.1,0.3-0.3,1-0.4,2c-0.2,0.5-0.3,1.1-0.5,1.6
		c-0.3,1.1-0.5,2-0.5,2.5c0,0.3,0.2,0.6,0.5,0.9c0,0.1,0,0.2,0,0.2c0,0.2-0.1,0.4-0.4,0.6c-0.3,0.2-0.5,0.3-0.6,0.3
		c-0.5,0-0.9-0.2-1.1-0.7c-0.2-0.4-0.3-0.8-0.3-1.3c0-0.4,0.3-2.1,1-5.2c0-0.1,0-0.2,0-0.3c-0.8,0.6-2,1.1-3.5,1.6
		c-2,0.7-3.1,1.1-3.2,1.2c-0.3,0.6-0.6,1.3-0.9,1.9c-0.5,0.9-1,1.4-1.7,1.4c-0.1,0-0.3-0.1-0.4-0.3c-0.1-0.2-0.2-0.4-0.2-0.4
		c0-0.7,0.1-1.2,0.2-1.5c0.1-0.4,0.2-0.7,0.2-0.9c0-0.1,0-0.3-0.1-0.3c-0.1-0.1-0.1-0.1-0.1-0.2c0-0.1,0.1-0.4,0.3-0.8
		c0.2-0.4,0.3-0.6,0.4-0.6c0.2,0,0.5,0,0.8,0.1c0.2-0.8,0.4-1.9,0.6-3.3c0-0.1,0-0.2,0.1-0.5c0.1-0.2,0.1-0.4,0.1-0.6
		c0-1.1,0-1.8,0.1-2c0.1-0.3,0.3-0.4,0.6-0.4c0.1,0,0.3,0.2,0.6,0.5s0.5,0.5,0.5,0.6c0,0.1,0,0.5,0,1c0,0.1,0,0.4-0.1,1
		c-0.1,0.8-0.2,1.8-0.5,2.9v0.2c0,0,0.1,0.1,0.2,0.1c0.2,0,0.9-0.2,2-0.5c1.1-0.4,1.7-0.6,2-0.8c0.8-0.5,1.6-1.2,2.3-2.1
		c0.9-1.1,1.4-2,1.3-2.7c0.3-0.2,0.6-0.3,0.7-0.3c0.3,0,0.5,0.1,0.8,0.3C395.9,2.6,396,2.8,396,3z"/>
	<path fill="#9EEADE" d="M410.1,2.8c0,0.3-0.1,0.4-0.4,0.5c-0.3,0.1-0.5,0.2-0.8,0.3c-0.6,0.4-1.2,0.7-1.7,0.9
		c-0.3,0.1-0.7,0.2-1,0.3c-0.5,0.2-1.5,0.6-3,1.1c-2,0.7-3.1,1-3.4,1c-0.1,0-0.1,0-0.2-0.1c-0.1-0.1-0.1-0.1-0.2-0.1
		c-0.1,0-0.3,0.3-0.5,1c-0.1,0.5-0.2,0.9-0.3,1.2c0.7,0.3,1,0.5,1,0.5c0.1,0,0.3,0,0.8-0.1c0.5-0.1,0.7-0.1,0.8-0.1
		c0.1,0,0.1,0,0.2,0.1c0,0.1,0,0.1,0.1,0.1c0.3-0.2,0.8-0.4,1.4-0.6c0.4-0.1,0.9-0.2,1.3-0.4c0.2-0.1,0.4-0.3,0.6-0.4
		c0.3-0.3,0.6-0.4,0.8-0.4c0.3,0,0.4,0.1,0.4,0.4c0,0.3,0.1,0.4,0.3,0.4c-0.2,0.2-0.5,0.5-0.9,0.8c0.1,0.3,0.3,0.4,0.6,0.4
		c0,0.1,0,0.1-0.1,0.2c0.1,0.1,0.2,0.1,0.4,0c0,0.1,0,0.1,0,0.2c0,0.1,0,0.2,0,0.3c0,0.1-0.3,0.4-0.8,0.8c-0.5,0.5-0.9,0.8-1.2,0.9
		c-0.3,0.6-1,1.1-2.1,1.5c-1,0.4-2,0.7-2.8,0.7c-0.7,0-1.4-0.3-2.1-1s-1-1.4-1-2.1c0-0.6,0.1-1.3,0.4-2.2c0.4-1.1,0.6-1.9,0.6-2.2
		c0,0,0.1-1,0.4-2.8c0.2-0.2,0.5-0.3,0.7-0.3c0.1,0,0.2,0,0.5,0.1c0.3,0.1,0.5,0.2,0.6,0.2c0,0.1,0,0.2,0.1,0.4
		c0.1,0.2,0.1,0.4,0.1,0.5C399.9,4.9,400,5,400,5c0.2,0,1.1-0.3,2.6-0.8c1.5-0.5,2.3-0.8,2.4-0.8c0.1,0,0.1,0,0.1,0c0,0,0,0,0.1,0
		s0.1,0,0.2-0.1c0-0.1,0.1-0.1,0.1-0.1c0.2-0.1,0.6-0.2,1.3-0.4c0.6-0.2,0.9-0.3,0.9-0.3c0.1,0,0.1,0,0.2,0.1
		c0.1,0.1,0.2,0.1,0.2,0.1s0.1,0,0.1-0.1c0-0.1,0-0.1,0.1-0.1s0.2,0,0.3-0.1c0.1-0.1,0.2-0.1,0.3-0.1c0.1,0,0.3,0.1,0.5,0.2
		c0.3,0.1,0.4,0.2,0.4,0.2C410,2.8,410.1,2.8,410.1,2.8z M404.6,9.9c-0.4-0.1-0.7,0.1-0.9,0.4c0,0,0-0.1,0-0.1c0,0,0-0.1-0.1-0.1
		c0,0-0.4,0.1-1.2,0.4c-0.9,0.3-1.4,0.4-1.6,0.4h-0.9c-0.1,0-0.2,0-0.4-0.1c-0.2-0.1-0.4-0.1-0.5-0.1c-0.2,0-0.3,0.1-0.4,0.2
		c0,0,0-0.1-0.1-0.1c0-0.1-0.1-0.1-0.1-0.1c0,0,0,0,0,0.1c0,0,0,0.1,0,0.2c0,0.3,0.1,0.6,0.2,0.9c0.2,0.5,0.5,0.7,0.7,0.7
		c0.1,0,0.2,0,0.4,0c0.2,0,0.4,0,0.4,0c0.1,0,0.2-0.1,0.5-0.2c0.3-0.2,0.6-0.3,0.6-0.3C402.4,11.6,403.5,10.9,404.6,9.9z"/>
	<path fill="#9EEADE" d="M430.8,4.5c0,1.1-0.7,2.1-2,3.2c-1.1,0.9-2.1,1.4-3,1.5c-0.1,0-0.2,0.1-0.3,0.2s-0.2,0.2-0.3,0.2
		c-0.4,0.1-0.8,0.2-1.1,0.2c-0.1,0-0.1,0-0.1-0.1h-0.1c-0.1,0-0.1,0-0.2,0.1c-0.1,0.1-0.1,0.1-0.2,0.1c-0.1,0-0.2,0-0.2-0.1
		s0-0.1,0-0.2c0,0.1-0.1,0.1-0.1,0.2c-0.1,0-0.4,0.1-0.7,0.2s-0.5,0.2-0.6,0.2s-0.1,0-0.1,0c0,0-0.1,0-0.1,0c-0.1,0-0.2,0-0.4,0.1
		c-0.3,0.1-0.4,0.1-0.5,0.2c-0.1,0.4-0.5,1.4-1.2,2.9c-0.8,1.8-1.4,2.7-1.8,2.7c-0.2,0-0.5-0.2-0.8-0.5c0-0.2,0.4-1.1,1.1-2.6
		c0.7-1.5,1-2.2,1-2.4c0-0.2-0.1-0.3-0.3-0.3c-0.1,0-0.2,0-0.4,0c-0.2,0-0.3,0-0.3,0c-0.1,0-0.3-0.2-0.5-0.5
		c-0.2-0.4-0.3-0.6-0.3-0.7c0-0.2,0.1-0.4,0.4-0.5c0.2-0.1,0.5-0.2,0.7-0.2c0.4,0.1,0.9,0.1,1.3,0.1c0.2-0.4,0.3-1.1,0.1-2
		c-0.1-0.7-0.1-1-0.1-0.9c0-0.8,0-1.2,0.1-1.4c0.3-0.5,0.7-1,1.3-1.6c0.5-0.5,0.9-0.8,1-0.8c0.1,0,0.1,0,0.2,0
		c0.1,0,0.1,0.1,0.2,0.1c-0.1,0,0.4-0.2,1.6-0.6c1.2-0.4,2.2-0.6,3.1-0.6c1,0,1.9,0.4,2.7,1.3C430.4,2.8,430.8,3.6,430.8,4.5z
		 M428.9,4.2c0-1-0.6-1.4-1.8-1.4c-0.1,0-0.4,0.1-1,0.2c-0.7,0.1-1.2,0.2-1.5,0.2c0,0.2-0.3,0.4-0.7,0.6c-0.5,0.2-0.8,0.3-0.8,0.4
		c-0.7,1.2-1,2-1,2.5c0,0.5-0.1,1-0.2,1.5c0,0.1,0.1,0.1,0.2,0.2h0.3c0.1,0,0.2,0,0.3,0s0.2,0,0.3,0c0.8,0,1.9-0.4,3.4-1.2
		C428,6,428.9,5.1,428.9,4.2z"/>
	<path fill="#9EEADE" d="M443.3,13.6c0,0.3-0.3,0.6-1,0.8c-0.5,0.2-0.9,0.3-1.1,0.3c-0.1,0-0.1,0-0.1,0c0,0-0.1,0-0.1,0
		c-0.3,0.2-0.6,0.4-0.9,0.4c-2.2,0.2-3.5,0.4-3.8,0.4c-0.1,0-0.7,0-2-0.1c-1.3-0.1-2-0.1-2-0.1c-0.1,0-0.2,0-0.5-0.1
		c-0.3-0.1-0.4-0.1-0.5-0.1c-0.1,0-0.1,0-0.1,0c0,0,0,0-0.1,0c-0.2,0-0.4-0.2-0.7-0.7c-0.2-0.4-0.3-0.6-0.3-0.7
		c0-0.1,0.2-0.4,0.5-0.9c0.4-0.7,0.7-1.1,0.8-1.5c1.1-2.5,1.7-4.2,2-5c0.3-0.8,0.5-1.7,0.8-2.5c0.1-0.3,0.3-0.6,0.4-1
		c0.3-0.5,0.5-0.8,0.8-0.8c0.1,0,0.2,0.1,0.5,0.3c0.4,0.3,0.5,0.4,0.6,0.5c0,0.6-0.4,2-1.3,4.2c-0.4,1.1-0.9,2.1-1.3,3.2
		c-0.6,1.4-1.1,2.5-1.6,3.4c0.1,0.1,0.2,0.1,0.2,0.1s0.3,0,0.7,0.1c0.4,0.1,0.6,0.1,0.6,0.1c0.2,0,1.1-0.1,2.6-0.2
		c1.8-0.1,3.2-0.2,4.1-0.3c1.4-0.2,2-0.2,1.8-0.2C443,13,443.3,13.2,443.3,13.6z"/>
	<path fill="#9EEADE" d="M458,7.1c0,0.4-0.9,0.8-2.6,1.4c-1.7,0.6-2.6,1-2.6,1.2c0,0.1,0.1,0.2,0.2,0.4c0.1,0.3,0.2,0.5,0.3,0.8
		c0.1,0.3,0.2,0.6,0.3,0.8c0.7,1.6,1.2,2.8,1.5,3.6v0.6c-0.2,0.2-0.4,0.3-0.7,0.3c-0.3,0-0.7-0.3-0.9-0.8c-0.2-0.4-0.7-1.4-1.3-3.1
		c-0.5-1.5-0.8-2.3-0.9-2.3c-0.2,0-0.8,0.2-1.7,0.5c-0.9,0.3-1.5,0.5-1.6,0.6c0,0-0.2,0-0.5,0c-0.2,0-0.4,0.1-0.5,0.3
		c-0.1,0.5-0.3,1-0.4,1.5c-0.2,0.6-0.6,0.9-1,0.9c-0.3,0-0.6-0.2-0.8-0.5c-0.1-0.1-0.1-0.4-0.3-0.8c0.3-0.2,0.5-0.5,0.5-0.8
		c0-0.1,0-0.2,0-0.2c-0.2,0-0.4,0-0.7,0c-0.3,0-0.6,0-0.7,0c-0.2-0.6-0.2-0.8-0.2-0.8c0-0.2,0.1-0.4,0.4-0.6
		c0.3-0.2,0.5-0.3,0.6-0.3c0.1,0,0.1,0,0.1,0c0,0,0.1,0,0.1,0c0.1,0,0.4,0,0.6-0.1c0.3-0.1,0.6-0.2,0.7-0.3c0.2-0.3,0.4-0.9,0.6-1.9
		c0.1-0.7,0.2-1.3,0.3-2c0.1-0.8,0.3-2,0.6-3.6c0-0.3,0.1-0.9,0.2-1.6c0.2-0.3,0.5-0.4,0.8-0.4s0.5,0.1,0.7,0.2
		c0.2,0.2,0.4,0.7,0.8,1.5c0.3,0.7,0.6,1.1,0.8,1.1c0.4,1,0.8,2.5,1.5,4.5c0.1,0.2,0.2,0.4,0.3,0.4l4.3-1.4c0.2,0,0.5,0.1,0.7,0.1
		C457.8,6.6,458,6.8,458,7.1z M450.9,8.2c-0.3-0.8-0.5-1.6-0.8-2.4c-0.4-1.1-0.7-1.8-1.1-2.1c-0.1,0.4-0.2,0.9-0.3,1.6
		c-0.1,0.4-0.1,0.9-0.1,1.3c0,0.2-0.1,0.6-0.3,1.3c-0.1,0.6-0.2,0.9-0.2,0.9v0.2h0.3C449,8.9,449.8,8.6,450.9,8.2z"/>
	<path fill="#9EEADE" d="M474,3.4c-0.1,0-0.2,0.2-0.3,0.4c-0.2,0.2-0.3,0.3-0.4,0.3c-0.8,0-3.5,0.3-7.9,0.9c0,0.3,0,0.6,0.1,0.9
		c-0.1-0.1-0.4,0-0.8,0.1c-0.1-0.1-0.2-0.2-0.4-0.3c-0.2-0.1-0.3-0.1-0.4-0.1c-0.3,0-0.6,0.7-0.8,2.2c-0.1,1-0.2,1.7-0.2,2.2
		c0,0.2,0.2,1.3,0.6,3.4c0.3,0.2,0.5,0.3,0.6,0.4c0.1,0.3,0.1,0.7,0.3,1.2c0,0-0.2,0.1-0.4,0.3c-0.2,0.1-0.3,0.2-0.4,0.2
		c-0.9,0-1.5-1.1-1.9-3.3c-0.2-1.3-0.4-2.5-0.4-3.6c0-0.1,0-0.2,0.1-0.4c0.1-0.2,0.1-0.4,0.1-0.5c0-0.1,0-0.2-0.1-0.6
		c0.1-0.1,0.2-0.3,0.3-0.6V5.7c-0.3,0-0.9,0.1-1.8,0.2c-0.9,0.2-1.4,0.3-1.5,0.3c-0.5,0-0.9-0.1-1.3-0.4c-0.5-0.3-0.8-0.7-0.8-1.1
		c0-0.3,0.1-0.5,0.3-0.6c0.4,0,1,0,1.8,0c0.9-0.1,1.3-0.1,1.2-0.1c0.1,0,0.2,0,0.3,0.1s0.3,0.1,0.3,0.1s0.2-0.1,0.4-0.2
		c0.2-0.1,0.3-0.2,0.4-0.2c1.7-0.3,3.2-0.4,4.7-0.6c1.1-0.1,2.8-0.2,4.9-0.2c0.1,0,0.2,0,0.3-0.1c0.1-0.1,0.2-0.1,0.3-0.1
		c-0.1,0,0.1,0,0.5,0.1c0.4,0,1.1,0,2,0c0.1,0,0.1,0.1,0.2,0.3S473.9,3.3,474,3.4z"/>
	<path fill="#9EEADE" d="M484.6,7.2c0,0-0.1,0.1-0.2,0.2s-0.2,0.2-0.3,0.2c-0.1,0-0.1,0-0.1-0.1h-0.1c-0.3,0-0.7,0.1-1.1,0.4
		c-0.4,0.2-1.1,0.5-2.1,0.9c-1,0.4-1.7,0.6-1.9,0.7c-0.3,0.2-0.5,0.4-0.5,0.8c0,0.1,0,0.2,0.1,0.4c0.1,0.2,0.1,0.3,0.1,0.4
		c0,0.3,0.1,0.8,0.1,1.7c0.1,0.7,0.1,1.1,0.1,1.2v0.5c-0.1,0-0.1,0-0.2,0.1c-0.1,0.1-0.2,0.1-0.2,0.1c-0.9,0-1.3-0.4-1.3-1.1
		c0-0.1,0-0.4,0-0.7c-0.1-0.5-0.2-1.1-0.4-2c-0.7,0.3-1.4,0.6-2,0.9c-1.3,0.6-2,0.9-2.2,0.9c-0.1,0-0.1,0-0.2,0c-0.1,0-0.2,0-0.3,0
		c-0.2,0-0.3-0.1-0.5-0.3c-0.2-0.2-0.3-0.4-0.3-0.6c0-0.3,0.1-0.5,0.4-0.6c1.6-0.7,2.5-1.1,2.6-1.1c0.1,0,0.1,0,0.1,0c0,0,0,0,0.1,0
		c0,0,0.7-0.4,2.1-1.2c0-0.1,0-0.4-0.1-1c0-0.4-0.1-0.7-0.4-0.9c-0.1,0-0.2,0.1-0.4,0.2c-0.2,0.2-0.3,0.2-0.4,0.2
		c-0.5,0-0.9-0.1-1.2-0.4c-0.1-0.2-0.2-0.4-0.3-0.7c0.3-0.5,0.5-0.8,0.6-0.8c0.1,0,0.1,0,0.1,0c0,0,0,0,0.1,0c0.1,0,0.3-0.1,0.7-0.4
		s0.6-0.5,0.6-0.7c0,0,0.1,0,0.1,0c0.1,0,0.1,0,0.2,0c0.5,0,1.3-0.2,2.2-0.6c0.9-0.4,1.4-0.6,1.3-0.6c0.1,0,0.1,0,0.1,0
		c0,0,0,0,0.1,0c1-0.5,1.9-0.7,2.5-0.7c0.1,0,0.4,0.2,0.8,0.5c-0.2,0.3-0.3,0.4-0.3,0.5c-0.1,0.2-0.3,0.3-0.4,0.4
		c-0.9,0.4-1.8,0.8-2.7,1.1c-1.3,0.6-2,1-2,1.3c0,0,0,0.2,0.1,0.6c0.1,0.4,0.2,0.7,0.2,0.9c0,0,0,0.1,0.1,0.1c0,0,0.3-0.1,0.8-0.3
		c0.6-0.2,1.1-0.4,1.6-0.5c1.3-0.3,2.6-0.5,3.7-0.5l0.5,0.3V7.2z"/>
	<path fill="#9EEADE" d="M500.4,6.1c0,0.9-0.6,1.9-1.9,3.2c-0.9,0.9-1.7,1.6-2.4,2.1c-0.4,0.2-0.6,0.4-0.8,0.5
		c-0.3,0.2-0.7,0.3-0.9,0.3c-0.1,0.3-0.7,0.8-1.8,1.5c-1,0.6-1.6,0.9-1.8,0.9c-0.4,0-0.8,0.1-1.2,0.2c-0.4,0.1-0.6,0.2-0.8,0.2
		c-1.1,0-2.2-0.5-3.1-1.4c0-0.1,0-0.1,0-0.2c-0.4-0.3-0.6-0.5-0.6-0.7c0-0.8,0.2-1.8,0.6-2.8c0.3-0.9,0.7-1.7,1.1-2.3
		c0.1-0.1,0.5-0.5,1.2-1.4c0.6-0.7,1.2-1.3,1.8-1.7c0.2-0.1,1-0.6,2.5-1.2c1.6-0.7,2.6-1.1,2.9-1.1c0.2,0,0.7,0,1.2,0.1
		c0.8,0.1,1.4,0.3,1.8,0.4c0.2,0.1,0.6,0.5,1.2,1.2c0.2,0.2,0.4,0.5,0.6,1.1C500.3,5.4,500.4,5.8,500.4,6.1z M498.5,5.8
		c0-1.5-0.6-2.2-1.8-2.2h-1.2c0,0.1,0.2,0.3,0.4,0.6c0.2,0.3,0.3,0.4,0.3,0.5c0,0.2-0.1,0.4-0.4,0.6c-0.1-0.1-0.3-0.2-0.5-0.2
		c0,0-0.1-0.1-0.3-0.3c-0.2-0.2-0.4-0.3-0.8-0.3c-0.4,0-1.1,0.3-2.3,0.9c-0.6,0.3-1.2,0.7-1.9,1c-0.6,1-1.3,2-1.9,3
		c-0.7,1.1-1,2-0.9,2.6c0,0.1-0.1,0.1-0.1,0.2c0.5,0.5,0.9,0.7,1.3,0.7h0.7c0.5,0,1.8-0.6,3.7-1.8s2.9-1.8,2.8-1.8
		c0.1,0,0.1,0,0.1,0c0,0,0,0,0.1,0c0.1,0,0.2-0.2,0.3-0.5c0.5-0.4,0.9-0.8,1.4-1.3C498.2,6.8,498.5,6.2,498.5,5.8z"/>
	<path fill="#9EEADE" d="M514.6,15c0,0.2-0.1,0.4-0.2,0.4c0,0-0.1,0-0.3,0c-0.1,0-0.1,0-0.2,0c-0.1,0-0.1,0-0.2,0s-0.1,0-0.1,0.1
		c0,0.1-0.1,0.1-0.2,0.1c-0.1,0-0.1,0-0.2-0.1c-0.1-0.1-0.1-0.1-0.2-0.1c-0.1,0-0.1,0-0.2,0c0,0-0.1,0-0.2,0c-0.2,0-0.9-0.2-1.9-0.6
		c-0.1,0-0.1-0.1-0.2-0.2s-0.1-0.2-0.2-0.2c-0.1,0-0.1,0-0.1,0s0,0-0.1,0c-0.1,0-0.5-0.2-1.3-0.6c-0.9-0.5-1.6-0.8-1.9-0.9
		c-1.3-0.5-2.5-0.9-3.4-1.4c-0.2,0.3-0.3,0.6-0.3,1.1c0,0.1,0,0.3,0,0.5c0,0.2,0,0.4,0,0.5c0,0.7-0.3,1-0.9,1c0,0-0.2-0.3-0.6-0.9
		c0-0.2,0-0.5,0-0.7c0-0.2-0.1-0.4-0.1-0.4v-3c0-0.1,0-0.2,0.1-0.5c0.1-0.3,0.2-0.5,0.2-0.5c-0.1-0.1-0.1-0.1-0.2-0.1
		c0-0.2,0-0.5,0-0.8c-0.1-0.1-0.2-0.3-0.3-0.6s-0.2-0.5-0.3-0.7C501,5.8,501,5.3,501,5.1c0-0.2,0.1-0.5,0.4-0.9
		c0.3-0.4,0.5-0.7,0.5-0.7c0.7-0.4,1.5-0.7,2.2-1.1c1-0.5,1.8-0.7,2.5-0.7c0.1,0,0.1,0,0.2,0.1c0.1,0,0.2,0,0.4,0
		c0.9,0,1.6,0.3,2.4,0.8c0.8,0.6,1.3,1.4,1.3,2.3c0,1.2-0.8,2.4-2.3,3.6c-1.3,1-2.6,1.6-3.9,2c0.3,0.3,1,0.6,2,1
		c0.9,0.4,1.5,0.7,1.9,1c0.2,0.1,0.9,0.4,2.2,1c1.2,0.6,1.9,0.9,1.9,0.9c0.1,0,0.1,0,0.1,0c0,0,0,0,0.1,0c0.1,0,0.2,0.1,0.5,0.2
		c0.3,0.2,0.4,0.2,0.5,0.2s0.1,0,0.1,0c0,0,0,0,0.1,0C514.1,14.7,514.3,14.8,514.6,15z M509.2,4.7V4.1c-0.2-0.1-0.5-0.3-1-0.6
		c-0.2-0.1-0.5-0.2-0.7-0.2c-0.6,0-1.4,0.2-2.2,0.5c-0.7,0.3-1.2,0.5-1.6,0.8l-0.3,3.9c0,0.2,0,0.4,0.1,0.5h0.4c0.1,0,0.2,0,0.5-0.1
		c0.3-0.1,0.4-0.1,0.5-0.1c0.1,0,0.4-0.2,0.9-0.5c0.6-0.3,0.9-0.5,1-0.5c0.4-0.4,0.8-0.8,1.2-1.2C508.8,5.8,509.2,5.2,509.2,4.7z"/>
	<path fill="#9EEADE" d="M526.2,14.8c0,0.1,0,0.1-0.1,0.2s0,0.1,0,0.2c-0.1,0-0.2,0-0.4,0c-0.2,0-0.3,0-0.4,0
		c-0.6,0-1.1-0.5-1.4-1.5c-0.2-0.7-0.3-1.4-0.3-2.1c0-0.1,0.1-0.7,0.2-1.9c0.2-1.2,0.2-1.8,0.2-1.9V7.3c-0.3,0.2-0.7,0.6-1.2,1.3
		c-0.6,0.7-0.9,1.2-1,1.2c-0.4,0.3-0.7,0.7-1.1,1c-0.5,0.4-1,0.7-1.3,0.7c-0.6,0-1.4-0.4-2.2-1.3c-0.5-0.6-1.1-1.3-1.6-1.9
		c-0.2,1-0.3,2-0.5,3c-0.2,1.2-0.5,2.1-0.8,2.9c-0.1,0-0.3,0-0.6,0c-0.3,0-0.4,0-0.5,0c0,0-0.1-0.1-0.2-0.2
		c-0.1-0.1-0.2-0.2-0.3-0.3c0.7-2.5,1.1-5.3,1.2-8.4c0-0.3,0-0.6,0-0.9c0.1-0.4,0.2-0.6,0.6-0.6c0.4,0,0.8,0.1,1.1,0.4
		c0.2,0.2,0.4,0.5,0.6,0.9c0.2,0.4,0.4,0.7,0.5,0.8c-0.1,0.1-0.2,0.2-0.2,0.2c0,0.1,0.1,0.3,0.4,0.7c0.4,0.5,0.6,0.9,0.6,1
		c0.1,0.2,0.2,0.5,0.4,0.9c0.1,0.1,0.2,0.2,0.4,0.3c0.1,0.4,0.3,0.6,0.7,0.6c0.3,0,0.9-0.4,1.7-1.3c0.6-0.7,1.1-1.2,1.4-1.6
		c0.4-0.6,0.8-1.2,1.2-1.9c0.7-1.1,1.3-1.6,1.5-1.6c0.5,0,0.8,0.3,1,1c0.2,0.5,0.3,1,0.3,1.6c0,0.6-0.1,1.7-0.3,3.1
		c-0.2,1.4-0.3,2.5-0.3,3c0,0,0,0.2,0,0.6c0,0.3,0,0.6,0,0.7c0.1,0.3,0.3,0.7,0.5,1.2c0,0,0,0,0.1,0.1
		C526.1,14.7,526.2,14.8,526.2,14.8z"/>
</g>
<g enable-background="new    ">
	<path fill="#9EEADE" d="M594.6,109c-0.1,0.1-0.1,0.3,0,0.6c-0.5,0.3-1.4,0.7-2.5,1.3c-0.1,0.2-0.2,0.3-0.5,0.6
		c-3.6,1.4-5.8,2-6.5,2c-0.1,0-0.4,0-1,0c-0.6,0-1,0-1,0c-0.1,0-0.5-0.2-1.1-0.6s-0.9-0.6-0.9-0.6c0-0.2-0.1-0.4-0.4-0.6
		c0-0.1-0.1-0.3-0.2-0.8c-0.1-0.5-0.2-0.9-0.2-1.3c0-1.5,0.6-3,1.8-4.5c1.1-1.3,2.5-2.5,4.2-3.3c1.7-0.9,3.3-1.3,4.8-1.3
		c0.2,0,0.6,0.2,1.2,0.5c0.6,0.4,0.9,0.7,0.9,1c0,0.2-0.1,0.3-0.3,0.5c-0.2,0.2-0.3,0.3-0.5,0.3c-0.1,0-0.2,0-0.3-0.1
		s-0.2-0.1-0.3-0.1c0-0.2,0-0.5-0.2-0.6s-0.3-0.3-0.5-0.3c-0.4,0-1.2,0.2-2.4,0.7c-0.9,0.4-1.6,0.7-1.8,0.9
		c-0.7,0.5-1.3,0.9-1.7,1.1c-0.7,0.6-1.4,1.4-2.1,2.5c-0.6,1.1-1,2-1,2.8c0,0.6,0.2,1.1,0.5,1.4c0.3,0.3,0.8,0.5,1.4,0.5h0.8
		c0.4,0,1.4-0.3,2.9-0.8c0.8-0.3,1.7-0.6,2.5-0.9c0.2-0.1,0.6-0.1,1.1-0.2c0.1-0.1,0.4-0.3,0.7-0.5c0.8-0.3,1.3-0.4,1.5-0.4
		c0.1,0,0.1,0,0.2,0c0.1,0,0.1,0,0.2,0c0.1,0,0.1,0,0.1-0.1c0-0.1,0.1-0.1,0.2-0.1s0.2,0,0.2,0.1C594.5,109,594.6,109,594.6,109z"/>
	<path fill="#9EEADE" d="M609.7,104.1c0,0.9-0.6,1.9-1.9,3.2c-0.9,0.9-1.7,1.6-2.4,2.1c-0.4,0.2-0.6,0.4-0.8,0.5
		c-0.3,0.2-0.7,0.3-0.9,0.3c-0.1,0.3-0.7,0.8-1.8,1.5c-1,0.6-1.6,0.9-1.8,0.9c-0.4,0-0.8,0.1-1.2,0.2c-0.4,0.1-0.6,0.2-0.8,0.2
		c-1.1,0-2.2-0.5-3.1-1.4c0-0.1,0-0.1,0-0.2c-0.4-0.3-0.6-0.5-0.6-0.7c0-0.8,0.2-1.8,0.6-2.8c0.3-0.9,0.7-1.7,1.1-2.3
		c0.1-0.1,0.5-0.5,1.2-1.4c0.6-0.7,1.2-1.3,1.8-1.7c0.2-0.1,1-0.6,2.5-1.2c1.6-0.7,2.6-1.1,2.9-1.1c0.2,0,0.7,0,1.2,0.1
		c0.8,0.1,1.4,0.3,1.8,0.4c0.2,0.1,0.6,0.5,1.2,1.2c0.2,0.2,0.4,0.5,0.6,1.1C609.5,103.4,609.7,103.8,609.7,104.1z M607.8,103.8
		c0-1.5-0.6-2.2-1.8-2.2h-1.2c0,0.1,0.2,0.3,0.4,0.6c0.2,0.3,0.3,0.4,0.3,0.5c0,0.2-0.1,0.4-0.4,0.6c-0.1-0.1-0.3-0.2-0.5-0.2
		c0,0-0.1-0.1-0.3-0.3c-0.2-0.2-0.4-0.3-0.8-0.3c-0.4,0-1.1,0.3-2.3,0.9c-0.6,0.3-1.2,0.7-1.9,1c-0.6,1-1.3,2-1.9,3
		c-0.7,1.1-1,2-0.9,2.6c0,0.1-0.1,0.1-0.1,0.2c0.5,0.5,0.9,0.7,1.3,0.7h0.7c0.5,0,1.8-0.6,3.7-1.8s2.9-1.8,2.8-1.8
		c0.1,0,0.1,0,0.1,0c0,0,0,0,0.1,0c0.1,0,0.2-0.2,0.3-0.5c0.5-0.4,0.9-0.8,1.4-1.3C607.4,104.8,607.8,104.2,607.8,103.8z"/>
	<path fill="#9EEADE" d="M623.7,102.1c-0.2,0.4-0.4,1-0.6,1.7c-0.2,1.1-0.4,1.7-0.4,1.8c-0.7,2.3-1.7,4.2-3,5.6
		c-0.1,0.1-0.2,0.4-0.5,0.9c-0.1,0.2-0.4,0.4-0.7,0.4c-0.5,0-0.8-0.1-1-0.2c-1-1.3-2.4-3.1-4.2-5.4c-0.2,0.3-0.3,0.7-0.5,1.3
		c-0.1,0.5-0.3,1-0.4,1.5c-0.2,0.8-0.4,1.2-0.4,1.4c-0.3,0.7-0.6,1-0.9,1s-0.7-0.1-1.1-0.3c0,0,0-0.1,0-0.1c0,0,0-0.1,0-0.1
		c0-0.1-0.1-0.1-0.1-0.1v-0.4c0.2-0.2,0.5-1,1-2.6c0.4-1.5,0.6-2.4,0.6-2.6c0-0.1-0.1-0.6-0.3-1.5c-0.2-1-0.3-1.5-0.3-1.5
		c0-0.1,0.1-0.3,0.2-0.5c0.1-0.2,0.3-0.3,0.4-0.3c0.1,0,0.1,0,0.1,0v0l0.2-0.2l0.5,0.2c0.1,0,0.1,0,0.1,0c0,0,0,0,0.1,0
		c0.1,0,0.3,0.1,0.6,0.4c0.2,0.2,0.3,0.5,0.4,0.9c0,0.5,0.1,0.8,0.2,1c0,0,0.2,0.3,0.5,0.7c0.2,0.3,0.3,0.5,0.3,0.7
		c0.1,0.2,0.9,1.1,2.2,2.9c0,0,0,0.1-0.1,0.1c-0.1,0-0.1,0.1-0.1,0.1c0.7,0.5,1.2,0.9,1.5,1.4c0.2-0.2,0.6-0.7,1.1-1.6
		c1.1-1.9,1.8-3.5,2-4.8c0-0.1,0.1-0.3,0.2-0.8c0.1-0.3,0.2-0.6,0.2-0.7c0-0.1,0-0.2-0.1-0.3c0.1-0.2,0.2-0.4,0.4-0.8
		c0-0.1,0.3-0.3,0.7-0.4C622.7,101.2,623.1,101.6,623.7,102.1z"/>
	<path fill="#9EEADE" d="M637.8,102.1c-0.2,0.4-0.4,1-0.6,1.7c-0.2,1.1-0.4,1.7-0.4,1.8c-0.7,2.3-1.7,4.2-3,5.6
		c-0.1,0.1-0.2,0.4-0.5,0.9c-0.1,0.2-0.4,0.4-0.7,0.4c-0.5,0-0.8-0.1-1-0.2c-1-1.3-2.4-3.1-4.2-5.4c-0.2,0.3-0.3,0.7-0.5,1.3
		c-0.1,0.5-0.3,1-0.4,1.5c-0.2,0.8-0.4,1.2-0.4,1.4c-0.3,0.7-0.6,1-0.9,1s-0.7-0.1-1.1-0.3c0,0,0-0.1,0-0.1c0,0,0-0.1,0-0.1
		c0-0.1-0.1-0.1-0.1-0.1v-0.4c0.2-0.2,0.5-1,1-2.6c0.4-1.5,0.6-2.4,0.6-2.6c0-0.1-0.1-0.6-0.3-1.5c-0.2-1-0.3-1.5-0.3-1.5
		c0-0.1,0.1-0.3,0.2-0.5c0.1-0.2,0.3-0.3,0.4-0.3c0.1,0,0.1,0,0.1,0v0l0.2-0.2l0.5,0.2c0.1,0,0.1,0,0.1,0c0,0,0,0,0.1,0
		c0.1,0,0.3,0.1,0.6,0.4c0.2,0.2,0.3,0.5,0.4,0.9c0,0.5,0.1,0.8,0.2,1c0,0,0.2,0.3,0.5,0.7c0.2,0.3,0.3,0.5,0.3,0.7
		c0.1,0.2,0.9,1.1,2.2,2.9c0,0,0,0.1-0.1,0.1s-0.1,0.1-0.1,0.1c0.7,0.5,1.2,0.9,1.5,1.4c0.2-0.2,0.6-0.7,1.1-1.6
		c1.1-1.9,1.8-3.5,2-4.8c0-0.1,0.1-0.3,0.2-0.8c0.1-0.3,0.2-0.6,0.2-0.7c0-0.1,0-0.2-0.1-0.3c0.1-0.2,0.2-0.4,0.4-0.8
		c0-0.1,0.3-0.3,0.7-0.4C636.9,101.2,637.3,101.6,637.8,102.1z"/>
	<path fill="#9EEADE" d="M651.9,100.8c0,0.3-0.1,0.4-0.3,0.5c-0.3,0.1-0.5,0.2-0.8,0.3c-0.6,0.4-1.2,0.7-1.7,0.9
		c-0.3,0.1-0.7,0.2-1,0.3c-0.5,0.2-1.5,0.6-3,1.1c-2,0.7-3.1,1-3.4,1c-0.1,0-0.1,0-0.2-0.1c-0.1-0.1-0.1-0.1-0.2-0.1
		c-0.1,0-0.3,0.3-0.5,1c-0.1,0.5-0.2,0.9-0.3,1.2c0.7,0.3,1,0.5,1,0.5c0.1,0,0.3,0,0.8-0.1c0.5-0.1,0.7-0.1,0.8-0.1
		c0.1,0,0.1,0,0.2,0.1c0,0.1,0,0.1,0.1,0.1c0.3-0.2,0.8-0.4,1.4-0.6c0.4-0.1,0.9-0.2,1.3-0.4c0.2-0.1,0.4-0.3,0.6-0.4
		c0.3-0.3,0.6-0.4,0.8-0.4c0.3,0,0.4,0.1,0.4,0.4c0,0.3,0.1,0.4,0.3,0.4c-0.2,0.2-0.5,0.5-0.9,0.8c0.1,0.3,0.3,0.4,0.6,0.4
		c0,0.1,0,0.1-0.1,0.2c0.1,0.1,0.2,0.1,0.4,0c0,0.1,0,0.1,0,0.2s0,0.2,0,0.3c0,0.1-0.3,0.4-0.8,0.8c-0.5,0.5-0.9,0.8-1.2,0.9
		c-0.3,0.6-1,1.1-2.1,1.5c-1,0.4-2,0.7-2.8,0.7c-0.7,0-1.4-0.3-2.1-1s-1-1.4-1-2.1c0-0.6,0.1-1.3,0.4-2.2c0.4-1.1,0.6-1.9,0.6-2.2
		c0,0,0.1-1,0.4-2.8c0.2-0.2,0.5-0.3,0.7-0.3c0.1,0,0.2,0,0.5,0.1c0.3,0.1,0.5,0.2,0.6,0.2c0,0.1,0,0.2,0.1,0.4
		c0.1,0.2,0.1,0.4,0.1,0.5c0.1,0.1,0.2,0.1,0.2,0.1c0.2,0,1.1-0.3,2.6-0.8c1.5-0.5,2.3-0.8,2.4-0.8c0.1,0,0.1,0,0.1,0c0,0,0,0,0.1,0
		s0.1,0,0.2-0.1c0-0.1,0.1-0.1,0.1-0.1c0.2-0.1,0.6-0.2,1.3-0.4c0.6-0.2,0.9-0.3,0.9-0.3c0.1,0,0.1,0,0.2,0.1
		c0.1,0.1,0.2,0.1,0.2,0.1c0.1,0,0.1,0,0.1-0.1c0-0.1,0-0.1,0.1-0.1c0.1,0,0.2,0,0.3-0.1c0.1-0.1,0.2-0.1,0.3-0.1
		c0.1,0,0.3,0.1,0.5,0.2c0.3,0.1,0.4,0.2,0.4,0.2C651.8,100.8,651.9,100.8,651.9,100.8z M646.4,107.9c-0.4-0.1-0.7,0.1-0.9,0.4
		c0,0,0-0.1,0-0.1c0,0,0-0.1-0.1-0.1c0,0-0.4,0.1-1.2,0.4c-0.9,0.3-1.4,0.4-1.6,0.4h-0.9c-0.1,0-0.2,0-0.4-0.1
		c-0.2-0.1-0.4-0.1-0.5-0.1c-0.2,0-0.3,0.1-0.4,0.2c0,0,0-0.1-0.1-0.1c0-0.1-0.1-0.1-0.1-0.1c0,0,0,0,0,0.1c0,0,0,0.1,0,0.2
		c0,0.3,0.1,0.6,0.2,0.9c0.2,0.5,0.5,0.7,0.7,0.7c0.1,0,0.2,0,0.4,0c0.2,0,0.4,0,0.4,0s0.2-0.1,0.5-0.2c0.3-0.2,0.6-0.3,0.6-0.3
		C644.2,109.6,645.3,108.9,646.4,107.9z"/>
	<path fill="#9EEADE" d="M665.8,109c-0.1,0.1-0.1,0.3,0,0.6c-0.5,0.3-1.4,0.7-2.5,1.3c-0.1,0.2-0.2,0.3-0.5,0.6
		c-3.6,1.4-5.8,2-6.5,2c-0.1,0-0.4,0-1,0c-0.6,0-1,0-1,0c-0.1,0-0.5-0.2-1.1-0.6s-0.9-0.6-0.9-0.6c0-0.2-0.1-0.4-0.4-0.6
		c0-0.1-0.1-0.3-0.2-0.8c-0.1-0.5-0.2-0.9-0.2-1.3c0-1.5,0.6-3,1.8-4.5c1.1-1.3,2.5-2.5,4.2-3.3s3.3-1.3,4.8-1.3
		c0.2,0,0.6,0.2,1.2,0.5c0.6,0.4,0.9,0.7,0.9,1c0,0.2-0.1,0.3-0.3,0.5c-0.2,0.2-0.3,0.3-0.5,0.3c-0.1,0-0.2,0-0.3-0.1
		s-0.2-0.1-0.3-0.1c0-0.2,0-0.5-0.2-0.6s-0.3-0.3-0.5-0.3c-0.4,0-1.2,0.2-2.4,0.7c-0.9,0.4-1.6,0.7-1.8,0.9
		c-0.7,0.5-1.3,0.9-1.7,1.1c-0.7,0.6-1.4,1.4-2.1,2.5c-0.6,1.1-1,2-1,2.8c0,0.6,0.2,1.1,0.5,1.4c0.3,0.3,0.8,0.5,1.4,0.5h0.8
		c0.4,0,1.4-0.3,2.9-0.8c0.8-0.3,1.7-0.6,2.5-0.9c0.2-0.1,0.6-0.1,1.1-0.2c0.1-0.1,0.4-0.3,0.7-0.5c0.8-0.3,1.3-0.4,1.5-0.4
		c0.1,0,0.1,0,0.2,0c0.1,0,0.1,0,0.2,0c0.1,0,0.1,0,0.1-0.1c0-0.1,0.1-0.1,0.2-0.1s0.2,0,0.2,0.1C665.7,109,665.7,109,665.8,109z"/>
	<path fill="#9EEADE" d="M681.9,101.4c-0.1,0-0.2,0.2-0.3,0.4c-0.2,0.2-0.3,0.3-0.4,0.3c-0.8,0-3.5,0.3-7.9,0.9c0,0.3,0,0.6,0.1,0.9
		c-0.1-0.1-0.4,0-0.8,0.1c-0.1-0.1-0.2-0.2-0.4-0.3c-0.2-0.1-0.3-0.1-0.4-0.1c-0.3,0-0.6,0.7-0.8,2.2c-0.1,1-0.2,1.7-0.2,2.2
		c0,0.2,0.2,1.3,0.6,3.4c0.3,0.2,0.5,0.3,0.6,0.4c0.1,0.3,0.1,0.7,0.3,1.2c0,0-0.2,0.1-0.4,0.3c-0.2,0.1-0.3,0.2-0.4,0.2
		c-0.9,0-1.5-1.1-1.9-3.3c-0.2-1.3-0.4-2.5-0.4-3.6c0-0.1,0-0.2,0.1-0.4c0.1-0.2,0.1-0.4,0.1-0.5c0-0.1,0-0.2-0.1-0.6
		c0.1-0.1,0.2-0.3,0.3-0.6v-0.7c-0.3,0-0.9,0.1-1.8,0.2c-0.9,0.2-1.4,0.3-1.5,0.3c-0.5,0-0.9-0.1-1.3-0.4c-0.5-0.3-0.8-0.7-0.8-1.1
		c0-0.3,0.1-0.5,0.3-0.6c0.4,0,1,0,1.8,0c0.9-0.1,1.3-0.1,1.2-0.1c0.1,0,0.2,0,0.3,0.1s0.3,0.1,0.3,0.1s0.2-0.1,0.4-0.2
		c0.2-0.1,0.3-0.2,0.4-0.2c1.7-0.3,3.2-0.4,4.7-0.6c1.1-0.1,2.8-0.2,4.9-0.2c0.1,0,0.2,0,0.3-0.1c0.1-0.1,0.2-0.1,0.3-0.1
		c-0.1,0,0.1,0,0.5,0.1c0.4,0,1.1,0,2,0c0.1,0,0.1,0.1,0.2,0.3S681.9,101.3,681.9,101.4z"/>
	<path fill="#9EEADE" d="M684.2,102.8l-0.8,3.2c-0.6,2.3-1,4-1.2,5.1c0,0.1,0,0.2,0,0.4c0,0.3,0,0.4,0,0.5c0,0.4-0.2,0.7-0.5,0.7
		h-0.4c-0.3,0-0.5-0.2-0.8-0.5c-0.2-0.3-0.3-0.6-0.3-0.7c0-0.7,0.3-2.1,0.9-4.2c0.7-2.3,1-3.6,1.1-3.8c0-0.4,0.1-1.1,0.1-1.9
		c0,0,0.1,0,0.3-0.1s0.3-0.1,0.4-0.1c0.1,0,0.3,0.1,0.5,0.2c0.2,0.1,0.4,0.3,0.5,0.4C684.1,102,684.2,102.3,684.2,102.8z"/>
	<path fill="#9EEADE" d="M700.8,104.1c0,0.9-0.6,1.9-1.9,3.2c-0.9,0.9-1.7,1.6-2.4,2.1c-0.4,0.2-0.6,0.4-0.8,0.5
		c-0.3,0.2-0.7,0.3-0.9,0.3c-0.1,0.3-0.7,0.8-1.8,1.5c-1,0.6-1.6,0.9-1.8,0.9c-0.4,0-0.8,0.1-1.2,0.2c-0.4,0.1-0.6,0.2-0.8,0.2
		c-1.1,0-2.2-0.5-3.1-1.4c0-0.1,0-0.1,0-0.2c-0.4-0.3-0.6-0.5-0.6-0.7c0-0.8,0.2-1.8,0.6-2.8c0.3-0.9,0.7-1.7,1.1-2.3
		c0.1-0.1,0.5-0.5,1.2-1.4c0.6-0.7,1.2-1.3,1.8-1.7c0.2-0.1,1-0.6,2.5-1.2c1.6-0.7,2.6-1.1,2.9-1.1c0.2,0,0.7,0,1.2,0.1
		c0.8,0.1,1.4,0.3,1.8,0.4c0.2,0.1,0.6,0.5,1.2,1.2c0.2,0.2,0.4,0.5,0.6,1.1C700.6,103.4,700.8,103.8,700.8,104.1z M698.9,103.8
		c0-1.5-0.6-2.2-1.8-2.2h-1.2c0,0.1,0.2,0.3,0.4,0.6c0.2,0.3,0.3,0.4,0.3,0.5c0,0.2-0.1,0.4-0.4,0.6c-0.1-0.1-0.3-0.2-0.5-0.2
		c0,0-0.1-0.1-0.3-0.3c-0.2-0.2-0.4-0.3-0.8-0.3c-0.4,0-1.1,0.3-2.3,0.9c-0.6,0.3-1.2,0.7-1.9,1c-0.6,1-1.3,2-1.9,3
		c-0.7,1.1-1,2-0.9,2.6c0,0.1-0.1,0.1-0.1,0.2c0.5,0.5,0.9,0.7,1.3,0.7h0.7c0.5,0,1.8-0.6,3.7-1.8s2.9-1.8,2.8-1.8
		c0.1,0,0.1,0,0.1,0c0,0,0,0,0.1,0c0.1,0,0.2-0.2,0.3-0.5c0.5-0.4,0.9-0.8,1.4-1.3C698.5,104.8,698.9,104.2,698.9,103.8z"/>
	<path fill="#9EEADE" d="M714.8,102.1c-0.2,0.4-0.4,1-0.6,1.7c-0.2,1.1-0.4,1.7-0.4,1.8c-0.7,2.3-1.7,4.2-3,5.6
		c-0.1,0.1-0.2,0.4-0.5,0.9c-0.1,0.2-0.4,0.4-0.7,0.4c-0.5,0-0.8-0.1-1-0.2c-1-1.3-2.4-3.1-4.2-5.4c-0.2,0.3-0.3,0.7-0.5,1.3
		c-0.1,0.5-0.3,1-0.4,1.5c-0.2,0.8-0.4,1.2-0.4,1.4c-0.3,0.7-0.6,1-0.9,1s-0.7-0.1-1.1-0.3c0,0,0-0.1,0-0.1c0,0,0-0.1,0-0.1
		c0-0.1-0.1-0.1-0.1-0.1v-0.4c0.2-0.2,0.5-1,1-2.6c0.4-1.5,0.6-2.4,0.6-2.6c0-0.1-0.1-0.6-0.3-1.5S702,103,702,103
		c0-0.1,0.1-0.3,0.2-0.5c0.1-0.2,0.3-0.3,0.4-0.3c0.1,0,0.1,0,0.1,0v0l0.2-0.2l0.5,0.2c0.1,0,0.1,0,0.1,0c0,0,0,0,0.1,0
		c0.1,0,0.3,0.1,0.6,0.4c0.2,0.2,0.3,0.5,0.4,0.9c0,0.5,0.1,0.8,0.2,1c0,0,0.2,0.3,0.5,0.7c0.2,0.3,0.3,0.5,0.3,0.7
		c0.1,0.2,0.9,1.1,2.2,2.9c0,0,0,0.1-0.1,0.1c-0.1,0-0.1,0.1-0.1,0.1c0.7,0.5,1.2,0.9,1.5,1.4c0.2-0.2,0.6-0.7,1.1-1.6
		c1.1-1.9,1.8-3.5,2-4.8c0-0.1,0.1-0.3,0.2-0.8c0.1-0.3,0.2-0.6,0.2-0.7c0-0.1,0-0.2-0.1-0.3c0.1-0.2,0.2-0.4,0.4-0.8
		c0-0.1,0.3-0.3,0.7-0.4C713.8,101.2,714.2,101.6,714.8,102.1z"/>
</g>
<g enable-background="new    ">
	<path fill="#9EEADE" d="M105.6,74c-0.1,0.1-0.1,0.3,0,0.6c-0.5,0.3-1.4,0.7-2.5,1.3c-0.1,0.2-0.2,0.3-0.5,0.6c-3.6,1.4-5.8,2-6.5,2
		c-0.1,0-0.4,0-1,0c-0.6,0-1,0-1,0c-0.1,0-0.5-0.2-1.1-0.6c-0.6-0.4-0.9-0.6-0.9-0.6c0-0.2-0.1-0.4-0.4-0.6c0-0.1-0.1-0.3-0.2-0.8
		c-0.1-0.5-0.2-0.9-0.2-1.3c0-1.5,0.6-3,1.8-4.5c1.1-1.3,2.5-2.5,4.1-3.3c1.7-0.9,3.3-1.3,4.8-1.3c0.2,0,0.6,0.2,1.2,0.5
		c0.6,0.4,0.9,0.7,0.9,1c0,0.2-0.1,0.3-0.3,0.5c-0.2,0.2-0.3,0.3-0.5,0.3c-0.1,0-0.2,0-0.3-0.1s-0.2-0.1-0.3-0.1
		c0-0.2,0-0.5-0.1-0.6c-0.1-0.2-0.3-0.3-0.5-0.3c-0.4,0-1.2,0.2-2.4,0.7c-0.9,0.4-1.6,0.7-1.8,0.9c-0.7,0.5-1.3,0.9-1.7,1.1
		c-0.7,0.6-1.4,1.4-2.1,2.5c-0.6,1.1-1,2-1,2.8c0,0.6,0.2,1.1,0.5,1.4c0.3,0.3,0.8,0.5,1.4,0.5h0.8c0.4,0,1.4-0.3,2.9-0.8
		c0.8-0.3,1.7-0.6,2.5-0.9c0.2-0.1,0.6-0.1,1.1-0.2c0.1-0.1,0.4-0.3,0.7-0.5c0.8-0.3,1.3-0.4,1.5-0.4c0.1,0,0.1,0,0.2,0
		c0.1,0,0.1,0,0.2,0c0.1,0,0.1,0,0.1-0.1c0-0.1,0.1-0.1,0.2-0.1s0.2,0,0.2,0.1C105.5,74,105.6,74,105.6,74z"/>
	<path fill="#9EEADE" d="M120.7,69.1c0,0.9-0.6,1.9-1.9,3.2c-0.9,0.9-1.7,1.6-2.4,2.1c-0.4,0.2-0.6,0.4-0.8,0.5
		c-0.3,0.2-0.7,0.3-0.9,0.3c-0.1,0.3-0.7,0.8-1.8,1.5c-1,0.6-1.6,0.9-1.8,0.9c-0.4,0-0.8,0.1-1.2,0.2c-0.4,0.1-0.6,0.2-0.8,0.2
		c-1.1,0-2.2-0.5-3.1-1.4c0-0.1,0-0.1,0-0.2c-0.4-0.3-0.6-0.5-0.6-0.7c0-0.8,0.2-1.8,0.6-2.8c0.3-0.9,0.7-1.7,1.1-2.3
		c0.1-0.1,0.5-0.5,1.2-1.4c0.6-0.7,1.2-1.3,1.8-1.7c0.2-0.1,1-0.6,2.5-1.2c1.6-0.7,2.6-1.1,2.9-1.1c0.2,0,0.7,0,1.2,0.1
		c0.8,0.1,1.4,0.3,1.8,0.4c0.2,0.1,0.6,0.5,1.2,1.2c0.2,0.2,0.4,0.5,0.6,1.1C120.5,68.4,120.7,68.8,120.7,69.1z M118.8,68.8
		c0-1.5-0.6-2.2-1.8-2.2h-1.2c0,0.1,0.2,0.3,0.4,0.6c0.2,0.3,0.3,0.4,0.3,0.5c0,0.2-0.1,0.4-0.4,0.6c-0.1-0.1-0.3-0.2-0.5-0.2
		c0,0-0.1-0.1-0.3-0.3c-0.2-0.2-0.4-0.3-0.8-0.3c-0.4,0-1.1,0.3-2.3,0.9c-0.6,0.3-1.2,0.7-1.9,1c-0.6,1-1.3,2-1.9,3
		c-0.7,1.1-1,2-0.9,2.6c0,0.1-0.1,0.1-0.1,0.2c0.5,0.5,0.9,0.7,1.3,0.7h0.7c0.5,0,1.8-0.6,3.7-1.8s2.9-1.8,2.8-1.8
		c0.1,0,0.1,0,0.1,0c0,0,0,0,0.1,0c0.1,0,0.2-0.2,0.3-0.5c0.5-0.4,0.9-0.8,1.4-1.3C118.4,69.8,118.8,69.2,118.8,68.8z"/>
	<path fill="#9EEADE" d="M134.4,77.8c0,0.1,0,0.1,0,0.2c0,0.1-0.1,0.1-0.1,0.2c-0.1,0-0.2,0-0.4,0c-0.2,0-0.3,0-0.4,0
		c-0.6,0-1.1-0.5-1.4-1.5c-0.2-0.7-0.3-1.4-0.3-2.1c0-0.1,0.1-0.7,0.2-1.9c0.2-1.2,0.2-1.8,0.2-1.9v-0.7c-0.3,0.2-0.7,0.6-1.2,1.3
		c-0.6,0.7-0.9,1.2-1,1.2c-0.4,0.3-0.7,0.7-1.1,1c-0.5,0.4-1,0.7-1.3,0.7c-0.6,0-1.4-0.4-2.2-1.3c-0.5-0.6-1.1-1.3-1.6-1.9
		c-0.2,1-0.3,2-0.5,3c-0.2,1.2-0.5,2.1-0.8,2.9c-0.1,0-0.3,0-0.6,0c-0.3,0-0.4,0-0.5,0c0,0-0.1-0.1-0.2-0.2
		c-0.1-0.1-0.2-0.2-0.3-0.3c0.7-2.5,1.1-5.3,1.2-8.4c0-0.3,0-0.6,0-0.9c0.1-0.4,0.2-0.6,0.6-0.6c0.4,0,0.8,0.1,1.1,0.4
		c0.2,0.2,0.4,0.5,0.6,0.9c0.2,0.4,0.4,0.7,0.5,0.8c-0.1,0.1-0.2,0.2-0.2,0.2c0,0.1,0.1,0.3,0.4,0.7c0.4,0.5,0.6,0.9,0.6,1
		c0.1,0.2,0.2,0.5,0.4,0.9c0.1,0.1,0.2,0.2,0.4,0.3c0.1,0.4,0.3,0.6,0.7,0.6c0.3,0,0.9-0.4,1.7-1.3c0.6-0.7,1.1-1.2,1.4-1.6
		c0.4-0.6,0.8-1.2,1.2-1.9c0.7-1.1,1.3-1.6,1.5-1.6c0.5,0,0.8,0.3,1,1c0.2,0.5,0.3,1,0.3,1.6c0,0.6-0.1,1.7-0.3,3.1
		c-0.2,1.4-0.3,2.5-0.3,3c0,0,0,0.2,0,0.6c0,0.3,0.1,0.6,0.1,0.7c0.1,0.3,0.3,0.7,0.5,1.2c0,0,0,0,0.1,0.1
		C134.4,77.7,134.4,77.8,134.4,77.8z"/>
	<path fill="#9EEADE" d="M148.9,77.8c0,0.1,0,0.1-0.1,0.2s0,0.1,0,0.2c-0.1,0-0.2,0-0.4,0c-0.2,0-0.3,0-0.4,0
		c-0.6,0-1.1-0.5-1.4-1.5c-0.2-0.7-0.3-1.4-0.3-2.1c0-0.1,0.1-0.7,0.2-1.9c0.2-1.2,0.2-1.8,0.2-1.9v-0.7c-0.3,0.2-0.7,0.6-1.2,1.3
		c-0.6,0.7-0.9,1.2-1,1.2c-0.4,0.3-0.7,0.7-1.1,1c-0.5,0.4-1,0.7-1.3,0.7c-0.6,0-1.4-0.4-2.2-1.3c-0.5-0.6-1.1-1.3-1.6-1.9
		c-0.2,1-0.3,2-0.5,3c-0.2,1.2-0.5,2.1-0.8,2.9c-0.1,0-0.3,0-0.6,0c-0.3,0-0.4,0-0.5,0c0,0-0.1-0.1-0.2-0.2
		c-0.1-0.1-0.2-0.2-0.3-0.3c0.7-2.5,1.1-5.3,1.2-8.4c0-0.3,0-0.6,0-0.9c0.1-0.4,0.2-0.6,0.6-0.6c0.4,0,0.8,0.1,1.1,0.4
		c0.2,0.2,0.4,0.5,0.6,0.9c0.2,0.4,0.4,0.7,0.5,0.8c-0.1,0.1-0.2,0.2-0.2,0.2c0,0.1,0.1,0.3,0.4,0.7c0.4,0.5,0.6,0.9,0.6,1
		c0.1,0.2,0.2,0.5,0.4,0.9c0.1,0.1,0.2,0.2,0.4,0.3c0.1,0.4,0.3,0.6,0.7,0.6c0.3,0,0.9-0.4,1.7-1.3c0.6-0.7,1.1-1.2,1.4-1.6
		c0.4-0.6,0.8-1.2,1.2-1.9c0.7-1.1,1.3-1.6,1.5-1.6c0.5,0,0.8,0.3,1,1c0.2,0.5,0.3,1,0.3,1.6c0,0.6-0.1,1.7-0.3,3.1
		c-0.2,1.4-0.3,2.5-0.3,3c0,0,0,0.2,0.1,0.6c0,0.3,0,0.6,0,0.7c0.1,0.3,0.3,0.7,0.5,1.2c0,0,0,0,0.1,0.1
		C148.9,77.7,148.9,77.8,148.9,77.8z"/>
	<path fill="#9EEADE" d="M164.6,75.7c-0.1,0.1-0.1,0.3-0.1,0.4c0,0.1-0.1,0.1-0.1,0.3c0.1,0-0.3,0-1.4,0c-0.2,0-0.4-0.2-0.8-0.5
		s-0.6-0.6-0.6-0.7c-0.7-0.6-1-1.2-1-2c0-0.2,0.1-0.4,0.2-0.5c0,0-0.1,0-0.4,0c-0.1,0-0.5,0.4-1.3,1.1c-0.7,0.8-1.2,1.3-1.5,1.6
		c-0.2,0.2-0.8,0.7-2,1.3c-1.2,0.7-2,1-2.3,1c-0.8,0-1.5-0.5-2.2-1.4c-0.3-0.5-0.7-1.3-1.2-2.5c0-0.2,0-1-0.1-2.2
		c0-0.5,0.1-1.2,0.4-2.2c0.3-1.2,0.5-2,0.6-2.4c0.3-0.1,0.5-0.2,0.7-0.2c0.3,0,0.5,0.1,0.7,0.3c0,0.1,0.1,0.2,0.2,0.4
		c0.1,0.2,0.2,0.3,0.2,0.4c0,0.1-0.1,0.3-0.2,0.7c-0.1,0.5-0.2,0.8-0.3,1c0,0.2-0.1,0.6-0.3,1.1c-0.1,0.5-0.2,0.7-0.2,0.8
		c0,0.9,0.1,1.6,0.3,2.3c0.3,1.2,0.8,1.8,1.6,1.8c0.1,0,0.4-0.2,1-0.6c0.6-0.4,1-0.6,1.1-0.6c0.1,0,0.2,0.1,0.3,0.2
		c1.1-1.2,2.2-2.3,3.3-3.5c1.4-1.5,2.2-2.7,2.2-3.4c0.1-0.1,0.5-0.2,1-0.2c0.1,0,0.4,0.3,0.9,0.9c0,0-0.1,0.1-0.2,0.3
		c-0.1,0.7-0.2,1.6-0.4,2.5c-0.2,0.9-0.3,1.5-0.3,1.8c0,0.7,0.1,1.1,0.3,1.4c0.1,0.1,0.4,0.3,0.8,0.5
		C163.9,75.1,164.3,75.3,164.6,75.7z"/>
	<path fill="#9EEADE" d="M178.1,67.1c-0.2,0.4-0.4,1-0.6,1.7c-0.2,1.1-0.4,1.7-0.4,1.8c-0.7,2.3-1.7,4.2-3,5.6
		c-0.1,0.1-0.2,0.4-0.5,0.9c-0.1,0.2-0.4,0.4-0.7,0.4c-0.5,0-0.8-0.1-1-0.2c-1-1.3-2.4-3.1-4.2-5.4c-0.2,0.3-0.3,0.7-0.5,1.3
		c-0.1,0.5-0.3,1-0.4,1.5c-0.2,0.8-0.4,1.2-0.4,1.4c-0.3,0.7-0.6,1-0.9,1s-0.7-0.1-1.1-0.3c0,0,0-0.1,0-0.1c0,0,0-0.1,0-0.1
		c0-0.1-0.1-0.1-0.1-0.1v-0.4c0.2-0.2,0.5-1,1-2.6c0.4-1.5,0.6-2.4,0.6-2.6c0-0.1-0.1-0.6-0.3-1.5s-0.3-1.5-0.3-1.5
		c0-0.1,0.1-0.3,0.2-0.5c0.1-0.2,0.3-0.3,0.4-0.3c0.1,0,0.1,0,0.1,0v0l0.2-0.2l0.5,0.2c0.1,0,0.1,0,0.1,0c0,0,0,0,0.1,0
		c0.1,0,0.3,0.1,0.6,0.4c0.2,0.2,0.3,0.5,0.4,0.9c0,0.5,0.1,0.8,0.2,1c0,0,0.2,0.3,0.5,0.7c0.2,0.3,0.3,0.5,0.3,0.7
		c0.1,0.2,0.9,1.1,2.2,2.9c0,0,0,0.1-0.1,0.1c-0.1,0-0.1,0.1-0.1,0.1c0.7,0.5,1.2,0.9,1.5,1.4c0.2-0.2,0.6-0.7,1.1-1.6
		c1.1-1.9,1.8-3.5,2-4.8c0-0.1,0.1-0.3,0.2-0.8c0.1-0.3,0.2-0.6,0.2-0.7c0-0.1,0-0.2-0.1-0.3c0.1-0.2,0.2-0.4,0.4-0.8
		c0-0.1,0.3-0.3,0.7-0.4C177.2,66.2,177.6,66.6,178.1,67.1z"/>
	<path fill="#9EEADE" d="M183,67.8l-0.8,3.2c-0.6,2.3-1,4-1.2,5.1c0,0.1,0,0.2,0,0.4c0,0.3,0,0.4,0,0.5c0,0.4-0.2,0.7-0.5,0.7H180
		c-0.3,0-0.5-0.2-0.8-0.5c-0.2-0.3-0.3-0.6-0.3-0.7c0-0.7,0.3-2.1,0.9-4.2c0.7-2.3,1-3.6,1.1-3.8c0-0.4,0.1-1.1,0.1-1.9
		c0,0,0.1,0,0.3-0.1s0.3-0.1,0.4-0.1c0.1,0,0.3,0.1,0.5,0.2c0.2,0.1,0.4,0.3,0.5,0.4C182.9,67,183,67.3,183,67.8z"/>
	<path fill="#9EEADE" d="M198.5,74c-0.1,0.1-0.1,0.3,0,0.6c-0.5,0.3-1.4,0.7-2.5,1.3c-0.1,0.2-0.2,0.3-0.5,0.6c-3.6,1.4-5.8,2-6.5,2
		c-0.1,0-0.4,0-1,0c-0.6,0-1,0-1,0c-0.1,0-0.5-0.2-1.1-0.6s-0.9-0.6-0.9-0.6c0-0.2-0.1-0.4-0.4-0.6c0-0.1-0.1-0.3-0.2-0.8
		c-0.1-0.5-0.2-0.9-0.2-1.3c0-1.5,0.6-3,1.8-4.5c1.1-1.3,2.5-2.5,4.2-3.3s3.3-1.3,4.8-1.3c0.2,0,0.6,0.2,1.2,0.5
		c0.6,0.4,0.9,0.7,0.9,1c0,0.2-0.1,0.3-0.3,0.5c-0.2,0.2-0.3,0.3-0.5,0.3c-0.1,0-0.2,0-0.3-0.1s-0.2-0.1-0.3-0.1
		c0-0.2,0-0.5-0.2-0.6s-0.3-0.3-0.5-0.3c-0.4,0-1.2,0.2-2.4,0.7c-0.9,0.4-1.6,0.7-1.8,0.9c-0.7,0.5-1.3,0.9-1.7,1.1
		c-0.7,0.6-1.4,1.4-2.1,2.5c-0.6,1.1-1,2-1,2.8c0,0.6,0.2,1.1,0.5,1.4c0.3,0.3,0.8,0.5,1.4,0.5h0.8c0.4,0,1.4-0.3,2.9-0.8
		c0.8-0.3,1.7-0.6,2.5-0.9c0.2-0.1,0.6-0.1,1.1-0.2c0.1-0.1,0.4-0.3,0.7-0.5c0.8-0.3,1.3-0.4,1.5-0.4c0.1,0,0.1,0,0.2,0
		c0.1,0,0.1,0,0.2,0c0.1,0,0.1,0,0.1-0.1c0-0.1,0.1-0.1,0.2-0.1s0.2,0,0.2,0.1C198.5,74,198.5,74,198.5,74z"/>
	<path fill="#9EEADE" d="M212.9,70.1c0,0.4-0.9,0.8-2.6,1.4c-1.7,0.6-2.6,1-2.6,1.2c0,0.1,0.1,0.2,0.2,0.4c0.1,0.3,0.2,0.5,0.3,0.8
		c0.1,0.3,0.2,0.6,0.3,0.8c0.7,1.6,1.2,2.8,1.5,3.6v0.6c-0.2,0.2-0.4,0.3-0.7,0.3c-0.3,0-0.7-0.3-0.9-0.8c-0.2-0.4-0.7-1.4-1.3-3.1
		c-0.5-1.5-0.8-2.3-0.9-2.3c-0.2,0-0.8,0.2-1.7,0.5c-0.9,0.3-1.5,0.5-1.6,0.6c0,0-0.2,0-0.5,0c-0.2,0-0.4,0.1-0.5,0.3
		c-0.1,0.5-0.3,1-0.4,1.5c-0.2,0.6-0.6,0.9-1,0.9c-0.3,0-0.6-0.2-0.8-0.5c-0.1-0.1-0.1-0.4-0.3-0.8c0.3-0.2,0.5-0.5,0.5-0.8
		c0-0.1,0-0.2,0-0.2c-0.2,0-0.4,0-0.7,0c-0.3,0-0.6,0-0.7,0c-0.2-0.6-0.2-0.8-0.2-0.8c0-0.2,0.1-0.4,0.4-0.6
		c0.3-0.2,0.5-0.3,0.6-0.3c0.1,0,0.1,0,0.1,0c0,0,0.1,0,0.1,0c0.1,0,0.4,0,0.6-0.1c0.3-0.1,0.6-0.2,0.7-0.3c0.2-0.3,0.4-0.9,0.6-1.9
		c0.1-0.7,0.2-1.3,0.3-2c0.1-0.8,0.3-2,0.6-3.6c0-0.3,0.1-0.9,0.2-1.6c0.2-0.3,0.5-0.4,0.8-0.4s0.5,0.1,0.7,0.2
		c0.2,0.2,0.4,0.7,0.8,1.5c0.3,0.7,0.6,1.1,0.8,1.1c0.4,1,0.8,2.5,1.5,4.5c0.1,0.2,0.2,0.4,0.3,0.4l4.3-1.4c0.2,0,0.5,0.1,0.7,0.1
		C212.8,69.6,212.9,69.8,212.9,70.1z M205.8,71.2c-0.3-0.8-0.5-1.6-0.8-2.4c-0.4-1.1-0.7-1.8-1.1-2.1c-0.1,0.4-0.2,0.9-0.3,1.6
		c-0.1,0.4-0.1,0.9-0.1,1.3c0,0.2-0.1,0.6-0.3,1.3c-0.1,0.6-0.2,0.9-0.2,0.9v0.2h0.3C203.9,71.9,204.8,71.6,205.8,71.2z"/>
	<path fill="#9EEADE" d="M228.9,66.4c-0.1,0-0.2,0.2-0.3,0.4c-0.2,0.2-0.3,0.3-0.4,0.3c-0.8,0-3.5,0.3-7.9,0.9c0,0.3,0,0.6,0.1,0.9
		c-0.1-0.1-0.4,0-0.8,0.1c-0.1-0.1-0.2-0.2-0.4-0.3c-0.2-0.1-0.3-0.1-0.4-0.1c-0.3,0-0.6,0.7-0.8,2.2c-0.1,1-0.2,1.7-0.2,2.2
		c0,0.2,0.2,1.3,0.6,3.4c0.3,0.2,0.5,0.3,0.6,0.4c0.1,0.3,0.1,0.7,0.3,1.2c0,0-0.2,0.1-0.4,0.3c-0.2,0.1-0.3,0.2-0.4,0.2
		c-0.9,0-1.5-1.1-1.9-3.3c-0.2-1.3-0.4-2.5-0.4-3.6c0-0.1,0-0.2,0.1-0.4c0.1-0.2,0.1-0.4,0.1-0.5c0-0.1,0-0.2-0.1-0.6
		c0.1-0.1,0.2-0.3,0.3-0.6v-0.7c-0.3,0-0.9,0.1-1.8,0.2c-0.9,0.2-1.4,0.3-1.5,0.3c-0.5,0-0.9-0.1-1.3-0.4c-0.5-0.3-0.8-0.7-0.8-1.1
		c0-0.3,0.1-0.5,0.3-0.6c0.4,0,1,0,1.8,0c0.9-0.1,1.3-0.1,1.2-0.1c0.1,0,0.2,0,0.3,0.1s0.3,0.1,0.3,0.1s0.2-0.1,0.4-0.2
		c0.2-0.1,0.3-0.2,0.4-0.2c1.7-0.3,3.2-0.4,4.7-0.6c1.1-0.1,2.8-0.2,4.9-0.2c0.1,0,0.2,0,0.3-0.1c0.1-0.1,0.2-0.1,0.3-0.1
		c-0.1,0,0.1,0,0.5,0.1c0.4,0,1.1,0,2,0c0.1,0,0.1,0.1,0.2,0.3S228.9,66.3,228.9,66.4z"/>
	<path fill="#9EEADE" d="M231.2,67.8l-0.8,3.2c-0.6,2.3-1,4-1.2,5.1c0,0.1,0,0.2,0,0.4c0,0.3,0,0.4,0,0.5c0,0.4-0.2,0.7-0.5,0.7
		h-0.4c-0.3,0-0.5-0.2-0.8-0.5c-0.2-0.3-0.3-0.6-0.3-0.7c0-0.7,0.3-2.1,0.9-4.2c0.7-2.3,1-3.6,1.1-3.8c0-0.4,0.1-1.1,0.1-1.9
		c0,0,0.1,0,0.3-0.1s0.3-0.1,0.4-0.1c0.1,0,0.3,0.1,0.5,0.2c0.2,0.1,0.4,0.3,0.5,0.4C231.1,67,231.2,67.3,231.2,67.8z"/>
	<path fill="#9EEADE" d="M247.8,69.1c0,0.9-0.6,1.9-1.9,3.2c-0.9,0.9-1.7,1.6-2.4,2.1c-0.4,0.2-0.6,0.4-0.8,0.5
		c-0.3,0.2-0.7,0.3-0.9,0.3c-0.1,0.3-0.7,0.8-1.8,1.5c-1,0.6-1.6,0.9-1.8,0.9c-0.4,0-0.8,0.1-1.2,0.2c-0.4,0.1-0.6,0.2-0.8,0.2
		c-1.1,0-2.2-0.5-3.1-1.4c0-0.1,0-0.1,0-0.2c-0.4-0.3-0.6-0.5-0.6-0.7c0-0.8,0.2-1.8,0.6-2.8c0.3-0.9,0.7-1.7,1.1-2.3
		c0.1-0.1,0.5-0.5,1.2-1.4c0.6-0.7,1.2-1.3,1.8-1.7c0.2-0.1,1-0.6,2.5-1.2c1.6-0.7,2.6-1.1,2.9-1.1c0.2,0,0.7,0,1.2,0.1
		c0.8,0.1,1.4,0.3,1.8,0.4c0.2,0.1,0.6,0.5,1.2,1.2c0.2,0.2,0.4,0.5,0.6,1.1C247.6,68.4,247.8,68.8,247.8,69.1z M245.9,68.8
		c0-1.5-0.6-2.2-1.8-2.2h-1.2c0,0.1,0.2,0.3,0.4,0.6c0.2,0.3,0.3,0.4,0.3,0.5c0,0.2-0.1,0.4-0.4,0.6c-0.1-0.1-0.3-0.2-0.5-0.2
		c0,0-0.1-0.1-0.3-0.3c-0.2-0.2-0.4-0.3-0.8-0.3c-0.4,0-1.1,0.3-2.3,0.9c-0.6,0.3-1.2,0.7-1.9,1c-0.6,1-1.3,2-1.9,3
		c-0.7,1.1-1,2-0.9,2.6c0,0.1-0.1,0.1-0.1,0.2c0.5,0.5,0.9,0.7,1.3,0.7h0.7c0.5,0,1.8-0.6,3.7-1.8s2.9-1.8,2.8-1.8
		c0.1,0,0.1,0,0.1,0c0,0,0,0,0.1,0c0.1,0,0.2-0.2,0.3-0.5c0.5-0.4,0.9-0.8,1.4-1.3C245.5,69.8,245.9,69.2,245.9,68.8z"/>
	<path fill="#9EEADE" d="M261.8,67.1c-0.2,0.4-0.4,1-0.6,1.7c-0.2,1.1-0.4,1.7-0.4,1.8c-0.7,2.3-1.7,4.2-3,5.6
		c-0.1,0.1-0.2,0.4-0.5,0.9c-0.1,0.2-0.4,0.4-0.7,0.4c-0.5,0-0.8-0.1-1-0.2c-1-1.3-2.4-3.1-4.2-5.4c-0.2,0.3-0.3,0.7-0.5,1.3
		c-0.1,0.5-0.3,1-0.4,1.5c-0.2,0.8-0.4,1.2-0.4,1.4c-0.3,0.7-0.6,1-0.9,1s-0.7-0.1-1.1-0.3c0,0,0-0.1,0-0.1c0,0,0-0.1,0-0.1
		c0-0.1-0.1-0.1-0.1-0.1v-0.4c0.2-0.2,0.5-1,1-2.6c0.4-1.5,0.6-2.4,0.6-2.6c0-0.1-0.1-0.6-0.3-1.5S249,68,249,68
		c0-0.1,0.1-0.3,0.2-0.5c0.1-0.2,0.3-0.3,0.4-0.3c0.1,0,0.1,0,0.1,0v0l0.2-0.2l0.5,0.2c0.1,0,0.1,0,0.1,0c0,0,0,0,0.1,0
		c0.1,0,0.3,0.1,0.6,0.4c0.2,0.2,0.3,0.5,0.4,0.9c0,0.5,0.1,0.8,0.2,1c0,0,0.2,0.3,0.5,0.7c0.2,0.3,0.3,0.5,0.3,0.7
		c0.1,0.2,0.9,1.1,2.2,2.9c0,0,0,0.1-0.1,0.1c-0.1,0-0.1,0.1-0.1,0.1c0.7,0.5,1.2,0.9,1.5,1.4c0.2-0.2,0.6-0.7,1.1-1.6
		c1.1-1.9,1.8-3.5,2-4.8c0-0.1,0.1-0.3,0.2-0.8c0.1-0.3,0.2-0.6,0.2-0.7c0-0.1,0-0.2-0.1-0.3c0.1-0.2,0.2-0.4,0.4-0.8
		c0-0.1,0.3-0.3,0.7-0.4C260.8,66.2,261.2,66.6,261.8,67.1z"/>
</g>
<g enable-background="new    ">
	<path fill="#9EEADE" d="M14.9,201.1c0,0.4-0.9,0.8-2.6,1.4c-1.7,0.6-2.6,1-2.6,1.2c0,0.1,0.1,0.2,0.2,0.4c0.1,0.3,0.2,0.5,0.3,0.8
		c0.1,0.3,0.2,0.6,0.3,0.8c0.7,1.6,1.2,2.8,1.5,3.6v0.6c-0.2,0.2-0.4,0.3-0.7,0.3c-0.3,0-0.7-0.3-0.9-0.8c-0.2-0.4-0.7-1.4-1.3-3.1
		c-0.5-1.5-0.8-2.3-0.9-2.3c-0.2,0-0.8,0.2-1.7,0.5c-0.9,0.3-1.5,0.5-1.6,0.6c0,0-0.2,0-0.5,0c-0.2,0-0.4,0.1-0.5,0.3
		c-0.1,0.5-0.3,1-0.4,1.5c-0.2,0.6-0.6,0.9-1,0.9c-0.3,0-0.6-0.2-0.8-0.5c-0.1-0.1-0.1-0.4-0.3-0.8c0.3-0.2,0.5-0.5,0.5-0.8
		c0-0.1,0-0.2,0-0.2c-0.2,0-0.4,0-0.7,0s-0.6,0-0.7,0c-0.2-0.6-0.2-0.8-0.2-0.8c0-0.2,0.1-0.4,0.4-0.6c0.3-0.2,0.5-0.3,0.6-0.3
		c0.1,0,0.1,0,0.1,0c0,0,0.1,0,0.1,0c0.1,0,0.4,0,0.6-0.1c0.3-0.1,0.6-0.2,0.7-0.3c0.2-0.3,0.4-0.9,0.6-1.9c0.1-0.7,0.2-1.3,0.3-2
		c0.1-0.8,0.3-2,0.6-3.6c0-0.3,0.1-0.9,0.2-1.6c0.2-0.3,0.5-0.4,0.8-0.4c0.3,0,0.5,0.1,0.7,0.2c0.2,0.2,0.4,0.7,0.8,1.5
		c0.3,0.7,0.6,1.1,0.8,1.1c0.4,1,0.8,2.5,1.5,4.5c0.1,0.2,0.2,0.4,0.3,0.4l4.3-1.4c0.2,0,0.5,0.1,0.7,0.1
		C14.7,200.6,14.9,200.8,14.9,201.1z M7.8,202.2c-0.3-0.8-0.5-1.6-0.8-2.4c-0.4-1.1-0.7-1.8-1.1-2.1c-0.1,0.4-0.2,0.9-0.3,1.6
		c-0.1,0.4-0.1,0.9-0.1,1.3c0,0.2-0.1,0.6-0.3,1.3C5,202.5,5,202.8,5,202.8v0.2h0.3C5.9,202.9,6.7,202.6,7.8,202.2z"/>
	<path fill="#9EEADE" d="M36.2,205c-0.1,0.1-0.1,0.3,0,0.6c-0.5,0.3-1.4,0.7-2.5,1.3c-0.1,0.2-0.2,0.3-0.5,0.6c-3.6,1.4-5.8,2-6.5,2
		c-0.1,0-0.4,0-1,0c-0.6,0-1,0-1,0c-0.1,0-0.5-0.2-1.1-0.6c-0.6-0.4-0.9-0.6-0.9-0.6c0-0.2-0.1-0.4-0.4-0.6c0-0.1-0.1-0.3-0.2-0.8
		c-0.1-0.5-0.2-0.9-0.2-1.3c0-1.5,0.6-3,1.8-4.5c1.1-1.3,2.5-2.5,4.1-3.3c1.7-0.9,3.3-1.3,4.8-1.3c0.2,0,0.6,0.2,1.2,0.5
		c0.6,0.4,0.9,0.7,0.9,1c0,0.2-0.1,0.3-0.3,0.5c-0.2,0.2-0.3,0.3-0.5,0.3c-0.1,0-0.2,0-0.3-0.1s-0.2-0.1-0.3-0.1
		c0-0.2,0-0.5-0.1-0.6c-0.1-0.2-0.3-0.3-0.5-0.3c-0.4,0-1.2,0.2-2.4,0.7c-0.9,0.4-1.6,0.7-1.8,0.9c-0.7,0.5-1.3,0.9-1.7,1.1
		c-0.7,0.6-1.4,1.4-2.1,2.5c-0.6,1.1-1,2-1,2.8c0,0.6,0.2,1.1,0.5,1.4c0.3,0.3,0.8,0.5,1.4,0.5h0.8c0.4,0,1.4-0.3,2.9-0.8
		c0.8-0.3,1.7-0.6,2.5-0.9c0.2-0.1,0.6-0.1,1.1-0.2c0.1-0.1,0.4-0.3,0.7-0.5c0.8-0.3,1.3-0.4,1.5-0.4c0.1,0,0.1,0,0.2,0
		c0.1,0,0.1,0,0.2,0c0.1,0,0.1,0,0.1-0.1c0-0.1,0.1-0.1,0.2-0.1s0.2,0,0.2,0.1C36.1,205,36.2,205,36.2,205z"/>
	<path fill="#9EEADE" d="M51.3,200.1c0,0.9-0.6,1.9-1.9,3.2c-0.9,0.9-1.7,1.6-2.4,2.1c-0.4,0.2-0.6,0.4-0.8,0.5
		c-0.3,0.2-0.7,0.3-0.9,0.3c-0.1,0.3-0.7,0.8-1.8,1.5c-1,0.6-1.6,0.9-1.8,0.9c-0.4,0-0.8,0.1-1.2,0.2c-0.4,0.1-0.6,0.2-0.8,0.2
		c-1.1,0-2.2-0.5-3.1-1.4c0-0.1,0-0.1,0-0.2c-0.4-0.3-0.6-0.5-0.6-0.7c0-0.8,0.2-1.8,0.6-2.8c0.3-0.9,0.7-1.7,1.1-2.3
		c0.1-0.1,0.5-0.5,1.2-1.4c0.6-0.7,1.2-1.3,1.8-1.7c0.2-0.1,1-0.6,2.5-1.2c1.6-0.7,2.6-1.1,2.9-1.1c0.2,0,0.7,0,1.2,0.1
		c0.8,0.1,1.4,0.3,1.8,0.4c0.2,0.1,0.6,0.5,1.2,1.2c0.2,0.2,0.4,0.5,0.6,1.1C51.2,199.4,51.3,199.8,51.3,200.1z M49.4,199.8
		c0-1.5-0.6-2.2-1.8-2.2h-1.2c0,0.1,0.2,0.3,0.4,0.6c0.2,0.3,0.3,0.4,0.3,0.5c0,0.2-0.1,0.4-0.4,0.6c-0.1-0.1-0.3-0.2-0.5-0.2
		c0,0-0.1-0.1-0.3-0.3c-0.2-0.2-0.4-0.3-0.8-0.3c-0.4,0-1.1,0.3-2.3,0.9c-0.6,0.3-1.2,0.7-1.9,1c-0.6,1-1.3,2-1.9,3
		c-0.7,1.1-1,2-0.9,2.6c0,0.1-0.1,0.1-0.1,0.2c0.5,0.5,0.9,0.7,1.3,0.7H40c0.5,0,1.8-0.6,3.7-1.8s2.9-1.8,2.8-1.8c0.1,0,0.1,0,0.1,0
		c0,0,0,0,0.1,0c0.1,0,0.2-0.2,0.3-0.5c0.5-0.4,0.9-0.8,1.4-1.3C49.1,200.8,49.4,200.2,49.4,199.8z"/>
	<path fill="#9EEADE" d="M65.1,208.8c0,0.1,0,0.1-0.1,0.2s0,0.1,0,0.2c-0.1,0-0.2,0-0.4,0c-0.2,0-0.3,0-0.4,0
		c-0.6,0-1.1-0.5-1.4-1.5c-0.2-0.7-0.3-1.4-0.3-2.1c0-0.1,0.1-0.7,0.2-1.9c0.2-1.2,0.2-1.8,0.2-1.9v-0.7c-0.3,0.2-0.7,0.6-1.2,1.3
		c-0.6,0.7-0.9,1.2-1,1.2c-0.4,0.3-0.7,0.7-1.1,1c-0.5,0.4-1,0.7-1.3,0.7c-0.6,0-1.4-0.4-2.2-1.3c-0.5-0.6-1.1-1.3-1.6-1.9
		c-0.2,1-0.3,2-0.5,3c-0.2,1.2-0.5,2.1-0.8,2.9c-0.1,0-0.3,0-0.6,0c-0.3,0-0.4,0-0.5,0c0,0-0.1-0.1-0.2-0.2
		c-0.1-0.1-0.2-0.2-0.3-0.3c0.7-2.5,1.1-5.3,1.2-8.4c0-0.3,0-0.6,0-0.9c0.1-0.4,0.2-0.6,0.6-0.6c0.4,0,0.8,0.1,1.1,0.4
		c0.2,0.2,0.4,0.5,0.6,0.9c0.2,0.4,0.4,0.7,0.5,0.8c-0.1,0.1-0.2,0.2-0.2,0.2c0,0.1,0.1,0.3,0.4,0.7c0.4,0.5,0.6,0.9,0.6,1
		c0.1,0.2,0.2,0.5,0.4,0.9c0.1,0.1,0.2,0.2,0.4,0.3c0.1,0.4,0.3,0.6,0.7,0.6c0.3,0,0.9-0.4,1.7-1.3c0.6-0.7,1.1-1.2,1.4-1.6
		c0.4-0.6,0.8-1.2,1.2-1.9c0.7-1.1,1.3-1.6,1.5-1.6c0.5,0,0.8,0.3,1,1c0.2,0.5,0.3,1,0.3,1.6c0,0.6-0.1,1.7-0.3,3.1
		c-0.2,1.4-0.3,2.5-0.3,3c0,0,0,0.2,0,0.6c0,0.3,0,0.6,0,0.7c0.1,0.3,0.3,0.7,0.5,1.2c0,0,0,0,0.1,0.1
		C65,208.7,65.1,208.8,65.1,208.8z"/>
	<path fill="#9EEADE" d="M79.7,198.5c0,1.1-0.7,2.1-2,3.2c-1.1,0.9-2.1,1.4-3,1.5c-0.1,0-0.2,0.1-0.3,0.2c-0.1,0.1-0.2,0.2-0.3,0.2
		c-0.4,0.1-0.8,0.2-1.1,0.2c-0.1,0-0.1,0-0.1-0.1h-0.1c-0.1,0-0.1,0-0.2,0.1c-0.1,0.1-0.1,0.1-0.2,0.1c-0.1,0-0.2,0-0.2-0.1
		c0-0.1,0-0.1,0-0.2c0,0.1-0.1,0.1-0.1,0.2c-0.1,0-0.4,0.1-0.7,0.2s-0.5,0.2-0.6,0.2c-0.1,0-0.1,0-0.1,0c0,0-0.1,0-0.1,0
		c-0.1,0-0.2,0-0.4,0.1c-0.3,0.1-0.4,0.1-0.5,0.2c-0.1,0.4-0.5,1.4-1.2,2.9c-0.8,1.8-1.4,2.7-1.8,2.7c-0.2,0-0.5-0.2-0.8-0.5
		c0-0.2,0.4-1.1,1.1-2.6c0.7-1.5,1-2.2,1-2.4c0-0.2-0.1-0.3-0.3-0.3c-0.1,0-0.2,0-0.4,0c-0.2,0-0.3,0-0.4,0c-0.1,0-0.3-0.2-0.5-0.5
		c-0.2-0.4-0.3-0.6-0.3-0.7c0-0.2,0.1-0.4,0.4-0.5c0.2-0.1,0.5-0.2,0.7-0.2c0.4,0.1,0.9,0.1,1.3,0.1c0.2-0.4,0.3-1.1,0.1-2
		c-0.1-0.7-0.1-1-0.1-0.9c0-0.8,0-1.2,0.1-1.4c0.3-0.5,0.7-1,1.3-1.6c0.5-0.5,0.9-0.8,1-0.8c0.1,0,0.1,0,0.2,0
		c0.1,0,0.1,0.1,0.2,0.1c-0.1,0,0.4-0.2,1.6-0.6c1.2-0.4,2.2-0.6,3.1-0.6c1,0,1.9,0.4,2.7,1.3C79.3,196.8,79.7,197.6,79.7,198.5z
		 M77.8,198.2c0-1-0.6-1.4-1.8-1.4c-0.1,0-0.4,0.1-1,0.2c-0.7,0.1-1.2,0.2-1.5,0.2c0,0.2-0.3,0.4-0.7,0.6c-0.5,0.2-0.8,0.3-0.8,0.4
		c-0.7,1.2-1,2-1,2.5c0,0.5-0.1,1-0.2,1.5c0,0.1,0.1,0.1,0.2,0.2h0.3c0.1,0,0.2,0,0.3,0c0.1,0,0.2,0,0.3,0c0.8,0,1.9-0.4,3.4-1.2
		C76.9,200,77.8,199.1,77.8,198.2z"/>
	<path fill="#9EEADE" d="M93.3,201.1c0,0.4-0.9,0.8-2.6,1.4c-1.7,0.6-2.6,1-2.6,1.2c0,0.1,0.1,0.2,0.2,0.4c0.1,0.3,0.2,0.5,0.3,0.8
		c0.1,0.3,0.2,0.6,0.3,0.8c0.7,1.6,1.2,2.8,1.5,3.6v0.6c-0.2,0.2-0.4,0.3-0.7,0.3c-0.3,0-0.7-0.3-0.9-0.8c-0.2-0.4-0.7-1.4-1.3-3.1
		c-0.5-1.5-0.8-2.3-0.9-2.3c-0.2,0-0.8,0.2-1.7,0.5c-0.9,0.3-1.5,0.5-1.6,0.6c0,0-0.2,0-0.5,0c-0.2,0-0.4,0.1-0.5,0.3
		c-0.1,0.5-0.3,1-0.4,1.5c-0.2,0.6-0.6,0.9-1,0.9c-0.3,0-0.6-0.2-0.8-0.5c-0.1-0.1-0.1-0.4-0.3-0.8c0.3-0.2,0.5-0.5,0.5-0.8
		c0-0.1,0-0.2,0-0.2c-0.2,0-0.4,0-0.7,0c-0.3,0-0.6,0-0.7,0c-0.2-0.6-0.2-0.8-0.2-0.8c0-0.2,0.1-0.4,0.4-0.6
		c0.3-0.2,0.5-0.3,0.6-0.3c0.1,0,0.1,0,0.1,0c0,0,0.1,0,0.1,0c0.1,0,0.4,0,0.6-0.1c0.3-0.1,0.6-0.2,0.7-0.3c0.2-0.3,0.4-0.9,0.6-1.9
		c0.1-0.7,0.2-1.3,0.3-2c0.1-0.8,0.3-2,0.6-3.6c0-0.3,0.1-0.9,0.2-1.6c0.2-0.3,0.5-0.4,0.8-0.4s0.5,0.1,0.7,0.2
		c0.2,0.2,0.4,0.7,0.8,1.5c0.3,0.7,0.6,1.1,0.8,1.1c0.4,1,0.8,2.5,1.5,4.5c0.1,0.2,0.2,0.4,0.3,0.4l4.3-1.4c0.2,0,0.5,0.1,0.7,0.1
		C93.2,200.6,93.3,200.8,93.3,201.1z M86.2,202.2c-0.3-0.8-0.5-1.6-0.8-2.4c-0.4-1.1-0.7-1.8-1.1-2.1c-0.1,0.4-0.2,0.9-0.3,1.6
		c-0.1,0.4-0.1,0.9-0.1,1.3c0,0.2-0.1,0.6-0.3,1.3c-0.1,0.6-0.2,0.9-0.2,0.9v0.2h0.3C84.3,202.9,85.2,202.6,86.2,202.2z"/>
	<path fill="#9EEADE" d="M106.8,198.1c-0.2,0.4-0.4,1-0.6,1.7c-0.2,1.1-0.4,1.7-0.4,1.8c-0.7,2.3-1.7,4.2-3,5.6
		c-0.1,0.1-0.2,0.4-0.5,0.9c-0.1,0.2-0.4,0.4-0.7,0.4c-0.5,0-0.8-0.1-1-0.2c-1-1.3-2.4-3.1-4.2-5.4c-0.2,0.3-0.3,0.7-0.5,1.3
		c-0.1,0.5-0.3,1-0.4,1.5c-0.2,0.8-0.4,1.2-0.4,1.4c-0.3,0.7-0.6,1-0.9,1s-0.7-0.1-1.1-0.3c0,0,0-0.1,0-0.1c0,0,0-0.1,0-0.1
		c0-0.1-0.1-0.1-0.1-0.1v-0.4c0.2-0.2,0.5-1,1-2.6c0.4-1.5,0.6-2.4,0.6-2.6c0-0.1-0.1-0.6-0.3-1.5S94,199,94,199
		c0-0.1,0.1-0.3,0.2-0.5c0.1-0.2,0.3-0.3,0.4-0.3c0.1,0,0.1,0,0.1,0v0l0.2-0.2l0.5,0.2c0.1,0,0.1,0,0.1,0c0,0,0,0,0.1,0
		c0.1,0,0.3,0.1,0.6,0.4c0.2,0.2,0.3,0.5,0.4,0.9c0,0.5,0.1,0.8,0.2,1c0,0,0.2,0.3,0.5,0.7c0.2,0.3,0.3,0.5,0.3,0.7
		c0.1,0.2,0.9,1.1,2.2,2.9c0,0,0,0.1-0.1,0.1c-0.1,0-0.1,0.1-0.1,0.1c0.7,0.5,1.2,0.9,1.5,1.4c0.2-0.2,0.6-0.7,1.1-1.6
		c1.1-1.9,1.8-3.5,2-4.8c0-0.1,0.1-0.3,0.2-0.8c0.1-0.3,0.2-0.6,0.2-0.7c0-0.1,0-0.2-0.1-0.3c0.1-0.2,0.2-0.4,0.4-0.8
		c0-0.1,0.3-0.3,0.7-0.4C105.8,197.2,106.2,197.6,106.8,198.1z"/>
	<path fill="#9EEADE" d="M118.5,197.4c0,0.2-0.3,0.4-1,0.8c-0.7,0.3-1.5,1-2.4,2.2c-0.7,0.8-1.3,1.7-2,2.5c0,0.2-0.1,0.4-0.4,0.7
		s-0.4,0.6-0.4,0.8c0,0.1,0.1,0.2,0.2,0.3c0,0.4-0.3,0.8-1,1.3c-0.3,0.2-0.5,0.6-0.7,1.2c-0.2,0.5-0.2,0.9-0.2,1
		c0,0.5,0.1,0.9,0.2,1.2c0.1,0.1,0.2,0.2,0.4,0.3c0,0.1-0.1,0.2-0.1,0.4s-0.1,0.2-0.2,0.2h-0.2c-0.4,0-0.8-0.4-1.2-1.2
		c-0.3-0.7-0.5-1.2-0.5-1.5c0-0.2,0.2-0.9,0.6-2.1c0-0.3-0.1-0.7-0.4-1c-0.1-0.1-0.3-0.3-0.5-0.4c-0.1-0.1-0.1-0.3,0-0.5
		c-0.3-0.3-0.6-0.7-0.9-1.3c-0.1-0.2-0.2-0.5-0.2-0.9c-0.1-0.5-0.1-0.9-0.1-1c0.1-1.4,0.1-2.1,0-2.2l0.2-1.1
		c0.1-0.4,0.3-0.7,0.7-0.8c0.1,0.1,0.3,0.2,0.6,0.5c0.2,0.1,0.3,0.3,0.4,0.5c-0.1,1.6-0.2,2.6-0.2,2.8c0,1.7,0.4,2.9,1.3,3.7
		c0.6-0.6,1.1-1.6,1.7-2.9c0.7-0.8,1.4-1.6,2.1-2.4c1.3-1.3,2.3-2,3-2c0.2,0,0.4,0.1,0.7,0.3C118.3,197,118.5,197.2,118.5,197.4z"/>
</g>
<g enable-background="new    ">
	<path fill="#9EEADE" d="M677.9,218.1c0,0.4-0.9,0.8-2.6,1.4c-1.7,0.6-2.6,1-2.6,1.2c0,0.1,0.1,0.2,0.2,0.4c0.1,0.3,0.2,0.5,0.3,0.8
		c0.1,0.3,0.2,0.6,0.3,0.8c0.7,1.6,1.2,2.8,1.5,3.6v0.6c-0.2,0.2-0.4,0.3-0.7,0.3c-0.3,0-0.7-0.3-0.9-0.8c-0.2-0.4-0.7-1.4-1.3-3.1
		c-0.5-1.5-0.8-2.3-0.9-2.3c-0.2,0-0.8,0.2-1.7,0.5c-0.9,0.3-1.5,0.5-1.6,0.6c0,0-0.2,0-0.5,0c-0.2,0-0.4,0.1-0.5,0.3
		c-0.1,0.5-0.3,1-0.4,1.5c-0.2,0.6-0.6,0.9-1,0.9c-0.3,0-0.6-0.2-0.8-0.5c-0.1-0.1-0.1-0.4-0.3-0.8c0.3-0.2,0.5-0.5,0.5-0.8
		c0-0.1,0-0.2,0-0.2c-0.2,0-0.4,0-0.7,0s-0.6,0-0.7,0c-0.2-0.6-0.2-0.8-0.2-0.8c0-0.2,0.1-0.4,0.4-0.6c0.3-0.2,0.5-0.3,0.6-0.3
		c0.1,0,0.1,0,0.1,0c0,0,0.1,0,0.1,0c0.1,0,0.4,0,0.6-0.1c0.3-0.1,0.6-0.2,0.7-0.3c0.2-0.3,0.4-0.9,0.6-1.9c0.1-0.7,0.2-1.3,0.3-2
		c0.1-0.8,0.3-2,0.6-3.6c0-0.3,0.1-0.9,0.2-1.6c0.2-0.3,0.5-0.4,0.8-0.4s0.5,0.1,0.7,0.2c0.2,0.2,0.4,0.7,0.8,1.5
		c0.3,0.7,0.6,1.1,0.8,1.1c0.4,1,0.8,2.5,1.5,4.5c0.1,0.2,0.2,0.4,0.3,0.4l4.3-1.4c0.2,0,0.5,0.1,0.7,0.1
		C677.7,217.6,677.9,217.8,677.9,218.1z M670.8,219.2c-0.3-0.8-0.5-1.6-0.8-2.4c-0.4-1.1-0.7-1.8-1.1-2.1c-0.1,0.4-0.2,0.9-0.3,1.6
		c-0.1,0.4-0.1,0.9-0.1,1.3c0,0.2-0.1,0.6-0.3,1.3c-0.1,0.6-0.2,0.9-0.2,0.9v0.2h0.3C668.9,219.9,669.7,219.6,670.8,219.2z"/>
	<path fill="#9EEADE" d="M697.8,218.2c0,0-0.1,0.1-0.2,0.2c-0.1,0.1-0.2,0.2-0.3,0.2c-0.1,0-0.1,0-0.1-0.1h-0.1
		c-0.3,0-0.7,0.1-1.1,0.4c-0.4,0.2-1.1,0.5-2.1,0.9c-1,0.4-1.7,0.6-1.9,0.7c-0.3,0.2-0.5,0.4-0.5,0.8c0,0.1,0,0.2,0.1,0.4
		c0.1,0.2,0.1,0.3,0.1,0.4c0,0.3,0.1,0.8,0.1,1.7c0.1,0.7,0.1,1.1,0.1,1.2v0.5c-0.1,0-0.1,0-0.2,0.1c-0.1,0.1-0.2,0.1-0.2,0.1
		c-0.9,0-1.3-0.4-1.3-1.1c0-0.1,0-0.4,0-0.7c-0.1-0.5-0.2-1.1-0.4-2c-0.7,0.3-1.4,0.6-2,0.9c-1.3,0.6-2,0.9-2.2,0.9
		c-0.1,0-0.1,0-0.2,0c-0.1,0-0.2,0-0.3,0c-0.2,0-0.3-0.1-0.5-0.3s-0.3-0.4-0.3-0.6c0-0.3,0.1-0.5,0.4-0.6c1.6-0.7,2.5-1.1,2.6-1.1
		c0.1,0,0.1,0,0.1,0c0,0,0,0,0.1,0c0,0,0.7-0.4,2.1-1.2c0-0.1,0-0.4-0.1-1c0-0.4-0.1-0.7-0.4-0.9c-0.1,0-0.2,0.1-0.4,0.2
		c-0.2,0.2-0.3,0.2-0.4,0.2c-0.5,0-0.9-0.1-1.2-0.4c-0.1-0.2-0.2-0.4-0.3-0.7c0.3-0.5,0.5-0.8,0.6-0.8c0.1,0,0.1,0,0.1,0
		c0,0,0,0,0.1,0c0.1,0,0.3-0.1,0.7-0.4c0.4-0.3,0.6-0.5,0.6-0.7c0,0,0.1,0,0.1,0c0.1,0,0.1,0,0.2,0c0.5,0,1.3-0.2,2.2-0.6
		c0.9-0.4,1.4-0.6,1.3-0.6c0.1,0,0.1,0,0.1,0c0,0,0,0,0.1,0c1-0.5,1.9-0.7,2.5-0.7c0.1,0,0.4,0.2,0.8,0.5c-0.2,0.3-0.3,0.4-0.3,0.5
		c-0.1,0.2-0.3,0.3-0.4,0.4c-0.9,0.4-1.8,0.8-2.7,1.1c-1.3,0.6-2,1-2,1.3c0,0,0,0.2,0.1,0.6c0.1,0.4,0.2,0.7,0.2,0.9
		c0,0,0,0.1,0.1,0.1c0,0,0.3-0.1,0.8-0.3c0.6-0.2,1.1-0.4,1.6-0.5c1.3-0.3,2.6-0.5,3.7-0.5l0.5,0.3V218.2z"/>
	<path fill="#9EEADE" d="M712.9,218.1c0,0.4-0.9,0.8-2.6,1.4c-1.7,0.6-2.6,1-2.6,1.2c0,0.1,0.1,0.2,0.2,0.4c0.1,0.3,0.2,0.5,0.3,0.8
		c0.1,0.3,0.2,0.6,0.3,0.8c0.7,1.6,1.2,2.8,1.5,3.6v0.6c-0.2,0.2-0.4,0.3-0.7,0.3c-0.3,0-0.7-0.3-0.9-0.8c-0.2-0.4-0.7-1.4-1.3-3.1
		c-0.5-1.5-0.8-2.3-0.9-2.3c-0.2,0-0.8,0.2-1.7,0.5c-0.9,0.3-1.5,0.5-1.6,0.6c0,0-0.2,0-0.5,0c-0.2,0-0.4,0.1-0.5,0.3
		c-0.1,0.5-0.3,1-0.4,1.5c-0.2,0.6-0.6,0.9-1,0.9c-0.3,0-0.6-0.2-0.8-0.5c-0.1-0.1-0.1-0.4-0.3-0.8c0.3-0.2,0.5-0.5,0.5-0.8
		c0-0.1,0-0.2,0-0.2c-0.2,0-0.4,0-0.7,0s-0.6,0-0.7,0c-0.2-0.6-0.2-0.8-0.2-0.8c0-0.2,0.1-0.4,0.4-0.6c0.3-0.2,0.5-0.3,0.6-0.3
		c0.1,0,0.1,0,0.1,0c0,0,0.1,0,0.1,0c0.1,0,0.4,0,0.6-0.1c0.3-0.1,0.6-0.2,0.7-0.3c0.2-0.3,0.4-0.9,0.6-1.9c0.1-0.7,0.2-1.3,0.3-2
		c0.1-0.8,0.3-2,0.6-3.6c0-0.3,0.1-0.9,0.2-1.6c0.2-0.3,0.5-0.4,0.8-0.4c0.3,0,0.5,0.1,0.7,0.2c0.2,0.2,0.4,0.7,0.8,1.5
		c0.3,0.7,0.6,1.1,0.8,1.1c0.4,1,0.8,2.5,1.5,4.5c0.1,0.2,0.2,0.4,0.3,0.4l4.3-1.4c0.2,0,0.5,0.1,0.7,0.1
		C712.8,217.6,712.9,217.8,712.9,218.1z M705.8,219.2c-0.3-0.8-0.5-1.6-0.8-2.4c-0.4-1.1-0.7-1.8-1.1-2.1c-0.1,0.4-0.2,0.9-0.3,1.6
		c-0.1,0.4-0.1,0.9-0.1,1.3c0,0.2-0.1,0.6-0.3,1.3c-0.1,0.6-0.2,0.9-0.2,0.9v0.2h0.3C703.9,219.9,704.8,219.6,705.8,219.2z"/>
	<path fill="#9EEADE" d="M726.9,222c-0.1,0.1-0.1,0.3,0,0.6c-0.5,0.3-1.4,0.7-2.5,1.3c-0.1,0.2-0.2,0.3-0.5,0.6
		c-3.6,1.4-5.8,2-6.5,2c-0.1,0-0.4,0-1,0c-0.6,0-1,0-1,0c-0.1,0-0.5-0.2-1.1-0.6s-0.9-0.6-0.9-0.6c0-0.2-0.1-0.4-0.4-0.6
		c0-0.1-0.1-0.3-0.2-0.8c-0.1-0.5-0.2-0.9-0.2-1.3c0-1.5,0.6-3,1.8-4.5c1.1-1.3,2.5-2.5,4.2-3.3s3.3-1.3,4.8-1.3
		c0.2,0,0.6,0.2,1.2,0.5c0.6,0.4,0.9,0.7,0.9,1c0,0.2-0.1,0.3-0.3,0.5c-0.2,0.2-0.3,0.3-0.5,0.3c-0.1,0-0.2,0-0.3-0.1
		s-0.2-0.1-0.3-0.1c0-0.2,0-0.5-0.2-0.6s-0.3-0.3-0.5-0.3c-0.4,0-1.2,0.2-2.4,0.7c-0.9,0.4-1.6,0.7-1.8,0.9
		c-0.7,0.5-1.3,0.9-1.7,1.1c-0.7,0.6-1.4,1.4-2.1,2.5c-0.6,1.1-1,2-1,2.8c0,0.6,0.2,1.1,0.5,1.4c0.3,0.3,0.8,0.5,1.4,0.5h0.8
		c0.4,0,1.4-0.3,2.9-0.8c0.8-0.3,1.7-0.6,2.5-0.9c0.2-0.1,0.6-0.1,1.1-0.2c0.1-0.1,0.4-0.3,0.7-0.5c0.8-0.3,1.3-0.4,1.5-0.4
		c0.1,0,0.1,0,0.2,0c0.1,0,0.1,0,0.2,0c0.1,0,0.1,0,0.1-0.1c0-0.1,0.1-0.1,0.2-0.1s0.2,0,0.2,0.1C726.8,222,726.8,222,726.9,222z"/>
	<path fill="#9EEADE" d="M743,214.4c-0.1,0-0.2,0.2-0.3,0.4c-0.2,0.2-0.3,0.3-0.4,0.3c-0.8,0-3.5,0.3-7.9,0.9c0,0.3,0,0.6,0.1,0.9
		c-0.1-0.1-0.4,0-0.8,0.1c-0.1-0.1-0.2-0.2-0.4-0.3c-0.2-0.1-0.3-0.1-0.4-0.1c-0.3,0-0.6,0.7-0.8,2.2c-0.1,1-0.2,1.7-0.2,2.2
		c0,0.2,0.2,1.3,0.6,3.4c0.3,0.2,0.5,0.3,0.6,0.4c0.1,0.3,0.1,0.7,0.3,1.2c0,0-0.2,0.1-0.4,0.3c-0.2,0.1-0.3,0.2-0.4,0.2
		c-0.9,0-1.5-1.1-1.9-3.3c-0.2-1.3-0.4-2.5-0.4-3.6c0-0.1,0-0.2,0.1-0.4c0.1-0.2,0.1-0.4,0.1-0.5c0-0.1,0-0.2-0.1-0.6
		c0.1-0.1,0.2-0.3,0.3-0.6v-0.7c-0.3,0-0.9,0.1-1.8,0.2c-0.9,0.2-1.4,0.3-1.5,0.3c-0.5,0-0.9-0.1-1.3-0.4c-0.5-0.3-0.8-0.7-0.8-1.1
		c0-0.3,0.1-0.5,0.3-0.6c0.4,0,1,0,1.8,0c0.9-0.1,1.3-0.1,1.2-0.1c0.1,0,0.2,0,0.3,0.1s0.3,0.1,0.3,0.1s0.2-0.1,0.4-0.2
		c0.2-0.1,0.3-0.2,0.4-0.2c1.7-0.3,3.2-0.4,4.7-0.6c1.1-0.1,2.8-0.2,4.9-0.2c0.1,0,0.2,0,0.3-0.1c0.1-0.1,0.2-0.1,0.3-0.1
		c-0.1,0,0.1,0,0.5,0.1c0.4,0,1.1,0,2,0c0.1,0,0.1,0.1,0.2,0.3S743,214.3,743,214.4z"/>
	<path fill="#9EEADE" d="M756.1,217.1c0,0.9-0.6,1.9-1.9,3.2c-0.9,0.9-1.7,1.6-2.4,2.1c-0.4,0.2-0.6,0.4-0.8,0.5
		c-0.3,0.2-0.7,0.3-0.9,0.3c-0.1,0.3-0.7,0.8-1.8,1.5c-1,0.6-1.6,0.9-1.8,0.9c-0.4,0-0.8,0.1-1.2,0.2c-0.4,0.1-0.6,0.2-0.8,0.2
		c-1.1,0-2.2-0.5-3.1-1.4c0-0.1,0-0.1,0-0.2c-0.4-0.3-0.6-0.5-0.6-0.7c0-0.8,0.2-1.8,0.6-2.8c0.3-0.9,0.7-1.7,1.1-2.3
		c0.1-0.1,0.5-0.5,1.2-1.4c0.6-0.7,1.2-1.3,1.8-1.7c0.2-0.1,1-0.6,2.5-1.2c1.6-0.7,2.6-1.1,2.9-1.1c0.2,0,0.7,0,1.2,0.1
		c0.8,0.1,1.4,0.3,1.8,0.4c0.2,0.1,0.6,0.5,1.2,1.2c0.2,0.2,0.4,0.5,0.6,1.1C755.9,216.4,756.1,216.8,756.1,217.1z M754.2,216.8
		c0-1.5-0.6-2.2-1.8-2.2h-1.2c0,0.1,0.2,0.3,0.4,0.6c0.2,0.3,0.3,0.4,0.3,0.5c0,0.2-0.1,0.4-0.4,0.6c-0.1-0.1-0.3-0.2-0.5-0.2
		c0,0-0.1-0.1-0.3-0.3c-0.2-0.2-0.4-0.3-0.8-0.3c-0.4,0-1.1,0.3-2.3,0.9c-0.6,0.3-1.2,0.7-1.9,1c-0.6,1-1.3,2-1.9,3
		c-0.7,1.1-1,2-0.9,2.6c0,0.1-0.1,0.1-0.1,0.2c0.5,0.5,0.9,0.7,1.3,0.7h0.7c0.5,0,1.8-0.6,3.7-1.8s2.9-1.8,2.8-1.8
		c0.1,0,0.1,0,0.1,0c0,0,0,0,0.1,0c0.1,0,0.2-0.2,0.3-0.5c0.5-0.4,0.9-0.8,1.4-1.3C753.8,217.8,754.2,217.2,754.2,216.8z"/>
	<path fill="#9EEADE" d="M770.2,226c0,0.2-0.1,0.4-0.2,0.4c0,0-0.1,0-0.3,0c-0.1,0-0.1,0-0.2,0c-0.1,0-0.1,0-0.2,0s-0.1,0-0.1,0.1
		c0,0.1-0.1,0.1-0.2,0.1c-0.1,0-0.1,0-0.2-0.1c-0.1-0.1-0.1-0.1-0.2-0.1c-0.1,0-0.1,0-0.2,0c0,0-0.1,0-0.2,0c-0.2,0-0.9-0.2-1.9-0.6
		c-0.1,0-0.1-0.1-0.2-0.2s-0.1-0.2-0.2-0.2c-0.1,0-0.1,0-0.1,0s0,0-0.1,0c-0.1,0-0.5-0.2-1.3-0.6c-0.9-0.5-1.6-0.8-1.9-0.9
		c-1.3-0.5-2.5-0.9-3.4-1.4c-0.2,0.3-0.3,0.6-0.3,1.1c0,0.1,0,0.3,0,0.5c0,0.2,0,0.4,0,0.5c0,0.7-0.3,1-0.9,1c0,0-0.2-0.3-0.6-0.9
		c0-0.2,0-0.5,0-0.7c0-0.2-0.1-0.4-0.1-0.4v-3c0-0.1,0-0.2,0.1-0.5c0.1-0.3,0.2-0.5,0.2-0.5c-0.1-0.1-0.1-0.1-0.2-0.1
		c0-0.2,0-0.5,0-0.8c-0.1-0.1-0.2-0.3-0.3-0.6s-0.2-0.5-0.3-0.7c-0.1-0.7-0.1-1.2-0.1-1.4c0-0.2,0.1-0.5,0.4-0.9
		c0.3-0.4,0.5-0.7,0.5-0.7c0.7-0.4,1.5-0.7,2.2-1.1c1-0.5,1.8-0.7,2.5-0.7c0.1,0,0.1,0,0.2,0.1c0.1,0,0.2,0,0.4,0
		c0.9,0,1.6,0.3,2.4,0.8c0.8,0.6,1.3,1.4,1.3,2.3c0,1.2-0.8,2.4-2.3,3.6c-1.3,1-2.6,1.6-3.9,2c0.3,0.3,1,0.6,2,1
		c0.9,0.4,1.5,0.7,1.9,1c0.2,0.1,0.9,0.4,2.2,1c1.2,0.6,1.9,0.9,1.9,0.9c0.1,0,0.1,0,0.1,0c0,0,0,0,0.1,0c0.1,0,0.2,0.1,0.5,0.2
		c0.3,0.2,0.4,0.2,0.5,0.2s0.1,0,0.1,0c0,0,0,0,0.1,0C769.7,225.7,770,225.8,770.2,226z M764.8,215.7v-0.6c-0.2-0.1-0.5-0.3-1-0.6
		c-0.2-0.1-0.5-0.2-0.7-0.2c-0.6,0-1.4,0.2-2.2,0.5c-0.7,0.3-1.2,0.5-1.6,0.8l-0.3,3.9c0,0.2,0,0.4,0.1,0.5h0.4c0.1,0,0.2,0,0.5-0.1
		c0.3-0.1,0.4-0.1,0.5-0.1c0.1,0,0.4-0.2,0.9-0.5c0.6-0.3,0.9-0.5,1-0.5c0.4-0.4,0.8-0.8,1.2-1.2
		C764.4,216.8,764.8,216.2,764.8,215.7z"/>
	<path fill="#9EEADE" d="M779.6,214.4c0,0.2-0.3,0.4-1,0.8c-0.7,0.3-1.5,1-2.4,2.2c-0.7,0.8-1.3,1.7-2,2.5c0,0.2-0.1,0.4-0.4,0.7
		s-0.4,0.6-0.4,0.8c0,0.1,0.1,0.2,0.2,0.3c0,0.4-0.3,0.8-1,1.3c-0.3,0.2-0.5,0.6-0.7,1.2c-0.2,0.5-0.2,0.9-0.2,1
		c0,0.5,0.1,0.9,0.2,1.2c0.1,0.1,0.2,0.2,0.4,0.3c0,0.1-0.1,0.2-0.1,0.4s-0.1,0.2-0.2,0.2h-0.2c-0.4,0-0.8-0.4-1.2-1.2
		c-0.3-0.7-0.5-1.2-0.5-1.5c0-0.2,0.2-0.9,0.6-2.1c0-0.3-0.1-0.7-0.4-1c-0.1-0.1-0.3-0.3-0.5-0.4c-0.1-0.1-0.1-0.3,0-0.5
		c-0.3-0.3-0.6-0.7-0.9-1.3c-0.1-0.2-0.2-0.5-0.2-0.9c-0.1-0.5-0.1-0.9-0.1-1c0.1-1.4,0.1-2.1,0-2.2l0.2-1.1
		c0.1-0.4,0.3-0.7,0.7-0.8c0.1,0.1,0.3,0.2,0.6,0.5c0.2,0.1,0.3,0.3,0.4,0.5c-0.1,1.6-0.2,2.6-0.2,2.8c0,1.7,0.4,2.9,1.3,3.7
		c0.6-0.6,1.1-1.6,1.7-2.9c0.7-0.8,1.4-1.6,2.1-2.4c1.3-1.3,2.3-2,3-2c0.2,0,0.4,0.1,0.7,0.3C779.4,214,779.6,214.2,779.6,214.4z"/>
</g>
<path fill="#EADD9E" d="M182.7,180l14.7,1.3l-11.9-8.8l-1.2,1.6l3.3,2.4c-46.3-16.7-73.6-18.1-83.5-4.2l1.6,1.2
	c9.1-12.8,36.3-11.2,80.7,4.7l-3.6-0.3L182.7,180z"/>
<path fill="#EADD9E" d="M695.2,248l-0.5-1.9c-15.2,3.7-32.9,3.9-52.9,0.8l2.4-0.2l-0.2-2l-14.7,1.4l13.3,6.4l0.9-1.8l-4.7-2.3
	c10.3,1.8,20,2.7,29.2,2.7C677.8,251,686.9,250,695.2,248z M636.7,247.3l0.2,0l0,0.1L636.7,247.3z"/>
<path fill="#EADD9E" d="M305.6,122.8l13.2,6.7l-7.9-12.6l-1.7,1.1l2.1,3.4c-8-7.2-19.6-17.3-34.7-30.2l-1.3,1.5
	c14.9,12.8,26.4,22.8,34.4,29.9l-3.3-1.7L305.6,122.8z"/>
<path fill="#EADD9E" d="M459.5,67.7c7.8-7.1,15.6-16.9,23.4-29.2l-1.7-1.1c-6.8,10.8-13.6,19.6-20.4,26.3l0.9-1.1l-1.6-1.2l-9,11.8
	l13.8-5.5l-0.7-1.9L459.5,67.7z"/>
<path fill="#EADD9E" d="M548.1,115l-0.3-2c-22.9,3.2-39.6,7.6-49.7,13.2l3.4-4.5l-1.6-1.2l-9,11.8l13.8-5.5l-0.5-1.3
	C514.3,121.2,529,117.7,548.1,115z"/>
</svg>
