<svg xmlns="http://www.w3.org/2000/svg" viewBox="0 0 791 253" enable-background="new 0 0 791 253">
  <filter width="101.1%" height="116.7%" x="-.5%" filterUnits="objectBoundingBox" id="d" y="-4.2%">
    <feOffset result="shadowOffsetOuter1" dy="2" in="SourceAlpha"/>
    <feGaussianBlur result="shadowBlurOuter1" in="shadowOffsetOuter1" stdDeviation="1"/>
    <feComposite operator="out" result="shadowBlurOuter1" in="shadowBlurOuter1" in2="SourceAlpha"/>
    <feColorMatrix in="shadowBlurOuter1" values="0 0 0 0 0.870269983 0 0 0 0 0.870269983 0 0 0 0 0.870269983 0 0 0 0.5 0"/>
  </filter>
  <filter width="101.1%" height="116.7%" x="-.5%" filterUnits="objectBoundingBox" id="c" y="-4.2%">
    <feOffset result="shadowOffsetOuter1" dy="2" in="SourceAlpha"/>
    <feGaussianBlur result="shadowBlurOuter1" in="shadowOffsetOuter1" stdDeviation="1"/>
    <feComposite operator="out" result="shadowBlurOuter1" in="shadowBlurOuter1" in2="SourceAlpha"/>
    <feColorMatrix in="shadowBlurOuter1" values="0 0 0 0 0.870269983 0 0 0 0 0.870269983 0 0 0 0 0.870269983 0 0 0 0.5 0"/>
  </filter>
  <filter width="101.1%" height="116.7%" x="-.5%" filterUnits="objectBoundingBox" id="b" y="-4.2%">
    <feOffset result="shadowOffsetOuter1" dy="2" in="SourceAlpha"/>
    <feGaussianBlur result="shadowBlurOuter1" in="shadowOffsetOuter1" stdDeviation="1"/>
    <feColorMatrix in="shadowBlurOuter1" values="0 0 0 0 0.870269983 0 0 0 0 0.870269983 0 0 0 0 0.870269983 0 0 0 0.5 0"/>
  </filter>
  <filter width="101.1%" height="116.7%" x="-.5%" filterUnits="objectBoundingBox" id="a" y="-4.2%">
    <feOffset result="shadowOffsetOuter1" dy="2" in="SourceAlpha"/>
    <feGaussianBlur result="shadowBlurOuter1" in="shadowOffsetOuter1" stdDeviation="1"/>
    <feColorMatrix in="shadowBlurOuter1" values="0 0 0 0 0.870269983 0 0 0 0 0.870269983 0 0 0 0 0.870269983 0 0 0 0.5 0"/>
  </filter>
  <path fill="#FFF" d="M3 0h756.2v24H3"/>
  <g enable-background="new" fill="#868686">
    <path d="M37.9 8.4c0 .9-.3 1.7-1 2.2-.6.5-1.6.8-2.8.8H33V15h-1V5.7h2.4c2.4 0 3.5.9 3.5 2.7zm-4.8 2h1c1 0 1.6-.2 2.1-.5.4-.3.6-.8.6-1.5 0-.6-.2-1.1-.6-1.4-.4-.3-1-.5-1.9-.5h-1.2v3.9zM40.9 11.1V15h-1.1V5.7h2.5c1.1 0 2 .2 2.5.7.5.4.8 1.1.8 2 0 1.2-.6 2.1-1.9 2.5l2.5 4.2h-1.3l-2.2-3.9h-1.8zm0-.9h1.5c.8 0 1.3-.2 1.7-.5s.5-.8.5-1.4c0-.6-.2-1.1-.5-1.3-.4-.3-.9-.4-1.7-.4H41v3.6zM56 10.3c0 1.5-.4 2.7-1.1 3.5-.8.8-1.8 1.3-3.1 1.3-1.4 0-2.4-.4-3.2-1.3-.7-.8-1.1-2-1.1-3.5s.4-2.7 1.1-3.5c.7-.8 1.8-1.2 3.2-1.2 1.3 0 2.4.4 3.1 1.3.7.8 1.1 2 1.1 3.4zm-7.4 0c0 1.3.3 2.2.8 2.9.5.6 1.3 1 2.3 1 1 0 1.8-.3 2.3-1 .5-.6.8-1.6.8-2.9 0-1.2-.3-2.2-.8-2.8s-1.3-1-2.3-1c-1 0-1.8.3-2.3 1-.6.7-.8 1.6-.8 2.8zM65.4 10.3c0 1.5-.4 2.7-1.2 3.5-.8.8-2 1.2-3.6 1.2H58V5.7h2.8c1.4 0 2.6.4 3.4 1.2.8.8 1.2 1.9 1.2 3.4zm-1.1 0c0-1.2-.3-2.1-.9-2.7-.6-.6-1.5-.9-2.7-.9h-1.6v7.4h1.3c1.3 0 2.3-.3 2.9-.9s1-1.7 1-2.9zM74.5 5.7v6c0 1.1-.3 1.9-1 2.5-.6.6-1.5.9-2.6.9s-2-.3-2.6-.9-.9-1.4-.9-2.5v-6h1.1v6.1c0 .8.2 1.4.6 1.8.4.4 1 .6 1.9.6.8 0 1.4-.2 1.8-.6.4-.4.6-1 .6-1.8v-6h1.1zM80.9 6.6c-1 0-1.8.3-2.4 1-.6.7-.9 1.6-.9 2.8 0 1.2.3 2.2.9 2.8s1.4 1 2.4 1c.6 0 1.4-.1 2.2-.3v.9c-.6.2-1.4.4-2.4.4-1.4 0-2.4-.4-3.2-1.2-.7-.8-1.1-2-1.1-3.5 0-1 .2-1.8.5-2.5.4-.7.9-1.3 1.5-1.7.8-.5 1.6-.7 2.6-.7s1.8.2 2.6.5L83 7c-.7-.3-1.4-.4-2.1-.4zM88 15h-1.1V6.7H84v-1h7v1h-3V15zM97.6 12.5c0 .8-.3 1.5-.9 1.9s-1.4.7-2.4.7c-1.1 0-1.9-.1-2.5-.4v-1c.4.2.8.3 1.2.4.4.1.9.1 1.3.1.7 0 1.3-.1 1.6-.4.4-.3.5-.7.5-1.1 0-.3-.1-.6-.2-.8s-.3-.4-.6-.6c-.3-.2-.8-.4-1.4-.6-.9-.3-1.5-.7-1.9-1.1-.4-.4-.6-1-.6-1.7s.3-1.3.8-1.7c.5-.4 1.2-.6 2.1-.6.9 0 1.8.2 2.5.5L97 7c-.8-.3-1.5-.5-2.2-.5-.6 0-1 .1-1.3.4-.3.2-.5.6-.5 1 0 .3.1.6.2.8.1.2.3.4.6.6.2.2.7.4 1.2.6 1 .3 1.6.7 2 1.1.4.4.6.9.6 1.5z"/>
  </g>
  <path d="M2 30h756.2v48H2z" filter="url(#a)"/>
  <path fill="#FFF" d="M2 30h756.2v48H2z"/>
  <path d="M2 88h756.2v48H2z" filter="url(#b)"/>
  <path fill="#FFF" d="M2 88h756.2v48H2z"/>
  <path d="M2 146h756.2v48H2z" filter="url(#c)"/>
  <path fill="#FFF" d="M2 146h756.2v48H2z"/>
  <path fill="none" d="M2.5 146.5h755.2v47H2.5z"/>
  <path d="M2 201h756.2v48H2z" filter="url(#d)"/>
  <path fill="#FFF" d="M2 201h756.2v48H2z"/>
  <path fill="none" d="M2.5 201.5h755.2v47H2.5z"/>
  <g enable-background="new" fill="#283D50">
    <path d="M499.1 59H498v-7.1c0-.6 0-1.2.1-1.7l-.3.3c-.1.1-.7.5-1.6 1.3l-.6-.8 2.6-2h1v10zM503 54.7c0-2 .4-3.4 1.1-4.4.8-1 1.9-1.5 3.4-1.5.5 0 .9 0 1.2.1v1c-.4-.1-.8-.2-1.2-.2-1.1 0-1.9.3-2.5 1-.6.7-.9 1.7-.9 3.1h.1c.5-.8 1.3-1.2 2.4-1.2.9 0 1.6.3 2.1.8s.8 1.3.8 2.2c0 1-.3 1.9-.9 2.5-.6.6-1.3.9-2.3.9-1 0-1.9-.4-2.5-1.2-.5-.6-.8-1.7-.8-3.1zm3.3 3.5c.6 0 1.2-.2 1.5-.6.4-.4.5-1 .5-1.8 0-.7-.2-1.2-.5-1.6-.3-.4-.8-.6-1.5-.6-.4 0-.8.1-1.1.3s-.6.4-.8.7-.3.6-.3.9c0 .5.1.9.3 1.3.2.4.4.7.8 1s.7.4 1.1.4zM521.5 59l-1.2-3.2h-4L515 59h-1.2l4-10h1l3.9 10h-1.2zm-1.6-4.2l-1.2-3.1c-.2-.4-.3-.9-.5-1.4-.1.4-.2.9-.4 1.4l-1.2 3.1h3.3zM527.4 59.1c-.5 0-.9-.1-1.3-.3-.4-.2-.7-.5-1-.8h-.1c.1.4.1.9.1 1.2v3.1H524V51.5h.9l.2 1h.1c.3-.4.6-.7 1-.9.4-.2.8-.3 1.3-.3 1 0 1.8.3 2.3 1s.8 1.6.8 2.9c0 1.2-.3 2.2-.8 2.9-.7.7-1.4 1-2.4 1zm-.2-6.8c-.8 0-1.3.2-1.7.6s-.5 1.1-.5 2v.3c0 1.1.2 1.8.5 2.3.4.5.9.7 1.7.7.6 0 1.2-.3 1.5-.8s.5-1.2.5-2.2c0-.9-.2-1.7-.5-2.1-.3-.5-.8-.8-1.5-.8zM535.9 51.4c.3 0 .6 0 .9.1l-.2 1.1c-.3-.1-.6-.1-.8-.1-.6 0-1.1.2-1.6.7s-.6 1.1-.6 1.8v4h-1.1v-7.5h.9l.1 1.4h.1c.3-.5.6-.9 1-1.1.4-.3.8-.4 1.3-.4z"/>
  </g>
  <g enable-background="new" fill="#283D50">
    <path d="M500.4 113.7c0-2 .4-3.4 1.1-4.4.8-1 1.9-1.5 3.4-1.5.5 0 .9 0 1.2.1v1c-.4-.1-.8-.2-1.2-.2-1.1 0-1.9.3-2.5 1-.6.7-.9 1.7-.9 3.1h.1c.5-.8 1.3-1.2 2.4-1.2.9 0 1.6.3 2.1.8s.8 1.3.8 2.2c0 1-.3 1.9-.9 2.5-.6.6-1.3.9-2.3.9-1 0-1.9-.4-2.5-1.2-.5-.6-.8-1.7-.8-3.1zm3.3 3.5c.6 0 1.2-.2 1.5-.6.4-.4.5-1 .5-1.8 0-.7-.2-1.2-.5-1.6-.3-.4-.8-.6-1.5-.6-.4 0-.8.1-1.1.3s-.6.4-.8.7-.3.6-.3.9c0 .5.1.9.3 1.3.2.4.4.7.8 1s.7.4 1.1.4zM511.2 120.6c-.4 0-.8-.1-1-.2v-1c.3.1.7.1 1 .1.5 0 .8-.1 1-.4s.4-.7.4-1.2v-10h1.2v9.9c0 .9-.2 1.5-.7 2-.5.6-1.1.8-1.9.8zM520.8 118l-.2-1.1h-.1c-.4.5-.7.8-1.1 1-.4.2-.8.2-1.4.2-.7 0-1.3-.2-1.7-.6s-.6-.9-.6-1.6c0-1.5 1.2-2.3 3.6-2.4h1.3v-.5c0-.6-.1-1-.4-1.3-.3-.3-.7-.4-1.2-.4-.6 0-1.3.2-2.1.6l-.3-.9c.4-.2.8-.4 1.2-.5s.9-.2 1.3-.2c.9 0 1.6.2 2 .6s.6 1 .6 1.9v5.1h-.9zm-2.6-.8c.7 0 1.3-.2 1.7-.6s.6-.9.6-1.6v-.7h-1.1c-.9 0-1.6.2-2 .4-.4.2-.6.6-.6 1.2 0 .4.1.7.4.9s.6.4 1 .4zM529.1 118v-4.8c0-.6-.1-1.1-.4-1.4-.3-.3-.7-.5-1.3-.5-.8 0-1.4.2-1.7.6-.4.4-.5 1.1-.5 2.1v3.9H524v-7.5h.9l.2 1h.1c.2-.4.6-.7 1-.9.4-.2.9-.3 1.4-.3.9 0 1.6.2 2 .7.5.4.7 1.1.7 2.1v4.9h-1.2z"/>
  </g>
  <g enable-background="new" fill="#A8A8A8">
    <path d="M483.5 175h-1.1v-7.1c0-.6 0-1.2.1-1.7l-.3.3s-.7.5-1.6 1.3l-.6-.8 2.6-2h1v10zM493.9 170c0 1.7-.3 3-.8 3.9-.5.9-1.4 1.3-2.5 1.3s-1.9-.4-2.5-1.3c-.6-.9-.8-2.2-.8-3.8 0-1.7.3-3 .8-3.9s1.4-1.3 2.5-1.3 1.9.4 2.5 1.3c.5.8.8 2.1.8 3.8zm-5.5 0c0 1.5.2 2.5.5 3.2.3.7.9 1 1.6 1 .8 0 1.3-.3 1.6-1 .3-.7.5-1.7.5-3.2s-.2-2.5-.5-3.2c-.3-.7-.9-1-1.6-1-.7 0-1.3.3-1.6 1-.3.7-.5 1.7-.5 3.2zM499.6 165l-3.7 10h-1.1l3.7-10h1.1zM504.6 175h-1.1v-7.1c0-.6 0-1.2.1-1.7l-.3.3s-.7.5-1.6 1.3l-.7-.8 2.6-2h1v10zM515 175h-6.6v-1l2.6-2.6c.8-.8 1.3-1.4 1.6-1.7s.4-.7.6-1 .2-.7.2-1.1c0-.5-.2-1-.5-1.3-.3-.3-.8-.5-1.3-.5-.4 0-.8.1-1.2.2-.4.1-.8.4-1.2.7l-.6-.8c.9-.8 1.9-1.1 3-1.1.9 0 1.7.2 2.2.7.5.5.8 1.1.8 1.9 0 .6-.2 1.3-.5 1.9s-1 1.4-2 2.4l-2.2 2.1v.1h5.1v1.1zM520.7 165l-3.7 10h-1.1l3.7-10h1.1zM528.1 175h-6.6v-1l2.6-2.6c.8-.8 1.3-1.4 1.6-1.7s.4-.7.6-1 .2-.7.2-1.1c0-.5-.2-1-.5-1.3-.3-.3-.8-.5-1.3-.5-.4 0-.8.1-1.2.2-.4.1-.8.4-1.2.7l-.6-.8c.9-.8 1.9-1.1 3-1.1.9 0 1.7.2 2.2.7.5.5.8 1.1.8 1.9 0 .6-.2 1.3-.5 1.9s-1 1.4-2 2.4l-2.2 2.1v.1h5.1v1.1zM536.2 170c0 1.7-.3 3-.8 3.9-.5.9-1.4 1.3-2.5 1.3s-1.9-.4-2.5-1.3c-.6-.9-.8-2.2-.8-3.8 0-1.7.3-3 .8-3.9s1.4-1.3 2.5-1.3 1.9.4 2.5 1.3c.5.8.8 2.1.8 3.8zm-5.5 0c0 1.5.2 2.5.5 3.2.3.7.9 1 1.6 1 .8 0 1.3-.3 1.6-1 .3-.7.5-1.7.5-3.2s-.2-2.5-.5-3.2c-.3-.7-.9-1-1.6-1-.7 0-1.3.3-1.6 1-.3.7-.5 1.7-.5 3.2zM541.8 175h-1.1v-7.1c0-.6 0-1.2.1-1.7l-.3.3s-.7.5-1.6 1.3l-.6-.8 2.6-2h1v10zM545.7 170.7c0-2 .4-3.4 1.1-4.4.8-1 1.9-1.5 3.4-1.5.5 0 .9 0 1.2.1v1c-.4-.1-.8-.2-1.2-.2-1.1 0-1.9.3-2.5 1-.6.7-.9 1.7-.9 3.1h.1c.5-.8 1.3-1.2 2.4-1.2.9 0 1.6.3 2.1.8s.8 1.3.8 2.2c0 1-.3 1.9-.9 2.5-.6.6-1.3.9-2.3.9-1 0-1.9-.4-2.5-1.2-.5-.6-.8-1.7-.8-3.1zm3.3 3.5c.6 0 1.1-.2 1.5-.6.4-.4.5-1 .5-1.8 0-.7-.2-1.2-.5-1.6s-.8-.6-1.5-.6c-.4 0-.8.1-1.1.3s-.6.4-.8.7c-.2.3-.3.6-.3.9 0 .5.1.9.3 1.3s.4.7.8 1c.3.3.7.4 1.1.4z"/>
  </g>
  <g enable-background="new" fill="#A8A8A8">
    <path d="M485.8 230h-6.6v-1l2.6-2.6c.8-.8 1.3-1.4 1.6-1.7s.4-.7.6-1 .2-.7.2-1.1c0-.5-.2-1-.5-1.3-.3-.3-.8-.5-1.3-.5-.4 0-.8.1-1.2.2-.4.1-.8.4-1.2.7l-.6-.8c.9-.8 1.9-1.1 3-1.1.9 0 1.7.2 2.2.7.5.5.8 1.1.8 1.9 0 .6-.2 1.3-.5 1.9s-1 1.4-2 2.4l-2.2 2.1v.1h5.1v1.1zM494.3 227.7h-1.5v2.3h-1.1v-2.3h-4.9v-1l4.7-6.8h1.2v6.7h1.5v1.1zm-2.6-1v-3.3c0-.7 0-1.4.1-2.2h-.1c-.2.4-.4.8-.6 1.1l-3.1 4.4h3.7zM499.6 220l-3.7 10h-1.1l3.7-10h1.1zM507 225c0 1.7-.3 3-.8 3.9-.5.9-1.4 1.3-2.5 1.3s-1.9-.4-2.5-1.3c-.6-.9-.8-2.2-.8-3.8 0-1.7.3-3 .8-3.9s1.4-1.3 2.5-1.3 1.9.4 2.5 1.3c.6.8.8 2.1.8 3.8zm-5.4 0c0 1.5.2 2.5.5 3.2.3.7.9 1 1.6 1 .8 0 1.3-.3 1.6-1 .3-.7.5-1.7.5-3.2s-.2-2.5-.5-3.2c-.3-.7-.9-1-1.6-1-.7 0-1.3.3-1.6 1-.4.7-.5 1.7-.5 3.2zM515 224.3c0 3.9-1.5 5.9-4.5 5.9-.5 0-.9 0-1.3-.1v-1c.4.1.8.2 1.2.2 1.1 0 1.9-.3 2.5-1 .6-.7.9-1.7.9-3.1h-.1c-.3.4-.6.7-1 .9-.4.2-.9.3-1.4.3-.9 0-1.6-.3-2.1-.8s-.8-1.3-.8-2.2c0-1 .3-1.9.9-2.5.6-.6 1.3-.9 2.3-.9.7 0 1.3.2 1.8.5s.9.9 1.2 1.5c.2.6.4 1.4.4 2.3zm-3.4-3.5c-.7 0-1.2.2-1.5.6s-.5 1-.5 1.8c0 .7.2 1.2.5 1.5.3.4.8.6 1.5.6.4 0 .8-.1 1.1-.3.3-.2.6-.4.8-.7s.3-.6.3-.9c0-.5-.1-.9-.3-1.3s-.4-.7-.8-1c-.3-.2-.6-.3-1.1-.3zM520.7 220l-3.7 10h-1.1l3.7-10h1.1zM528.1 230h-6.6v-1l2.6-2.6c.8-.8 1.3-1.4 1.6-1.7s.4-.7.6-1 .2-.7.2-1.1c0-.5-.2-1-.5-1.3-.3-.3-.8-.5-1.3-.5-.4 0-.8.1-1.2.2-.4.1-.8.4-1.2.7l-.6-.8c.9-.8 1.9-1.1 3-1.1.9 0 1.7.2 2.2.7.5.5.8 1.1.8 1.9 0 .6-.2 1.3-.5 1.9s-1 1.4-2 2.4l-2.2 2.1v.1h5.1v1.1zM536.2 225c0 1.7-.3 3-.8 3.9-.5.9-1.4 1.3-2.5 1.3s-1.9-.4-2.5-1.3c-.6-.9-.8-2.2-.8-3.8 0-1.7.3-3 .8-3.9s1.4-1.3 2.5-1.3 1.9.4 2.5 1.3c.5.8.8 2.1.8 3.8zm-5.5 0c0 1.5.2 2.5.5 3.2.3.7.9 1 1.6 1 .8 0 1.3-.3 1.6-1 .3-.7.5-1.7.5-3.2s-.2-2.5-.5-3.2c-.3-.7-.9-1-1.6-1-.7 0-1.3.3-1.6 1-.3.7-.5 1.7-.5 3.2zM541.8 230h-1.1v-7.1c0-.6 0-1.2.1-1.7l-.3.3s-.7.5-1.6 1.3l-.6-.8 2.6-2h1v10zM545.7 225.7c0-2 .4-3.4 1.1-4.4.8-1 1.9-1.5 3.4-1.5.5 0 .9 0 1.2.1v1c-.4-.1-.8-.2-1.2-.2-1.1 0-1.9.3-2.5 1-.6.7-.9 1.7-.9 3.1h.1c.5-.8 1.3-1.2 2.4-1.2.9 0 1.6.3 2.1.8s.8 1.3.8 2.2c0 1-.3 1.9-.9 2.5-.6.6-1.3.9-2.3.9-1 0-1.9-.4-2.5-1.2-.5-.6-.8-1.7-.8-3.1zm3.3 3.5c.6 0 1.1-.2 1.5-.6.4-.4.5-1 .5-1.8 0-.7-.2-1.2-.5-1.6s-.8-.6-1.5-.6c-.4 0-.8.1-1.1.3s-.6.4-.8.7c-.2.3-.3.6-.3.9 0 .5.1.9.3 1.3s.4.7.8 1c.3.3.7.4 1.1.4z"/>
  </g>
  <g enable-background="new" fill="#283D50">
    <path d="M97.5 52.6h2.8v.9h-2.8v2.9h-1v-2.9h-2.8v-.9h2.8v-2.9h1v2.9zM107.9 50.4c0 .6-.2 1.2-.5 1.6s-.9.7-1.5.8v.1c.8.1 1.4.4 1.8.8s.6.9.6 1.6c0 1-.3 1.7-1 2.2-.7.5-1.6.8-2.8.8-.5 0-1 0-1.5-.1-.4-.1-.9-.2-1.3-.4v-1.1c.4.2.9.4 1.4.5.5.1 1 .2 1.4.2 1.7 0 2.6-.7 2.6-2 0-1.2-1-1.8-2.9-1.8h-1v-1h1c.8 0 1.4-.2 1.9-.5s.7-.8.7-1.4c0-.5-.2-.9-.5-1.1s-.8-.4-1.4-.4c-.4 0-.9.1-1.2.2s-.8.3-1.3.7l-.6-.8c.4-.3.9-.6 1.4-.8.5-.2 1.1-.3 1.7-.3 1 0 1.7.2 2.3.7.4.1.7.7.7 1.5z"/>
  </g>
  <g enable-background="new" fill="#283D50">
    <path d="M97.5 112.6h2.8v.9h-2.8v2.9h-1v-2.9h-2.8v-.9h2.8v-2.9h1v2.9zM105.9 118h-1.1v-7.1c0-.6 0-1.2.1-1.7l-.3.3s-.7.5-1.6 1.3l-.6-.8 2.6-2h1v10z"/>
  </g>
  <g enable-background="new" fill="#283D50">
    <path d="M204.9 110.4c0 .6-.2 1.2-.5 1.6s-.9.7-1.5.8v.1c.8.1 1.4.4 1.8.8s.6.9.6 1.6c0 1-.3 1.7-1 2.2-.7.5-1.6.8-2.8.8-.5 0-1 0-1.5-.1-.4-.1-.9-.2-1.3-.4v-1.1c.4.2.9.4 1.4.5.5.1 1 .2 1.4.2 1.7 0 2.6-.7 2.6-2 0-1.2-1-1.8-2.9-1.8h-1v-1h1c.8 0 1.4-.2 1.9-.5s.7-.8.7-1.4c0-.5-.2-.9-.5-1.1s-.8-.4-1.4-.4c-.4 0-.9.1-1.2.2s-.8.3-1.3.7l-.6-.8c.4-.3.9-.6 1.4-.8.5-.2 1.1-.3 1.7-.3 1 0 1.7.2 2.3.7.4.1.7.7.7 1.5zM213.3 118h-6.6v-1l2.6-2.6c.8-.8 1.3-1.4 1.6-1.7s.4-.7.6-1 .2-.7.2-1.1c0-.5-.2-1-.5-1.3-.3-.3-.8-.5-1.3-.5-.4 0-.8.1-1.2.2s-.8.4-1.2.7l-.6-.8c.9-.8 1.9-1.1 3-1.1.9 0 1.7.2 2.2.7.5.5.8 1.1.8 1.9 0 .6-.2 1.3-.5 1.9s-1 1.4-2 2.4l-2.2 2.1v.1h5.1v1.1zM217.8 111.9c1.1 0 1.9.3 2.5.8.6.5.9 1.2.9 2.1 0 1-.3 1.8-1 2.4s-1.6.9-2.7.9-2-.2-2.6-.5v-1.1c.3.2.7.4 1.2.5.5.1.9.2 1.4.2.8 0 1.4-.2 1.9-.6s.7-.9.7-1.6c0-1.4-.9-2.1-2.6-2.1-.4 0-1 .1-1.7.2l-.6-.4.4-4.7h5v1h-4l-.3 3c.5-.1 1-.1 1.5-.1zM229.8 115.7h-1.5v2.3h-1.1v-2.3h-4.9v-1l4.7-6.8h1.2v6.7h1.5v1.1zm-2.6-1v-3.3c0-.7 0-1.4.1-2.2h-.1c-.2.4-.4.8-.6 1.1l-3.1 4.4h3.7zM233.9 111.9c1.1 0 1.9.3 2.5.8.6.5.9 1.2.9 2.1 0 1-.3 1.8-1 2.4s-1.6.9-2.7.9-2-.2-2.6-.5v-1.1c.3.2.7.4 1.2.5.5.1.9.2 1.4.2.8 0 1.4-.2 1.9-.6s.7-.9.7-1.6c0-1.4-.9-2.1-2.6-2.1-.4 0-1 .1-1.7.2l-.6-.4.4-4.7h5v1h-4l-.3 3c.4-.1.9-.1 1.5-.1zM244.9 110.4c0 .6-.2 1.2-.5 1.6s-.9.7-1.5.8v.1c.8.1 1.4.4 1.8.8s.6.9.6 1.6c0 1-.3 1.7-1 2.2-.7.5-1.6.8-2.8.8-.5 0-1 0-1.5-.1-.4-.1-.9-.2-1.3-.4v-1.1c.4.2.9.4 1.4.5.5.1 1 .2 1.4.2 1.7 0 2.6-.7 2.6-2 0-1.2-1-1.8-2.9-1.8h-1v-1h1c.8 0 1.4-.2 1.9-.5s.7-.8.7-1.4c0-.5-.2-.9-.5-1.1s-.8-.4-1.4-.4c-.4 0-.9.1-1.2.2s-.8.3-1.3.7l-.6-.8c.4-.3.9-.6 1.4-.8.5-.2 1.1-.3 1.7-.3 1 0 1.7.2 2.3.7.5.1.7.7.7 1.5zM246.9 113.7c0-2 .4-3.4 1.1-4.4.8-1 1.9-1.5 3.4-1.5.5 0 .9 0 1.2.1v1c-.4-.1-.8-.2-1.2-.2-1.1 0-1.9.3-2.5 1-.6.7-.9 1.7-.9 3.1h.1c.5-.8 1.3-1.2 2.4-1.2.9 0 1.6.3 2.1.8s.8 1.3.8 2.2c0 1-.3 1.9-.9 2.5-.6.6-1.3.9-2.3.9-1 0-1.9-.4-2.5-1.2-.5-.6-.8-1.7-.8-3.1zm3.3 3.5c.6 0 1.1-.2 1.5-.6.4-.4.5-1 .5-1.8 0-.7-.2-1.2-.5-1.6s-.8-.6-1.5-.6c-.4 0-.8.1-1.1.3s-.6.4-.8.7c-.2.3-.3.6-.3.9 0 .5.1.9.3 1.3s.4.7.8 1c.3.3.7.4 1.1.4z"/>
  </g>
  <g enable-background="new" fill="#283D50">
    <path d="M204.9 51.4c0 .6-.2 1.2-.5 1.6s-.9.7-1.5.8v.1c.8.1 1.4.4 1.8.8s.6.9.6 1.6c0 1-.3 1.7-1 2.2-.7.5-1.6.8-2.8.8-.5 0-1 0-1.5-.1-.4-.1-.9-.2-1.3-.4v-1.1c.4.2.9.4 1.4.5.5.1 1 .2 1.4.2 1.7 0 2.6-.7 2.6-2 0-1.2-1-1.8-2.9-1.8h-1v-1h1c.8 0 1.4-.2 1.9-.5s.7-.8.7-1.4c0-.5-.2-.9-.5-1.1s-.8-.4-1.4-.4c-.4 0-.9.1-1.2.2s-.8.3-1.3.7l-.6-.8c.4-.3.9-.6 1.4-.8.5-.2 1.1-.3 1.7-.3 1 0 1.7.2 2.3.7.4.1.7.7.7 1.5zM213.3 59h-6.6v-1l2.6-2.6c.8-.8 1.3-1.4 1.6-1.7s.4-.7.6-1 .2-.7.2-1.1c0-.5-.2-1-.5-1.3-.3-.3-.8-.5-1.3-.5-.4 0-.8.1-1.2.2s-.8.4-1.2.7l-.6-.8c.9-.8 1.9-1.1 3-1.1.9 0 1.7.2 2.2.7.5.5.8 1.1.8 1.9 0 .6-.2 1.3-.5 1.9s-1 1.4-2 2.4l-2.2 2.1v.1h5.1V59zM217.8 52.9c1.1 0 1.9.3 2.5.8.6.5.9 1.2.9 2.1 0 1-.3 1.8-1 2.4s-1.6.9-2.7.9-2-.2-2.6-.5v-1.1c.3.2.7.4 1.2.5.5.1.9.2 1.4.2.8 0 1.4-.2 1.9-.6s.7-.9.7-1.6c0-1.4-.9-2.1-2.6-2.1-.4 0-1 .1-1.7.2l-.6-.4.4-4.7h5v1h-4l-.3 3c.5-.1 1-.1 1.5-.1zM229.8 56.7h-1.5V59h-1.1v-2.3h-4.9v-1l4.7-6.8h1.2v6.7h1.5v1.1zm-2.6-1v-3.3c0-.7 0-1.4.1-2.2h-.1c-.2.4-.4.8-.6 1.1l-3.1 4.4h3.7zM233.9 52.9c1.1 0 1.9.3 2.5.8.6.5.9 1.2.9 2.1 0 1-.3 1.8-1 2.4s-1.6.9-2.7.9-2-.2-2.6-.5v-1.1c.3.2.7.4 1.2.5.5.1.9.2 1.4.2.8 0 1.4-.2 1.9-.6s.7-.9.7-1.6c0-1.4-.9-2.1-2.6-2.1-.4 0-1 .1-1.7.2l-.6-.4.4-4.7h5v1h-4l-.3 3c.4-.1.9-.1 1.5-.1zM245.8 56.7h-1.5V59h-1.1v-2.3h-4.9v-1l4.7-6.8h1.2v6.7h1.5v1.1zm-2.6-1v-3.3c0-.7 0-1.4.1-2.2h-.1c-.2.4-.4.8-.6 1.1l-3.1 4.4h3.7zM246.9 54.7c0-2 .4-3.4 1.1-4.4.8-1 1.9-1.5 3.4-1.5.5 0 .9 0 1.2.1v1c-.4-.1-.8-.2-1.2-.2-1.1 0-1.9.3-2.5 1-.6.7-.9 1.7-.9 3.1h.1c.5-.8 1.3-1.2 2.4-1.2.9 0 1.6.3 2.1.8s.8 1.3.8 2.2c0 1-.3 1.9-.9 2.5-.6.6-1.3.9-2.3.9-1 0-1.9-.4-2.5-1.2-.5-.6-.8-1.7-.8-3.1zm3.3 3.5c.6 0 1.1-.2 1.5-.6.4-.4.5-1 .5-1.8 0-.7-.2-1.2-.5-1.6s-.8-.6-1.5-.6c-.4 0-.8.1-1.1.3s-.6.4-.8.7c-.2.3-.3.6-.3.9 0 .5.1.9.3 1.3s.4.7.8 1c.3.3.7.4 1.1.4z"/>
  </g>
  <g enable-background="new" fill="#A8A8A8">
    <path d="M201.8 168.9c1.1 0 1.9.3 2.5.8.6.5.9 1.2.9 2.1 0 1-.3 1.8-1 2.4s-1.6.9-2.7.9-2-.2-2.6-.5v-1.1c.3.2.7.4 1.2.5.5.1.9.2 1.4.2.8 0 1.4-.2 1.9-.6s.7-.9.7-1.6c0-1.4-.9-2.1-2.6-2.1-.4 0-1 .1-1.7.2l-.6-.4.4-4.7h5v1h-4l-.3 3c.5-.1 1-.1 1.5-.1zM206.8 170.7c0-2 .4-3.4 1.1-4.4.8-1 1.9-1.5 3.4-1.5.5 0 .9 0 1.2.1v1c-.4-.1-.8-.2-1.2-.2-1.1 0-1.9.3-2.5 1-.6.7-.9 1.7-.9 3.1h.1c.5-.8 1.3-1.2 2.4-1.2.9 0 1.6.3 2.1.8s.8 1.3.8 2.2c0 1-.3 1.9-.9 2.5-.6.6-1.3.9-2.3.9-1 0-1.9-.4-2.5-1.2-.5-.6-.8-1.7-.8-3.1zm3.4 3.5c.6 0 1.1-.2 1.5-.6.4-.4.5-1 .5-1.8 0-.7-.2-1.2-.5-1.6s-.8-.6-1.5-.6c-.4 0-.8.1-1.1.3s-.6.4-.8.7-.3.6-.3.9c0 .5.1.9.3 1.3s.4.7.8 1 .7.4 1.1.4zM221.8 172.7h-1.5v2.3h-1.1v-2.3h-4.9v-1l4.7-6.8h1.2v6.7h1.5v1.1zm-2.6-1v-3.3c0-.7 0-1.4.1-2.2h-.1c-.2.4-.4.8-.6 1.1l-3.1 4.4h3.7zM225.9 168.9c1.1 0 1.9.3 2.5.8.6.5.9 1.2.9 2.1 0 1-.3 1.8-1 2.4s-1.6.9-2.7.9-2-.2-2.6-.5v-1.1c.3.2.7.4 1.2.5.5.1.9.2 1.4.2.8 0 1.4-.2 1.9-.6s.7-.9.7-1.6c0-1.4-.9-2.1-2.6-2.1-.4 0-1 .1-1.7.2l-.6-.4.4-4.7h5v1h-4l-.3 3c.4-.1.9-.1 1.5-.1zM230.9 170.7c0-2 .4-3.4 1.1-4.4.8-1 1.9-1.5 3.4-1.5.5 0 .9 0 1.2.1v1c-.4-.1-.8-.2-1.2-.2-1.1 0-1.9.3-2.5 1-.6.7-.9 1.7-.9 3.1h.1c.5-.8 1.3-1.2 2.4-1.2.9 0 1.6.3 2.1.8s.8 1.3.8 2.2c0 1-.3 1.9-.9 2.5-.6.6-1.3.9-2.3.9-1 0-1.9-.4-2.5-1.2-.5-.6-.8-1.7-.8-3.1zm3.3 3.5c.6 0 1.1-.2 1.5-.6.4-.4.5-1 .5-1.8 0-.7-.2-1.2-.5-1.6s-.8-.6-1.5-.6c-.4 0-.8.1-1.1.3s-.6.4-.8.7-.3.6-.3.9c0 .5.1.9.3 1.3s.4.7.8 1 .7.4 1.1.4zM240 175l4.1-8.9h-5.4v-1h6.7v.9l-4.1 9.1H240zM253.8 172.7h-1.5v2.3h-1.1v-2.3h-4.9v-1l4.7-6.8h1.2v6.7h1.5v1.1zm-2.6-1v-3.3c0-.7 0-1.4.1-2.2h-.1c-.2.4-.4.8-.6 1.1l-3.1 4.4h3.7z"/>
  </g>
  <g enable-background="new" fill="#A8A8A8">
    <path d="M201.8 223.9c1.1 0 1.9.3 2.5.8.6.5.9 1.2.9 2.1 0 1-.3 1.8-1 2.4s-1.6.9-2.7.9-2-.2-2.6-.5v-1.1c.3.2.7.4 1.2.5.5.1.9.2 1.4.2.8 0 1.4-.2 1.9-.6s.7-.9.7-1.6c0-1.4-.9-2.1-2.6-2.1-.4 0-1 .1-1.7.2l-.6-.4.4-4.7h5v1h-4l-.3 3c.5-.1 1-.1 1.5-.1zM206.8 225.7c0-2 .4-3.4 1.1-4.4.8-1 1.9-1.5 3.4-1.5.5 0 .9 0 1.2.1v1c-.4-.1-.8-.2-1.2-.2-1.1 0-1.9.3-2.5 1-.6.7-.9 1.7-.9 3.1h.1c.5-.8 1.3-1.2 2.4-1.2.9 0 1.6.3 2.1.8s.8 1.3.8 2.2c0 1-.3 1.9-.9 2.5-.6.6-1.3.9-2.3.9-1 0-1.9-.4-2.5-1.2-.5-.6-.8-1.7-.8-3.1zm3.4 3.5c.6 0 1.1-.2 1.5-.6.4-.4.5-1 .5-1.8 0-.7-.2-1.2-.5-1.6s-.8-.6-1.5-.6c-.4 0-.8.1-1.1.3s-.6.4-.8.7-.3.6-.3.9c0 .5.1.9.3 1.3s.4.7.8 1 .7.4 1.1.4zM221.8 227.7h-1.5v2.3h-1.1v-2.3h-4.9v-1l4.7-6.8h1.2v6.7h1.5v1.1zm-2.6-1v-3.3c0-.7 0-1.4.1-2.2h-.1c-.2.4-.4.8-.6 1.1l-3.1 4.4h3.7zM225.9 223.9c1.1 0 1.9.3 2.5.8.6.5.9 1.2.9 2.1 0 1-.3 1.8-1 2.4s-1.6.9-2.7.9-2-.2-2.6-.5v-1.1c.3.2.7.4 1.2.5.5.1.9.2 1.4.2.8 0 1.4-.2 1.9-.6s.7-.9.7-1.6c0-1.4-.9-2.1-2.6-2.1-.4 0-1 .1-1.7.2l-.6-.4.4-4.7h5v1h-4l-.3 3c.4-.1.9-.1 1.5-.1zM230.9 225.7c0-2 .4-3.4 1.1-4.4.8-1 1.9-1.5 3.4-1.5.5 0 .9 0 1.2.1v1c-.4-.1-.8-.2-1.2-.2-1.1 0-1.9.3-2.5 1-.6.7-.9 1.7-.9 3.1h.1c.5-.8 1.3-1.2 2.4-1.2.9 0 1.6.3 2.1.8s.8 1.3.8 2.2c0 1-.3 1.9-.9 2.5-.6.6-1.3.9-2.3.9-1 0-1.9-.4-2.5-1.2-.5-.6-.8-1.7-.8-3.1zm3.3 3.5c.6 0 1.1-.2 1.5-.6.4-.4.5-1 .5-1.8 0-.7-.2-1.2-.5-1.6s-.8-.6-1.5-.6c-.4 0-.8.1-1.1.3s-.6.4-.8.7-.3.6-.3.9c0 .5.1.9.3 1.3s.4.7.8 1 .7.4 1.1.4zM240 230l4.1-8.9h-5.4v-1h6.7v.9l-4.1 9.1H240zM248 230l4.1-8.9h-5.4v-1h6.7v.9l-4.1 9.1H248z"/>
  </g>
  <path fill="#D8D8D8" d="M19 37h31v30H19zM19 95h31v30H19zM56 37h31v30H56zM56 95h31v30H56zM19 154h31v30H19zM19 209h31v30H19z"/>
  <circle fill="#FFF" cx="375" cy="53" r="17"/>
  <path fill="#4A90E2" d="M375 70.5c-9.6 0-17.5-7.9-17.5-17.5s7.9-17.5 17.5-17.5 17.5 7.9 17.5 17.5-7.9 17.5-17.5 17.5zm0-34c-9.1 0-16.5 7.4-16.5 16.5s7.4 16.5 16.5 16.5 16.5-7.4 16.5-16.5-7.4-16.5-16.5-16.5z"/>
  <g enable-background="new" fill="#4A4A4A">
    <path d="M374.2 57h-1.4l-3.6-4.8-1 .9V57H367V47h1.2v5l4.5-5h1.4l-4 4.3 4.1 5.7zM384.3 52c0 1.6-.4 2.9-1.2 3.8s-1.9 1.4-3.4 1.4-2.6-.5-3.4-1.3c-.8-.9-1.2-2.2-1.2-3.8 0-1.6.4-2.9 1.2-3.8.8-.9 1.9-1.3 3.4-1.3 1.4 0 2.6.5 3.4 1.4s1.2 2 1.2 3.6zm-8 0c0 1.4.3 2.4.9 3.1.6.7 1.4 1 2.5 1s1.9-.3 2.5-1 .8-1.7.8-3.1c0-1.3-.3-2.4-.8-3.1-.6-.7-1.4-1-2.5-1s-1.9.3-2.5 1c-.6.7-.9 1.8-.9 3.1z"/>
  </g>
  <circle fill="#FFF" cx="375" cy="171" r="17"/>
  <path fill="#4A90E2" d="M375 188.5c-9.6 0-17.5-7.9-17.5-17.5s7.9-17.5 17.5-17.5 17.5 7.9 17.5 17.5-7.9 17.5-17.5 17.5zm0-34c-9.1 0-16.5 7.4-16.5 16.5s7.4 16.5 16.5 16.5 16.5-7.4 16.5-16.5-7.4-16.5-16.5-16.5z"/>
  <circle fill="#FFF" cx="375" cy="111" r="17"/>
  <path fill="#4DAF9C" d="M375 128.5c-9.6 0-17.5-7.9-17.5-17.5s7.9-17.5 17.5-17.5 17.5 7.9 17.5 17.5-7.9 17.5-17.5 17.5zm0-34c-9.1 0-16.5 7.4-16.5 16.5s7.4 16.5 16.5 16.5 16.5-7.4 16.5-16.5-7.4-16.5-16.5-16.5z"/>
  <circle fill="#FFF" cx="375" cy="225" r="17"/>
  <path fill="#4DAF9C" d="M375 242.5c-9.6 0-17.5-7.9-17.5-17.5s7.9-17.5 17.5-17.5 17.5 7.9 17.5 17.5-7.9 17.5-17.5 17.5zm0-34c-9.1 0-16.5 7.4-16.5 16.5s7.4 16.5 16.5 16.5 16.5-7.4 16.5-16.5-7.4-16.5-16.5-16.5z"/>
  <g enable-background="new" fill="#4A4A4A">
    <path d="M374.2 175h-1.4l-3.6-4.8-1 .9v3.9H367v-10h1.2v5l4.5-5h1.4l-4 4.3 4.1 5.7zM384.3 170c0 1.6-.4 2.9-1.2 3.8s-1.9 1.4-3.4 1.4-2.6-.5-3.4-1.3c-.8-.9-1.2-2.2-1.2-3.8 0-1.6.4-2.9 1.2-3.8.8-.9 1.9-1.3 3.4-1.3 1.4 0 2.6.5 3.4 1.4s1.2 2 1.2 3.6zm-8 0c0 1.4.3 2.4.9 3.1.6.7 1.4 1 2.5 1s1.9-.3 2.5-1 .8-1.7.8-3.1c0-1.3-.3-2.4-.8-3.1-.6-.7-1.4-1-2.5-1s-1.9.3-2.5 1c-.6.7-.9 1.8-.9 3.1z"/>
  </g>
  <g enable-background="new" fill="#4A4A4A">
    <path d="M374.2 115l-1.2-3.2h-4l-1.2 3.2h-1.2l4-10h1l3.9 10h-1.3zm-1.6-4.2l-1.2-3.1c-.2-.4-.3-.9-.5-1.4-.1.4-.2.9-.4 1.4l-1.2 3.1h3.3zM383.1 107.9c0 1-.3 1.8-1 2.3-.7.5-1.7.8-3 .8H378v3.9h-1.2v-10h2.6c2.5.1 3.7 1.1 3.7 3zm-5.1 2.2h1c1 0 1.8-.2 2.2-.5s.7-.9.7-1.6c0-.7-.2-1.2-.6-1.5s-1.1-.5-2-.5H378v4.1z"/>
  </g>
  <g enable-background="new" fill="#4A4A4A">
    <path d="M374.2 229l-1.2-3.2h-4l-1.2 3.2h-1.2l4-10h1l3.9 10h-1.3zm-1.6-4.2l-1.2-3.1c-.2-.4-.3-.9-.5-1.4-.1.4-.2.9-.4 1.4l-1.2 3.1h3.3zM383.1 221.9c0 1-.3 1.8-1 2.3-.7.5-1.7.8-3 .8H378v3.9h-1.2v-10h2.6c2.5.1 3.7 1.1 3.7 3zm-5.1 2.2h1c1 0 1.8-.2 2.2-.5s.7-.9.7-1.6c0-.7-.2-1.2-.6-1.5s-1.1-.5-2-.5H378v4.1z"/>
  </g>
  <g enable-background="new" fill="#868686">
    <path d="M198.3 10.3c0 1.5-.4 2.7-1.1 3.5-.8.8-1.8 1.3-3.1 1.3-1.4 0-2.4-.4-3.2-1.3-.7-.8-1.1-2-1.1-3.5s.4-2.7 1.1-3.5c.7-.8 1.8-1.2 3.2-1.2 1.3 0 2.4.4 3.1 1.3.8.8 1.1 2 1.1 3.4zm-7.4 0c0 1.3.3 2.2.8 2.9.5.6 1.3 1 2.3 1 1 0 1.8-.3 2.3-1s.8-1.6.8-2.9c0-1.2-.3-2.2-.8-2.8-.5-.6-1.3-1-2.3-1-1 0-1.8.3-2.3 1-.5.7-.8 1.6-.8 2.8zM201.5 11.1V15h-1.1V5.7h2.5c1.1 0 2 .2 2.5.7.5.4.8 1.1.8 2 0 1.2-.6 2.1-1.9 2.5l2.5 4.2h-1.3l-2.2-3.9h-1.8zm0-.9h1.5c.8 0 1.3-.2 1.7-.5s.5-.8.5-1.4c0-.6-.2-1.1-.5-1.3-.4-.3-.9-.4-1.7-.4h-1.4v3.6zM215.9 10.3c0 1.5-.4 2.7-1.2 3.5-.8.8-2 1.2-3.6 1.2h-2.6V5.7h2.8c1.4 0 2.6.4 3.4 1.2.8.8 1.2 1.9 1.2 3.4zm-1.2 0c0-1.2-.3-2.1-.9-2.7-.6-.6-1.5-.9-2.7-.9h-1.6v7.4h1.3c1.3 0 2.3-.3 2.9-.9s1-1.7 1-2.9zM223.1 15h-5.2V5.7h5.2v1H219v3h3.8v1H219V14h4.1v1zM226.2 11.1V15h-1.1V5.7h2.5c1.1 0 2 .2 2.5.7.5.4.8 1.1.8 2 0 1.2-.6 2.1-1.9 2.5l2.5 4.2h-1.3l-2.2-3.9h-1.8zm0-.9h1.5c.8 0 1.3-.2 1.7-.5s.5-.8.5-1.4c0-.6-.2-1.1-.5-1.3-.4-.3-.9-.4-1.7-.4h-1.4v3.6zM236.6 15V5.7h1.1V15h-1.1zM247.6 10.3c0 1.5-.4 2.7-1.2 3.5-.8.8-2 1.2-3.6 1.2h-2.6V5.7h2.8c1.4 0 2.6.4 3.4 1.2.8.8 1.2 1.9 1.2 3.4zm-1.1 0c0-1.2-.3-2.1-.9-2.7s-1.5-.9-2.7-.9h-1.6v7.4h1.3c1.3 0 2.3-.3 2.9-.9.6-.7 1-1.7 1-2.9z"/>
  </g>
  <path fill="#E1E1E1" d="M264.6 9.9c0 .3-.1.5-.3.7l-4.7 4.7c-.2.2-.4.3-.7.3-.3 0-.5-.1-.7-.3l-4.7-4.7c-.2-.2-.3-.4-.3-.7 0-.3.1-.5.3-.7l.5-.5c.2-.2.4-.3.7-.3.3 0 .5.1.7.3l2.1 2.1V5.7c0-.3.1-.5.3-.7s.4-.3.7-.3h.9c.3 0 .5.1.7.3s.3.4.3.7v5.1l2.1-2.1c.2-.2.4-.3.7-.3.3 0 .5.1.7.3l.5.5c.1.2.2.4.2.7z" enable-background="new"/>
  <g enable-background="new" fill="#868686">
    <path d="M351.8 12.5c0 .8-.3 1.5-.9 1.9-.6.5-1.4.7-2.4.7-1.1 0-1.9-.1-2.5-.4v-1c.4.2.8.3 1.2.4.4.1.9.1 1.3.1.7 0 1.3-.1 1.6-.4.4-.3.5-.7.5-1.1 0-.3-.1-.6-.2-.8-.1-.2-.3-.4-.6-.6-.3-.2-.8-.4-1.4-.6-.9-.3-1.5-.7-1.9-1.1-.4-.4-.6-1-.6-1.7s.3-1.3.8-1.7c.5-.4 1.2-.6 2.1-.6.9 0 1.8.2 2.5.5V7c-.8-.3-1.5-.5-2.2-.5-.6 0-1 .1-1.3.4-.3.2-.5.6-.5 1 0 .3.1.6.2.8.1.2.3.4.6.6.3.2.7.4 1.3.6 1 .3 1.6.7 2 1.1.2.4.4.9.4 1.5zM360.7 5.7v6c0 1.1-.3 1.9-1 2.5-.6.6-1.5.9-2.6.9s-2-.3-2.6-.9-.9-1.4-.9-2.5v-6h1.1v6.1c0 .8.2 1.4.6 1.8.4.4 1 .6 1.9.6.8 0 1.4-.2 1.8-.6.4-.4.6-1 .6-1.8v-6h1.1zM369.1 8.4c0 .9-.3 1.7-1 2.2-.6.5-1.6.8-2.8.8h-1.1V15h-1.1V5.7h2.4c2.4 0 3.6.9 3.6 2.7zm-4.8 2h1c1 0 1.6-.2 2.1-.5.4-.3.6-.8.6-1.5 0-.6-.2-1.1-.6-1.4-.4-.3-1-.5-1.9-.5h-1.2v3.9zM376.9 8.4c0 .9-.3 1.7-1 2.2-.6.5-1.6.8-2.8.8H372V15h-1V5.7h2.4c2.3 0 3.5.9 3.5 2.7zm-4.8 2h1c1 0 1.6-.2 2.1-.5.4-.3.6-.8.6-1.5 0-.6-.2-1.1-.6-1.4-.4-.3-1-.5-1.9-.5h-1.2v3.9zM378.8 15V5.7h1.1V14h4.1v1h-5.2zM385.6 15V5.7h1.1V15h-1.1zM394.4 15h-5.2V5.7h5.2v1h-4.1v3h3.8v1h-3.8V14h4.1v1zM397.5 11.1V15h-1.1V5.7h2.5c1.1 0 2 .2 2.5.7.5.4.8 1.1.8 2 0 1.2-.6 2.1-1.9 2.5L403 15h-1.3l-2.2-3.9h-2zm0-.9h1.5c.8 0 1.3-.2 1.7-.5s.5-.8.5-1.4c0-.6-.2-1.1-.5-1.3-.4-.3-.9-.4-1.7-.4h-1.4v3.6z"/>
  </g>
  <g enable-background="new" fill="#868686">
    <path d="M648.8 12.5c0 .8-.3 1.5-.9 1.9-.6.5-1.4.7-2.4.7-1.1 0-1.9-.1-2.5-.4v-1c.4.2.8.3 1.2.4.4.1.9.1 1.3.1.7 0 1.3-.1 1.6-.4.4-.3.5-.7.5-1.1 0-.3-.1-.6-.2-.8-.1-.2-.3-.4-.6-.6-.3-.2-.8-.4-1.4-.6-.9-.3-1.5-.7-1.8-1.1-.4-.4-.6-1-.6-1.7s.3-1.3.8-1.7c.5-.4 1.2-.6 2.1-.6.9 0 1.8.2 2.5.5l-.2.9c-.8-.3-1.5-.5-2.2-.5-.6 0-1 .1-1.3.4-.3.2-.5.6-.5 1 0 .3.1.6.2.8s.3.4.6.6c.3.2.7.4 1.3.6 1 .3 1.6.7 2 1.1.3.4.5.9.5 1.5zM653.5 15h-1.1V6.7h-2.9v-1h7v1h-2.9V15zM663.7 15l-1.2-3h-3.7l-1.1 3h-1.1l3.7-9.3h.9l3.6 9.3h-1.1zm-1.5-3.9l-1.1-2.9c-.1-.4-.3-.8-.4-1.3-.1.4-.2.9-.4 1.3l-1.1 2.9h3zM669 15h-1.1V6.7H665v-1h7v1h-3V15zM680.3 5.7v6c0 1.1-.3 1.9-1 2.5-.6.6-1.5.9-2.6.9s-2-.3-2.6-.9-.9-1.4-.9-2.5v-6h1.1v6.1c0 .8.2 1.4.6 1.8.4.4 1 .6 1.9.6.8 0 1.4-.2 1.8-.6s.6-1 .6-1.8v-6h1.1zM688 12.5c0 .8-.3 1.5-.9 1.9s-1.4.7-2.4.7c-1.1 0-1.9-.1-2.5-.4v-1c.4.2.8.3 1.2.4.4.1.9.1 1.3.1.7 0 1.3-.1 1.6-.4.4-.3.5-.7.5-1.1 0-.3-.1-.6-.2-.8s-.3-.4-.6-.6c-.3-.2-.8-.4-1.4-.6-.9-.3-1.5-.7-1.9-1.1-.4-.4-.6-1-.6-1.7s.3-1.3.8-1.7c.5-.4 1.2-.6 2.1-.6.9 0 1.8.2 2.5.5l-.1.9c-.8-.3-1.5-.5-2.2-.5-.6 0-1 .1-1.3.4-.3.2-.5.6-.5 1 0 .3.1.6.2.8.1.2.3.4.6.6.3.2.7.4 1.3.6 1 .3 1.6.7 2 1.1.3.4.5.9.5 1.5z"/>
  </g>
  <g enable-background="new" fill="#868686">
    <path d="M493 11.3c0 1.5-.4 2.7-1.2 3.5-.8.8-2 1.2-3.6 1.2h-2.6V6.7h2.8c1.4 0 2.6.4 3.4 1.2.8.8 1.2 1.9 1.2 3.4zm-1.2 0c0-1.2-.3-2.1-.9-2.7s-1.5-.9-2.7-.9h-1.6v7.4h1.3c1.3 0 2.3-.3 2.9-.9s1-1.7 1-2.9zM500.9 16l-1.2-3H496l-1.1 3h-1.1l3.7-9.3h.9L502 16h-1.1zm-1.5-3.9l-1.1-2.9c-.1-.4-.3-.8-.4-1.3-.1.4-.2.9-.4 1.3l-1.1 2.9h3zM506.1 16H505V7.7h-2.9v-1h7v1h-2.9V16zM515.6 16h-5.2V6.7h5.2v1h-4.1v3h3.8v1h-3.8V15h4.1v1z"/>
  </g>
  <path fill="#868686" d="M531.5 10.7l-5.4 5.4c-.1.1-.2.1-.3.1s-.2 0-.3-.1l-5.4-5.4c-.1-.1-.1-.2-.1-.3s0-.2.1-.3l1.2-1.2c.1-.1.2-.1.3-.1.1 0 .2 0 .3.1l3.9 3.9 3.9-3.9c.1-.1.2-.1.3-.1s.2 0 .3.1l1.2 1.2c.1.1.1.2.1.3s0 .2-.1.3z" enable-background="new"/>
  <g enable-background="new">
    <path fill="#A8A8A8" d="M547.3 10.9c0 .3-.1.5-.3.7l-4.7 4.7c-.2.2-.4.3-.7.3-.3 0-.5-.1-.7-.3l-4.7-4.7c-.2-.2-.3-.4-.3-.7 0-.3.1-.5.3-.7l.5-.5c.2-.2.4-.3.7-.3.3 0 .5.1.7.3l2.1 2.1V6.7c0-.3.1-.5.3-.7s.4-.3.7-.3h.9c.3 0 .5.1.7.3s.3.4.3.7v5.1l2.1-2.1c.2-.2.4-.3.7-.3.3 0 .5.1.7.3l.5.5c.1.2.2.4.2.7z"/>
  </g>
  <g>
    <g enable-background="new" fill="#59708B">
      <path d="M672.5 126c0 .6-.2 1-.6 1.3s-1 .5-1.7.5h-.7v2.2h-.7v-5.7h1.5c1.5 0 2.2.5 2.2 1.7zm-2.9 1.2h.6c.6 0 1-.1 1.3-.3s.4-.5.4-.9-.1-.7-.4-.8-.6-.3-1.2-.3h-.7v2.3zM674.4 127.6v2.4h-.7v-5.7h1.6c.7 0 1.2.1 1.6.4s.5.7.5 1.2c0 .8-.4 1.3-1.1 1.5l1.6 2.6h-.9l-1.4-2.4h-1.2zm0-.5h.9c.5 0 .8-.1 1-.3s.3-.5.3-.8c0-.4-.1-.6-.3-.8s-.6-.2-1.1-.2h-.9v2.1zM683.6 127.1c0 .9-.2 1.6-.7 2.2s-1.1.8-1.9.8c-.8 0-1.5-.3-1.9-.8s-.7-1.2-.7-2.2c0-.9.2-1.7.7-2.2s1.1-.8 2-.8c.8 0 1.5.3 1.9.8s.6 1.3.6 2.2zm-4.5 0c0 .8.2 1.4.5 1.8s.8.6 1.4.6c.6 0 1.1-.2 1.4-.6s.5-1 .5-1.8-.2-1.4-.5-1.7-.8-.6-1.4-.6c-.6 0-1.1.2-1.4.6s-.5 1-.5 1.7zM689.5 127.1c0 .9-.3 1.7-.8 2.2s-1.3.7-2.2.7h-1.6v-5.7h1.8c.9 0 1.6.2 2.1.7s.7 1.2.7 2.1zm-.7 0c0-.7-.2-1.3-.6-1.7s-.9-.6-1.7-.6h-1v4.6h.8c.8 0 1.4-.2 1.8-.6s.7-.9.7-1.7zM695.1 124.3v3.7c0 .7-.2 1.2-.6 1.5s-.9.6-1.6.6-1.2-.2-1.6-.6-.6-.9-.6-1.5v-3.7h.7v3.7c0 .5.1.8.4 1.1s.6.4 1.1.4c.5 0 .9-.1 1.1-.4s.4-.6.4-1.1v-3.7h.7zM699 124.8c-.6 0-1.1.2-1.5.6s-.5 1-.5 1.7.2 1.3.5 1.7.8.6 1.5.6c.4 0 .9-.1 1.4-.2v.6c-.4.1-.9.2-1.5.2-.8 0-1.5-.3-1.9-.8s-.7-1.2-.7-2.2c0-.6.1-1.1.3-1.5s.5-.8 1-1 .9-.4 1.5-.4 1.1.1 1.6.3l-.3.6c-.5-.1-1-.2-1.4-.2zM703.4 130h-.7v-5.1h-1.8v-.6h4.3v.6h-1.8v5.1zM706 130v-5.7h.7v5.7h-.7zM713.2 127.1c0 .9-.2 1.6-.7 2.2s-1.1.8-1.9.8c-.8 0-1.5-.3-1.9-.8s-.7-1.2-.7-2.2c0-.9.2-1.7.7-2.2s1.1-.8 2-.8c.8 0 1.5.3 1.9.8s.6 1.3.6 2.2zm-4.5 0c0 .8.2 1.4.5 1.8s.8.6 1.4.6c.6 0 1.1-.2 1.4-.6s.5-1 .5-1.8-.2-1.4-.5-1.7-.8-.6-1.4-.6c-.6 0-1.1.2-1.4.6s-.5 1-.5 1.7zM719 130h-.8l-3.1-4.8c0 .6.1 1.1.1 1.5v3.3h-.6v-5.7h.8l3.1 4.8v-.7-4.1h.6v5.7z"/>
    </g>
    <path fill="#4DAF9C" d="M593 96h63.1l6.9 13-6.9 13H593v-13"/>
    <path fill="none" stroke="#4DAF9C" d="M593.5 96.5v25h62.3l6.6-12.5-6.6-12.5h-62.3z"/>
    <path fill="#59708B" d="M658 96h69v26h-69 1.4l7-13-7-13H658z"/>
    <g transform="translate(616 100)">
      <defs>
        <filter id="e" filterUnits="userSpaceOnUse" x="2" y="0" width="14" height="18">
          <feColorMatrix values="1 0 0 0 0 0 1 0 0 0 0 0 1 0 0 0 0 0 1 0"/>
        </filter>
      </defs>
      <mask maskUnits="userSpaceOnUse" x="2" y="0" width="14" height="18" id="f">
        <path fill="#FFF" d="M16 9v9H2V0h14z" filter="url(#e)"/>
      </mask>
      <path mask="url(#f)" fill="#FFF" d="M9 9.6c2.6 0 4.6 1.7 4.6 4V15H4.4v-1.4c0-2.3 2-4 4.6-4zM4.4 4.2h9.2v-3H4.4v3zm11 12.6h-.8v-3.2c0-2.1-1.2-3.8-3-4.6 1.8-.8 3-2.6 3-4.6V1.2h.8c.3 0 .6-.2.6-.6s-.3-.6-.6-.6H2.6c-.3 0-.6.3-.6.6s.3.6.6.6h.8v3.1c0 2.1 1.2 3.8 3 4.6-1.8.8-3 2.6-3 4.6v3.2h-.8c-.3.1-.6.3-.6.7 0 .3.3.6.6.6h12.8c.3 0 .6-.3.6-.6 0-.4-.3-.6-.6-.6z"/>
    </g>
    <g>
      <path fill="none" stroke="#FFF" stroke-width="1.5" d="M689.9 99.3c.2 0 .3.1.5.2.1.1.2.3.2.5v8.7c0 .2.2.3.4.1l5.1-4.1c.1-.1.3-.1.4-.1.2 0 .3.1.5.2.1.1.2.3.2.5v3.3c0 .2.3.4.5.2l5.1-4.1c.1-.1.3-.1.4-.1.2 0 .3.1.5.2.1.1.2.3.2.5v12c0 .2-.1.3-.2.5-.1.1-.3.2-.5.2h-17.3c-.2 0-.3-.1-.5-.2-.1-.1-.2-.3-.2-.5V100c0-.2.1-.3.2-.5.1-.1.3-.2.5-.2h4z"/>
    </g>
  </g>
  <g>
    <g enable-background="new" fill="#59708B">
      <path d="M610.5 71l-.7-1.8h-2.3l-.7 1.8h-.7l2.3-5.7h.6l2.2 5.7h-.7zm-.9-2.4l-.7-1.8c-.1-.2-.2-.5-.3-.8-.1.2-.1.5-.2.8l-.7 1.8h1.9zM615.6 67c0 .6-.2 1-.6 1.3s-1 .5-1.7.5h-.7V71h-.6v-5.7h1.5c1.4 0 2.1.5 2.1 1.7zm-3 1.2h.6c.6 0 1-.1 1.3-.3s.4-.5.4-.9-.1-.7-.4-.8-.6-.3-1.2-.3h-.7v2.3zM620.4 67c0 .6-.2 1-.6 1.3s-1 .5-1.7.5h-.7V71h-.7v-5.7h1.5c1.5 0 2.2.5 2.2 1.7zm-2.9 1.2h.6c.6 0 1-.1 1.3-.3s.4-.5.4-.9-.1-.7-.4-.8-.6-.3-1.2-.3h-.7v2.3zM622.3 68.6V71h-.7v-5.7h1.6c.7 0 1.2.1 1.6.4s.5.7.5 1.2c0 .8-.4 1.3-1.1 1.5l1.6 2.6h-.8l-1.4-2.4h-1.3zm0-.5h.9c.5 0 .8-.1 1-.3s.3-.5.3-.8c0-.4-.1-.6-.3-.8s-.6-.2-1.1-.2h-.9v2.1zM631.5 68.1c0 .9-.2 1.6-.7 2.2s-1.1.8-1.9.8c-.8 0-1.5-.3-1.9-.8s-.7-1.2-.7-2.2c0-.9.2-1.7.7-2.2s1.1-.8 2-.8c.8 0 1.5.3 1.9.8s.6 1.3.6 2.2zm-4.5 0c0 .8.2 1.4.5 1.8s.8.6 1.4.6c.6 0 1.1-.2 1.4-.6s.5-1 .5-1.8-.2-1.4-.5-1.7-.8-.6-1.4-.6c-.6 0-1.1.2-1.4.6s-.5 1-.5 1.7zM636 65.3h.7l-2 5.7h-.7l-2-5.7h.7L634 69c.2.4.3.8.4 1.2.1-.4.2-.8.4-1.3l1.2-3.6zM641.1 71l-.7-1.8h-2.3l-.7 1.8h-.7l2.3-5.7h.6l2.2 5.7h-.7zm-.9-2.4l-.7-1.8c-.1-.2-.2-.5-.3-.8-.1.2-.1.5-.2.8l-.7 1.8h1.9zM642.6 71v-5.7h.7v5.1h2.5v.6h-3.2z"/>
    </g>
    <path fill="#59708B" d="M593 37h63.1l6.9 13-6.9 13H593V50"/>
    <path fill="#D8D8D8" d="M658 37h69v26h-69 1.4l7-13-7-13H658z"/>
    <g transform="translate(616 41)">
      <defs>
        <filter id="g" filterUnits="userSpaceOnUse" x="2" y="0" width="14" height="18">
          <feColorMatrix values="1 0 0 0 0 0 1 0 0 0 0 0 1 0 0 0 0 0 1 0"/>
        </filter>
      </defs>
      <mask maskUnits="userSpaceOnUse" x="2" y="0" width="14" height="18" id="h">
        <path fill="#FFF" d="M16 9v9H2V0h14z" filter="url(#g)"/>
      </mask>
      <path mask="url(#h)" fill="#FFF" d="M9 9.6c2.6 0 4.6 1.7 4.6 4V15H4.4v-1.4c0-2.3 2-4 4.6-4zM4.4 4.2h9.2v-3H4.4v3zm11 12.6h-.8v-3.2c0-2.1-1.2-3.8-3-4.6 1.8-.8 3-2.6 3-4.6V1.2h.8c.3 0 .6-.2.6-.6s-.3-.6-.6-.6H2.6c-.3 0-.6.3-.6.6s.3.6.6.6h.8v3.1c0 2.1 1.2 3.8 3 4.6-1.8.8-3 2.6-3 4.6v3.2h-.8c-.3.1-.6.3-.6.7 0 .3.3.6.6.6h12.8c.3 0 .6-.3.6-.6 0-.4-.3-.6-.6-.6z"/>
    </g>
    <path fill="none" stroke="#848484" stroke-width="1.5" d="M689.9 40.3c.2 0 .3.1.5.2.1.1.2.3.2.5v8.7c0 .2.2.3.4.1l5.1-4.1c.1-.1.3-.1.4-.1.2 0 .3.1.5.2.1.1.2.3.2.5v3.3c0 .2.3.4.5.2l5.1-4.1c.1-.1.3-.1.4-.1.2 0 .3.1.5.2.1.1.2.3.2.5v12c0 .2-.1.3-.2.5-.1.1-.3.2-.5.2h-17.3c-.2 0-.3-.1-.5-.2-.1-.1-.2-.3-.2-.5V41c0-.2.1-.3.2-.5.1-.1.3-.2.5-.2h4z"/>
  </g>
  <g>
    <g enable-background="new" fill="#59708B">
      <path d="M610.5 244l-.7-1.8h-2.3l-.7 1.8h-.7l2.3-5.7h.6l2.2 5.7h-.7zm-.9-2.4l-.7-1.8c-.1-.2-.2-.5-.3-.8-.1.2-.1.5-.2.8l-.7 1.8h1.9zM615.6 240c0 .6-.2 1-.6 1.3s-1 .5-1.7.5h-.7v2.2h-.6v-5.7h1.5c1.4 0 2.1.5 2.1 1.7zm-3 1.2h.6c.6 0 1-.1 1.3-.3s.4-.5.4-.9-.1-.7-.4-.8-.6-.3-1.2-.3h-.7v2.3zM620.4 240c0 .6-.2 1-.6 1.3s-1 .5-1.7.5h-.7v2.2h-.7v-5.7h1.5c1.5 0 2.2.5 2.2 1.7zm-2.9 1.2h.6c.6 0 1-.1 1.3-.3s.4-.5.4-.9-.1-.7-.4-.8-.6-.3-1.2-.3h-.7v2.3zM622.3 241.6v2.4h-.7v-5.7h1.6c.7 0 1.2.1 1.6.4s.5.7.5 1.2c0 .8-.4 1.3-1.1 1.5l1.6 2.6h-.8l-1.4-2.4h-1.3zm0-.5h.9c.5 0 .8-.1 1-.3s.3-.5.3-.8c0-.4-.1-.6-.3-.8s-.6-.2-1.1-.2h-.9v2.1zM631.5 241.1c0 .9-.2 1.6-.7 2.2s-1.1.8-1.9.8c-.8 0-1.5-.3-1.9-.8s-.7-1.2-.7-2.2c0-.9.2-1.7.7-2.2s1.1-.8 2-.8c.8 0 1.5.3 1.9.8s.6 1.3.6 2.2zm-4.5 0c0 .8.2 1.4.5 1.8s.8.6 1.4.6c.6 0 1.1-.2 1.4-.6s.5-1 .5-1.8-.2-1.4-.5-1.7-.8-.6-1.4-.6c-.6 0-1.1.2-1.4.6s-.5 1-.5 1.7zM636 238.3h.7l-2 5.7h-.7l-2-5.7h.7l1.3 3.7c.2.4.3.8.4 1.2.1-.4.2-.8.4-1.3l1.2-3.6zM641.1 244l-.7-1.8h-2.3l-.7 1.8h-.7l2.3-5.7h.6l2.2 5.7h-.7zm-.9-2.4l-.7-1.8c-.1-.2-.2-.5-.3-.8-.1.2-.1.5-.2.8l-.7 1.8h1.9zM642.6 244v-5.7h.7v5.1h2.5v.6h-3.2z"/>
    </g>
    <path fill="#59708B" d="M593 210h63.1l6.9 13-6.9 13H593v-13"/>
    <path fill="#D8D8D8" d="M658 210h69v26h-69 1.4l7-13-7-13H658z"/>
    <g transform="translate(616 214)">
      <defs>
        <filter id="i" filterUnits="userSpaceOnUse" x="2" y="0" width="14" height="18">
          <feColorMatrix values="1 0 0 0 0 0 1 0 0 0 0 0 1 0 0 0 0 0 1 0"/>
        </filter>
      </defs>
      <mask maskUnits="userSpaceOnUse" x="2" y="0" width="14" height="18" id="j">
        <path fill="#FFF" d="M16 9v9H2V0h14z" filter="url(#i)"/>
      </mask>
      <path mask="url(#j)" fill="#FFF" d="M9 9.6c2.6 0 4.6 1.7 4.6 4V15H4.4v-1.4c0-2.3 2-4 4.6-4zM4.4 4.2h9.2v-3H4.4v3zm11 12.6h-.8v-3.2c0-2.1-1.2-3.8-3-4.6 1.8-.8 3-2.6 3-4.6V1.2h.8c.3 0 .6-.2.6-.6s-.3-.6-.6-.6H2.6c-.3 0-.6.3-.6.6s.3.6.6.6h.8v3.1c0 2.1 1.2 3.8 3 4.6-1.8.8-3 2.6-3 4.6v3.2h-.8c-.3.1-.6.3-.6.7 0 .3.3.6.6.6h12.8c.3 0 .6-.3.6-.6 0-.4-.3-.6-.6-.6z"/>
    </g>
    <path fill="none" stroke="#848484" stroke-width="1.5" d="M689.9 213.3c.2 0 .3.1.5.2.1.1.2.3.2.5v8.7c0 .2.2.3.4.1l5.1-4.1c.1-.1.3-.1.4-.1.2 0 .3.1.5.2.1.1.2.3.2.5v3.3c0 .2.3.4.5.2l5.1-4.1c.1-.1.3-.1.4-.1.2 0 .3.1.5.2.1.1.2.3.2.5v12c0 .2-.1.3-.2.5-.1.1-.3.2-.5.2h-17.3c-.2 0-.3-.1-.5-.2-.1-.1-.2-.3-.2-.5V214c0-.2.1-.3.2-.5.1-.1.3-.2.5-.2h4z"/>
  </g>
  <g enable-background="new">
    <path fill="#CB3232" d="M734.8 113.8c0-1.1.5-1.6 1.4-1.6.5 0 .8.1 1 .4s.4.7.4 1.2-.1.9-.4 1.2-.6.4-1 .4-.7-.1-1-.4-.4-.7-.4-1.2zm2-3.5h-1.2l-.6-12.4h2.4l-.6 12.4z"/>
  </g>
  <g>
    <path fill="#4DAF9C" d="M593 154h135v26H593v-13"/>
    <path fill="none" stroke="#4DAF9C" d="M593.5 154.5v25h134v-25h-134z"/>
    <path fill="none" stroke="#FFF" stroke-width="3" stroke-linecap="round" stroke-linejoin="round" d="M665 161l-10.4 11.1-4.6-6.2"/>
  </g>
  <g enable-background="new">
    <path fill="#A8A8A8" d="M790.3 172.1c.4.9.6 1.8.6 2.8 0 1-.2 1.9-.6 2.8s-.9 1.6-1.5 2.3c-.6.6-1.4 1.1-2.3 1.5-.9.4-1.8.6-2.8.6h-8.6c-1 0-1.9-.2-2.8-.6-.9-.4-1.6-.9-2.3-1.5-.6-.6-1.1-1.4-1.5-2.3s-.6-1.8-.6-2.8c0-1 .2-1.9.6-2.8s.9-1.6 1.5-2.3c.6-.6 1.4-1.1 2.3-1.5.9-.4 1.8-.6 2.8-.6h8.6c1 0 1.9.2 2.8.6.9.4 1.6.9 2.3 1.5.6.6 1.1 1.4 1.5 2.3zm-9.9 5c.3-.7.5-1.4.5-2.2 0-.8-.2-1.5-.5-2.2s-.7-1.3-1.2-1.8-1.1-.9-1.8-1.2c-.7-.3-1.4-.5-2.2-.5s-1.5.2-2.2.5c-.7.3-1.3.7-1.8 1.2s-.9 1.1-1.2 1.8c-.3.7-.5 1.4-.5 2.2 0 .8.2 1.5.5 2.2.3.7.7 1.3 1.2 1.8s1.1.9 1.8 1.2c.7.3 1.4.5 2.2.5s1.5-.2 2.2-.5c.7-.3 1.3-.7 1.8-1.2s.9-1.1 1.2-1.8zm8.6 0c.3-.7.5-1.4.5-2.2 0-.8-.2-1.5-.5-2.2s-.7-1.3-1.2-1.8-1.1-.9-1.8-1.2c-.7-.3-1.4-.5-2.2-.5h-4.3c.9.7 1.6 1.5 2.1 2.5s.8 2.1.8 3.2-.3 2.2-.8 3.2-1.2 1.8-2.1 2.5h4.3c.8 0 1.5-.2 2.2-.5.7-.3 1.3-.7 1.8-1.2s.9-1.1 1.2-1.8z"/>
  </g>
  <g enable-background="new">
    <path fill="#A8A8A8" d="M790.3 221.1c.4.9.6 1.8.6 2.8 0 1-.2 1.9-.6 2.8s-.9 1.6-1.5 2.3c-.6.6-1.4 1.1-2.3 1.5-.9.4-1.8.6-2.8.6h-8.6c-1 0-1.9-.2-2.8-.6-.9-.4-1.6-.9-2.3-1.5-.6-.6-1.1-1.4-1.5-2.3s-.6-1.8-.6-2.8c0-1 .2-1.9.6-2.8s.9-1.6 1.5-2.3c.6-.6 1.4-1.1 2.3-1.5.9-.4 1.8-.6 2.8-.6h8.6c1 0 1.9.2 2.8.6.9.4 1.6.9 2.3 1.5.6.6 1.1 1.4 1.5 2.3zm-9.9 5c.3-.7.5-1.4.5-2.2 0-.8-.2-1.5-.5-2.2s-.7-1.3-1.2-1.8-1.1-.9-1.8-1.2c-.7-.3-1.4-.5-2.2-.5s-1.5.2-2.2.5c-.7.3-1.3.7-1.8 1.2s-.9 1.1-1.2 1.8c-.3.7-.5 1.4-.5 2.2 0 .8.2 1.5.5 2.2.3.7.7 1.3 1.2 1.8s1.1.9 1.8 1.2c.7.3 1.4.5 2.2.5s1.5-.2 2.2-.5c.7-.3 1.3-.7 1.8-1.2s.9-1.1 1.2-1.8zm8.6 0c.3-.7.5-1.4.5-2.2 0-.8-.2-1.5-.5-2.2s-.7-1.3-1.2-1.8-1.1-.9-1.8-1.2c-.7-.3-1.4-.5-2.2-.5h-4.3c.9.7 1.6 1.5 2.1 2.5s.8 2.1.8 3.2-.3 2.2-.8 3.2-1.2 1.8-2.1 2.5h4.3c.8 0 1.5-.2 2.2-.5.7-.3 1.3-.7 1.8-1.2s.9-1.1 1.2-1.8z"/>
  </g>
  <g enable-background="new">
    <path fill="#A8A8A8" d="M768.6 118.6c-.4-.9-.6-1.8-.6-2.8 0-1 .2-1.9.6-2.8s.9-1.6 1.5-2.3c.6-.6 1.4-1.1 2.3-1.5.9-.4 1.8-.6 2.8-.6h8.6c1 0 1.9.2 2.8.6.9.4 1.6.9 2.3 1.5.6.6 1.1 1.4 1.5 2.3s.6 1.8.6 2.8c0 1-.2 1.9-.6 2.8s-.9 1.6-1.5 2.3c-.6.6-1.4 1.1-2.3 1.5-.9.4-1.8.6-2.8.6h-8.6c-1 0-1.9-.2-2.8-.6-.9-.4-1.6-.9-2.3-1.5-.6-.6-1.2-1.4-1.5-2.3zm12.9 2.5c.7.3 1.4.5 2.2.5.8 0 1.5-.2 2.2-.5.7-.3 1.3-.7 1.8-1.2s.9-1.1 1.2-1.8.5-1.4.5-2.2c0-.8-.2-1.5-.5-2.2s-.7-1.3-1.2-1.8-1.1-.9-1.8-1.2c-.7-.3-1.4-.5-2.2-.5-.8 0-1.5.2-2.2.5-.7.3-1.3.7-1.8 1.2s-.9 1.1-1.2 1.8-.5 1.4-.5 2.2c0 .8.2 1.5.5 2.2s.7 1.3 1.2 1.8 1.1.9 1.8 1.2z"/>
  </g>
  <g enable-background="new">
    <path fill="#A8A8A8" d="M768.6 58.6c-.4-.9-.6-1.8-.6-2.8 0-1 .2-1.9.6-2.8s.9-1.6 1.5-2.3c.6-.6 1.4-1.1 2.3-1.5.9-.4 1.8-.6 2.8-.6h8.6c1 0 1.9.2 2.8.6.9.4 1.6.9 2.3 1.5.6.6 1.1 1.4 1.5 2.3s.6 1.8.6 2.8c0 1-.2 1.9-.6 2.8s-.9 1.6-1.5 2.3c-.6.6-1.4 1.1-2.3 1.5-.9.4-1.8.6-2.8.6h-8.6c-1 0-1.9-.2-2.8-.6-.9-.4-1.6-.9-2.3-1.5-.6-.6-1.2-1.4-1.5-2.3zm12.9 2.5c.7.3 1.4.5 2.2.5.8 0 1.5-.2 2.2-.5.7-.3 1.3-.7 1.8-1.2s.9-1.1 1.2-1.8.5-1.4.5-2.2c0-.8-.2-1.5-.5-2.2s-.7-1.3-1.2-1.8-1.1-.9-1.8-1.2c-.7-.3-1.4-.5-2.2-.5-.8 0-1.5.2-2.2.5-.7.3-1.3.7-1.8 1.2s-.9 1.1-1.2 1.8-.5 1.4-.5 2.2c0 .8.2 1.5.5 2.2s.7 1.3 1.2 1.8 1.1.9 1.8 1.2z"/>
  </g>
</svg>