<svg xmlns="http://www.w3.org/2000/svg" viewBox="0 0 981 228">
  <path fill="#ffffff" d="M340 111.4c-10.6 0-20.4 2.9-29 7.8-23.1-24.2-47.5-41-68-52.4 1.1-4.3 1.8-8.8 1.8-13.5 0-29.2-23.7-52.9-52.9-52.9S139 24 139 53.2c0 3.2.3 6.4.9 9.4-31 14-59 32.3-78.7 46.6-6.4-5.3-14.6-8.5-23.5-8.5-20.4 0-37 16.6-37 37s16.6 37 37 37 37-16.6 37-37c0-5.7-1.3-11.1-3.7-16 18.7-13.6 45.2-30.8 74.1-44.1 8.8 16.8 26.5 28.3 46.8 28.3 18.8 0 35.2-9.8 44.6-24.6 18.8 10.6 40.9 26 61.8 47.5-10.2 10.5-16.5 24.8-16.5 40.6 0 32.1 26 58.2 58.2 58.2s58.2-26 58.2-58.2-26.1-58-58.2-58zm208 46.7c-5 4.3-10.6 7.6-16.8 9.9-6.2 2.3-12.6 3.5-19.3 3.5-5.1 0-10-.7-14.8-2s-9.2-3.2-13.3-5.6-7.9-5.3-11.3-8.8c-3.4-3.4-6.3-7.2-8.8-11.3-2.4-4.1-4.3-8.6-5.6-13.3s-2-9.7-2-14.8.7-10 2-14.8 3.2-9.2 5.6-13.3 5.3-7.9 8.8-11.3c3.4-3.4 7.2-6.3 11.3-8.8s8.6-4.3 13.3-5.6 9.7-2 14.8-2c6.7 0 13.1 1.1 19.3 3.4 6.2 2.3 11.8 5.6 16.8 10L536.5 92c-3.2-3.4-6.9-6-11.2-7.9-4.3-1.8-8.8-2.7-13.5-2.7-4.8 0-9.2.9-13.4 2.7-4.2 1.8-7.8 4.2-10.9 7.3-3.1 3.1-5.6 6.7-7.4 10.9-1.8 4.2-2.7 8.6-2.7 13.3 0 4.7.9 9.1 2.7 13.3 1.8 4.2 4.3 7.8 7.4 10.9 3.1 3.1 6.7 5.6 10.9 7.4 4.2 1.8 8.6 2.7 13.4 2.7 4.7 0 9.2-.9 13.5-2.7 4.3-1.8 8-4.4 11.2-7.9l11.5 18.8zm85.2-29.9c0 6-1.1 11.6-3.2 16.8-2.2 5.2-5.1 9.7-8.8 13.4-3.7 3.7-8.1 6.8-13 8.9-5 2.2-10.3 3.3-16 3.3s-11-1.1-16-3.3c-5-2.2-9.3-5.2-13.1-8.9-3.7-3.8-6.7-8.3-8.8-13.4-2.2-5.2-3.2-10.8-3.2-16.8 0-6.1 1.1-11.8 3.2-17 2.2-5.2 5.1-9.7 8.8-13.5 3.7-3.8 8.1-6.7 13.1-8.9s10.3-3.2 16-3.2 11.1 1 16 3c5 2 9.3 4.9 13 8.6s6.6 8.2 8.8 13.4c2.2 5.3 3.2 11.1 3.2 17.6zm-20.6 0c0-3.3-.5-6.3-1.6-9s-2.5-5-4.4-6.9c-1.9-1.9-4-3.4-6.5-4.4s-5.1-1.5-7.9-1.5-5.4.5-7.9 1.5-4.6 2.5-6.5 4.4c-1.8 1.9-3.3 4.2-4.3 6.9-1.1 2.7-1.6 5.7-1.6 9 0 3.1.5 6 1.6 8.6 1.1 2.7 2.5 5 4.3 6.9 1.8 2 4 3.5 6.5 4.6 2.5 1.1 5.1 1.7 7.9 1.7s5.4-.5 7.9-1.6 4.6-2.5 6.5-4.4c1.9-1.9 3.3-4.2 4.4-6.9 1-2.7 1.6-5.7 1.6-8.9zm52.6 40.9h-20.7V56.6h20.7v112.5zm36.3 0h-20.7V56.6h20.7v112.5zm93.6 0h-20.7v-4.3s-2.9 1.8-5.3 3c-2.4 1.1-4.9 2-7.4 2.7s-5.1 1-7.7 1c-5.7 0-11-1-16-2.9s-9.3-4.7-13.1-8.3c-3.7-3.6-6.7-8.1-8.8-13.3-2.2-5.3-3.2-11.2-3.2-18 0-6.3 1.1-12 3.2-17.2 2.2-5.2 5.1-9.7 8.8-13.5 3.7-3.8 8.1-6.7 13.1-8.8s10.3-3.1 16-3.1c2.6 0 5.2.3 7.7 1s5 1.6 7.4 2.7c2.4 1.2 5.3 2.8 5.3 2.8v-5.6h20.7v81.8zM774.4 129c0-2.8-.5-5.5-1.6-8.2-1.1-2.6-2.5-5-4.4-7s-4-3.7-6.5-4.9c-2.5-1.2-5.1-1.8-7.9-1.8s-5.4.5-7.9 1.4c-2.5 1-4.6 2.4-6.5 4.2s-3.3 4.1-4.3 6.9c-1.1 2.7-1.6 5.8-1.6 9.4s.5 6.6 1.6 9.4c1.1 2.7 2.5 5 4.3 6.9 1.8 1.9 4 3.3 6.5 4.2 2.5 1 5.1 1.4 7.9 1.4s5.4-.6 7.9-1.8c2.5-1.2 4.6-2.9 6.5-4.9s3.3-4.4 4.4-7c1.1-2.7 1.6-5.4 1.6-8.2zm116.8-.8c0 6.3-1.1 12.1-3.2 17.3-2.2 5.2-5.1 9.7-8.8 13.4-3.7 3.7-8.1 6.6-13 8.7-5 2.1-10.3 3.1-16 3.1-5.7 0-11-1.1-16-3.2s-9.3-5-13.1-8.8c-3.7-3.8-6.7-8.2-8.8-13.4-2.2-5.2-3.2-10.9-3.2-17.1V56.6h20.6v37.6c1.1-1.4 2.4-2.7 4-3.8 1.6-1.1 3.3-2 5.1-2.7 1.8-.7 3.7-1.2 5.7-1.6s3.9-.6 5.7-.6c5.7 0 11.1 1.1 16 3.2s9.3 5.1 13 8.9c3.7 3.8 6.6 8.3 8.8 13.5s3.2 10.9 3.2 17.1zm-20.6 0c0-3.1-.5-6-1.6-8.7-1.1-2.7-2.5-5-4.4-6.9-1.9-2-4-3.5-6.5-4.6s-5.1-1.7-7.9-1.7c-2.8 0-5.4.6-7.9 1.8-2.5 1.2-4.6 2.9-6.5 4.9-1.9 2-3.3 4.4-4.4 7s-1.6 5.3-1.6 8.2c0 3.1.5 6 1.6 8.6 1.1 2.7 2.5 5 4.4 6.9 1.9 2 4 3.5 6.5 4.6 2.5 1.1 5.1 1.7 7.9 1.7 2.8 0 5.4-.6 7.9-1.7s4.6-2.7 6.5-4.6c1.9-2 3.3-4.3 4.4-6.9 1-2.7 1.6-5.5 1.6-8.6zm109.7 0c0 6-1.1 11.6-3.2 16.8-2.2 5.2-5.1 9.7-8.8 13.4-3.7 3.7-8.1 6.8-13 8.9-5 2.2-10.3 3.3-16 3.3-5.7 0-11-1.1-16-3.3-5-2.2-9.3-5.2-13.1-8.9-3.7-3.8-6.7-8.3-8.8-13.4-2.2-5.2-3.2-10.8-3.2-16.8 0-6.1 1.1-11.8 3.2-17 2.2-5.2 5.1-9.7 8.8-13.5 3.7-3.8 8.1-6.7 13.1-8.9s10.3-3.2 16-3.2c5.7 0 11.1 1 16 3s9.3 4.9 13 8.6c3.7 3.7 6.6 8.2 8.8 13.4 2.2 5.3 3.2 11.1 3.2 17.6zm-20.6 0c0-3.3-.5-6.3-1.6-9s-2.5-5-4.4-6.9c-1.9-1.9-4-3.4-6.5-4.4s-5.1-1.5-7.9-1.5c-2.8 0-5.4.5-7.9 1.5s-4.6 2.5-6.5 4.4c-1.8 1.9-3.3 4.2-4.3 6.9-1.1 2.7-1.6 5.7-1.6 9 0 3.1.5 6 1.6 8.6 1.1 2.7 2.5 5 4.3 6.9 1.8 2 4 3.5 6.5 4.6 2.5 1.1 5.1 1.7 7.9 1.7 2.8 0 5.4-.5 7.9-1.6s4.6-2.5 6.5-4.4c1.9-1.9 3.3-4.2 4.4-6.9 1.1-2.7 1.6-5.7 1.6-8.9z"/>
</svg>