<svg xmlns="http://www.w3.org/2000/svg" viewBox="0 0 240 240">
  <g fill="#FFF">
    <path d="M126.1 1.3s0-.3 0 0c0-.3.2-.3 0 0zm54.4 15.3l-.5-.3c.5.1.5.3.5.3zM92.4 3.2c-.3 0-1.1.3-2.2.5l2.2-.5zm146.1 113.4v-.8.8zm-20.3-68.2c0 .3.3.5.5.8-.2-.5-.5-.8-.5-.8zM75.4 9.4l.8-.3c.3 0 0 0-.8.3zm-31 13.7c.2-.3.2 0 0 0zm11.6-7c.3 0 .5-.3.8-.3-.6.3-.8.3-.8.3zm1.3-.5s-.3 0-.3.3l.3-.3zM33.9 53c.8-.8 1.3-1.1 2.2-1.6L33.9 53zm1.8 0l.5-.5-.5.5zM93.2 5.3c1.1 0 3-.5 3-.3-1.1 0-2.8.6-3 .3zm74.6 216.2l-.5.3c.3-.3.5-.3.5-.3zM35.7 53l-.5.5v-.3c.3.1.3.1.5-.2zm44.8 176.1h.3-.3zm-5.7-2.2c.3.3.8.3 1.1.5-.8-.2-1.1-.2-1.1-.5zM36 51.4l1.3-1.1c-.5.6-.7.8-1.3 1.1zM23.6 186.2c0 .3.3.3.3.5 0-.2-.3-.5-.3-.5zm192-141.3l-.3-.3.3.3zm15.9 38.9c.3.8.3 1.9.3 2.4-.1-.8-.1-1.4-.3-2.4zm1.6 7.2v-.3.3zm-14-35s.3.3.3.5c-.1 0-.1-.2-.3-.5z"/>
    <path d="M201.3 194.6c3-3.5 5.9-7.3 8.9-11.6.8-1.1 1.3-2.2 2.2-3.2.8-1.1 1.3-2.2 1.9-3.2.3-.5.8-1.1 1.1-1.6l.8-1.6c.5-1.1 1.1-2.2 1.6-3 .5-.8 1.1-1.9 1.9-3 .5-1.1 1.3-2.4 1.9-3.5l-.3-.3 1.1-2.2c.3-.8-.8 1.6-.3 0l.5-.8s.5-1.3 1.1-2.4c.3-1.1.5-1.3-.3.3l1.6-4.3c.5-1.1.8-2.2 1.1-3 .3-.8.5-1.3.5-1.3.8-1.9.8-1.1 1.3-3.2 0-.5-.3.8-.3.5.3-1.6.8-3 1.1-3.8.3-.5.3-1.1.5-1.3.3-.5.3-.8.5-1.3.5-1.9 1.3-3.5 1.9-6.5l-.3.5c.3-.5.3-1.3.5-1.9 0-.5.3-1.1.3-1.1.3.8-.3 1.1-.5 3 .3 0 .8-2.2.8-2.2.3-1.3.5-2.2.8-3.5 0-1.1.3-2.4.5-3.5 0-1.3.3-2.4.3-3.2.3-1.1.8-2.2.8-4.6 0-1.6-.3.3-.3-1.9l.3-.3v-1.3c0-1.9.3-1.6.3-4l-.3 1.3v-5.1 1.9c-.3-1.3 0-2.4 0-3 0 .3.3 1.9.3 1.1 0-1.3.3-2.7 0-3.5v1.6c0-2.7 0-1.3-.3-4.3v.3c0-1.9-.5-4.3-.8-7v.4c0-1.1 0-1.9-.3-2.4.3 1.6.3 1.1.5 1.3-1.1-1.9-1.1-2.7-1.1-3.8 0-.5 0-1.1-.3-1.6 0-.5-.3-1.3-.5-2.2 0 0 0 .8.3 1.9 0 1.1-.3 1.3 0 3.5-.3-1.3-.3-3-.5-2.4l.3-.5c0-.8-.3-1.3-.5-1.9 0-.3.8 1.3.3-.3-.3-2.2-.5-1.1-.5-1.3-.5-2.7 0-1.3-.8-3.8 0 .3.3.8.3 1.1-.8-1.9-1.3-4.6-1.9-5.1 0 .3 0 .3.3 1.1.3 2.2-.5-1.9-.5-1.1.3 0-.8-2.4-1.3-3.5l.3.3c-.5-2.2-.5-1.9-.8-1.9 0 0-.3.3-1.1-1.6-.8-2.4.5.8 0-.8l-2.2-4.3c-.3-.5-1.1-1.9-1.3-1.9-.5-1.3-2.4-4-2.7-4.9.8 1.1 1.1 1.6 1.3 2.4.3.3.3.8.5 1.1.3.3.5.8 1.1 1.6l-.3-.8c-1.1-1.9-2.4-4.3-3.2-5.7.3.3.3.3.3 0-.8-1.3-1.3-2.2-1.9-3-.5-.8-1.1-1.6-1.9-3-.3 0 0 .3.3.8s.8 1.1 1.1 1.6c-1.1-1.6-1.1-1.6-3-4-.3 0 1.3 1.6 1.3 1.9l-1.9-2.7c0-.3-.3-.8-1.1-1.3-.5-.5-1.3-1.3-1.9-2.2-.8-.8-1.3-1.6-1.9-2.2-.5-.5-.8-1.1-1.3-1.6-.8-.8-1.1-1.6-2.2-2.7-.5-.5-.8-.5-.5-.3l1.1 1.1c-.5-.5-1.3-1.1-1.9-1.3-.5-.3-.8-.3-.5 0-1.9-1.9.8.5-.3-.5l-2.7-2.4c.3.3 1.3 1.1 0-.3-1.1-1.1-1.9-1.3-3.2-2.7.3.3-.5-.3.5.8-.8-.5-1.9-1.6-2.4-2.2.8.8.3 0-.5-.5s-1.6-1.3-.8-.8l-1.9-1.1c.3.3.3.3 1.1.8-.8-.3-1.3-1.1-2.2-1.6-.5-.5-2.4-1.3-2.4-1.6-.5-.3-2.2-1.3-2.4-1.3-.8-.5 0-.3-.3-.3 0 0-.8-.5-1.3-1.1-.8-.5-1.6-.8-1.6-.8-.3 0-.8.3-.3.5-1.1-.8-.3-.5-1.9-1.6.8.8-2.4-1.1-1.1 0-1.1-.3-4-1.9-5.7-3-.8-.8 1.9.8 1.9.5-1.1-.5-1.9-1.1-2.7-1.3-.8-.3-1.3-.8-1.9-1.1-1.1-.8-1.9-1.1-3.5-1.9l.8.3c-2.2-1.1-1.9-.8-3-1.6.3.3-.3 0-1.6-.3-1.1-.3-3-.8-4.6-1.6-.3-.3 2.2.5 1.6 0l-1.1-.5c-.5-.3-1.1-.3-1.1-.3-.3 0 0 0 .3.3-2.2-.8-4-1.1-4.6-1.6l-2.4-.3h.8c-.3-.3-2.7-1.1-3.2-1.1-1.9-1.1-3-1.3-4.3-1.3.5 0 1.6 0-.3-.5 0 .3-4.3-.8-4.3-.5-.8-.3-2.2-.3-2.4-.5v.3c0-.3-.8-.3-1.9-.5-1.1-.3-2.4-.5-3.5-.5.5.5-2.4-.3-3.5 0-.3-.3-4-.5-4.6-.8-1.9 0-1.6.3-2.2.3l-.8-.5h-8.4l-.8.3c-.3 0-1.9 0-.8-.3h-1c0-.3-1.3 0-3.5 0-.5 0-.3.3 0 .3-1.1 0-.5.3-1.1.3.8 0-3.5-.3-1.1-.5h-2.4v.5h-1.1c-1.6 0-2.2.3-3.5.5 1.3-.3 3 0-.3.5 1.9-.3 2.7-.3 3.5-.3-.8 0-1.1.3 0 .3-2.4.3-.8 0-3.5.3.3.2-.5.2-2.7.8l1.6-.3h-.3c.5 0 .8-.3.8-.3-.5 0-3 0-3.5.3 2.4-.8-4.6.5-3 0-.3 0-2.2.3-2.2.5 2.4-.5-1.3.3-1.1.5-.8 0 1.6-.5.5-.3-1.3.3-2.2.5-3 .8h.5s-.5 0-1.1.3c-.5.3-1.1.3-1.1.3-.3 0 1.9-.8 0-.3-.5.3-2.2.5-2.2.8.8 0 .3.3 1.9 0-.5.3-1.9.5-3 .8-1.1.3-1.6.3-.8 0h-1.1c.8-.3 3.5-1.3.5-.5l-1.7.3-.8.3s-.3 0-1.1.3c-.3 0-.8.3-.8.5-2.2.8-2.2.5-2.4.5-1.3.3-1.6.8-1.1.5-1.6.5-4.6 1.6-5.7 2.2-2.2.8.3-.3-.8 0-1.9 1.1-7 3.2-10.5 4.9.8-.8-1.1.5-1.9.5.8-.3-3.2 1.9 0 .5 0 0-.5.3-.8.5-.5.3-.8.5-.8.5-1.1.8 3-1.3 1.3-.3-1.1.5-1.9.8-3 1.3-.8.3-1.9.8-3 1.6.8-.3-1.9 1.1-1.1.8.5-.3 1.1-.5 1.9-1.1l-.3.3c-4.3 2.7-1.3.5-3.8 1.9-2.7 1.6-1.9 1.3-1.9 1.6-.3.3-1.6 1.1-2.4 1.6 1.6-1.1 2.7-2.2 1.9-1.9-1.1 1.1-3.8 2.7-4.6 3 3.5-2.7 2.4-1.9 5.7-4.3.5-.3.5 0 2.7-1.3-1.3.8 0-.3.3-.5-.3.3 1.3-.8 2.2-1.1.5-.5-1.3.3.8-.8h.5c.8-.5-.5 0 1.3-1.1-1.1.3.3-.3-2.4.8 1.3-1.1 2.4-1.6 3.5-2.2 1.1-.5 2.2-.8 3.5-1.3-.3 0-.3 0-.5.3.5-.3 1.3-.8 2.2-1.1 1.6-.8-1.3.5-1.1.3l2.4-1.1c.8-.3 1.3-.5 1.6-.8-.8.3-1.1.3-1.9.5 0 0 .8-.3 1.3-.5.8-.3 1.3-.5 1.3-.5-.3 0 2.2-1.1.3-.3 0 0 1.1-.3 2.2-.8.5-.3 1.1-.3 1.3-.5.3-.3.8-.3.8-.3l.3-.3c1.1-.3 1.1-.3 0 .3.8-.3 2.2-.8 3.5-1.3 1.3-.3 2.4-.8 1.9-.8 1.6-.5 2.7-.8 4-1.1 1.1-.3 2.4-.8 4.6-1.3-3.2.8 3.5-1.3.3-.5 1.9-.8 2.4-.5 3.8-.8 1.3-.5.8-.5-.8-.3l1.9-.3 1.6-.3c1.6-.5.3-.3 2.2-.8h.4l1-.2c-.3.3.5 0 1.9-.3l1.3-.5c-1.1.3 1.9 0 1.1 0 1.3-.3 1.3-.3 3.8-.5h-.3c3.2-.3 0-.3 2.7-.5v.3c3.5-.8 6.2-.5 8.9-1.1-1.6 0-1.1-.3-1.1 0 1.1 0 2.7-.3 4.3-.3h4.3c.8-.3 1.1-.3 3.5-.3 1.9 0 2.2 0 2.7.3h5.1c.3.3 1.6 0 2.4.3h.3l-.3.3c1.6 0 3 .3 4.3.3.8 0 1.3.3 1.9.3.8 0 1.3.3 2.2.3h-.5l1.3.3c.3 0-.3-.3-.3-.3s.3 0 1.1.3c.5 0 1.3.3 2.2.3 1.6.3 3 .5 3 .5h-1.1c1.3.3 2.2.5 3.5.8-2.4-.8 1.9.5 2.4.3l-1.3-.3c1.9.3 1.9.3 1.7.3 2.2.5 1.6 0 3.8.8l-1.3-.3c-.5 0 .5.3 1.6.8.3 0 1.1.3.3 0 .8.3 1.9.5 3 .8 1.1.3 1.9.5 2.2.8 1.1.3.8 0 .3-.3 3.8 1.3 1.9.5 5.4 2.2l1.3.5s.5 0 1.1.3c.5 0 1.1.3 1.1.3l-.8-.3c1.1.5 1.9.8 3.2 1.3l-.5-.5c3.2 1.3 4 1.6 7 3.2.3 0-.3-.3-.5-.3 3 1.6 2.4.8 5.1 2.7-.3 0 .3 0 0 0l1.3.8v-.3l.8.8.8.3.5.3c.8.3 1.6.8 2.4 1.1.8.5 1.9 1.1 3 1.6h-.5c1.1.8 2.2 1.6 3.5 2.4 1.3.8 2.4 1.9 3.8 2.7 1.3.8 2.7 1.9 4 3s2.7 2.2 3.8 3.2v-.3l1.9 2.2c1.1.8-.5-.8 0-.5 2.2 2.2.8 1.1 3 3.5 1.3 1.1-.3-.5-.8-1.1 1.1 1.1 2.4 2.7 3.8 4 1.1 1.3 2.4 2.7 3.2 3.5 0 0 0 .3 0 0 .8.8 1.3 1.9 2.2 3s1.6 1.9 2.2 3l-.5-1.1c.5.8 1.1 1.6 1.6 2.2l-.3-.8c1.1 1.3 3 4.6 3.2 4.6-.3-.3-.3 0 .5 1.3.3.3.8 1.3 1.3 2.4.5 1.1 1.1 2.4 1.9 3.5 0-.3-.8-1.9-.8-1.3.8 1.1 1.1 2.2 1.3 3.2v-.3s.3.3.3.8c.3.5.5 1.1.8 1.9l1.1 2.7c.8.8 1.9 5.1 1.9 4.6.8 1.9-.8-1.6.3.8.3.5.8 2.2.8 2.2v-.3l.5 1.9-.3-1.1c.3 1.6.5 2.7.5 3 .5 1.3.8 3.5 1.3 4V84c.5 2.2 1.1 3.8 1.3 5.4.3.8.3 1.6.5 2.4.3.8.3 1.6.3 2.4V94l.3 2.7v-.8s0 1.1.3 2.2v2.2c0 1.3.3 3.2.3 5.1s.3 4 0 5.7v-.5c-.3 4 0 3.8-.3 6.7v-.3l-.3 2.7v-.5c0 .5 0 1.1-.3 1.6v2.7c-.3 1.1-.5 3-.8 3.2-.5 3 0 .8-.3 2.4-.3 2.2-.5 2.4-1.1 5.1-.3 1.3-.5 2.2-.8 3.8l.3-.5c-.8 3-.5 3.8-1.6 5.9-.3 1.3-1.1 3.5-.8 3.5-.3.8-.5 1.9-.8 2.4l-.8 2.4c-.5 1.6-1.1 3.2-1.9 4.9 0 .8-.3.8-1.1 3v-.3c-.3.5-.5 1.3-.8 1.9-.3.5-.5 1.3-.8 1.9-.5 1.3-1.1 2.7-1.6 3.8-1.3 2.7-2.4 5.4-3.8 7.8v.3l.3 1.1c-3 5.4-7.3 12.1-10.2 16.2-1.1 1.3-2.7 3-4.3 5.1l.3-.3c-.3.3-.8.8-1.1 1.3-.3.5-.8.8-1.1 1.3l-2.4 2.4-2.4 2.4s-1.6 1.9-2.4 2.7c.3-.3 0 .3.3 0-1.1.8-2.2 1.9-3 2.7l.8-.8c-1.1.8-2.4 2.4-3 3l-1.9 1.3-.3.3-.3.3-.8.8c-.3.3-3 1.9-3.8 2.4 0 .3-1.9 1.3-.5.5 0 0-.3.3-1.1.8-.5.5-1.3 1.1-2.4 1.6l-2.4 1.6c-.5.3-1.1.8-1.1.8s.3-.3.5-.3c.3-.3.5-.3.5-.3 0-.3-2.2.8-3.2 1.6 1.3-.8.3 0-.3.5-1.1.5.8-.5.3-.3s-1.6.8-2.4 1.3c-.8.3-1.6.8-2.2 1.1l.8-.3c-1.6.8-2.4 1.6-4 2.2-1.6.5-2.7 1.1-2.4.8-2.2 1.1-.8.5-1.3.8-1.1.3-4.3 1.6-4.6 1.9-.8 0-2.2.5-3.5 1.1-1.3.5-2.7 1.1-3 .8l-1.9.8s-.5-.3-2.2.3c-1.3.5-1.1.5-1.3.8h-1.1l-3.2.8c-1.1.3-2.4.5-3.5.8-2.4.5-4.9.8-7.5 1.1-5.1.3-10.2.5-15.1.5-1.1 0-2.2-.3-3.2-.3-1.1 0-2.4-.3-3.5-.3-2.4-.3-4.9-.8-7.5-1.1h.5s-1.1-.3-2.4-.3c-.5 0-1.1-.3-1.6-.3s-.8-.3-.8-.3.8.3 1.9.3c.8 0 1.9.3 1.9.3-1.1-.3-1.9-.3-3-.8-5.4-1.1-12.4-2.7-18.3-5.4-3.8-1.9-3-.8-6.5-2.7.3.3.3.3.8.5-1.1-.5-1.9-.8-2.7-1.3-.8-.3-1.6-.8-2.4-1.3-.8-.5-1.3-.8-2.4-1.3l-2.4-1.6c.3.5-2.4-1.3-2.2-1.1l-.3-.3c-.8-.3-3-1.6-2.7-1.3l-1.6-1.1h-.3c-2.2-1.3-6.7-4.6-8.1-5.1-3-3-6.2-5.7-9.4-8.4-1.6-1.3-3.2-3-4.9-4.6-.8-.8-1.6-1.6-2.4-2.2-.8-.8-1.3-1.6-2.2-2.4-.8-1.1-2.2-2.7-3.2-4.3l-1.3-1.3c-1.1-1.3-2.2-3.2-3.2-4.6v.3c-.5-.8-1.1-1.3-1.6-2.2-.5-.8-1.1-1.6-1.3-2.4-.5-.8-1.1-1.9-1.6-2.2-.3-.5-.5-.8-.5-.5.3-.3-2.2-3.8-2.2-3.8l-.3-.3s-.3-.3-.5-.8c-.3-.8-.8-1.9-1.6-3-.3-.8-.8-1.3-1.1-2.2-.3-.8-.8-1.9-1.3-2.7-1.1-1.9-1.9-4-2.7-6.5-1.9-4.9-3.8-10.8-5.1-17.5-1.3-6.7-2.2-14-1.9-21.6 0-7.5 1.1-15.4 3.2-22.6s4.9-14.3 8.4-20.2c3-6.5 7-11.3 10.5-15.4 1.9-1.9 3.5-3.8 5.1-5.4 1.6-1.3 3-3 4.3-3.8.8-.5 2.7-1.9 2.2-1.1 1.3-1.1 1.9-1.9 2.2-2.2-1.9 1.9.8-.3-.8 1.6l1.1-1.1c.3 0-1.6 1.3-1.3 1.3h-.5c-1.1.8-1.3 1.3-1.6 1.9-.5.3-1.1.5-1.6 1.1-.5.3-1.3 1.1-2.2 2.2l.5-.5c-1.6 1.6-.8 1.1-1.1 1.6l.8-1.1-1.3 1.3c1.1-1.1 3-2.7 1.9-1.9-1.9 2.2.5-.5-1.1.8-1.1.8-.5.8-.3.8l-.8.8-1.4 1.4s1.1-1.1.5-.3L27 61.9c0 .3-.5.8-1.3 1.6l-1.1 1.1c-.3.3-.5.8-.8 1.1 1.3-1.6 0 .3.3 0l-3.2 4c-.3.3.8-1.1.3-.3s-1.1 1.3-1.3 1.6c-.3.3-2.2 3.2-1.9 3.2-.5.8-.8 1.1-.8 1.3 0 .3-.3.3-.3.5-.3.3-.5.5-1.1 1.9 0 .5 1.3-2.2.8-.8l-1.9 3c.3-.3.5-.5 1.1-1.6-.5 1.1-1.1 1.9-1.3 3-.3 1.1-.8 1.9-1.1 2.7-.8 1.6-1.3 3.2-1.9 4.9l-.8 2.4-.8 2.5-.8 2.4c-.3.8-.5 1.9-.8 3 0 1.1.3-.8.8-1.6-.3 1.3-.8 2.7-1.1 3.8-.3 1.1-.3 2.2-.5 3.2 0 1.1-.3 1.9-.3 3s-.3 2.2-.3 3.2h-.3c-.3 7-.8 15.4.5 23.5l-.3-.8v1.9c0 .8.3 1.3.3 2.2 0 .3.3-1.1.5 1.3 0-.5-.3-1.3-.3-1.1.3.8.3 1.9.5 3 .3 1.1.5 2.2.8 3.5 0 .5.3 1.3.5 1.9.3.5.3 1.3.5 1.9.3 1.3.8 2.7 1.1 4 1.9 5.7 4.3 11.3 6.7 16.4 3.2 6.7 7.5 13.5 12.7 19.4 4.9 6.2 10.5 11.6 16.2 16.4-1.9-1.3-1.3-.5 0 .5 1.1.5 1.9 1.3 2.7 1.9.8.5 1.6 1.1 2.4 1.9.8.5 1.6 1.3 2.4 1.9.8.5 1.9 1.1 3 1.9 7 4.9 14.3 8.1 21.6 11.6h.3c1.1.3 1.3.5 2.4 1.1 1.3.5 3 1.1 4.3 1.6 1.3.5 2.7 1.1 3.5 1.1v-.8c1.6.5 1.1 0 2.7.8l1.9.8c0-.3 4.9 1.1 6.2 1.3 1.1.3 2.7.5 4.6 1.1 1.9.3 3.8.5 5.4.8h7.5c5.4.3 12.7 0 19.4-1.1v.3l1.9-.3s.3 0 0 0c.8-.3 1.6-.3 2.7-.5 1.1-.3 2.2-.3 2.7-.5-.8.3-1.1.3-2.2.5-1.3.3 0 .3 1.9-.3l1.3-.3c0-.3 1.3-.5 1.3-.8 1.3-.3 2.7-.8 3.8-1.1 1.3-.3 2.4-.8 3.5-1.1 2.4-.8 4.6-1.6 7.5-2.7-.8 0 3.8-1.9 2.7-1.6 3.2-1.3-.3.5 1.1 0 .8-.3 1.9-.8 1.9-1.1-.5 0 .5-.5 0-.3l2.2-1.1c.3 0-.3 0-.5.3 2.2-1.1 4-2.2 5.9-3.2 1.9-1.1 3.5-2.4 5.4-3.5.3 0-1.3 1.1-1.1.8 1.1-.5 1.6-1.1 2.2-1.3.5-.3.8-.8 1.3-1.1.5-.3.8-.5 1.1-1.1.3-.5 1.1-.8 1.9-1.3l-.5.5c1.1-.8 1.6-1.1 3.2-2.4.3-.3-1.6 1.1-2.4 1.6 1.1-1.1 4-3.2 3.2-2.4 1.3-1.1 1.9-1.9 2.4-2.4 0 0-1.1 1.3-.3.5 1.9-1.6 4.3-4.3 6.5-6.5 0 0 0-.3-.3 0 2.7-1.5 2.2-1.5 4.4-3.9z"/>
    <path d="M213.1 47.4l.8 1.1.3.5-1.1-1.6zm21.1 52.5zm0 14v.3c.2.3 0 .3 0-.3zm-45.1-88.6c.3 0 .3.2 0 0zM102.9 4zm5.1-.8h1.1c-.6 0-.8.2-1.1 0zm98.1 36.1c.3.3.5.5.5.8-.2-.6-.5-.8-.5-.8zm-96-36.1h1.3-1.3zm-8.8 1c.5 0 1.1 0 1.6-.3-.6.1-1.1.3-1.6.3zm58.2 6c1.1.5.5.2 0 0zm-44-6.8h.5-.5zM96.1 5h.5-.5zm45 .6c-.3 0-.5-.3-.5-.3.5 0 .8.3.5.3z"/>
  </g>
  <path fill="#FFF" d="M173 166.8c-.3 7.8-2.2 15.9-5.9 23.5-3.2 6.5-12.4 10.2-19.7 8.1-11.1-3.2-16.4-11.9-18.9-22.4-2.2-9.2-1.3-18.1 6.2-25.1 8.9-8.1 24.3-8.4 32.9-.3 4.6 4.3 5.1 10 5.4 16.2zm-37.2 3.5c0 10.5 5.9 17 15.9 17.8 3.8.3 7.5-.8 9.4-4.6 3-6.5 4.6-13.5 4-20.8-.5-7.3-4.9-12.1-11.6-13.2-7.3-1.1-13.2 2.2-15.6 9.2-1.6 4-2.1 7.8-2.1 11.6zm60.6-78.2c.3 6.7-1.3 11.6-2.7 16.4-3.5 13.7-21 21.3-34 5.9-6.7-8.1-9.2-17.8-7.3-28.3 2.2-11.1 12.9-19.4 24-17.8 13.2 2.2 18.9 8.4 19.9 21.3v2.5zm-7-2.1c0-8.1-3-13.2-8.9-15.4-5.9-2.2-11.6-.8-15.6 3.5-7.3 8.1-6.5 26.7 1.3 34.2 6.7 6.2 15.4 4.6 18.6-4 2.7-5.9 4.6-12.1 4.6-18.3zm-74.1 62.2c.3 10.5-.5 23.5-3.8 36.4-.8 3.2-2.2 6.5-4 9.2-4 6.2-9.2 7-15.4 2.2-5.4-4.3-9.2-9.7-11.9-15.9-1.1-2.4-3.2-5.7.3-7.3 3.5-1.6 5.7 1.6 7 4 2.2 3.8 4.3 7.8 7.5 10.5 3.8 3.2 5.7 2.4 7.3-2.2 4.6-13.5 5.4-27.8 4.9-41.8-.3-6.2-.8-9.4-1.1-15.6-.3-2.7-.3-5.4 3.5-5.7 3.2 0 4 1.9 4.6 4.9 1.1 7.9 1.1 11.9 1.1 21.3zm-20.5-39.3c-.3-3.5-1.1-9.7-.8-13.7.3-3.5-.3-7-.5-11.3 0-1.1-.5-3.5-1.1-8.1-1.3-6.5-1.9-8.9-3.5-13.5-.8-2.4-1.9-5.1-4.3-5.1-1.3 0-3.5.5-4.6 1.9-.8 1.1-3.5.8-7.8 1.1-3.2.3-6.5.8-9.7 1.1-11.9 1.9-20.2 9.4-21 20.2-.8 12.1 3.5 22.9 13.2 30.7 7.8 6.5 23.2 7.3 32.1-.5 0 .8.3 1.6.5 2.2.5 1.9 3.5 2.2 5.1 1.6 2.7-1 2.7-4.5 2.4-6.6zm-23.5-.8C60 110.7 51.7 101 50.8 88.3c-.5-7 2.2-11.3 8.6-13.7 4.9-1.9 10.2-3 15.6-3.5 4.6-.5 7.5 1.6 8.9 5.9 3.2 11.1 4.9 22.4.5 30.2-2.3 3.8-9 5.4-13.1 4.9zm42.6.8c.3 3.2-1.9 5.7-4.3 5.7-2.7 0-4.9-2.4-5.1-5.4 0-2.2.5-4.3 1.6-6.5.5-1.1 1.1-2.2 3.2-2.2 1.9 0 2.4 1.1 3.2 2.2.9 2.1 1.4 4 1.4 6.2zm-.5-45.6c2.2-2.2 3.5-3.8 5.1-5.1 5.7-5.1 11.3-4.3 15.6 1.9 5.9 8.6 7.8 18.3 9.4 28.3 2.2 12.7 3.2 25.9 3.2 38.8 0 3.2-.5 5.9-4.6 5.9-3.8 0-3.5-3.2-3.5-5.7.3-18.1-1.1-35.6-6.7-52.8-.8-2.2-1.3-4.3-2.2-6.5-1.9-4.6-4.6-5.7-10-2.4-3.5 2.2-6.7 5.9-6.7 10.2 0 6.7.3 10 .3 11.3-.3 3.5-.8 5.7-4.6 5.7-2.2 0-3.5-1.1-4-3.5-1.3-6.5-1.3-26.7-1.1-33.2 0-3 1.3-5.9 5.1-5.7 3.5.3 4.3 2.7 4.6 5.7.1.1.1 7.1.1 7.1z"/>
</svg>