<svg xmlns="http://www.w3.org/2000/svg" viewBox="0 0 240 240">
  <path fill="#38AA94" d="M200.8 118.5c-6.1 0-11.7 1.6-16.6 4.4-13.2-13.7-27.1-23.1-38.8-29.6.6-2.4 1-5 1-7.6 0-16.5-13.5-29.9-30.2-29.9C99.5 55.9 86 69.2 86 85.7c0 1.8.2 3.6.5 5.3-17.7 7.9-33.7 18.2-44.9 26.3-3.7-3-8.3-4.8-13.4-4.8-11.6 0-21.1 9.4-21.1 20.9s9.5 20.9 21.1 20.9c11.7 0 21.1-9.4 21.1-20.9 0-3.2-.7-6.3-2.1-9C57.8 116.7 73 107 89.5 99.5c5 9.5 15.1 16 26.7 16 10.7 0 20.1-5.5 25.5-13.9 10.7 6 23.4 14.7 35.3 26.8-5.8 5.9-9.4 14-9.4 22.9 0 18.1 14.8 32.9 33.2 32.9s33.2-14.7 33.2-32.9-14.9-32.8-33.2-32.8z"/>
</svg>