<?xml version="1.0" encoding="utf-8"?>
<!-- Generator: Adobe Illustrator 18.0.0, SVG Export Plug-In . SVG Version: 6.00 Build 0)  -->
<!DOCTYPE svg PUBLIC "-//W3C//DTD SVG 1.1//EN" "http://www.w3.org/Graphics/SVG/1.1/DTD/svg11.dtd">
<svg version="1.1" id="Layer_1" xmlns="http://www.w3.org/2000/svg" xmlns:xlink="http://www.w3.org/1999/xlink" x="0px" y="0px"
	 viewBox="0 0 240 240" enable-background="new 0 0 240 240" xml:space="preserve">
<g id="Page-1_1_">
	<g id="Desktop" transform="translate(-205.000000, -2597.000000)">
		<g id="Group" transform="translate(143.000000, 2541.000000)">
			<g id="Page-1" transform="translate(62.000000, 56.000000)">
				<g id="Group-3">
					<g id="Clip-2">
					</g>
					<defs>
						<filter id="Adobe_OpacityMaskFilter" filterUnits="userSpaceOnUse" x="7.4" y="13.4" width="225.1" height="213.2">
							<feColorMatrix  type="matrix" values="1 0 0 0 0  0 1 0 0 0  0 0 1 0 0  0 0 0 1 0"/>
						</filter>
					</defs>
					<mask maskUnits="userSpaceOnUse" x="7.4" y="13.4" width="225.1" height="213.2" id="mask-2_1_">
						<g filter="url(#Adobe_OpacityMaskFilter)">
							<polygon id="path-1_1_" fill="#FFFFFF" points="232.6,13.4 7.4,13.4 7.4,226.6 232.6,226.6 							"/>
						</g>
					</mask>
					<path id="Fill-1" mask="url(#mask-2_1_)" fill="#FFFFFF" d="M65.1,89.4c-1.2,1.2-2.7,1.8-4.4,1.8v6v-6c-3.4,0-6.2-2.7-6.2-6.1
						c0-3.4,2.8-6.1,6.2-6.1c3.4,0,6.2,2.7,6.2,6.1C66.9,86.7,66.3,88.2,65.1,89.4L65.1,89.4z M162,13.4h-0.5
						c-32.7,0-52.1,26.9-60.5,38.7c-8.4-6.4-22.9-16.7-39.5-16.7C32.6,35.4,7.8,57.6,7.4,84c0,23.6,13.6,46.5,21.6,58.1
						c2.1,3,20.6,29,32.1,29c2.1,0,8.4,0,23.1-20.9c5.5-7.9,15.1-23.3,17.2-38.5c2.5-18-6.2-31.1-24-36c-0.3-0.1-0.7-0.1-1-0.2
						c-3.3-5.2-9.1-8.6-15.7-8.6c-10.2,0-18.4,8.2-18.4,18.2c0,10,8.3,18.1,18.5,18.1h0c4.9,0,9.6-1.9,13-5.3
						c1.6-1.5,2.8-3.3,3.7-5.3c6.1,2.9,7.6,6.9,8.1,10.2c2.4,16.4-16.5,43-24.9,51.1c-9.9-7.9-37-40.7-37-69.8
						c0.3-17.8,17.6-32.8,37.9-32.8c12,0,24.4,9.4,31,14.4c4.4,3.3,6.5,5,10,5c5.1,0,7.6-3.5,11.7-9.2c7.5-10.5,22.9-32.1,47.5-32.1
						h0.4c33,0,54.4,18.8,54.4,47.9c0,47.8-92.9,121.3-113.2,132.5c-5.3-5-16.6-19.5-22.4-26.9c-2.7-3.5-7.8-4.1-11.3-1.4
						c-3.5,2.7-4.2,7.7-1.5,11.2c22.4,28.7,27.8,34.1,34.5,34.1c9.4,0,47.3-30.3,69.3-51.2c27.7-26.3,60.7-64.7,60.7-98.2
						C232.6,45.5,210.8,13.4,162,13.4L162,13.4z"/>
				</g>
			</g>
		</g>
	</g>
</g>
</svg>
