<svg xmlns="http://www.w3.org/2000/svg" viewBox="0 0 36 30">
  <path fill="#B18CA1" d="M7.6 29.9c-2.1 0-3.8-.8-5.2-2.3C1 26.1.3 23.9.3 21.1c0-4.1 1-8.1 3-12S7.6 2.3 10.2.3l4.3 1.8c-1.7 1.9-3.1 4.1-4.3 6.7s-1.9 5.1-1.9 7.5c1.9.2 3.4.9 4.6 2 1.2 1.2 1.8 2.7 1.8 4.6 0 2-.7 3.6-2 4.9s-3.2 2.1-5.1 2.1zm20.6 0c-2.1 0-3.8-.8-5.2-2.3-1.4-1.5-2.1-3.7-2.1-6.5 0-4.1 1-8.1 3-12s4.3-6.8 6.9-8.8l4.3 1.8C33.4 4 32 6.2 30.7 8.8c-1.2 2.6-1.9 5.1-2 7.5 1.9.2 3.5.9 4.6 2.1s1.8 2.7 1.8 4.6c0 2-.7 3.6-2 5-1.4 1.2-3 1.9-4.9 1.9z"/>
</svg>