<svg xmlns="http://www.w3.org/2000/svg" viewBox="0 0 1921 382">
  <g fill="#FFF">
    <path d="M835.5 138.2c-21.9 28.7-42 58.7-60.1 89.8-9.2-28.9-17.2-58.1-24-87.6-1.4-6.2-10-4.6-10.9.7-81.8-7.1-163.7-14.2-245.8-17.5-1.5-.7-2.9-1.4-4.4-2C440 98.3 389.3 75 339.2 51.8c60.7-24 124.9-36.4 189.8-36.6 15.4 0 31.9-.5 47.1 2.8 5.6 1.3 11.5 3.6 14.9 8.4 5.1 7.3 1.3 17-2.3 24-11.6 22.3-34.8 36.7-59 41.7-16.9 3.5-35.2 1.7-50.9-5.6-6.5-3.1-12.2 6.6-5.7 9.7 45.3 21.3 107.1 1.7 127.7-45.3 5.7-12.9 5.3-28.4-7-37.2-10.9-7.9-25.2-8.4-38.1-9-34-1.8-68.1.1-101.8 4.9-45.2 6.5-89.4 19.2-131.4 37.1-3.8 1.6-3.6 8 0 9.7l101.4 46.8c14.2 6.5 28.5 12.9 42.7 19.4-51.1-1.5-102.1-1.5-153.2 1-71.1 3.4-142.1 11.9-211.7 27.2-25.6 5.6-52.4 12.9-73.3 29.5-21.7 17.3-31.1 42.9-26.3 70.1 11.3 63.8 83.9 87.7 137.8 102.7 64.3 17.9 131.7 25.1 198.3 22 65.7-3 132.1-16 193.3-40.2 25.1-9.9 50-23.5 65.4-46.4 16.2-23.9 14.5-53.8 3.5-79.4-15-35-46.8-56.3-80-73.2 74.2 3.7 148.3 10.1 222.3 16.6 7.2 29.9 15.5 59.5 25.1 88.7-24 42.8-44.3 87.7-60.8 134-2.4 6.8 8.4 9.7 10.8 3 15-42.2 33.4-83.2 54.8-122.6.2.6.4 1.3.7 1.9 1.2 3.5 6.6 6.1 9.4 2.5 27.6-35.3 48.9-74.9 63.1-117.5 2.1-6.5-6.8-8.9-10.3-4.3zM586.9 207c14 25.5 15.2 55.9-2.5 79.7-16.6 22.5-45.5 33.9-70.9 42.9-31.6 11.2-64.1 19.6-97 25.5-66.2 11.8-134.6 12.5-201 2.6-33.1-4.9-65.8-12.7-97.7-23-29.5-9.5-59.4-21.2-81.7-43.5-19.7-19.8-31.5-51.9-19.6-78.7 10.8-24.4 36.9-36.5 60.9-44 31.3-9.8 64.5-15 96.8-20 35.5-5.5 71.2-9.3 107.1-11.8 70.3-5 141-4.8 211.4-1.9 8.8 4.2 17.5 8.5 26.2 12.9 27.1 14 53 32 68 59.3zm231.5-26.1c-10.5 22.3-23.1 43.6-37.7 63.4-.2-.6-.4-1.3-.6-1.9 11.8-21 24.6-41.5 38.3-61.5zm209 34.3c-11.3 11.4-15.5 29.3-28.7 38.7-5.6 4-13.9 6.8-19.9 2.1-5.6-4.5-5.6-13.1-5.1-19.6 1.1-17 7.3-34.7 14.2-50.1 7.3-16.2 17-31.3 28.6-44.7 4.5-5.5-3.1-13.4-7.9-7.9-2.4 2.9-5.1 5.2-8.4 6.8-5.8-4.2-11.6-8.4-17.5-12.6-3.2-2.3-7 .3-8.2 3.3-16.4 42.7-35.8 84.2-57.7 124.3 1.4-36.3 6.6-72.3 15.6-107.6 1.5-6-7.4-10.2-10.2-4.3-22.2 46.7-50.9 90-85.2 128.5 16.5-82.9 38.5-164.6 66.1-244.5 2.4-6.9-8.5-9.8-10.8-3-29.9 86.4-53.2 174.7-70 264.4-1 5.2 5.2 9.8 9.4 5.5 31.4-32.8 58.8-69.4 81.2-108.8-5.3 30.4-7.9 61.2-7.7 92.1 0 5.5 7.6 7.7 10.4 2.8 25.7-44.6 48-91.1 66.8-139.1 1.8 1.3 3.5 2.5 5.3 3.8 2 1.5 4.7 4.1 7.4 5.7-7.8 11.3-14.5 23.4-19.8 36.2-4.1 9.9-7.4 20.1-9.8 30.5-2.1 9.1-4 18.7-3 28.1 1.9 18.7 18.9 29.1 36.2 21 19-8.8 22.9-29.7 36.6-43.6 5.1-5.2-2.8-13.1-7.9-8zM988.1 79.6c1.2 4 4.1 7.4 8.1 8.7 3.3 1.1 5.8.4 8.3-2 2.7-2.5 5.3-5.1 8-7.6 2.8-2.7 1.7-8.7-2.5-9.4-1.8-.3-3.8-.5-5.7-.8.6-1.3.8-2.8.5-4.1-.9-3.2-3.9-4.4-6.9-3.9-2.5.4-4.6 1.5-6.2 3.1-1.6.3-3.2 1.2-3.9 2.7-1.3 2.4-1.5 5.4-.3 7.8-.1 1.9.1 3.8.6 5.5z"/>
    <path d="M1183.3 179.2s-43 .8-64.4 3.2c-2.2-19.6-5.3-39.1-9.4-58.5-1.1-5.3-7.6-4.8-10.2-1.3-17.3 22.7-32.9 46.5-46.8 71.3-3.5.8-7 1.7-10.5 2.6-3.9 1-5.6 6.5-2.5 9.4 1.4 1.3 2.9 2.6 4.3 3.9-12.6 23.9-23.6 48.7-33 74-2.5 6.8 8.3 9.7 10.8 3 8.7-23.6 19-46.7 30.6-69 21.9 21.5 41.6 45.1 58.6 70.8 3.1 4.7 10.1 2.8 10.4-2.8 2-30.7 1.5-61.6-1.2-92.2 21-2.3 41.9-3.3 63.2-3.1.1-.1 3.1-6.5.1-11.3zm-82.2-40.4c2.8 14.9 5.1 29.9 6.7 44.9-13.6 1.8-27.1 4.1-40.6 6.9 10.5-17.9 21.8-35.2 33.9-51.8zm9.8 130.2c-15.9-22.1-33.6-42.7-53.2-61.5.7-1.3 1.4-2.5 2.1-3.8 16.3-3.7 32.7-6.7 49.2-8.8 2.2 24.5 2.8 49.3 1.9 74.1zm555.9-43.8c7 1.7 10-9.2 3-10.8-71-16.7-142.5-31-214.5-42.9-35.7-5.9-71.6-11.2-107.5-16-11.7-1.6-23.5-3-35.2-4.4l10.8-36.9c68.1-22.3 136.8-42.8 206-61.6 7-1.9 4-12.7-3-10.8-66.9 18.1-133.3 37.9-199.2 59.3l27.3-93.6c2-7-8.8-9.9-10.8-3l-29.4 100.8c-28.2 9.3-56.4 18.9-84.4 28.8-3.7 1.3-5.9 6.4-2.5 9.4 11.3 9.9 25.7 12 40.1 13.6 10.2 1.1 20.5 2.3 30.7 3.5-2.1 7.3-4.2 14.5-6.4 21.8-8.5 29.3-17.1 58.6-25.6 87.8-4.4 15-8.7 30-13.1 45-1.2 4-.6 10.6 4.5 11.8 5.2 1.2 8.9-2.1 9.4-7.2.2-1.9-1.1-3.5-2.5-4.6.5-1.5 1.1-3 1.2-3.4 1-3.6 2.1-7.1 3.1-10.7 1.9-6.4 3.7-12.9 5.6-19.3 3.7-12.9 7.5-25.7 11.2-38.6 7.7-26.4 15.4-52.8 23.1-79.3.2-.7.4-1.4.6-2 4.1.5 8.2 1 12.4 1.5 36.4 4.5 72.7 9.7 109 15.4 72 11.4 143.6 25.3 214.7 41.5 7.2 1.6 14.3 3.2 21.4 4.9zm-373.3-76.4c-16.1-1.9-33.6-1.9-49-7.5l-.6-.3c22.1-7.7 44.3-15.3 66.5-22.7-3 10.4-6.1 20.9-9.1 31.3-2.6-.2-5.2-.5-7.8-.8z"/>
    <path d="M1907.5 83.5c-11.2-9.4-26.5-13.5-40.6-16.3-16.6-3.3-33.7-3.9-50.6-3.5-20.2.5-40.5 2.2-60.7 4.7 3.2-10.5 6.5-21 9.9-31.4 2.2-6.9-8.6-9.8-10.8-3-3.9 12-7.6 24-11.3 36-10.4 1.4-20.7 3-31 4.7-94.3 15.6-185.6 45.4-275 78.4-6.7 2.5-3.8 13.3 3 10.8 66.4-24.5 133.6-47 202.4-63.5 32-7.7 64.4-14 97-18.6-7.4 24.6-14.5 49.3-21.2 74.1-5.5 20.5-10.8 41-15.8 61.6-2.1 8.7-4.2 17.5-6.3 26.2-12.9 4.1-25.9 8.1-38.8 12.1-70.4 21.8-141.4 44.5-205.3 82.1-6.2 3.7-.6 13.3 5.7 9.7 73.6-43.2 155.3-65.6 236.1-90.8-.1 4.9 1.6 9.1 7.9 9.8 6.1.7 7-7.2 2.8-10.2 0-.6.3-1.8.6-3.2 40.1-12.7 79.9-26.4 118.1-44 27-12.4 52.9-28.2 73.1-50.2 18.4-20.1 37-53.5 10.8-75.5zm-2.8 45.2c-13.1 26.9-40.4 46.2-65.8 60.3-27.6 15.3-57.5 26.2-87.2 36.6-14.2 5-28.5 9.7-42.8 14.3l2.1-8.7c2.2-9.2 4.5-18.5 6.8-27.7 4.6-18.4 9.5-36.8 14.5-55.1 6.3-22.8 12.8-45.5 19.7-68.2 32.7-4.2 66.4-7.6 99.3-4.1 15.5 1.6 32.2 5.1 45.5 13.4 14.6 9.1 14.9 24.9 7.9 39.2z"/>
  </g>
</svg>