
<svg xmlns="http://www.w3.org/2000/svg" viewBox="0 0 240.9 155.9">
  <path fill="#3A322E" d="M134.4 103.1l30.9 26.5-18.3-26.9-12.6.4"/>
  <path fill="#574B41" d="M157.7 109.1l7.6 20.5-18.3-26.9 10.7 6.4"/>
  <path fill="#CEB3A9" d="M116 52l6.5 2.7-2 3.6"/>
  <path fill="#DDCAC0" d="M116 52l.4 8.2 4.1-1.9"/>
  <path fill="#CEB3A9" d="M120.5 58.3l2.4 5.4-6.5-3.5"/>
  <path fill="#CAA99E" d="M116.4 60.2l-2.3 4.6 6-2.6"/>
  <path fill="#B89B92" d="M114.1 64.8l-2.8 5.1 6.6-3.8"/>
  <path fill="#D3ACA5" d="M117.4 63.4l5.5.3-2.8-1.5"/>
  <path fill="#CAA99E" d="M117.4 63.4l.5 2.7-3.8-1.3"/>
  <path fill="#DFBBB3" d="M117.9 66.1l4.2.5-4.7-3.2"/>
  <path fill="#D2ADA5" d="M122.1 66.6l.8-2.9-5.5-.3"/>
  <path fill="#CBA79F" d="M111.3 69.9l-1.1 3h3.5"/>
  <path fill="#C8ABA2" d="M117.9 66.1l-4.2 6.8-2.4-3"/>
  <path fill="#BF9488" d="M113.7 72.9v2.4l-3.5-2.4"/>
  <path fill="#D1C3BD" d="M114.1 72.1l4.1-1.9-.3-4.1"/>
  <path fill="#B09088" d="M122.1 66.6l.8-2.9 2.3 3.6"/>
  <path fill="#F0D2CE" d="M118.2 70.2l-.3-4.1 4.2.5"/>
  <path fill="#E7C3BC" d="M122.1 66.6l3.1.7-7 2.9"/>
  <path fill="#D6C6C3" d="M118.2 70.2l.5 2.3-2.3-1.5"/>
  <path fill="#E0D2CE" d="M118.7 72.5l5.2-1.2-5.7-1.1"/>
  <path fill="#EED7D3" d="M125.2 67.3l-1.3 4-5.7-1.1"/>
  <path fill="#A78F89" d="M125.2 67.3l.7 4.1-2-.1"/>
  <path fill="#AD9089" d="M125.9 71.4l-.7 2.6-1.3-2.7"/>
  <path fill="#A07873" d="M125.2 74l-2.3.8 1-3.5"/>
  <path fill="#BF988D" d="M113.7 75.3v-2.4l.4-.8"/>
  <path fill="#8F716F" d="M113.7 75.3l2.3-1.8-1.9-1.4"/>
  <path fill="#615759" d="M116 73.5l.4-2.5-2.3 1.1"/>
  <path fill="#A08283" d="M116 73.5l.4-2.5 2.3 1.5"/>
  <path fill="#B79C92" d="M118.7 72.5l2.4 1.8 2.8-3"/>
  <path fill="#7B5750" d="M121.1 74.3l1.8.5 1-3.5"/>
  <path fill="#B7968E" d="M121.1 74.3l-5.1-.8 2.7-1"/>
  <path fill="#C6A59C" d="M116 73.5l-2.3 1.8 7.4-1"/>
  <path fill="#CAB7AD" d="M116 52l10.4-2.1-3.9 4.8"/>
  <path fill="#CEC3BF" d="M126.4 49.9l4.1-.9-5.8 3"/>
  <path fill="#584946" d="M124.7 52l5-.3.8-2.7"/>
  <path fill="#706664" d="M130.5 49l3.8-.8-4.6 3.5"/>
  <path fill="#544542" d="M134.3 48.2l2.4.8v1.5"/>
  <path fill="#706161" d="M136.7 50.5l-7 1.2 4.6-3.5"/>
  <path fill="#8B7A71" d="M122.5 54.7l2.2-2.7 5-.3"/>
  <path fill="#968078" d="M122.9 63.7l-.4-9-2 3.6"/>
  <path fill="#B29E92" d="M122.7 58.6l.2 5.1 6.1-3.5"/>
  <path fill="#AA9C90" d="M136.7 50.5l1.7 4.7-8.7-3.5"/>
  <path fill="#C2B0A3" d="M116.4 60.2L116 52l-5.7 6.5"/>
  <path fill="#D4BEAF" d="M116.4 60.2l-2.3 4.6-3.8-6.3"/>
  <path fill="#E1C7BD" d="M114.1 64.8l-2.8 5.1-8.9-9.7"/>
  <path fill="#C1A49D" d="M114.1 64.8l-3.8-6.3-7.9 1.7"/>
  <path fill="#BFA79A" d="M129 60.2l-3.8 7.1-2.3-3.6"/>
  <path fill="#B2988E" d="M129 60.2l3.9.9 4.2 6.5"/>
  <path fill="#CDB7B0" d="M137.1 67.6l-11.9-.3 3.8-7.1"/>
  <path fill="#938070" d="M132.9 61.1l5.2-3.3 1.1 7.7"/>
  <path fill="#AA9A8B" d="M137.1 67.6l2.1-2.1-6.3-4.4"/>
  <path fill="#7F6C62" d="M134.1 53.5l4 4.3.3-2.6"/>
  <path fill="#D9BCB2" d="M125.9 71.4l11.2-3.8-11.9-.3"/>
  <path fill="#BCB2AB" d="M139.2 65.5v7.3l-2.1-5.2"/>
  <path fill="#DBC4B7" d="M139.2 72.8l-13.3-1.4 11.2-3.8"/>
  <path fill="#D4BDB1" d="M139.2 72.8l-1.4 7.1-8.7-8.2"/>
  <path fill="#D1B5AE" d="M129.1 71.7l-3.9 2.3.7-2.6"/>
  <path fill="#E8CDC3" d="M125.2 74l12.6 5.9-8.7-8.2"/>
  <path fill="#A08D85" d="M136.7 49l-2.4-10v9.2"/>
  <path fill="#E1CFC7" d="M116 52l5.2-9.6 5.2 7.5"/>
  <path fill="#E4D0C9" d="M116 52l5.2-9.6-11.5-.4"/>
  <path fill="#E6DBD9" d="M113.6 48.2l-10.4-3.1 6.5-3.1"/>
  <path fill="#DACAC2" d="M103.2 45.1l-5.6 1.6 4.2-4.7"/>
  <path fill="#E5D2D1" d="M101.8 42h7.9l-6.5 3.1"/>
  <path fill="#96857C" d="M114.7 49.9l-1.4 2.4 2.7-.3"/>
  <path fill="#BFAA9E" d="M113.3 52.3l-3 6.2L116 52"/>
  <path fill="#E8D9D6" d="M121.2 42.4l9.3 6.6-4.1.9"/>
  <path fill="#CEBEB7" d="M134.3 48.2l-3.8.8-1.9-7.6"/>
  <path fill="#E1CABF" d="M128.6 41.4l-7.4 1 9.3 6.6"/>
  <path fill="#CAB3A8" d="M128.6 41.4l5.7-2.4v9.2"/>
  <path fill="#9E8C85" d="M113.3 52.3l1.4-2.4-1.1-1.7"/>
  <path fill="#76645D" d="M107.1 49.4l6.2 2.9.3-4.1"/>
  <path fill="#92807E" d="M107.1 49.4l6.5-1.2-10.4-3.1"/>
  <path fill="#75635F" d="M107.1 49.4l-6.7-1.2 2.8-3.1"/>
  <path fill="#927F79" d="M100.4 48.2l-4.8 1.2 7.6-4.3"/>
  <path fill="#C5B1A5" d="M95.1 58.3l7.3 1.9-7.8 5.3"/>
  <path fill="#DECEC6" d="M94.6 65.5l16.7 4.4-8.9-9.7"/>
  <path fill="#F8E1D6" d="M111.3 69.9l-7.5 6.8-9.2-11.2"/>
  <path fill="#AC907F" d="M134.3 39l-6.7-8.9 1 11.3"/>
  <path fill="#9A8D81" d="M85.4 49.9l-3.6 19.2 6-17.1"/>
  <path fill="#CFBFAE" d="M94.7 65.5l-12.9 3.6 6-17.1"/>
  <path fill="#C5B3A4" d="M81.8 69.1l8.8 3.2 4-6.8"/>
  <path fill="#EDDBCC" d="M90.6 72.3l13.2 4.4-9.2-11.2"/>
  <path fill="#AF9C8E" d="M81.8 69.1l3.6 11.4 5.2-8.2"/>
  <path fill="#D9C2B6" d="M90.6 72.3l13.2 4.4-18.4 3.8"/>
  <path fill="#C1AE9E" d="M137.8 79.9L135 90.1 125.2 74"/>
  <path fill="#E6CFC3" d="M85.4 80.5l4.2 9.8 14.2-13.6"/>
  <path fill="#EAD6C9" d="M103.8 76.7l2.4 9.9-10.3-2.5"/>
  <path fill="#D3C3B4" d="M106.2 86.6l-16.6 3.7 6.3-6.2"/>
  <path fill="#E6D2C6" d="M105.8 85.3l11.3-4.4-13.3-4.2"/>
  <path fill="#DBC2B6" d="M117.1 80.9l3 .6 1-7.2"/>
  <path fill="#E2C5BB" d="M121.1 74.3l-17.3 2.4 13.3 4.2"/>
  <path fill="#D6B5AD" d="M120.1 81.5l3.1-1-2.1-6.2"/>
  <path fill="#C7B0A5" d="M123.2 80.5l7.5 2.5-9.6-8.7"/>
  <path fill="#BEA399" d="M122.9 74.8l3.4 4.3-5.2-4.8"/>
  <path fill="#B8948D" d="M125.2 74l-2.3.8 3.6 1.3"/>
  <path fill="#C6ABA1" d="M126.5 76.1l-.2 3-3.4-4.3"/>
  <path fill="#C7B4A7" d="M126.5 76.1l4.3 7-4.5-4"/>
  <path fill="#B4A390" d="M130.7 83l-2.9 3.3 7.2 3.8"/>
  <path fill="#C8BBAC" d="M89.6 90.3l10.9 9.3 1.8-12.1"/>
  <path fill="#D3C4B5" d="M100.5 99.6l10.8 4.7-5.1-17.7"/>
  <path fill="#E0CEBE" d="M100.5 99.6l5.7-13-3.9.9"/>
  <path fill="#DCC8B6" d="M111.3 104.3l2-15-7.1-2.7"/>
  <path fill="#AD9B8B" d="M127.8 86.3l-4.9 3.5 12.1.3"/>
  <path fill="#B3A492" d="M135 90.1l-4.5 8.9-3.3-9.1"/>
  <path fill="#DCCBC2" d="M111.3 104.3l6.6 1-5-12.5"/>
  <path fill="#DFBFB1" d="M112.9 92.8l5.3-1.7-.3 14.2"/>
  <path fill="#E8C4BD" d="M118.2 91.1l6.1 7.9-6.3-.6"/>
  <path fill="#C5B5AD" d="M117.9 105.3l6.4-6.3 2.2 4.4"/>
  <path fill="#B8A899" d="M126.5 103.4l4-4.4-3.3-9.1"/>
  <path fill="#D0B9AE" d="M127.2 89.9l-2.9 9.1 2.2 4.4"/>
  <path fill="#E1CFC3" d="M127.2 89.9l-9 1.2 6.1 7.9"/>
  <path fill="#D5BCAE" d="M113.3 89.3l4.9 1.8-5.3 1.7"/>
  <path fill="#BEB0A6" d="M122.9 89.8l-4.7 1.3 9-1.2"/>
  <path fill="#BE9F95" d="M122.9 89.8l-4.8-.3.1 1.6"/>
  <path fill="#B88F91" d="M122.9 89.8l4.9-3.5-6.9 3.4"/>
  <path fill="#C4A99E" d="M118.1 89.5l-7.9-1.3 8 2.9"/>
  <path fill="#CA969C" d="M117.1 80.9l2.6 3.6h-5.5"/>
  <path fill="#CCA4AA" d="M117.1 80.9l-6.7 2.6 3.8 1"/>
  <path fill="#AC938F" d="M110.4 83.5l-4.5 1.8 8.3-.8"/>
  <path fill="none" d="M106.2 86.6l8.1-2.1-8.1 2.1z"/>
  <path fill="#AE888B" d="M114.2 84.5l-4 3.7-4-1.6"/>
  <path fill="#CC899B" d="M114.2 84.5l3.9 5-7.9-1.3"/>
  <path fill="#C79197" d="M119.7 84.5l.4-3-3-.6"/>
  <path fill="#BA8489" d="M119.7 84.5l3.5-4-3.1 1"/>
  <path fill="#AB7B80" d="M119.7 84.5l11-1.5-7.5-2.5"/>
  <path fill="#DD9FAF" d="M119.7 84.5l-1.6 5-3.9-5"/>
  <path fill="#C78C9B" d="M119.7 84.5l6.2-.8-1.2 4.1"/>
  <path fill="#D499A4" d="M124.7 87.8l-3.8 1.9-1.2-5.2"/>
  <path fill="#C88D94" d="M120.9 89.7l-2.8-.2 1.6-5"/>
  <path fill="#AC7784" d="M124.7 87.8l3.1-1.5-1.9-2.6"/>
  <path fill="#957875" d="M127.8 86.3l2.9-3.3-4.8.7"/>
  <path fill="#C2B0A2" d="M95.1 58.3l.5-8.9-6.2 4"/>
  <path fill="#847168" d="M97.6 46.7l-8.2 6.7 6.2-4"/>
  <path fill="#CAB09E" d="M96 42l1.6 4.7 4.2-4.7"/>
  <path fill="#AF9E8B" d="M91.1 38.5l-5.7 11.4L96 42"/>
  <path fill="#B8A08B" d="M97.6 46.7l-12.2 3.2L96 42"/>
  <path fill="#BCB0A0" d="M97.6 46.7l-8.2 6.7-4-3.5"/>
  <path fill="#C7B7A6" d="M87.8 52l7.3 6.3-.5 7.2"/>
  <path fill="#9E9082" d="M89.6 90.3l10.9 9.3-6.9 9.5"/>
  <path fill="#A99F8D" d="M100.5 99.6l4.2 13.4 6.6-8.7"/>
  <path fill="#C5B4A1" d="M104.7 113l-11.1-3.9 6.9-9.5"/>
  <path fill="#1A1817" d="M89.6 90.3l-1.4 18.2 5.4.6"/>
  <path fill="#DECDB4" d="M88.2 108.5l-10.1 7.6 14.2 11.7"/>
  <path fill="#C1B09D" d="M78.1 116.1l-6.6 3.4 8.9 8.3"/>
  <path fill="#D7C7B4" d="M80.4 127.8h11.9l-14.2-11.7"/>
  <path fill="#C5C1AE" d="M104.7 113l12.4 2.3-5.8-11"/>
  <path fill="#A9A08F" d="M117.1 115.3l.8-10-6.6-1"/>
  <path fill="#C5AD92" d="M90 117.1l3.6-8-5.4-.6"/>
  <path fill="#B1A99A" d="M117.1 115.3l5.8-11.1-5 1.1"/>
  <path fill="#736155" d="M126.5 103.4l-1.4 8.1-2.2-7.3"/>
  <path fill="#8E7F6F" d="M125.1 111.5l-8 3.8 5.8-11.1"/>
  <path fill="#C7B8A6" d="M125.1 111.5l-2.4 15.6-5.7-5.5"/>
  <path fill="#BFB6A6" d="M125.1 111.5l-8 3.8-.1 6.3"/>
  <path fill="#E0CFBA" d="M104.7 113L90 117.1l3.6-8"/>
  <path fill="#D4C7B1" d="M104.7 113l-12.4 14.8-2.3-10.7"/>
  <path fill="#C1A794" d="M92.3 127.8l18.6 4.2-18.6 4"/>
  <path fill="#AF9B8A" d="M92.3 127.8H80.4l11.9 8.2"/>
  <path fill="#CBB3A7" d="M92.3 136l18.2 8.4.4-12.4"/>
  <path fill="#D6BDB0" d="M110.9 132l16.1-.7-3.8 12"/>
  <path fill="#C4B3A9" d="M110.9 132l12.3 11.3-12.7 1.1"/>
  <path fill="#BCA599" d="M127 131.3l4.1 3.9-7.9 8.1"/>
  <path fill="#896D63" d="M131.1 135.2l-7.8-12.7-.6 4.6"/>
  <path fill="#E0D1BE" d="M107.8 122.5l-15.5 5.3 12.4-14.8"/>
  <path fill="#D9D0C0" d="M117 121.6l-12.3-8.6 12.4 2.3"/>
  <path fill="#E1D6C7" d="M107.8 122.5l3.1 9.5-18.6-4.2"/>
  <path fill="#EDDED1" d="M117 121.6l-6.1 10.4 16.1-.7"/>
  <path fill="#CDC0AF" d="M117 121.6l-12.3-8.6 6.2 19"/>
  <path fill="#CEB8AB" d="M82.3 66.4L79.6 63l-2.1 2.5"/>
  <path fill="#9B8678" d="M82.3 66.4l-.5 2.7-2-3.2"/>
  <path fill="#A68F82" d="M79.6 63L77 61.7l.5 3.8"/>
  <path fill="#896455" d="M77 61.7l-2.5 2.6 3 1.2"/>
  <path fill="#DAC8B4" d="M85.4 80.5l-3.1 1.7 1.6-6.4"/>
  <path fill="#D6BEAE" d="M83.9 75.8l-6.8 1.8 5.2 4.6"/>
  <path fill="#CDB1A8" d="M82.3 82.2l-3.6-.7-1.6-3.9"/>
  <path fill="#CCAAA0" d="M77.2 77.6l1-3.3-3-1.8"/>
  <path fill="#B38F85" d="M78.2 74.3l-2.3-5.8-.7 4"/>
  <path fill="#BD8B7C" d="M75.9 68.5l-1.8-1.2 1.1 5.2"/>
  <path fill="#D4A591" d="M75.9 68.5l-1.4-4.2-.4 3"/>
  <path fill="#956761" d="M77.5 65.5l-3-1.2 1.4 4.2"/>
  <path fill="#6B5952" d="M107.3 26.1l-6.5-1.9-.4 2.1"/>
  <path fill="#635146" d="M100.8 24.2l-9.7 14.3 9.3-12.2"/>
  <path fill="#1A1616" d="M100.8 24.2l8.9-1.5-2.4 3.4"/>
  <path fill="#2D2725" d="M109.7 22.7l7.3 1.5-9.7 1.9"/>
  <path fill="#49403B" d="M117 24.2l-9.7 1.9 9-.3"/>
  <path fill="#3C3431" d="M117 24.2l10.6 5.9-11.3-4.3"/>
  <path fill="#635146" d="M100.8 24.2h-4.3L83.8 49.4"/>
  <path fill="#413D3A" d="M91.1 38.5l-5.7 11.4-1.6-.5"/>
  <path fill="#231F1E" d="M83.8 49.4l-1.5 17 3.1-16.5"/>
  <path fill="#191816" d="M83.8 49.4l-8.5-1.2L79.6 63"/>
  <path fill="#100E0F" d="M83.8 49.4l-1.5 17-2.7-3.4"/>
  <path fill="#130F0F" d="M75.3 48.2L77 61.7l2.6 1.3"/>
  <path fill="#171311" d="M75.3 48.2l-.8 16.1 2.5-2.6"/>
  <path fill="#1E1B18" d="M75.3 48.2l-2 8.2 1.2 7.9"/>
  <path fill="#3E3A39" d="M96.5 24.2l-7.1-.7L80.9 44"/>
  <path fill="#342E29" d="M96.5 24.2L83.8 49.4 80.9 44"/>
  <path fill="#211C1A" d="M89.4 23.5L75.3 48.2l5.6-4.2"/>
  <path fill="#191412" d="M80.9 44l-5.6 4.2 8.5 1.2"/>
  <path fill="#312727" d="M76.2 75.1l1.3 13.1 1.2-6.7"/>
  <path fill="#1A1616" d="M100.8 24.2l22.1-3.7-26.4 3.7"/>
  <path fill="#1A1616" d="M122.9 20.5l1.2-2.9-27.6 6.6"/>
  <path fill="#131112" d="M122.9 20.5l-5.9 3.7-7.3-1.5"/>
  <path fill="#111" d="M89.4 23.5l21-13.6-13.9 14.3"/>
  <path fill="#2A2926" d="M96.5 24.2l33.6-8-7.6-4.5"/>
  <path fill="#2B2522" d="M122.9 20.5l16.7 3.7-15.5-6.6"/>
  <path fill="#4C4641" d="M124.1 17.6l15.5 6.6-9.5-8"/>
  <path fill="#47413B" d="M139.6 24.2l5.3 7.1-22-10.8"/>
  <path fill="#110F0E" d="M117 24.2l10.6 5.9-4.7-9.6"/>
  <path fill="#171311" d="M127.6 30.1l17.3 1.2-22-10.8"/>
  <path fill="#453C35" d="M127.6 30.1l22.9 18.1-3.5-6.8"/>
  <path fill="#1F1813" d="M144.9 31.3l-14.1.7-3.2-1.9"/>
  <path fill="#4E4744" d="M147 41.4l-10.9-9.7-5.3.3"/>
  <path fill="#2D2721" d="M127.6 30.1l22.9 18.1-16.2-9.2"/>
  <path fill="#4C433B" d="M150.5 48.2v4.9L134.3 39"/>
  <path fill="#2D2624" d="M134.3 39l18.6 22.1-17.2-15.9"/>
  <path fill="#27201B" d="M150.5 53.1l2.4 8L134.3 39"/>
  <path fill="#4A3E38" d="M135.7 45.2l1 3.8 4.2.9"/>
  <path fill="#302B28" d="M140.9 49.9l6.1 11.6-8.6-6.3"/>
  <path fill="#453835" d="M140.9 49.9l-4.2-.9 1.7 6.2"/>
  <path fill="#362F29" d="M147 61.5l5.9-.4-12-11.2"/>
  <path fill="#352E29" d="M138.4 55.2l15.5 11.4 1.6 1.2-17.4-10"/>
  <path fill="#4C4137" d="M152.9 61.1l2.6 6.7-8.5-6.3"/>
  <path fill="#211E1B" d="M138.1 57.8l1.1 7.7 16.3 2.3"/>
  <path fill="#2C241D" d="M155.5 67.8l-.2 5-16.1-7.3"/>
  <path fill="#141110" d="M139.2 65.5v7.3l12.3-1.7"/>
  <path fill="#3E342D" d="M155.3 72.8h-16.1l12.3-1.7"/>
  <path fill="#2B221B" d="M139.2 72.8l19.2 8.1-3.1-8.1"/>
  <path fill="#392D24" d="M139.2 72.8l-1.4 7.1 20.6 9.4"/>
  <path fill="#332C25" d="M158.4 80.9v8.4l-19.2-16.5"/>
  <path fill="#564B44" d="M137.8 79.9l26.2 24.4-5.6-15"/>
  <path fill="#40372E" d="M137.8 79.9l26.2 24.4-27.4-20"/>
  <path fill="#544944" d="M136.6 84.3l21.1 24.8 6.3-4.8"/>
  <path fill="#3A312B" d="M136.6 84.3l10.4 18.4 10.7 6.4"/>
  <path fill="#3B342E" d="M136.6 84.3l-1.6 5.8 12 12.6"/>
  <path fill="#403B38" d="M147 102.7l-12-12.6-4.5 8.9"/>
  <path fill="#39302B" d="M124.3 116.3l-1 6.2 7.8 12.7"/>
  <path fill="#191412" d="M147 102.7l-20.5.7 4-4.4"/>
  <path fill="#271F17" d="M165.3 129.6l-8.6 10-22.3-36.5"/>
  <path fill="#14110E" d="M126.5 103.4l4.6 31.8-6.8-18.9"/>
  <path fill="#463B36" d="M134.4 103.1l-7.9.3 15.9 36.2"/>
  <path fill="#41352D" d="M134.4 103.1l22.3 36.5h-14.3"/>
  <path fill="#3A322E" d="M131.1 135.2l11.3 4.4-15.9-36.2"/>
  <path fill="#2B2825" d="M108.1 18.6l2.3-8.7-13.9 14.3"/>
  <path fill="#191816" d="M108.1 18.6l2.3-8.7 12.1 1.8"/>
  <path fill="#201D1C" d="M78.7 81.5l3.6.7 1.6 20.7"/>
  <path fill="#423D3B" d="M78.7 81.5l-1.2 6.7 6.4 14.7"/>
  <path fill="#29221F" d="M89.6 90.3l-5.7 12.6 4.3 5.6"/>
  <path fill="#252221" d="M89.6 90.3l-7.3-8.1 1.6 20.7"/>
  <path fill="#100E0F" d="M89.6 90.3l-7.3-8.1 3.1-1.7"/>
  <path fill="#2D3649" d="M80.4 127.8l11.9 8.2-11.6 7.3"/>
  <path fill="#2D3649" d="M92.3 136l18.2 8.4-14.5 5.7m14.5-5.7l12.7-1.1-3.7 10.1m3.7-10.1l13.9 1.1-6-9.2"/>
  <path fill="#1B1D26" d="M142.4 139.6l-5.3 4.8-6-9.2"/>
  <path fill="#39302B" d="M156.7 139.6l-5.2 6.2-9.1-6.2"/>
  <path fill="#DBB5A9" d="M111.3 69.9l-1.1 3-6.4 3.8"/>
  <path fill="#DFBCB1" d="M113.7 75.3l-9.9 1.4 6.4-3.8"/>
  <path fill="#AC9B93" d="M91.5 99.4l-3.3 9.1 5.4.6"/>
  <path fill="#443A35" d="M79.6 63l.2 2.9 2.5.5"/>
  <path fill="#CAA598" d="M78.2 74.3l1.1 2.7-2.1.6"/>
  <path fill="#A38E89" d="M103.2 45.1l-7.6 4.3 2-2.7"/>
  <path fill="#675A51" d="M136.7 49v1.5l1.7 4.7"/>
  <path fill="#D9C2BB" d="M118 98.4l-.1 6.9 6.4-6.3"/>
  <path fill="#907369" d="M105.8 85.3l.4 1.3 8-2.1"/>
  <path fill="#32302B" d="M89.4 23.5l-12.1 15-2 9.7"/>
  <path fill="#2E2D28" d="M110.4 9.9l-14.6 5.7-6.4 7.9"/>
  <path fill="#3F352C" d="M164 104.3l1.3 25.3-7.6-20.5"/>
  <path fill="#30496D" d="M119.5 153.4L96 150.1l14.5-5.7"/>
  <path fill="#455A77" d="M80.7 143.3l15.3 6.8-3.7-14.1"/>
  <path fill="#1F2D3D" d="M71.5 119.5H61l19.4 8.3"/>
  <path fill="#517096" d="M80.7 143.3l-.3-15.5-8 4.2"/>
  <path fill="#32383F" d="M61 119.5L72.4 132l8-4.2"/>
  <path fill="#2C3F54" d="M123.2 143.3l13.9 1.1-17.6 9"/>
  <path fill="#BBAA9D" d="M81.8 69.1L79.2 77l4.7-1.2"/>
  <path fill="#B8988F" d="M79.2 77l2.6-7.9-5.9-.6"/>
  <path fill="#BCA29B" d="M77.5 65.5l2.3.4-3.9 2.6"/>
  <path fill="#CFBBB2" d="M81.8 69.1l-2-3.2-3.9 2.6"/>
  <path fill="#403A38" d="M147 41.4l-10.9-9.7 8.8-.4"/>
  <path fill="#D5CAC7" d="M95.6 49.4l-.5 8.9 5.3-10.1"/>
  <path fill="#B49E8E" d="M113.3 52.3l-2.1 4.4-4.1-7.3"/>
  <path fill="#C4AFA2" d="M97.6 53.5l9.5-4.1-6.7-1.2"/>
  <path fill="#A28E81" d="M109.2 53.2l-7-1.7 4.9-2.1"/>
  <path fill="#6F7072" d="M101.4 54.6l-2.3.7-1.5 1.8"/>
  <path fill="#E2E2E2" d="M101.8 58.5l-1.3-1.8-2.9.4"/>
  <path fill="#C9C9C9" d="M101.4 54.6l-.9 2.1-2.9.4"/>
  <path fill="#D1D1D1" d="M105.3 54.5l.8 2.2 2.4 1.3"/>
  <path fill="#E2E2E2" d="M105 58.3l3.5-.3-2.4-1.3"/>
  <path fill="#554C4A" d="M103.2 56.3l-1.4 2.2-1.3-1.8"/>
  <path fill="#5B5352" d="M105 58.3l-3.2.2 1.4-2.2"/>
  <path fill="#605858" d="M103.2 56.3l-1.8-1.7-.9 2.1"/>
  <path fill="#352B2A" d="M105.3 54.5l-2.1 1.8-1.8-1.7"/>
  <path fill="#5D5249" d="M106.1 56.7l-1.1 1.6-1.8-2"/>
  <path fill="#473B34" d="M105.3 54.5l.8 2.2-2.9-.4"/>
  <path fill="#5F514A" d="M97.6 53.5l1.5 1.8-1.5 1.8"/>
  <path fill="#56413A" d="M95.1 58.3l2.5-1.2v-3.6"/>
  <path fill="#9A857B" d="M101.8 58.5l-6.7-.2 2.5-1.2"/>
  <path fill="#B49895" d="M102.4 60.2l-.6-1.7-6.7-.2"/>
  <path fill="#AC8581" d="M110.3 58.5l-1.8-.5-6.1 2.2"/>
  <path fill="#B3979B" d="M108.4 58l-6.6.5.6 1.7"/>
  <path fill="#6D6763" d="M97.6 53.5l3.8 1.1.8-3.1"/>
  <path fill="#615858" d="M105.3 54.5l-3.1-3-.8 3.1"/>
  <path fill="#887979" d="M109.2 53.2l-7-1.7 3.1 3"/>
  <path fill="#AA8676" d="M110.3 58.5l.9-1.8-5.9-2.2"/>
  <path fill="#896155" d="M108.5 58l-3.2-3.5 5 4"/>
  <path fill="#7A5B51" d="M109.2 53.2l2 3.5-5.9-2.2"/>
  <path fill="#534649" d="M97.6 53.5l3.8 1.1-2.3.7"/>
  <path fill="#A28583" d="M122.7 58.6l11.4 1.7-1.2.8"/>
  <path fill="#9F8A7C" d="M122.7 58.6l7-6.9-7.2 3"/>
  <path fill="#C9C9C9" d="M124.4 58.9l4.8-3.2-.7 2.4"/>
  <path fill="#E2E2E2" d="M129.8 59.7l-1.3-1.6-4.1.8"/>
  <path fill="#605858" d="M129.2 55.7l1.6 2.1-2.3.3"/>
  <path fill="#302627" d="M132.3 55.7l-1.5 2.1-1.6-2.1"/>
  <path fill="#463D36" d="M133.2 57.9l-.9-2.2-1.5 2.1"/>
  <path fill="#483A3A" d="M130.8 57.8l-1 1.9-1.3-1.6"/>
  <path fill="#493932" d="M130.8 57.8l1.5 1.8.9-1.7"/>
  <path fill="#5B514B" d="M130.8 57.8l1.5 1.8-2.5.1"/>
  <path fill="#D1D1D1" d="M132.3 55.7l2.4 2.1-1.5.1"/>
  <path fill="#E2E2E2" d="M132.3 59.6l2-.1-1.1-1.6"/>
  <path fill="#BCBCBC" d="M134.7 57.8l-.4 1.7-1.1-1.6"/>
  <path fill="#917C71" d="M127.3 54.1l6.8-.6-4.4-1.8"/>
  <path fill="#77655A" d="M135.7 59.3l1.6-2.5.8 1"/>
  <path fill="#7B6764" d="M129.2 55.7l3.1-2-5 .4"/>
  <path fill="#634A4C" d="M122.7 58.6l6.5-2.9-1.9-1.6"/>
  <path fill="#89656B" d="M124.4 58.9l4.8-3.2-6.5 2.9"/>
  <path fill="#938886" d="M134.1 60.3l.2-.8-4.5.2"/>
  <path fill="#59494A" d="M132.3 55.7v-2l-3.1 2"/>
  <path fill="#726364" d="M134.1 53.5l.6 4.3-2.4-2.1"/>
  <path fill="#856D6B" d="M134.1 53.5l-1.8 2.2v-2"/>
  <path fill="#604F4C" d="M134.7 57.8l2.6-1-3.2-3.3"/>
  <path fill="#5D4643" d="M134.1 60.3l1.6-1-1-1.5"/>
  <path fill="#45322E" d="M137.3 56.8l-1.6 2.5-1-1.5"/>
  <path fill="#AC9481" d="M95.6 32.7L96 42l-4.9-3.5"/>
  <path fill="#E0C6B9" d="M109.7 42l5.8-8.7 5.7 9.1"/>
  <path fill="#DFC5B5" d="M115.5 33.3l13.1 8.1-7.4 1"/>
  <path fill="#D2B6A2" d="M104.6 32.7L96 42h5.8"/>
  <path fill="#DFC2B1" d="M104.6 32.7l5.1 9.3h-7.9"/>
  <path fill="#C4AA94" d="M95.6 32.7h9L96 42"/>
  <path fill="#E6C9BA" d="M109.7 42l5.8-8.7-10.9-.6"/>
  <path fill="#D0B5A2" d="M104.6 32.7l11.7-6.9-.8 7.5"/>
  <path fill="#CAAB98" d="M128.6 41.4l-1-11.3-12.1 3.2"/>
  <path fill="#B29783" d="M116.3 25.8l11.3 4.3-12.1 3.2"/>
  <path fill="#AE9482" d="M104.6 32.7l-4.2-6.4-4.8 6.4"/>
  <path fill="#BDA18D" d="M116.3 25.8l-11.7 6.9-4.2-6.4"/>
  <path fill="#352E29" d="M75.7 96.1l5.9 14.1-7.1-8"/>
  <path fill="#171311" d="M146.7 23.5l5.3 6.6.4-4.6"/>
  <path fill="#2D3649" d="M142.2 144.4l-5.3 4.9 13.3.6"/>
  <path fill="#61574F" d="M168.2 132.3l-8.5 10 7.6-3.6"/>
  <path fill="#564B44" d="M170.4 72.7l-4.4 3.9 2.5 5.1"/>
  <path fill="#4E4744" d="M73.3 46.7l-1 8.4-1.6-5.2"/>
  <path fill="#211E1B" d="M169.6 92.8l-.6 7.6 4.4 6.2"/>
  <path fill="#453C35" d="M158 52.3l-1.7 6.3 4.3-3.3"/>
  <path fill="#2A2926" d="M125.7 9.9l5.8 4.3-1-4.3"/>
  <path fill="#453C35" d="M157.7 36.3l4.4 5.1 1-4.5"/>
</svg>