<svg xmlns="http://www.w3.org/2000/svg" viewBox="0 0 757 161">
  <g fill="#FFF">
    <path d="M114.8 0h-.5C90.1 0 75.7 20.2 69.5 29.1c-6.2-4.8-16.9-12.6-29.2-12.6C18.9 16.5.6 33.2.3 53c0 17.7 10 35 16 43.7 1.5 2.2 15.2 21.8 23.8 21.8 1.5 0 6.2 0 17.1-15.7 4.1-5.9 11.2-17.5 12.7-28.9 1.9-13.5-4.6-23.3-17.8-27-.3-.1-.5-.1-.8-.1-2.4-3.9-6.7-6.5-11.6-6.5-7.5 0-13.6 6.1-13.6 13.7 0 7.5 6.1 13.6 13.7 13.6 3.7 0 7.1-1.4 9.6-4 1.2-1.2 2.1-2.5 2.7-3.9 4.5 2.2 5.6 5.1 6 7.7 1.8 12.3-12.2 32.3-18.4 38.4-7.4-6-27.4-30.6-27.4-52.4.2-13.4 13-24.6 28.1-24.6 8.9 0 18 7.1 22.9 10.8 3.2 2.5 4.8 3.7 7.4 3.7 3.7 0 5.6-2.6 8.6-6.9 5.5-7.9 17-24.1 35.2-24.1h.3c24.4 0 40.2 14.1 40.2 35.9 0 35.9-68.8 91.1-83.8 99.5-3.9-3.8-12.3-14.6-16.5-20.2-2-2.6-5.7-3.1-8.4-1.1-2.6 2-3.1 5.8-1.1 8.4 16.5 21.5 20.6 25.6 25.5 25.6 7 0 35-22.8 51.3-38.5 20.5-19.8 45-48.6 45-73.7C167 24 150.8 0 114.8 0zM43 57c-.9.9-2 1.4-3.3 1.4-2.5 0-4.6-2-4.6-4.6 0-2.5 2-4.6 4.6-4.6 2.5 0 4.6 2 4.6 4.6.1 1.2-.4 2.3-1.3 3.2z"/>
    <path d="M292.1 31.9h8.2c1.2 0 2.2 1 2.2 2.2v85.2c0 1.2-1 2.2-2.2 2.2h-8.2c-1.2 0-2.2-1-2.2-2.2V34.1c0-1.2 1-2.2 2.2-2.2zm43.1 89.5H327c-1.2 0-2.2-1-2.2-2.2V51c0-1.2 1-2.2 2.2-2.2h8.2c1.2 0 2.2 1 2.2 2.2v68.2c-.1 1.2-1 2.2-2.2 2.2zm120.3 0h-8.2c-1.2 0-2.2-1-2.2-2.2V51c0-1.2 1-2.2 2.2-2.2h8.2c1.2 0 2.2 1 2.2 2.2v68.2c0 1.2-.9 2.2-2.2 2.2zM537.2 53l-35 29.3 38.3 35.3c1.5 1.3.5 3.8-1.5 3.8h-11c-1.3 0-2.5-.5-3.4-1.4l-33-30.7v29.9c0 1.2-1 2.2-2.2 2.2h-8.2c-1.2 0-2.2-1-2.2-2.2V34.1c0-1.2 1-2.2 2.2-2.2h8.2c1.2 0 2.2 1 2.2 2.2V75l29.8-24.7c.9-.8 2-1.2 3.2-1.2h11.2c2.1 0 3 2.6 1.4 3.9zm77.7 0l-35 29.3 38.3 35.3c1.5 1.3.5 3.8-1.5 3.8h-11c-1.3 0-2.5-.5-3.4-1.4l-33-30.7v29.9c0 1.2-1 2.2-2.2 2.2h-8.2c-1.2 0-2.2-1-2.2-2.2v-85c0-1.2 1-2.2 2.2-2.2h8.2c1.2 0 2.2 1 2.2 2.2v40.9l29.8-24.7c.9-.8 2-1.2 3.2-1.2h11.2c2 0 2.9 2.5 1.4 3.8zM274.4 35.8L227.3 76l47 41.6c1.5 1.3.6 3.8-1.4 3.8h-11.2c-1.2 0-2.4-.4-3.3-1.3l-37.1-32.8v31.9c0 1.2-1 2.2-2.2 2.2h-8.2c-1.2 0-2.2-1-2.2-2.2V34.1c0-1.2 1-2.2 2.2-2.2h8.2c1.2 0 2.2 1 2.2 2.2v30.6L258 33.2c.9-.8 2.1-1.2 3.3-1.2H273c2 0 2.9 2.5 1.4 3.8zm116.7 11.8c-16.8 0-31.3 12.5-31.9 28.5-.4 10.8 0 42.9 0 42.9 0 1.3 1.1 2 2.5 2h7.6c1.4 0 2.5-.7 2.5-2 0 0-.8-31 0-43.1.6-9.2 9.5-16.2 19.3-16.2s18.7 7.1 19.3 16.3c.7 10.8 0 43 0 43 0 1.3 1 2.1 2.4 2.1h7.6c1.4 0 2.6-.7 2.6-2 0 0 .4-32.3 0-43.1-.7-16-15.1-28.4-31.9-28.4zM756.2 51c0-1.1-.9-2-2-2-3.1-.1-8.8-.2-12.6-.2-16.8 0-31.2 12.3-31.9 27.9-.4 10.6.1 42.5.1 42.5 0 1.3 1.2 2.3 2.5 2.3h7.6c1.4 0 2.5-1 2.5-2.3 0 0-.8-30.6 0-42.5.6-9 9.4-16 19.2-16h12.7c1.1 0 1.9-.8 1.9-1.8V51zm-96.6-2.3c-18.9 0-33.3 16.4-33.3 36.5s14.4 36.5 33.3 36.5c18.8 0 30.7-14.9 30.7-14.9.8-.6 1-1.7.4-2.6l-6-5.6c-.6-.8-1.8-1-2.6-.4 0 0-9.3 11.7-22.6 11.7-10.8 0-18.8-8.2-21.2-19.6h52.2c1 0 1.9-.8 2-1.8.1-1.2.2-2.2.2-3.6.2-20-14.3-36.2-33.1-36.2zM638.5 79c2.5-10.4 10.5-18.9 21.1-18.9 10.6 0 18.6 8.4 21.1 18.9h-42.2z"/>
  </g>
</svg>