<svg xmlns="http://www.w3.org/2000/svg" viewBox="0 0 678 492" enable-background="new 0 0 678 492">
  <path fill="none" stroke="#979797" stroke-width=".72" d="M82.8 141.4l67-3.8" stroke-linecap="square"/>
  <path fill="#F6F6F6" d="M.3 35.72h180v108.1H.3z"/>
  <path fill="none" stroke="#979797" stroke-width=".72" d="M.7 36.02H180v107.4H.7z"/>
  <path fill="#909090" d="M.3 19.9h180v16H.3z"/>
  <path fill="#B6B6B6" d="M12.9 23.8H46v8.1H12.9z"/>
  <g fill="#D8D8D8">
    <path d="M94.35 26.418h21.8v2.7h-21.8z"/>
    <path d="M120.05 26.418h21.8v2.7h-21.8z"/>
    <path d="M145.95 26.418h21.8v2.7h-21.8z"/>
  </g>
  <path fill="#D8D8D8" d="M23.225 77.213h134.2c1.6 0 2.9 1.3 2.9 2.9v14.9c0 1.6-1.3 2.9-2.9 2.9h-134.2c-1.6 0-2.9-1.3-2.9-2.9v-14.9c0-1.6 1.3-2.9 2.9-2.9z"/>
  <path fill="#FFF" d="M26.925 83.513h24.8v8.3h-24.8z"/>
  <path fill="#4A4A4A" d="M131.025 83.513h24.8v8.3h-24.8z"/>
  <path fill="#FFF" d="M52.325 83.513h38.7v8.3h-38.7z"/>
  <path fill="#FFF" d="M91.725 83.513h38.7v8.3h-38.7z"/>
  <ellipse cx="3.9" cy="23.5" fill="#B6B6B6" rx="3.6" ry="3.6" transform="translate(48.825 98.106)"/>
  <path fill="#D8D8D8" d="M61.5 119.3H138v4.7H61.5z"/>
  <path fill="#D8D8D8" d="M45.3 49.2h90v8.1h-90z"/>
  <path fill="#F6F6F6" d="M248.7 168.54h180v107.9h-180z"/>
  <path fill="none" stroke="#979797" stroke-width=".72" d="M249.1 168.94h179.3v107.2H249.1z"/>
  <path fill="#D8D8D8" d="M308.9 173.1h109.3v92.6H308.9z"/>
  <path fill="#4A4A4A" d="M257.3 257.9h43.4v7.5h-43.4z"/>
  <path fill="#B6B6B6" d="M257.4 173.8h43.4v40.6h-43.4z"/>
  <path fill="#FFF" d="M257.3 221.6h43.4v7.5h-43.4z"/>
  <path fill="#FFF" d="M257.3 232.3h43.4v7.5h-43.4z"/>
  <path fill="#FFF" d="M257.3 243.1h43.4v7.5h-43.4z"/>
  <path fill="#FFF" d="M311.45 175.85h104.7v24.5h-104.7z"/>
  <path fill="#B6B6B6" d="M313.75 177.85h24.5v20.8h-24.5z"/>
  <path fill="#4A4A4A" d="M384.45 179.55h25.6v6.3h-25.6z"/>
  <path fill="#4A4A4A" d="M384.45 189.85h25.6v6.3h-25.6z"/>
  <path fill="#FFF" d="M311.45 206.64h104.7v24.5h-104.7z"/>
  <path fill="#B6B6B6" d="M313.75 208.64h24.5v20.8h-24.5z"/>
  <path fill="#4A4A4A" d="M384.45 210.14h25.6v6.3h-25.6z"/>
  <path fill="#4A4A4A" d="M384.45 220.34h25.6v6.3h-25.6z"/>
  <path fill="#FFF" d="M311.45 237.208h104.7v24.5h-104.7z"/>
  <path fill="#B6B6B6" d="M313.75 239.208h24.5v20.8h-24.5z"/>
  <path fill="#4A4A4A" d="M384.45 240.508h25.6v6.3h-25.6z"/>
  <path fill="#4A4A4A" d="M384.45 250.708h25.6v6.3h-25.6z"/>
  <path fill="#909090" d="M248.7 152.6h180v16h-180z"/>
  <path fill="#B6B6B6" d="M261.3 156.5h33.1v8.1h-33.1z"/>
  <path fill="#D8D8D8" d="M342.8 159.1h21.8v2.7h-21.8z"/>
  <path fill="#D8D8D8" d="M368.4 159.1h21.8v2.7h-21.8z"/>
  <path fill="#D8D8D8" d="M394.3 159.1h21.8v2.7h-21.8z"/>
  <path fill="#F6F6F6" d="M250.4 362.52h179.8v107.7H250.4z"/>
  <path fill="none" stroke="#979797" stroke-width=".72" d="M250.8 362.82h179.1v107H250.8z"/>
  <path fill="#D8D8D8" d="M263 367.6h154.6v96H263z"/>
  <path fill="#B6B6B6" d="M263 351.3h33v7.9h-33z"/>
  <path fill="#909090" d="M250.2 347.1h180v15.7h-180z"/>
  <path fill="#B6B6B6" d="M262.97 367.016h154.6v32.5h-154.6z"/>
  <path fill="#F6F6F6" d="M274.7 399.5h131.2v60.6H274.7z"/>
  <path fill="#D8D8D8" d="M320.8 384.6h41.8v6.2h-41.8z"/>
  <g fill="#D8D8D8">
    <path d="M344.357 353.943h21.8v2.6h-21.8z"/>
    <path d="M369.957 353.943h21.8v2.6h-21.8z"/>
    <path d="M395.757 353.943h21.8v2.6h-21.8z"/>
  </g>
  <path fill="#CBCBCB" d="M280.188 384.666h35.4v29.6h-35.4z"/>
  <path fill="#4A4A4A" d="M372 405.5h25.6v6.2H372z"/>
  <path fill="#D8D8D8" d="M280.1 424.3h117.5v2.6H280.1z"/>
  <path fill="#D8D8D8" d="M280.1 432.3h117.5v2.6H280.1z"/>
  <path fill="#D8D8D8" d="M280.1 440.2h117.5v2.6H280.1z"/>
  <path fill="#D8D8D8" d="M280.1 448.2h82.2v2.6h-82.2z"/>
  <g transform="translate(521.103 291.885)">
    <path fill="#D8D8D8" d="M0-4h122.9v81.6H0z"/>
    <path fill="none" stroke="#999" stroke-width=".72" d="M.4-3.6h122.2v80.9H.4z"/>
    <path fill="#4A4A4A" d="M.2-4h122.9v8.4H.2z"/>
    <path fill="#4A4A4A" d="M66.4 57.3h44.5v8.4H66.4z"/>
    <path fill="#B6B6B6" d="M11.8 57.3h44.5v8.4H11.8z"/>
    <path fill="#FFF" d="M11.8 13h44.5v8.4H11.8z"/>
    <path fill="#FFF" d="M66.4 13h44.5v8.4H66.4z"/>
    <path fill="#FFF" d="M11.9 27.3h99v23.8h-99z"/>
    <text fill="#FFF" transform="translate(117.412 -.317)" font-family="'OpenSans'" font-size="2.122">
      x
    </text>
    <ellipse cx="118.1" fill="none" stroke="#FFF" stroke-width=".72" rx="2.1" ry="2.1"/>
    <path fill="#4A4A4A" d="M.2-4h122.9v8.4H.2z"/>
  </g>
  <g transform="translate(521.103 413.565)">
    <path fill="#D8D8D8" d="M0-4h122.9v81.6H0z"/>
    <path fill="none" stroke="#999" stroke-width=".72" d="M.4-3.6h122.2v80.9H.4z"/>
    <path fill="#4A4A4A" d="M.2-4h122.9v8.4H.2z"/>
    <path fill="#4A4A4A" d="M42.5 49.6h37.9V58H42.5z"/>
    <path fill="#B6B6B6" d="M24.6 32.6h73.6V41H24.6z"/>
    <text fill="#FFF" transform="translate(117.412 -.317)" font-family="'OpenSans'" font-size="2.122">
      x
    </text>
    <ellipse cx="118.1" fill="none" stroke="#FFF" stroke-width=".72" rx="2.1" ry="2.1"/>
    <path fill="#4A4A4A" d="M.2-4h122.9v8.4H.2z"/>
  </g>
  <path fill="none" stroke="#FFF" stroke-width="4.32" d="M579.903 434.665l3.2 3.9 5.8-7.8"/>
  <path fill="#D8D8D8" d="M514.9 107.8h135.2v89.8H514.9z"/>
  <path fill="none" stroke="#999" stroke-width=".72" d="M515.3 108.1h134.5v89.1H515.3z"/>
  <path fill="#4A4A4A" d="M557.5 173.7h49v9.3h-49z"/>
  <path fill="#FFF" d="M550.5 143.4h64.1v9.3h-64.1z"/>
  <path fill="#FFF" d="M550.5 157.7h64.1v9.3h-64.1z"/>
  <path fill="#B6B6B6" d="M582.8 126c2 0 3.7-1.6 3.7-3.7 0-2-1.6-3.7-3.7-3.7s-3.7 1.6-3.7 3.7c.1 2 1.7 3.7 3.7 3.7z"/>
  <path fill="#B6B6B6" d="M577.2 131.8c0-2.8 2.3-5.1 5.1-5.1h.8c2.8 0 5.1 2.3 5.1 5.1v5.1h-11v-5.1z"/>
  <path fill="#CB3232" d="M517.1 483.3v1.5l-356.2-.1.1-167.1h40.1v-1.4h-40.8c-.4 0-.7.3-.7.7l-.1 168.5c0 .4.3.7.7.7l357 .1v1.4h1.4v-4.3h-1.5z"/>
  <path fill="none" stroke="#CB3232" stroke-width="1.44" d="M193.2 319.1l7.8-2.2-7.8-2.1" stroke-linejoin="round"/>
  <path fill="#CB3232" d="M614.8 32.5h-3.6v-.7h3.6v.7zm-7.2 0H604v-.7h3.6v.7zm-7.2 0h-3.6v-.7h3.6v.7zm-7.2 0h-3.6v-.7h3.6v.7zm-7.2 0h-3.6v-.7h3.6v.7zm-7.2 0h-3.6v-.7h3.6v.7zm-7.2 0H568v-.7h3.6v.7zm-7.2 0h-3.6v-.7h3.6v.7zm-7.2 0h-3.6v-.7h3.6v.7zm-7.2 0h-3.6v-.7h3.6v.7zm-7.2 0h-2.2v-.7h2.2v.7z"/>
  <path fill="#CB3232" d="M539.2 103.1h-.7v-1h.7v1zm0-4h-.7v-3h.7v3zm0-6h-.7v-3h.7v3zm0-6.1h-.7v-3h.7v3zm0-6h-.7v-3h.7v3z"/>
  <path fill="#CB3232" d="M540.5 50.3h-.7v-3.6h.7v3.6zm0-7.2h-.7v-3.6h.7v3.6zm0-7.2h-.7v-3.6h.7v3.6z"/>
  <path fill="#CB3232" d="M583.7 31.1h-.7v-3.6h.7v3.6zm0-7.2h-.7v-3.6h.7v3.6zm0-7.2h-.7v-3.6h.7v3.6z"/>
  <path fill="#CB3232" d="M617.7 50.3h-.7v-3.6h.7v3.6zm0-7.2h-.7v-3.6h.7v3.6zm0-7.2h-.7v-3.6h.7v3.6z"/>
  <path fill="#CB3232" d="M340.2 279.6h1.4V318h-1.4z"/>
  <path fill="#CB3232" d="M338.7 278.9h4.3v1.4h-4.3z"/>
  <path fill="#CB3232" d="M340.9 318.8c-.3 0-.6-.2-.7-.5l-2.2-7.8 1.4-.4 1.5 5.3 1.5-5.3 1.4.4-2.2 7.8c-.1.2-.4.5-.7.5z"/>
  <path fill="#CB3232" d="M583.4 383.1l-.7 2.7v-13.4h1.4V371h-4.3v1.4h1.4v13.4l-.7-2.7-1.4.4 2.2 7.8c.1.3.4.5.7.5s.6-.2.7-.5l2.2-7.8-1.5-.4z"/>
  <g transform="translate(511.2 108)">
    <defs>
      <filter id="a" width="144" height="97.9" x="-.6" y="-4.5" filterUnits="userSpaceOnUse">
        <feColorMatrix values="1 0 0 0 0 0 1 0 0 0 0 0 1 0 0 0 0 0 1 0"/>
      </filter>
    </defs>
    <mask id="b" width="144" height="97.9" x="-.6" y="-4.5" maskUnits="userSpaceOnUse">
      <path fill="#FFF" d="M5.9-3.8h131c3.2 0 5.8 2.6 5.8 5.8v85c0 3.2-2.6 5.8-5.8 5.8H5.9C2.7 92.8.1 90.2.1 87V2c0-3.3 2.6-5.8 5.8-5.8z" filter="url(#a)"/>
    </mask>
    <path fill="#CB3232" d="M133.4 93.4h-3.6V92h3.6v1.4zm-7.2 0h-3.6V92h3.6v1.4zm-7.2 0h-3.6V92h3.6v1.4zm-7.2 0h-3.6V92h3.6v1.4zm-7.2 0H101V92h3.6v1.4zm-7.2 0h-3.6V92h3.6v1.4zm-7.2 0h-3.6V92h3.6v1.4zm-7.2 0h-3.6V92H83v1.4zm-7.2 0h-3.6V92h3.6v1.4zm-7.2 0H65V92h3.6v1.4zm-7.2 0h-3.6V92h3.6v1.4zm-7.2 0h-3.6V92h3.6v1.4zm-7.2 0h-3.6V92H47v1.4zm-7.2 0h-3.6V92h3.6v1.4zm-7.2 0H29V92h3.6v1.4zm-7.2 0h-3.6V92h3.6v1.4zm-7.2 0h-3.6V92h3.6v1.4zm-7.2 0H7.4V92H11v1.4zm126 0V92c1.1 0 2.1-.4 2.9-1l.9 1.2c-1.1.7-2.4 1.1-3.8 1.2zM3.6 93c-1.3-.5-2.4-1.3-3.1-2.5l1.2-.8c.6.9 1.4 1.6 2.4 1.9L3.6 93zm139.5-4.2l-1.4-.4c.2-.5.2-1 .2-1.5V85h1.4v1.9c.1.7 0 1.3-.2 1.9zM.8 86.7H-.6v-3.6H.8v3.6zm142.6-5.3H142v-3.6h1.4v3.6zM.8 79.5H-.6v-3.6H.8v3.6zm142.6-5.3H142v-3.6h1.4v3.6zM.8 72.3H-.6v-3.6H.8v3.6zM143.4 67H142v-3.6h1.4V67zM.8 65.1H-.6v-3.6H.8v3.6zm142.6-5.3H142v-3.6h1.4v3.6zM.8 57.9H-.6v-3.6H.8v3.6zm142.6-5.3H142V49h1.4v3.6zM.8 50.7H-.6v-3.6H.8v3.6zm142.6-5.3H142v-3.6h1.4v3.6zM.8 43.5H-.6v-3.6H.8v3.6zm142.6-5.3H142v-3.6h1.4v3.6zM.8 36.3H-.6v-3.6H.8v3.6zM143.4 31H142v-3.6h1.4V31zM.8 29.1H-.6v-3.6H.8v3.6zm142.6-5.3H142v-3.6h1.4v3.6zM.8 21.9H-.6v-3.6H.8v3.6zm142.6-5.3H142V13h1.4v3.6zM.8 14.7H-.6v-3.6H.8v3.6zm142.6-5.3H142V5.8h1.4v3.6zM.8 7.5H-.6V3.9H.8v3.6zm142.6-5.3H142v-.3c0-1-.3-1.9-.8-2.7l1.2-.8c.7 1 1 2.3 1 3.5v.3zM1 .5L-.4.1C0-1.2.8-2.3 1.9-3.2L2.8-2C1.9-1.4 1.3-.5 1 .5zm137.8-3.3c-.6-.2-1.2-.3-1.8-.3h-1.4v-1.4h1.4c.8 0 1.6.2 2.4.4l-.6 1.3zM5.7-3.1l-.1-1.4h3.8v1.4H5.7zm126.2 0h-3.6v-1.4h3.6v1.4zm-7.2 0h-3.6v-1.4h3.6v1.4zm-7.2 0h-3.6v-1.4h3.6v1.4zm-7.2 0h-3.6v-1.4h3.6v1.4zm-7.2 0h-3.6v-1.4h3.6v1.4zm-7.2 0h-3.6v-1.4h3.6v1.4zm-7.2 0h-3.6v-1.4h3.6v1.4zm-7.2 0h-3.6v-1.4h3.6v1.4zm-7.2 0h-3.6v-1.4h3.6v1.4zm-7.2 0h-3.6v-1.4h3.6v1.4zm-7.2 0h-3.6v-1.4h3.6v1.4zm-7.2 0h-3.6v-1.4h3.6v1.4zm-7.2 0h-3.6v-1.4h3.6v1.4zm-7.2 0h-3.6v-1.4h3.6v1.4zm-7.2 0h-3.6v-1.4h3.6v1.4zm-7.2 0h-3.6v-1.4h3.6v1.4zm-7.2 0h-3.6v-1.4h3.6v1.4z" mask="url(#b)"/>
  </g>
  <g transform="translate(512.64 56.88)">
    <defs>
      <filter id="c" width="52.6" height="22.5" x="-.6" y="-4.3" filterUnits="userSpaceOnUse">
        <feColorMatrix values="1 0 0 0 0 0 1 0 0 0 0 0 1 0 0 0 0 0 1 0"/>
      </filter>
    </defs>
    <mask id="d" width="52.6" height="22.5" x="-.6" y="-4.3" maskUnits="userSpaceOnUse">
      <path fill="#FFF" d="M3-3.6h45.4c1.6 0 2.9 1.3 2.9 2.9v15.3c0 1.6-1.3 2.9-2.9 2.9H3c-1.6 0-2.9-1.3-2.9-2.9V-.7C.1-2.3 1.4-3.6 3-3.6z" filter="url(#c)"/>
    </mask>
    <path fill="#CB3232" d="M46.2 18.2h-3.6v-1.4h3.6v1.4zm-7.2 0h-3.6v-1.4H39v1.4zm-7.2 0h-3.6v-1.4h3.6v1.4zm-7.2 0H21v-1.4h3.6v1.4zm-7.2 0h-3.6v-1.4h3.6v1.4zm-7.2 0H6.6v-1.4h3.6v1.4zm-7.3 0c-1.6 0-2.9-1-3.4-2.5l1.4-.4c.3.9 1.1 1.5 2 1.5v1.4zm47.1-.4l-.7-1.3c.7-.4 1.2-1.1 1.2-1.9v-.4H52v.4c0 1.4-.7 2.6-2 3.2zM.8 11.9H-.6V8.3H.8v3.6zM52 10.6h-1.4V7H52v3.6zM.8 4.7H-.6V1.1H.8v3.6zM52 3.4h-1.4V-.2H52v3.6zM1.3-2L.1-2.8C.8-3.7 1.9-4.3 3-4.3h3.6v1.4H3c-.7.1-1.3.4-1.7.9zm48.1-.6c-.3-.2-.6-.2-1-.2h-2.2v-1.4h2.2c.6 0 1.2.1 1.7.4l-.7 1.2zm-6.8-.2H39v-1.4h3.6v1.4zm-7.2 0h-3.6v-1.4h3.6v1.4zm-7.2 0h-3.6v-1.4h3.6v1.4zm-7.2 0h-3.6v-1.4H21v1.4zm-7.2 0h-3.6v-1.4h3.6v1.4z" mask="url(#d)"/>
  </g>
  <g transform="translate(581.76 56.88)">
    <defs>
      <filter id="e" width="97.5" height="42.5" x="-.6" y="-4.3" filterUnits="userSpaceOnUse">
        <feColorMatrix values="1 0 0 0 0 0 1 0 0 0 0 0 1 0 0 0 0 0 1 0"/>
      </filter>
    </defs>
    <mask id="f" width="97.5" height="42.5" x="-.6" y="-4.3" maskUnits="userSpaceOnUse">
      <path fill="#FFF" d="M3-3.6h90.3c1.6 0 2.9 1.3 2.9 2.9v35.3c0 1.6-1.3 2.9-2.9 2.9H3c-1.6 0-2.9-1.3-2.9-2.9V-.7C.1-2.3 1.4-3.6 3-3.6z" filter="url(#e)"/>
    </mask>
    <path fill="#CB3232" d="M91.1 38.2h-3.6v-1.4h3.6v1.4zm-7.2 0h-3.6v-1.4h3.6v1.4zm-7.2 0h-3.6v-1.4h3.6v1.4zm-7.2 0h-3.6v-1.4h3.6v1.4zm-7.2 0h-3.6v-1.4h3.6v1.4zm-7.2 0h-3.6v-1.4h3.6v1.4zm-7.2 0h-3.6v-1.4h3.6v1.4zm-7.2 0h-3.6v-1.4h3.6v1.4zm-7.2 0h-3.6v-1.4h3.6v1.4zm-7.2 0h-3.6v-1.4h3.6v1.4zm-7.2 0h-3.6v-1.4h3.6v1.4zm-7.2 0H8.3v-1.4h3.6v1.4zm-7.2 0H3c-.8 0-1.6-.3-2.2-.8l.9-1.1c.3.3.8.5 1.3.5h1.7v1.4zm90.2-.4l-.7-1.3c.7-.4 1.2-1.1 1.2-1.9v-.5h1.4v.5c.1 1.3-.7 2.6-1.9 3.2zM.8 33.6H-.6V30H.8v3.6zm96.1-3.1h-1.4v-3.6h1.4v3.6zM.8 26.4H-.6v-3.6H.8v3.6zm96.1-3.1h-1.4v-3.6h1.4v3.6zM.8 19.2H-.6v-3.6H.8v3.6zm96.1-3.1h-1.4v-3.6h1.4v3.6zM.8 12H-.6V8.4H.8V12zm96.1-3.1h-1.4V5.3h1.4v3.6zM.8 4.8H-.6V1.2H.8v3.6zm96.1-3.1h-1.4V-.7c0-.3-.1-.6-.2-.9l1.3-.6c.2.5.3.9.3 1.4v2.5zM1.2-1.9L0-2.7c.7-1 1.8-1.6 3-1.6h3.6v1.4H3c-.7.1-1.4.4-1.8 1zM93-2.8h-3.6v-1.4H93v1.4zm-7.2 0h-3.6v-1.4h3.6v1.4zm-7.2 0H75v-1.4h3.6v1.4zm-7.2 0h-3.6v-1.4h3.6v1.4zm-7.2 0h-3.6v-1.4h3.6v1.4zm-7.2 0h-3.6v-1.4H57v1.4zm-7.2 0h-3.6v-1.4h3.6v1.4zm-7.2 0H39v-1.4h3.6v1.4zm-7.2 0h-3.6v-1.4h3.6v1.4zm-7.2 0h-3.6v-1.4h3.6v1.4zm-7.2 0h-3.6v-1.4H21v1.4zm-7.2 0h-3.6v-1.4h3.6v1.4z" mask="url(#f)"/>
  </g>
  <path fill="#CB3232" d="M517.5 329.1l-7.8-2.2-.4 1.4 2.7.7h-38.1V219.2h-39.2v-1.4h-1.4v4.3h1.4v-1.4h37.8v193.7h-37.8V413h-1.4v4.3h1.4v-1.4h39.2v-85.4H512l-2.7.7.4 1.4 7.8-2.2c.3-.1.5-.4.5-.7s-.1-.6-.5-.6z"/>
  <path fill="#CB3232" d="M243.5 415.9h-39.9V219.2h39.9v1.5H205v193.8h38.5"/>
  <path fill="#CB3232" d="M242.8 217.8h1.4v4.3h-1.4z"/>
  <path fill="#CB3232" d="M242.8 413h1.4v4.3h-1.4z"/>
  <path fill="#CB3232" d="M182.1 88v-1.4h-1.4v4.3h1.4v-1.5h159.7v38.9h1.5V88"/>
  <path fill="#CB3232" d="M342.6 131l-2.9-10.3 1.4-.4 1.5 5.3 1.4-5.3 1.4.4"/>
  <g fill="#283D50" enable-background="new">
    <path d="M21.2 5.2c0 .6-.2 1.2-.7 1.5-.5.4-1.1.6-2 .6-.8 0-1.4-.1-2-.4V5.4c.5.2.9.4 1.2.5.4.1.7.1 1 .1.3 0 .6-.1.8-.2s.3-.3.3-.6c0-.1 0-.3-.1-.4l-.3-.3c-.2-.1-.5-.3-.9-.5s-.8-.4-1-.6c-.2-.2-.4-.4-.5-.7-.1-.3-.2-.5-.2-.9 0-.6.2-1.1.6-1.5.4-.4 1-.5 1.8-.5.4 0 .7 0 1.1.1.3.1.7.2 1.1.4l-.5 1.2c-.4-.2-.7-.3-1-.3s-.7-.1-.9-.1c-.3 0-.5.1-.7.2-.2.1-.2.3-.2.5 0 .1 0 .3.1.4l.3.3c.1.1.5.3 1 .5.7.3 1.1.6 1.4 1 .2.3.3.7.3 1.2z"/>
    <path d="M24.9 7.3c-.9 0-1.6-.2-2.1-.7-.5-.5-.7-1.2-.7-2.1 0-.9.2-1.6.7-2.1.5-.5 1.1-.8 1.9-.8.8 0 1.4.2 1.8.7.4.4.6 1.1.6 1.8v.7h-3.5c0 .4.1.8.4 1s.6.4 1 .4c.3 0 .6 0 .9-.1l.9-.3V7c-.2 0-.5.1-.8.2-.3 0-.7.1-1.1.1zm-.2-4.7c-.3 0-.6.1-.7.3-.2.2-.3.5-.3.9h2.1c0-.4-.1-.7-.3-.9s-.5-.3-.8-.3z"/>
    <path d="M31.8 7.2l-.3-.7c-.2.2-.5.5-.8.6-.3.1-.6.2-1 .2-.5 0-.9-.2-1.2-.5-.4-.3-.5-.7-.5-1.3 0-.6.2-1 .6-1.3.4-.3 1-.4 1.8-.5h1v-.2c0-.6-.3-.8-.9-.8-.4 0-1 .1-1.6.4l-.5-1c.6-.3 1.3-.5 2.1-.5.7 0 1.3.2 1.7.5.4.3.6.8.6 1.5v3.7h-1zm-.4-2.6h-.6c-.4 0-.8.1-1 .2-.2.1-.3.4-.3.7 0 .4.2.6.7.6.3 0 .6-.1.8-.3.2-.2.3-.5.3-.8v-.4z"/>
    <path d="M37.5 1.6h.5L37.9 3h-.4c-.5 0-.9.1-1.1.4-.3.2-.4.6-.4 1v2.8h-1.5V1.7h1.1l.2.9h.1c.1-.3.4-.6.7-.8.3-.1.6-.2.9-.2z"/>
    <path d="M41.2 7.3c-1.7 0-2.6-.9-2.6-2.8 0-.9.2-1.6.7-2.1.5-.5 1.1-.7 2-.7.6 0 1.2.1 1.7.4l-.4 1.2c-.2-.3-.4-.4-.6-.4-.2-.1-.4-.1-.6-.1-.8 0-1.2.6-1.2 1.7s.4 1.6 1.2 1.6c.3 0 .6 0 .8-.1.2-.1.5-.2.7-.4v1.3c-.2.2-.5.3-.7.3-.3 0-.6.1-1 .1z"/>
    <path d="M49.3 7.2h-1.5V4c0-.8-.3-1.2-.9-1.2-.4 0-.7.1-.9.4-.2.3-.3.7-.3 1.4v2.6h-1.5V-.5h1.5v2.9h.1c.3-.5.9-.8 1.6-.8.6 0 1.1.2 1.5.5.3.3.5.8.5 1.5v3.6z"/>
    <path d="M56.5 7.3c-.6 0-1.2-.2-1.5-.7h-.1c.1.5.1.7.1.8v2.2h-1.5V1.7h1.2l.2.7h.1c.4-.5.9-.8 1.6-.8.6 0 1.2.3 1.5.8.4.5.6 1.2.6 2.1 0 .6-.1 1.1-.3 1.5s-.4.8-.7 1-.8.3-1.2.3zM56 2.8c-.4 0-.6.1-.8.3-.2.2-.3.6-.3 1.1v.2c0 .6.1 1 .3 1.3.2.3.5.4.8.4.7 0 1-.6 1-1.7 0-.5-.1-.9-.2-1.2-.2-.3-.4-.4-.8-.4z"/>
    <path d="M63.3 7.2l-.3-.8c-.3.3-.5.5-.8.7-.3.1-.6.2-1 .2-.5 0-.9-.2-1.2-.5-.3-.3-.5-.7-.5-1.3 0-.6.2-1 .6-1.3.4-.3 1-.4 1.8-.5h1v-.2c0-.6-.3-.8-.9-.8-.4 0-1 .1-1.6.4l-.5-1c.6-.3 1.3-.5 2.1-.5.7 0 1.3.2 1.7.5.4.3.6.8.6 1.5v3.7h-1zm-.4-2.6h-.6c-.4 0-.8.1-1 .2-.2.2-.3.4-.3.7 0 .4.2.6.7.6.3 0 .6-.1.8-.3.2-.2.3-.5.3-.8v-.4z"/>
    <path d="M70.7 1.7v.8l-.9.2c.2.2.2.5.2.8 0 .6-.2 1.1-.6 1.4-.4.3-1 .5-1.7.5h-.5c-.1 0-.2.2-.2.3 0 .2.3.3.8.3h.9c.6 0 1.1.1 1.4.4s.5.6.5 1.1c0 .6-.3 1.1-.8 1.5s-1.3.5-2.3.5c-.8 0-1.4-.1-1.8-.4-.4-.3-.6-.6-.6-1.1 0-.3.1-.6.3-.8.3-.2.6-.3 1-.4-.2-.1-.3-.2-.4-.3-.1-.1-.2-.3-.2-.5s.1-.4.2-.5c.1-.1.3-.3.5-.4-.3-.1-.5-.3-.7-.6-.2-.3-.3-.6-.3-1 0-.6.2-1.1.6-1.4.4-.3.9-.5 1.7-.5h.5c.2 0 .3 0 .4.1h2zm-4.3 6.2c0 .2.1.4.3.5.2.1.5.2.8.2.5 0 1-.1 1.3-.2.3-.1.5-.3.5-.6 0-.2-.1-.3-.3-.4-.2-.1-.5-.1-.8-.1h-.8c-.3 0-.5.1-.7.2-.2.1-.3.2-.3.4zm.6-4.4c0 .3.1.5.2.7.1.2.3.3.6.3s.5-.1.6-.3.2-.4.2-.7c0-.7-.3-1-.8-1s-.8.3-.8 1z"/>
    <path d="M74.1 7.3c-.9 0-1.6-.2-2.1-.7-.5-.5-.7-1.2-.7-2.1 0-.9.2-1.6.7-2.1s1.1-.8 1.9-.8c.8 0 1.4.2 1.8.7.4.4.6 1.1.6 1.8v.7h-3.5c0 .4.1.8.4 1s.6.4 1 .4c.3 0 .6 0 .9-.1.3-.1.6-.2.9-.4v1.2c-.3.1-.5.2-.8.3-.3 0-.7.1-1.1.1zm-.2-4.7c-.3 0-.6.1-.7.3s-.3.5-.3.9H75c0-.4-.1-.7-.3-.9-.2-.2-.5-.3-.8-.3z"/>
    <path d="M83.5 0l-2.7 7.2h-1.4L82.1 0h1.4z"/>
    <path d="M88.5 7.2H87V-.5h1.5v7.7z"/>
    <path d="M93.5 7.2l-.3-.7c-.3.3-.5.5-.8.7s-.6.2-1 .2c-.5 0-.9-.2-1.2-.5-.3-.3-.5-.7-.5-1.3 0-.6.2-1 .6-1.3s1-.4 1.8-.5h1v-.3c0-.6-.3-.8-.9-.8-.4 0-1 .1-1.5.4l-.5-1c.6-.3 1.3-.5 2.1-.5.7 0 1.3.1 1.7.4.4.3.6.8.6 1.5v3.7h-1.1zm-.4-2.6h-.6c-.4 0-.8.1-1 .2-.2.1-.3.4-.3.7 0 .4.2.6.7.6.3 0 .6-.1.8-.3.2-.2.3-.5.3-.8v-.4z"/>
    <path d="M101.2 7.2h-1.5V4c0-.4-.1-.7-.2-.9-.1-.2-.4-.3-.7-.3-.4 0-.7.1-.9.4-.2.3-.3.7-.3 1.4v2.6h-1.5V1.7h1.1l.2.7h.1c.2-.3.4-.5.7-.6.3-.1.6-.2 1-.2.6 0 1.1.2 1.5.5.3.3.5.8.5 1.5v3.6z"/>
    <path d="M104.5 7.3c-.6 0-1.2-.3-1.5-.8s-.6-1.2-.6-2.1c0-.9.2-1.6.6-2.1.4-.5.9-.8 1.6-.8.7 0 1.2.3 1.6.8-.1-.4-.1-.8-.1-1.1V-.6h1.5v7.7h-1.2l-.3-.7h-.1c-.3.6-.8.9-1.5.9zm.5-1.2c.4 0 .7-.1.8-.3.2-.2.3-.6.3-1.1v-.3c0-.6-.1-1-.3-1.3-.2-.3-.5-.4-.9-.4-.3 0-.6.1-.8.4-.2.3-.3.7-.3 1.2s.1.9.3 1.2c.3.4.6.6.9.6z"/>
    <path d="M109.1.2c0-.5.3-.7.8-.7s.8.2.8.7c0 .2-.1.4-.2.5-.1.1-.3.2-.6.2-.6.1-.8-.2-.8-.7zm1.5 7h-1.5V1.7h1.5v5.5z"/>
    <path d="M117.3 7.2h-1.5V4c0-.4-.1-.7-.2-.9-.1-.2-.4-.3-.7-.3-.4 0-.7.1-.9.4-.2.3-.3.7-.3 1.4v2.6h-1.5V1.7h1.1l.2.7h.1c.2-.3.4-.5.7-.6.3-.1.6-.2 1-.2.6 0 1.1.2 1.5.5.3.3.5.8.5 1.5v3.6z"/>
    <path d="M123.6 1.7v.8l-.9.2c.2.2.2.5.2.8 0 .6-.2 1.1-.6 1.4-.4.3-1 .5-1.7.5h-.5c-.2.1-.2.2-.2.4s.3.3.8.3h.9c.6 0 1.1.1 1.4.4.3.3.5.6.5 1.1 0 .6-.3 1.1-.8 1.5-.5.4-1.3.5-2.3.5-.8 0-1.4-.1-1.8-.4s-.6-.6-.6-1.1c0-.3.1-.6.3-.8.2-.2.5-.4.9-.5-.2-.1-.3-.2-.4-.3-.1-.1-.2-.3-.2-.5s.1-.4.2-.5c.1-.1.3-.3.5-.4-.3-.1-.5-.3-.7-.6-.2-.3-.3-.6-.3-1 0-.6.2-1.1.6-1.4s.9-.5 1.7-.5h.5c.2 0 .3 0 .4.1h2.1zm-4.2 6.2c0 .2.1.4.3.5.2.1.5.2.8.2.5 0 1-.1 1.3-.2.3-.1.5-.3.5-.6 0-.2-.1-.3-.3-.4-.2-.1-.5-.1-.8-.1h-.8c-.3 0-.5.1-.7.2-.2.1-.3.2-.3.4zm.5-4.4c0 .3.1.5.2.7.1.2.3.3.6.3s.5-.1.6-.3.2-.4.2-.7c0-.7-.3-1-.8-1s-.8.3-.8 1z"/>
    <path d="M130.2 7.3c-.6 0-1.2-.2-1.5-.7h-.1c.1.5.1.7.1.8v2.2h-1.5V1.7h1.2l.2.7h.1c.4-.5.9-.8 1.6-.8.7 0 1.2.3 1.5.8.4.5.6 1.2.6 2.1 0 .6-.1 1.1-.3 1.5-.2.4-.4.8-.7 1s-.8.3-1.2.3zm-.5-4.5c-.4 0-.6.1-.8.3-.2.2-.3.6-.3 1.1v.2c0 .6.1 1 .3 1.3s.5.4.8.4c.7 0 1-.6 1-1.7 0-.5-.1-.9-.2-1.2s-.4-.4-.8-.4z"/>
    <path d="M137 7.2l-.3-.7c-.3.3-.5.5-.8.7s-.6.2-1 .2c-.5 0-.9-.2-1.2-.5-.3-.3-.5-.7-.5-1.3 0-.6.2-1 .6-1.3s1-.4 1.8-.5h1v-.3c0-.6-.3-.8-.9-.8-.4 0-1 .1-1.5.4l-.5-1c.6-.3 1.3-.5 2.1-.5.7 0 1.3.2 1.7.5.4.3.6.8.6 1.5v3.7H137zm-.4-2.6h-.6c-.4 0-.8.1-1 .2-.2.1-.3.4-.3.7 0 .4.2.6.7.6.3 0 .6-.1.8-.3.2-.2.3-.5.3-.8v-.4z"/>
    <path d="M144.4 1.7v.8l-.9.2c.2.2.2.5.2.8 0 .6-.2 1.1-.6 1.4-.4.3-1 .5-1.7.5h-.5c-.2.1-.2.2-.2.4s.3.3.8.3h.9c.6 0 1.1.1 1.4.4.3.3.5.6.5 1.1 0 .6-.3 1.1-.8 1.5-.5.4-1.3.5-2.3.5-.8 0-1.4-.1-1.8-.4s-.6-.6-.6-1.1c0-.3.1-.6.3-.8.2-.2.5-.4.9-.5-.2-.1-.3-.2-.4-.3-.1-.1-.2-.3-.2-.5s.1-.4.2-.5c.1-.1.3-.3.5-.4-.3-.1-.5-.3-.7-.6-.2-.3-.3-.6-.3-1 0-.6.2-1.1.6-1.4s.9-.5 1.7-.5h.5c.2 0 .3 0 .4.1h2.1zm-4.3 6.2c0 .2.1.4.3.5.2.1.5.2.8.2.5 0 1-.1 1.3-.2.3-.1.5-.3.5-.6 0-.2-.1-.3-.3-.4-.2-.1-.5-.1-.8-.1h-.8c-.3 0-.5.1-.7.2-.2.1-.3.2-.3.4zm.6-4.4c0 .3.1.5.2.7.1.2.3.3.6.3s.5-.1.6-.3.2-.4.2-.7c0-.7-.3-1-.8-1s-.8.3-.8 1z"/>
    <path d="M147.8 7.3c-.9 0-1.6-.2-2.1-.7-.5-.6-.7-1.2-.7-2.1 0-.9.2-1.6.7-2.1s1.1-.8 1.9-.8c.8 0 1.4.2 1.8.7.4.4.6 1.1.6 1.8v.7h-3.5c0 .4.1.8.4 1s.6.4 1 .4c.3 0 .6 0 .9-.1l.9-.3V7c-.3.1-.5.2-.8.3-.3-.1-.7 0-1.1 0zm-.2-4.7c-.3 0-.6.1-.7.3s-.3.5-.3.9h2.1c0-.4-.1-.7-.3-.9-.2-.2-.5-.3-.8-.3z"/>
  </g>
  <g fill="#283D50" enable-background="new">
    <path d="M308.5 144c0 .6-.2 1.2-.7 1.5-.5.4-1.1.6-2 .6-.8 0-1.4-.1-2-.4v-1.4c.5.2.9.4 1.2.5.3.1.6.1.9.1.3 0 .6-.1.8-.2s.3-.3.3-.6c0-.1 0-.3-.1-.4l-.3-.3c-.2-.1-.5-.3-.9-.5s-.8-.4-1-.6c-.2-.2-.4-.4-.5-.7-.1-.3-.2-.5-.2-.9 0-.6.2-1.1.6-1.5.4-.4 1-.5 1.8-.5.4 0 .7 0 1.1.1.3.1.7.2 1.1.4l-.5 1.2c-.4-.2-.7-.3-1-.3s-.5-.1-.7-.1c-.3 0-.5.1-.7.2-.2.1-.2.3-.2.5 0 .1 0 .3.1.4l.3.3c.1.1.5.3 1 .5.7.3 1.1.6 1.4 1 0 .3.2.7.2 1.1z"/>
    <path d="M312.1 146.1c-.9 0-1.6-.2-2.1-.7-.5-.5-.7-1.2-.7-2.1 0-.9.2-1.6.7-2.1.5-.5 1.1-.8 1.9-.8.8 0 1.4.2 1.8.7.4.4.6 1.1.6 1.8v.7h-3.5c0 .4.1.8.4 1s.6.4 1 .4c.3 0 .6 0 .9-.1l.9-.3v1.2c-.3.1-.5.2-.8.3h-1.1zm-.2-4.6c-.3 0-.6.1-.7.3-.2.2-.3.5-.3.9h2.1c0-.4-.1-.7-.3-.9s-.4-.3-.8-.3z"/>
    <path d="M319.1 146l-.3-.7c-.3.3-.5.5-.8.7-.3.1-.6.2-1 .2-.5 0-.9-.2-1.2-.5-.3-.3-.5-.7-.5-1.3 0-.6.2-1 .6-1.3.4-.3 1-.4 1.8-.5h1v-.2c0-.6-.3-.8-.9-.8-.4 0-1 .1-1.6.4l-.5-1c.6-.3 1.3-.5 2.1-.5.7 0 1.3.2 1.7.5.4.3.6.8.6 1.5v3.7h-1zm-.4-2.5h-.6c-.4 0-.8.1-1 .2-.2.1-.3.4-.3.7 0 .4.2.6.7.6.3 0 .6-.1.8-.3.2-.2.3-.5.3-.8v-.4z"/>
    <path d="M324.8 140.4h.5l-.1 1.4h-.4c-.5 0-.9.1-1.1.4-.3.2-.4.6-.4 1v2.8h-1.5v-5.5h1.1l.2.9h.1c.2-.3.4-.6.7-.7.2-.2.5-.3.9-.3z"/>
    <path d="M328.5 146.1c-1.7 0-2.6-.9-2.6-2.8 0-.9.2-1.6.7-2.1.5-.5 1.1-.7 2-.7.6 0 1.2.1 1.7.4l-.4 1.2c-.2-.1-.5-.2-.7-.2-.2-.1-.4-.1-.6-.1-.8 0-1.2.6-1.2 1.7s.4 1.6 1.2 1.6c.3 0 .6 0 .8-.1.2-.1.5-.2.7-.4v1.3c-.2.2-.5.3-.7.3-.2-.1-.5-.1-.9-.1z"/>
    <path d="M336.5 146H335v-3.2c0-.8-.3-1.2-.9-1.2-.4 0-.7.1-.9.4-.2.3-.3.7-.3 1.4v2.6h-1.5v-7.7h1.5v2.9h.1c.3-.5.9-.8 1.6-.8.6 0 1.1.2 1.5.5.3.3.5.8.5 1.5v3.6z"/>
    <path d="M343.8 140.4h.5l-.1 1.4h-.4c-.5 0-.9.1-1.1.4s-.4.6-.4 1v2.8h-1.5v-5.5h1.1l.2.9h.1c.2-.3.4-.6.7-.7s.5-.3.9-.3z"/>
    <path d="M347.8 146.1c-.9 0-1.6-.2-2.1-.7-.5-.5-.7-1.2-.7-2.1 0-.9.2-1.6.7-2.1.5-.5 1.1-.8 1.9-.8.8 0 1.4.2 1.8.7.4.4.7 1.1.7 1.8v.7h-3.5c0 .4.1.8.4 1s.6.4 1 .4c.3 0 .6 0 .9-.1l.9-.3v1.2c-.3.1-.5.2-.8.3h-1.2zm-.2-4.6c-.3 0-.6.1-.7.3-.2.2-.3.5-.3.9h2.1c0-.4-.1-.7-.3-.9-.3-.2-.5-.3-.8-.3z"/>
    <path d="M355.1 144.4c0 .6-.2 1-.6 1.3-.4.3-1 .4-1.8.4-.4 0-.7 0-1-.1-.3-.1-.5-.1-.8-.2v-1.2l.9.3s.7.1.9.1c.5 0 .8-.2.8-.5 0-.1 0-.2-.1-.3-.1-.1-.2-.2-.4-.3-.2-.1-.4-.2-.7-.3-.4-.2-.7-.3-.9-.5s-.3-.3-.4-.5c-.1-.2-.1-.4-.1-.7 0-.5.2-.9.6-1.1s.9-.4 1.6-.4c.7 0 1.3.1 1.9.4l-.5 1.1c-.3-.1-.5-.2-.8-.3-.2-.1-.5-.1-.7-.1-.4 0-.7.1-.7.4 0 .1.1.3.2.3s.5.2.9.4.7.3.9.5c.2.2.3.3.4.5.3.3.4.5.4.8z"/>
    <path d="M360.1 146l-.2-.7h-.1c-.2.3-.4.5-.7.6-.3.1-.6.2-1 .2-.6 0-1.1-.2-1.5-.5-.3-.3-.5-.8-.5-1.5v-3.6h1.5v3.2c0 .4.1.7.2.9.1.2.4.3.7.3.4 0 .7-.1.9-.4.2-.3.3-.7.3-1.4v-2.6h1.5v5.5h-1.1z"/>
    <path d="M364.4 146h-1.5v-7.7h1.5v7.7z"/>
    <path d="M368.3 144.9c.3 0 .6-.1.9-.2v1.1c-.4.2-.8.3-1.4.3-.6 0-1-.2-1.3-.5-.3-.3-.4-.8-.4-1.4v-2.7h-.7v-.5l.8-.5.4-1.2h1v1.2h1.5v1.1h-1.5v2.7c0 .2.1.4.2.5.1.1.3.1.5.1z"/>
    <path d="M374.2 144.4c0 .6-.2 1-.6 1.3-.4.3-1 .4-1.8.4-.4 0-.7 0-1-.1-.3-.1-.5-.1-.8-.2v-1.2l.9.3s.7.1.9.1c.5 0 .8-.2.8-.5 0-.1 0-.2-.1-.3-.1-.1-.2-.2-.4-.3-.2-.1-.4-.2-.7-.3-.4-.2-.7-.3-.9-.5-.2-.2-.3-.3-.4-.5-.1-.2-.1-.4-.1-.7 0-.5.2-.9.6-1.1s.9-.4 1.6-.4c.7 0 1.3.1 1.9.4l-.5 1.1c-.3-.1-.5-.2-.8-.3-.2-.1-.5-.1-.7-.1-.4 0-.7.1-.7.4 0 .1.1.3.2.3s.5.2.9.4.7.3.9.5c.2.2.3.3.4.5.3.3.4.5.4.8z"/>
  </g>
  <g fill="#283D50" enable-background="new">
    <path d="M297.8 334c-.6 0-1 .2-1.3.6s-.5 1-.5 1.8c0 1.6.6 2.4 1.8 2.4.5 0 1.1-.1 1.8-.4v1.3c-.6.2-1.2.4-2 .4-1 0-1.8-.3-2.4-1-.6-.6-.8-1.5-.8-2.7 0-.7.1-1.4.4-2 .3-.6.7-1 1.2-1.3.5-.3 1.1-.5 1.8-.5s1.4.2 2.1.5l-.5 1.2c-.3-.1-.5-.2-.8-.3h-.8z"/>
    <path d="M302.5 340H301v-7.7h1.5v7.7z"/>
    <path d="M304 333.1c0-.5.3-.7.8-.7s.8.2.8.7c0 .2-.1.4-.2.5-.1.1-.3.2-.6.2-.5 0-.8-.2-.8-.7zm1.6 6.9h-1.5v-5.5h1.5v5.5z"/>
    <path d="M312.3 340h-1.5v-3.2c0-.4-.1-.7-.2-.9-.1-.2-.4-.3-.7-.3-.4 0-.7.1-.9.4s-.3.7-.3 1.4v2.6h-1.5v-5.5h1.1l.2.7h.1c.2-.3.4-.5.7-.6.3-.1.6-.2 1-.2.6 0 1.1.2 1.5.5.3.3.5.8.5 1.5v3.6z"/>
    <path d="M313.8 333.1c0-.5.3-.7.8-.7s.8.2.8.7c0 .2-.1.4-.2.5-.1.1-.3.2-.6.2-.6 0-.8-.2-.8-.7zm1.5 6.9h-1.5v-5.5h1.5v5.5z"/>
    <path d="M319.1 340.1c-1.7 0-2.6-.9-2.6-2.8 0-.9.2-1.6.7-2.1.5-.5 1.1-.7 2-.7.6 0 1.2.1 1.7.4l-.4 1.2c-.2-.1-.5-.2-.7-.2-.2-.1-.4-.1-.6-.1-.8 0-1.2.6-1.2 1.7s.4 1.6 1.2 1.6c.3 0 .6 0 .8-.1.2-.1.5-.2.7-.4v1.3c-.2.2-.5.3-.7.3-.2-.1-.5-.1-.9-.1z"/>
    <path d="M327.7 340.1c-.6 0-1.2-.2-1.5-.7h-.1c.1.5.1.7.1.8v2.2h-1.5v-7.9h1.2l.2.7h.1c.4-.5.9-.8 1.6-.8.6 0 1.2.3 1.5.8.4.5.6 1.2.6 2.1 0 .6-.1 1.1-.3 1.5s-.4.8-.7 1-.8.3-1.2.3zm-.4-4.5c-.4 0-.6.1-.8.3-.2.2-.3.6-.3 1.1v.2c0 .6.1 1 .3 1.3.2.3.5.4.8.4.7 0 1-.6 1-1.7 0-.5-.1-.9-.2-1.2-.2-.2-.5-.4-.8-.4z"/>
    <path d="M334.1 334.4h.5l-.1 1.4h-.4c-.5 0-.9.1-1.1.4-.3.2-.4.6-.4 1v2.8h-1.5v-5.5h1.1l.2.9h.1c.2-.3.4-.6.7-.7.3-.2.6-.3.9-.3z"/>
    <path d="M340.6 337.3c0 .9-.2 1.6-.7 2.1-.5.5-1.1.8-2 .8-.5 0-1-.1-1.4-.3-.4-.2-.7-.6-.9-1-.2-.4-.3-.9-.3-1.5 0-.9.2-1.6.7-2.1.5-.5 1.1-.7 2-.7.5 0 1 .1 1.4.3.4.2.7.6.9 1s.3.8.3 1.4zm-3.8 0c0 .5.1 1 .3 1.2.2.3.5.4.9.4s.7-.1.9-.4c.2-.3.3-.7.3-1.2s-.1-1-.3-1.2c-.2-.3-.5-.4-.9-.4s-.7.1-.9.4c-.2.2-.3.6-.3 1.2z"/>
    <path d="M344.9 335.7h-1.3v4.4h-1.5v-4.4h-.8v-.7l.8-.4v-.4c0-.6.2-1.1.5-1.4.3-.3.8-.4 1.5-.4.5 0 1 .1 1.4.2l-.4 1.1c-.3-.1-.6-.1-.8-.1-.2 0-.4.1-.5.2-.1.1-.1.3-.1.5v.3h1.3v1.1zm.8-2.6c0-.5.3-.7.8-.7s.8.2.8.7c0 .2-.1.4-.2.5-.1.1-.3.2-.6.2-.5 0-.8-.2-.8-.7zm1.6 6.9h-1.5v-5.5h1.5v5.5z"/>
    <path d="M350.4 340h-1.5v-7.7h1.5v7.7z"/>
    <path d="M354.4 340.1c-.9 0-1.6-.2-2.1-.7-.5-.5-.7-1.2-.7-2.1 0-.9.2-1.6.7-2.1s1.1-.8 1.9-.8c.8 0 1.4.2 1.8.7.4.4.6 1.1.6 1.8v.7h-3.5c0 .4.1.8.4 1s.6.4 1 .4c.3 0 .6 0 .9-.1l.9-.3v1.2c-.3.1-.5.2-.8.3h-1.1zm-.2-4.6c-.3 0-.6.1-.7.3s-.3.5-.3.9h2.1c0-.4-.1-.7-.3-.9-.2-.2-.5-.3-.8-.3z"/>
    <path d="M363.5 340.1c-.6 0-1.2-.2-1.5-.7h-.1c.1.5.1.7.1.8v2.2h-1.5v-7.9h1.2l.2.7h.1c.4-.5.9-.8 1.6-.8.7 0 1.2.3 1.5.8.4.5.6 1.2.6 2.1 0 .6-.1 1.1-.3 1.5-.2.4-.4.8-.7 1s-.7.3-1.2.3zm-.4-4.5c-.4 0-.6.1-.8.3-.2.2-.3.6-.3 1.1v.2c0 .6.1 1 .3 1.3s.5.4.8.4c.7 0 1-.6 1-1.7 0-.5-.1-.9-.2-1.2s-.5-.4-.8-.4z"/>
    <path d="M370.4 340l-.3-.7c-.3.3-.5.5-.8.7s-.6.2-1 .2c-.5 0-.9-.2-1.2-.5-.3-.3-.5-.7-.5-1.3 0-.6.2-1 .6-1.3s1-.4 1.8-.5h1v-.2c0-.6-.3-.8-.9-.8-.4 0-1 .1-1.5.4l-.5-1c.6-.3 1.3-.5 2.1-.5.7 0 1.3.2 1.7.5.4.3.6.8.6 1.5v3.7h-1.1zm-.5-2.5h-.6c-.4 0-.8.1-1 .2-.2.1-.3.4-.3.7 0 .4.2.6.7.6.3 0 .6-.1.8-.3.2-.2.3-.5.3-.8v-.4z"/>
    <path d="M377.8 334.5v.8l-.9.2c.2.2.2.5.2.8 0 .6-.2 1.1-.6 1.4-.4.3-1 .5-1.7.5h-.5c-.2.1-.2.2-.2.4s.3.3.8.3h.9c.6 0 1.1.1 1.4.4.3.3.5.6.5 1.1 0 .6-.3 1.1-.8 1.5-.5.4-1.3.5-2.3.5-.8 0-1.4-.1-1.8-.4s-.6-.6-.6-1.1c0-.3.1-.6.3-.8.2-.2.5-.4.9-.5-.2-.1-.3-.2-.4-.3-.1-.1-.2-.3-.2-.5s.1-.4.2-.5c.1-.1.3-.3.5-.4-.3-.1-.5-.3-.7-.6-.2-.3-.3-.6-.3-1 0-.6.2-1.1.6-1.4s.9-.5 1.7-.5h.5c.2 0 .3 0 .4.1h2.1zm-4.3 6.3c0 .2.1.4.3.5.2.1.5.2.8.2.5 0 1-.1 1.3-.2.3-.1.5-.3.5-.6 0-.2-.1-.3-.3-.4-.2-.1-.5-.1-.8-.1h-.8c-.3 0-.5.1-.7.2-.2 0-.3.2-.3.4zm.6-4.5c0 .3.1.5.2.7.1.2.3.3.6.3s.5-.1.6-.3.2-.4.2-.7c0-.7-.3-1-.8-1-.6 0-.8.4-.8 1z"/>
    <path d="M381.2 340.1c-.9 0-1.6-.2-2.1-.7-.5-.5-.7-1.2-.7-2.1 0-.9.2-1.6.7-2.1s1.1-.8 1.9-.8c.8 0 1.4.2 1.8.7.4.4.6 1.1.6 1.8v.7h-3.5c0 .4.1.8.4 1s.6.4 1 .4c.3 0 .6 0 .9-.1l.9-.3v1.2c-.3.1-.5.2-.8.3h-1.1zm-.2-4.6c-.3 0-.6.1-.7.3s-.3.5-.3.9h2.1c0-.4-.1-.7-.3-.9-.3-.2-.5-.3-.8-.3z"/>
  </g>
  <g fill="#283D50" enable-background="new">
    <path d="M549.7 277.1h2.2c1 0 1.8.1 2.2.4.5.3.7.8.7 1.4 0 .4-.1.8-.3 1.1s-.5.4-.8.5c.5.1.8.3 1 .6.2.3.3.6.3 1.1 0 .7-.2 1.2-.7 1.5-.5.4-1.1.6-1.9.6h-2.7v-7.2zm1.5 2.8h.9c.4 0 .7-.1.9-.2.2-.1.3-.3.3-.6s-.1-.5-.3-.6c-.2-.1-.5-.2-1-.2h-.8v1.6zm0 1.2v1.9h1c.4 0 .7-.1.9-.2.2-.2.3-.4.3-.7 0-.6-.4-.9-1.3-.9h-.9z"/>
    <path d="M561.4 281.5c0 .9-.2 1.6-.7 2.1-.5.5-1.1.8-2 .8-.5 0-1-.1-1.4-.3-.4-.2-.7-.6-.9-1-.2-.4-.3-.9-.3-1.5 0-.9.2-1.6.7-2.1.5-.5 1.1-.7 2-.7.5 0 1 .1 1.4.3.4.2.7.6.9 1s.3.8.3 1.4zm-3.8 0c0 .5.1 1 .3 1.2.2.3.5.4.9.4s.7-.1.9-.4c.2-.3.3-.7.3-1.2s-.1-1-.3-1.2c-.2-.3-.5-.4-.9-.4s-.7.1-.9.4-.3.6-.3 1.2z"/>
    <path d="M567.6 281.5c0 .9-.2 1.6-.7 2.1-.5.5-1.1.8-2 .8-.5 0-1-.1-1.4-.3-.4-.2-.7-.6-.9-1-.2-.4-.3-.9-.3-1.5 0-.9.2-1.6.7-2.1.5-.5 1.1-.7 2-.7.5 0 1 .1 1.4.3.4.2.7.6.9 1s.3.8.3 1.4zm-3.8 0c0 .5.1 1 .3 1.2.2.3.5.4.9.4s.7-.1.9-.4c.2-.3.3-.7.3-1.2s-.1-1-.3-1.2c-.2-.3-.5-.4-.9-.4s-.7.1-.9.4-.3.6-.3 1.2z"/>
    <path d="M570.3 281.3l.7-.8 1.5-1.7h1.7l-2.2 2.4 2.3 3.1h-1.7L571 282l-.6.5v1.7h-1.5v-7.7h1.5v3.4l-.1 1.4z"/>
    <path d="M575 277.3c0-.5.3-.7.8-.7s.8.2.8.7c0 .2-.1.4-.2.5-.1.1-.3.2-.6.2-.5.1-.8-.2-.8-.7zm1.6 7h-1.5v-5.5h1.5v5.5z"/>
    <path d="M583.3 284.3h-1.5V281c0-.4-.1-.7-.2-.9s-.4-.3-.7-.3c-.4 0-.7.1-.9.4-.2.3-.3.7-.3 1.4v2.6h-1.5v-5.5h1.1l.2.7h.1c.2-.3.4-.5.7-.6.3-.1.6-.2 1-.2.6 0 1.1.2 1.5.5.3.3.5.8.5 1.5v3.7z"/>
    <path d="M589.6 278.8v.8l-.9.2c.2.2.2.5.2.8 0 .6-.2 1.1-.6 1.4-.4.3-1 .5-1.7.5h-.5c-.2.1-.2.2-.2.4s.3.3.8.3h.9c.6 0 1.1.1 1.4.4s.5.6.5 1.1c0 .6-.3 1.1-.8 1.5-.5.4-1.3.5-2.3.5-.8 0-1.4-.1-1.8-.4s-.6-.6-.6-1.1c0-.3.1-.6.3-.8.2-.2.5-.4.9-.5-.2-.1-.3-.2-.4-.3-.1-.1-.2-.3-.2-.5s.1-.4.2-.5c.1-.1.3-.3.5-.4-.3-.1-.5-.3-.7-.6-.2-.3-.3-.6-.3-1 0-.6.2-1.1.6-1.4s.9-.5 1.7-.5h.5c.2 0 .3 0 .4.1h2.1zm-4.3 6.2c0 .2.1.4.3.5.2.1.5.2.8.2.5 0 1-.1 1.3-.2.3-.1.5-.3.5-.6 0-.2-.1-.3-.3-.4-.2-.1-.5-.1-.8-.1h-.8c-.3 0-.5.1-.7.2-.2 0-.3.2-.3.4zm.6-4.4c0 .3.1.5.2.7.1.2.3.3.6.3s.5-.1.6-.3c.1-.2.2-.4.2-.7 0-.7-.3-1-.8-1s-.8.3-.8 1z"/>
    <path d="M596.2 279.9h-1.3v4.4h-1.5v-4.4h-.8v-.7l.8-.4v-.4c0-.6.2-1.1.5-1.4.3-.3.8-.4 1.5-.4.5 0 1 .1 1.4.2l-.4 1.1c-.3-.1-.6-.1-.8-.1-.2 0-.4.1-.5.2-.1.1-.1.3-.1.5v.3h1.3v1.1z"/>
    <path d="M602 281.5c0 .9-.2 1.6-.7 2.1-.5.5-1.1.8-2 .8-.5 0-1-.1-1.4-.3-.4-.2-.7-.6-.9-1-.2-.4-.3-.9-.3-1.5 0-.9.2-1.6.7-2.1.5-.5 1.1-.7 2-.7.5 0 1 .1 1.4.3.4.2.7.6.9 1 .2.3.3.8.3 1.4zm-3.8 0c0 .5.1 1 .3 1.2.2.3.5.4.9.4s.7-.1.9-.4.3-.7.3-1.2-.1-1-.3-1.2c-.2-.3-.5-.4-.9-.4s-.7.1-.9.4c-.2.2-.3.6-.3 1.2z"/>
    <path d="M606.3 278.7h.5l-.1 1.4h-.4c-.5 0-.9.1-1.1.4s-.4.6-.4 1v2.8h-1.5v-5.5h1.1l.2.9h.1c.2-.3.4-.6.7-.7.3-.3.6-.3.9-.3z"/>
    <path d="M612.8 284.3h-1.5V281c0-.4-.1-.7-.2-.9s-.3-.3-.6-.3c-.4 0-.7.1-.8.4s-.3.7-.3 1.4v2.6h-1.5v-5.5h1.1l.2.7h.1c.1-.3.4-.5.6-.6.3-.1.6-.2 1-.2.8 0 1.4.3 1.7.8h.1c.1-.3.4-.5.7-.6.3-.1.6-.2 1-.2.6 0 1.1.2 1.4.5.3.3.5.8.5 1.5v3.6h-1.5V281c0-.4-.1-.7-.2-.9s-.3-.3-.6-.3c-.4 0-.6.1-.8.4-.2.3-.3.7-.3 1.3v2.8z"/>
  </g>
  <g fill="#283D50" enable-background="new">
    <path d="M542.8 400.4c-.6 0-1 .2-1.3.6-.3.4-.5 1-.5 1.8 0 1.6.6 2.4 1.8 2.4.5 0 1.1-.1 1.8-.4v1.3c-.6.2-1.2.4-2 .4-1 0-1.8-.3-2.4-1-.6-.6-.8-1.5-.8-2.7 0-.7.1-1.4.4-2 .3-.6.7-1 1.2-1.3.5-.3 1.1-.5 1.8-.5s1.4.2 2.1.5l-.5 1.2c-.3-.1-.5-.2-.8-.3h-.8z"/>
    <path d="M551.1 403.6c0 .9-.2 1.6-.7 2.1-.5.5-1.1.8-2 .8-.5 0-1-.1-1.4-.3-.4-.2-.7-.6-.9-1-.2-.4-.3-.9-.3-1.5 0-.9.2-1.6.7-2.1.5-.5 1.1-.7 2-.7.5 0 1 .1 1.4.3.4.2.7.6.9 1s.3.9.3 1.4zm-3.8 0c0 .5.1 1 .3 1.2.2.3.5.4.9.4s.7-.1.9-.4c.2-.3.3-.7.3-1.2s-.1-1-.3-1.2c-.2-.3-.5-.4-.9-.4s-.7.1-.9.4-.3.7-.3 1.2z"/>
    <path d="M557.4 406.4h-1.5v-3.2c0-.4-.1-.7-.2-.9-.1-.2-.4-.3-.7-.3-.4 0-.7.1-.9.4-.2.3-.3.7-.3 1.4v2.6h-1.5v-5.5h1.1l.2.7h.1c.2-.3.4-.5.7-.6.3-.1.6-.2 1-.2.6 0 1.1.2 1.5.5.3.3.5.8.5 1.5v3.6z"/>
    <path d="M562 402h-1.3v4.4h-1.5V402h-.8v-.7l.8-.4v-.4c0-.6.2-1.1.5-1.4.3-.3.8-.4 1.5-.4.5 0 1 .1 1.4.2l-.4 1.1c-.3-.1-.6-.1-.8-.1-.2 0-.4.1-.5.2-.1.1-.1.3-.1.5v.3h1.3v1.1zm.8-2.5c0-.5.3-.7.8-.7s.8.2.8.7c0 .2-.1.4-.2.5-.1.1-.3.2-.6.2-.5 0-.8-.2-.8-.7zm1.6 6.9h-1.5v-5.5h1.5v5.5z"/>
    <path d="M569 400.8h.5l-.1 1.4h-.4c-.5 0-.9.1-1.1.4-.3.2-.4.6-.4 1v2.8H566v-5.5h1.1l.2.9h.1c.2-.3.4-.6.7-.7.2-.2.6-.3.9-.3z"/>
    <path d="M575.4 406.4h-1.5v-3.2c0-.4-.1-.7-.2-.9s-.3-.3-.6-.3c-.4 0-.7.1-.8.4s-.3.7-.3 1.4v2.6h-1.5v-5.5h1.1l.2.7h.1c.1-.3.4-.5.6-.6.3-.1.6-.2 1-.2.8 0 1.4.3 1.7.8h.1c.1-.3.4-.5.7-.6.3-.1.6-.2 1-.2.6 0 1.1.2 1.4.5.3.3.5.8.5 1.5v3.6h-1.5v-3.2c0-.4-.1-.7-.2-.9s-.3-.3-.6-.3c-.4 0-.6.1-.8.4-.2.3-.3.7-.3 1.3v2.7z"/>
    <path d="M583.9 406.4l-.3-.7c-.3.3-.5.5-.8.7s-.6.2-1 .2c-.5 0-.9-.2-1.2-.5-.3-.3-.5-.7-.5-1.3 0-.6.2-1 .6-1.3.4-.3 1-.4 1.8-.5h1v-.2c0-.6-.3-.8-.9-.8-.4 0-1 .1-1.6.4l-.5-1c.6-.3 1.3-.5 2.1-.5.7 0 1.3.2 1.7.5.4.3.6.8.6 1.5v3.7h-1zm-.4-2.6h-.6c-.4 0-.8.1-1 .2-.2.1-.3.4-.3.7 0 .4.2.6.7.6.3 0 .6-.1.8-.3.2-.2.3-.5.3-.8v-.4z"/>
    <path d="M588.8 405.3c.3 0 .6-.1.9-.2v1.1c-.4.2-.8.3-1.4.3-.6 0-1-.2-1.3-.5-.3-.3-.4-.8-.4-1.4V402h-.7v-.6l.8-.5.4-1.2h1v1.2h1.5v1.1h-1.5v2.7c0 .2.1.4.2.5s.3.1.5.1z"/>
    <path d="M590.8 399.5c0-.5.3-.7.8-.7s.8.2.8.7c0 .2-.1.4-.2.5-.1.1-.3.2-.6.2-.5 0-.8-.2-.8-.7zm1.6 6.9h-1.5v-5.5h1.5v5.5z"/>
    <path d="M598.9 403.6c0 .9-.2 1.6-.7 2.1-.5.5-1.1.8-2 .8-.5 0-1-.1-1.4-.3-.4-.2-.7-.6-.9-1-.2-.4-.3-.9-.3-1.5 0-.9.2-1.6.7-2.1.5-.5 1.1-.7 2-.7.5 0 1 .1 1.4.3s.7.6.9 1c.2.4.3.9.3 1.4zm-3.8 0c0 .5.1 1 .3 1.2.2.3.5.4.9.4s.7-.1.9-.4.3-.7.3-1.2-.1-1-.3-1.2c-.2-.3-.5-.4-.9-.4s-.7.1-.9.4c-.2.3-.3.7-.3 1.2z"/>
    <path d="M605.3 406.4h-1.5v-3.2c0-.4-.1-.7-.2-.9-.1-.2-.4-.3-.7-.3-.4 0-.7.1-.9.4-.2.3-.3.7-.3 1.4v2.6h-1.5v-5.5h1.1l.2.7h.1c.2-.3.4-.5.7-.6.3-.1.6-.2 1-.2.6 0 1.1.2 1.5.5.3.3.5.8.5 1.5v3.6z"/>
    <path d="M612.5 400.8c.7 0 1.2.3 1.5.8.4.5.6 1.2.6 2.1 0 .9-.2 1.6-.6 2.1-.4.5-.9.7-1.5.7s-1.2-.2-1.5-.7h-.1l-.3.6h-1.1v-7.7h1.5v1.8c0 .2 0 .6-.1 1.1h.1c.3-.5.8-.8 1.5-.8zm-.5 1.2c-.4 0-.6.1-.8.3-.2.2-.3.6-.3 1.1v.2c0 .6.1 1 .3 1.3s.5.4.8.4c.3 0 .6-.1.7-.4s.3-.7.3-1.2-.1-.9-.3-1.2c-.1-.4-.4-.5-.7-.5z"/>
    <path d="M620.8 403.6c0 .9-.2 1.6-.7 2.1-.5.5-1.1.8-2 .8-.5 0-1-.1-1.4-.3-.4-.2-.7-.6-.9-1-.2-.4-.3-.9-.3-1.5 0-.9.2-1.6.7-2.1.5-.5 1.1-.7 2-.7.5 0 1 .1 1.4.3s.7.6.9 1c.2.4.3.9.3 1.4zm-3.8 0c0 .5.1 1 .3 1.2.2.3.5.4.9.4s.7-.1.9-.4.3-.7.3-1.2-.1-1-.3-1.2c-.2-.3-.5-.4-.9-.4s-.7.1-.9.4c-.2.3-.3.7-.3 1.2z"/>
    <path d="M623.2 403.6l-1.8-2.7h1.7l1.1 1.8 1.1-1.8h1.7l-1.8 2.7 1.9 2.8h-1.7l-1.2-1.9-1.2 1.9h-1.7l1.9-2.8z"/>
  </g>
  <g fill="#283D50" enable-background="new">
    <path d="M553.7 3.6c0 1.2-.3 2.1-.9 2.7s-1.4 1-2.5 1-1.9-.3-2.5-1-.9-1.6-.9-2.8c0-1.2.3-2.1.9-2.7.6-.6 1.4-.9 2.5-.9s2 .3 2.5 1c.6.6.9 1.5.9 2.7zm-5.2 0c0 .8.2 1.4.5 1.8.3.4.8.6 1.4.6 1.2 0 1.8-.8 1.8-2.4 0-1.6-.6-2.4-1.8-2.4-.6 0-1.1.2-1.4.6-.4.4-.5 1-.5 1.8z"/>
    <path d="M558.1 7.3c-.6 0-1.2-.2-1.5-.7h-.1c.1.5.1.7.1.8v2.2h-1.5V1.7h1.2l.2.7h.1c.4-.5.9-.8 1.6-.8.6 0 1.2.3 1.5.8.4.5.6 1.2.6 2.1 0 .6-.1 1.1-.3 1.5-.2.4-.4.8-.7 1s-.8.3-1.2.3zm-.4-4.5c-.4 0-.6.1-.8.3-.2.2-.3.6-.3 1.1v.2c0 .6.1 1 .3 1.3s.5.4.8.4c.7 0 1-.6 1-1.7 0-.5-.1-.9-.2-1.2s-.5-.4-.8-.4z"/>
    <path d="M563.8 6.1c.3 0 .6-.1.9-.2V7c-.4.2-.8.3-1.4.3-.6 0-1-.2-1.3-.5-.3-.3-.4-.8-.4-1.4V2.8h-.7v-.6l.8-.5.4-1.2h1v1.2h1.5v1.1h-1.5v2.7c0 .2.1.4.2.5.1 0 .3.1.5.1z"/>
    <path d="M565.8.2c0-.5.3-.7.8-.7s.8.2.8.7c0 .2-.1.4-.2.5-.1.1-.3.2-.6.2-.6.1-.8-.2-.8-.7zm1.5 7h-1.5V1.7h1.5v5.5z"/>
    <path d="M573.9 4.4c0 .9-.2 1.6-.7 2.1-.5.5-1.1.8-2 .8-.5 0-1-.1-1.4-.3-.4-.2-.7-.6-.9-1-.2-.4-.3-.9-.3-1.5 0-.9.2-1.6.7-2.1.5-.5 1.1-.7 2-.7.5 0 1 .1 1.4.3s.7.6.9 1c.2.3.3.8.3 1.4zm-3.8 0c0 .5.1 1 .3 1.2.2.3.5.4.9.4s.7-.1.9-.4.3-.7.3-1.2-.1-1-.3-1.2c-.2-.3-.5-.4-.9-.4s-.7.1-.9.4c-.2.3-.3.7-.3 1.2z"/>
    <path d="M580.2 7.2h-1.5V4c0-.4-.1-.7-.2-.9s-.4-.3-.7-.3c-.4 0-.7.1-.9.4-.2.3-.3.7-.3 1.4v2.6h-1.5V1.7h1.1l.2.7h.1c.2-.3.4-.5.7-.6.3-.1.6-.2 1-.2.6 0 1.1.2 1.5.5.3.3.5.8.5 1.5v3.6z"/>
    <path d="M585.3 7.2l-.3-.8c-.3.3-.5.5-.8.7s-.6.2-1 .2c-.5 0-.9-.2-1.2-.5-.3-.3-.5-.7-.5-1.3 0-.6.2-1 .6-1.3.4-.3 1-.4 1.8-.5h1v-.2c0-.6-.3-.8-.9-.8-.4 0-1 .1-1.6.4l-.5-1c.6-.3 1.3-.5 2.1-.5.7 0 1.3.2 1.7.5.4.3.6.8.6 1.5v3.7h-1zm-.5-2.6h-.6c-.4 0-.8.1-1 .2-.1.2-.2.4-.2.7 0 .4.2.6.7.6.3 0 .6-.1.8-.3.2-.2.3-.5.3-.8v-.4z"/>
    <path d="M589.4 7.2h-1.5V-.5h1.5v7.7z"/>
    <path d="M595.1 7.2h-1.5V-.5h1.5v7.7z"/>
    <path d="M601.6 4.4c0 .9-.2 1.6-.7 2.1-.5.5-1.1.8-2 .8-.5 0-1-.1-1.4-.3-.4-.2-.7-.6-.9-1-.2-.4-.3-.9-.3-1.5 0-.9.2-1.6.7-2.1.5-.5 1.1-.7 2-.7.5 0 1 .1 1.4.3s.7.6.9 1c.2.3.3.8.3 1.4zm-3.8 0c0 .5.1 1 .3 1.2.2.3.5.4.9.4s.7-.1.9-.4.3-.7.3-1.2-.1-1-.3-1.2c-.2-.3-.5-.4-.9-.4s-.7.1-.9.4c-.2.3-.3.7-.3 1.2z"/>
    <path d="M607.7 1.7v.8l-.9.2c.2.2.2.5.2.8 0 .6-.2 1.1-.6 1.4-.4.3-1 .5-1.7.5h-.5c-.2.1-.2.2-.2.4s.3.3.8.3h.9c.6 0 1.1.1 1.4.4.3.3.5.6.5 1.1 0 .6-.3 1.1-.8 1.5-.5.4-1.3.5-2.3.5-.8 0-1.4-.1-1.8-.4s-.6-.6-.6-1.1c0-.3.1-.6.3-.8.2-.2.5-.4.9-.5-.2-.1-.3-.2-.4-.3-.1-.1-.2-.3-.2-.5s.1-.4.2-.5c.1-.1.3-.3.5-.4-.3-.1-.5-.3-.7-.6-.2-.3-.3-.6-.3-1 0-.6.2-1.1.6-1.4s.9-.5 1.7-.5h.5c.2 0 .3 0 .4.1h2.1zm-4.3 6.2c0 .2.1.4.3.5.2.1.5.2.8.2.5 0 1-.1 1.3-.2.3-.1.5-.3.5-.6 0-.2-.1-.3-.3-.4-.2-.1-.5-.1-.8-.1h-.8c-.3 0-.5.1-.7.2-.2.1-.3.2-.3.4zm.6-4.4c0 .3.1.5.2.7.1.2.3.3.6.3s.5-.1.6-.3.2-.4.2-.7c0-.7-.3-1-.8-1-.6 0-.8.3-.8 1z"/>
    <path d="M608.5.2c0-.5.3-.7.8-.7s.8.2.8.7c0 .2-.1.4-.2.5-.1.1-.3.2-.6.2-.5.1-.8-.2-.8-.7zm1.6 7h-1.5V1.7h1.5v5.5z"/>
    <path d="M616.7 7.2h-1.5V4c0-.4-.1-.7-.2-.9-.1-.2-.4-.3-.7-.3-.4 0-.7.1-.9.4-.2.3-.3.7-.3 1.4v2.6h-1.5V1.7h1.1l.2.7h.1c.2-.3.4-.5.7-.6.3-.1.6-.2 1-.2.6 0 1.1.2 1.5.5.3.3.5.8.5 1.5v3.6z"/>
  </g>
  <g fill="#283D50" enable-background="new">
    <path d="M525 67.1v-7.2h.8v6.4h3.2v.8h-4z"/>
    <path d="M534.8 64.4c0 .9-.2 1.6-.7 2.1-.4.5-1.1.7-1.8.7-.5 0-.9-.1-1.3-.3s-.7-.6-.9-1c-.2-.4-.3-.9-.3-1.5 0-.9.2-1.6.7-2.1.4-.5 1-.7 1.8-.7s1.4.3 1.8.8c.5.5.7 1.1.7 2zm-4.1 0c0 .7.1 1.2.4 1.6.3.4.7.5 1.2.5s.9-.2 1.2-.5.4-.9.4-1.6c0-.7-.1-1.2-.4-1.6-.3-.4-.7-.5-1.2-.5s-.9.2-1.2.5c-.3.4-.4.9-.4 1.6z"/>
    <path d="M540.6 61.7v.5l-1 .1c.1.1.2.3.2.5.1.2.1.4.1.6 0 .5-.2 1-.5 1.3-.4.3-.9.5-1.5.5h-.5c-.3.2-.5.4-.5.7 0 .1.1.3.2.3.1.1.3.1.6.1h1c.6 0 1 .1 1.3.4s.5.6.5 1.1c0 .6-.2 1.1-.7 1.4-.5.3-1.2.5-2.1.5-.7 0-1.2-.1-1.6-.4-.4-.3-.6-.6-.6-1.1 0-.3.1-.6.3-.9.2-.2.5-.4.9-.5-.1-.1-.3-.2-.3-.3-.1-.1-.1-.3-.1-.5s.1-.4.2-.5c.1-.1.3-.3.5-.4-.3-.1-.5-.3-.7-.6s-.3-.6-.3-.9c0-.6.2-1 .5-1.4.4-.3.9-.5 1.5-.5.3 0 .5 0 .8.1h1.8zm-4.3 6.3c0 .3.1.5.4.7.2.2.6.2 1.1.2.7 0 1.2-.1 1.5-.3.3-.2.5-.5.5-.8 0-.3-.1-.5-.3-.6s-.5-.2-1-.2h-1c-.4 0-.7.1-.9.3-.2.1-.3.4-.3.7zm.5-4.6c0 .4.1.7.3.9.2.2.5.3.9.3.8 0 1.2-.4 1.2-1.2 0-.8-.4-1.2-1.2-1.2-.4 0-.7.1-.9.3-.2.2-.3.5-.3.9z"/>
    <path d="M544.3 60.2c0-.2 0-.3.1-.4.1-.1.2-.1.3-.1.1 0 .2 0 .3.1.1.1.1.2.1.4s0 .3-.1.4c-.1.1-.2.1-.3.1-.1 0-.3 0-.3-.1-.1 0-.1-.2-.1-.4zm.9 6.9h-.8v-5.4h.8v5.4z"/>
    <path d="M550.6 67.1v-3.5c0-.4-.1-.8-.3-1-.2-.2-.5-.3-.9-.3-.6 0-1 .2-1.2.5-.3.3-.4.8-.4 1.5v2.8h-.8v-5.4h.7l.1.7c.2-.3.4-.5.7-.6.3-.1.6-.2 1-.2.6 0 1.1.2 1.5.5s.5.8.5 1.5v3.5h-.9z"/>
  </g>
  <g fill="#283D50" enable-background="new">
    <path d="M606 59.7h2.4v3.5l-1.2.3s-.8.1-1.4.1c-1.1 0-1.9-.3-2.5-1-.6-.6-.9-1.6-.9-2.7 0-.7.1-1.4.5-2 .3-.6.7-1 1.3-1.3s1.2-.4 2-.4 1.5.1 2.1.4l-.3.7c-.6-.3-1.3-.4-1.9-.4-.9 0-1.6.3-2.1.8s-.7 1.2-.7 2.2c0 1 .2 1.7.7 2.2.5.5 1.2.8 2.1.8.5 0 1-.1 1.5-.2v-2.2H606v-.8z"/>
    <path d="M610.8 58.1v3.5c0 .4.1.8.3 1 .2.2.5.3.9.3.6 0 1-.2 1.2-.5.3-.3.4-.8.4-1.5v-2.8h.8v5.4h-.7l-.1-.7c-.2.3-.4.5-.7.6-.3.1-.6.2-1 .2-.7 0-1.1-.2-1.5-.5-.3-.3-.5-.8-.5-1.5v-3.5h.9z"/>
    <path d="M618.5 63.6c-.8 0-1.4-.2-1.9-.7s-.7-1.2-.7-2c0-.9.2-1.6.6-2.1.4-.5 1-.8 1.7-.8s1.2.2 1.6.7c.4.4.6 1 .6 1.8v.5h-3.7c0 .6.2 1.1.5 1.4.3.3.7.5 1.3.5.6 0 1.2-.1 1.7-.4v.7c-.3.1-.6.2-.8.3-.2.1-.5.1-.9.1zm-.2-4.9c-.4 0-.8.1-1 .4-.3.3-.4.7-.5 1.2h2.8c0-.5-.1-.9-.3-1.2-.2-.3-.6-.4-1-.4z"/>
    <path d="M625.4 62c0 .5-.2.9-.6 1.2-.4.3-.9.4-1.6.4-.7 0-1.3-.1-1.7-.3v-.8c.3.1.5.2.8.3.3.1.6.1.9.1.4 0 .8-.1 1-.2.2-.1.3-.3.3-.6 0-.2-.1-.4-.3-.5-.2-.1-.5-.3-1.1-.5-.5-.2-.9-.4-1.1-.5-.2-.1-.4-.3-.5-.5-.1-.2-.2-.4-.2-.6 0-.4.2-.8.5-1 .4-.3.8-.4 1.5-.4.6 0 1.1.1 1.7.4v.5c-.5-.2-1-.3-1.5-.3-.4 0-.7.1-.9.2-.2.1-.3.3-.3.5 0 .1 0 .3.1.4.1.1.2.2.4.3s.5.2.9.4c.6.2 1.1.5 1.3.7s.4.5.4.8z"/>
    <path d="M628.5 62.9h.4c.1 0 .2 0 .3-.1v.6c-.1 0-.2.1-.4.1h-.5c-1 0-1.6-.5-1.6-1.6v-3.2h-.7v-.4l.8-.3.3-1.2h.5V58h1.6v.6h-1.6v3.2c0 .3.1.6.2.7s.4.4.7.4z"/>
    <path d="M634.1 63.5l-2-5.4h.9l1.2 3.2c.3.7.4 1.2.5 1.5 0-.2.2-.5.3-1.1.2-.5.6-1.7 1.3-3.6h.9l-2 5.4h-1.1z"/>
    <path d="M637.9 56.6c0-.2 0-.3.1-.4.1-.1.2-.1.3-.1.1 0 .2 0 .3.1.1.1.1.2.1.4s0 .3-.1.4c-.1.1-.2.1-.3.1-.1 0-.3 0-.3-.1-.1 0-.1-.2-.1-.4zm.9 6.9h-.8v-5.4h.8v5.4z"/>
    <path d="M642.8 63.6c-.8 0-1.4-.2-1.9-.7s-.7-1.2-.7-2c0-.9.2-1.6.6-2.1.4-.5 1-.8 1.7-.8s1.2.2 1.6.7c.4.4.6 1 .6 1.8v.5H641c0 .6.2 1.1.5 1.4.3.3.7.5 1.3.5.6 0 1.2-.1 1.7-.4v.7c-.3.1-.6.2-.8.3-.3.1-.6.1-.9.1zm-.3-4.9c-.4 0-.8.1-1 .4-.3.3-.4.7-.5 1.2h2.8c0-.5-.1-.9-.3-1.2-.2-.3-.5-.4-1-.4z"/>
    <path d="M650.6 63.5l-1-3.2c-.1-.2-.2-.6-.3-1.3-.1.6-.2 1-.3 1.3l-1 3.2h-.9l-1.5-5.4h.9c.3 1.4.6 2.4.8 3.1.2.7.3 1.2.3 1.4 0-.2.1-.4.2-.7.1-.3.2-.5.2-.7l1-3.1h.9l1 3.1c.2.6.3 1 .4 1.4 0-.1 0-.3.1-.5s.4-1.6 1-4h.8l-1.5 5.4h-1.1z"/>
    <path d="M656.3 63.6c-.8 0-1.4-.2-1.9-.7s-.7-1.2-.7-2c0-.9.2-1.6.6-2.1.4-.5 1-.8 1.7-.8s1.2.2 1.6.7c.4.4.6 1 .6 1.8v.5h-3.7c0 .6.2 1.1.5 1.4s.7.5 1.3.5c.6 0 1.2-.1 1.7-.4v.7c-.3.1-.6.2-.8.3-.3.1-.6.1-.9.1zm-.3-4.9c-.4 0-.8.1-1 .4s-.4.7-.5 1.2h2.8c0-.5-.1-.9-.3-1.2-.2-.3-.5-.4-1-.4z"/>
    <path d="M662.1 58c.2 0 .5 0 .6.1l-.1.8c-.2 0-.4-.1-.6-.1-.4 0-.8.2-1.1.5-.3.4-.5.8-.5 1.3v2.9h-.8v-5.4h.7l.1 1c.2-.4.4-.6.7-.8s.7-.3 1-.3z"/>
  </g>
  <g fill="#283D50" enable-background="new">
    <path d="M600.6 74.2c0-.7.1-1.4.3-2.1.2-.7.5-1.2.9-1.7h.7c-.4.5-.7 1.1-.9 1.8s-.3 1.3-.3 2 .1 1.3.3 2c.2.6.5 1.2.9 1.8h-.7c-.4-.5-.7-1-.9-1.7-.2-.6-.3-1.3-.3-2.1z"/>
    <path d="M605.5 76.7c-.7 0-1.2-.2-1.6-.6-.4-.4-.6-1-.6-1.7s.2-1.3.5-1.8.9-.7 1.5-.7 1 .2 1.4.6c.3.4.5.9.5 1.5v.4H604c0 .5.2 1 .4 1.2.3.3.6.4 1.1.4.5 0 1-.1 1.5-.3v.6c-.2.1-.5.2-.7.2-.3.2-.5.2-.8.2zm-.2-4.2c-.4 0-.7.1-.9.4-.2.2-.4.6-.4 1h2.4c0-.4-.1-.8-.3-1-.2-.3-.5-.4-.8-.4z"/>
    <path d="M608 74.6V74h2.1v.6H608z"/>
    <path d="M617 76.6v-3c0-.4-.1-.6-.2-.8-.2-.2-.4-.3-.7-.3-.4 0-.8.1-1 .4-.2.3-.3.6-.3 1.2v2.6h-.7v-3c0-.4-.1-.6-.2-.8s-.4-.3-.7-.3c-.4 0-.8.1-1 .4s-.3.7-.3 1.3v2.4h-.7V72h.6l.1.6c.1-.2.3-.4.6-.5.2-.1.5-.2.8-.2.7 0 1.2.3 1.4.8.1-.2.3-.4.6-.6s.6-.2.9-.2c.5 0 .9.1 1.2.4.3.3.4.7.4 1.3v3h-.8z"/>
    <path d="M622 76.6l-.1-.7c-.2.3-.5.5-.7.6-.2.1-.5.2-.9.2-.5 0-.8-.1-1.1-.4-.3-.2-.4-.6-.4-1 0-.9.7-1.4 2.2-1.5h.8v-.3c0-.4-.1-.6-.2-.8-.2-.2-.4-.3-.7-.3-.4 0-.8.1-1.3.4l-.2-.5c.2-.1.5-.2.7-.3s.5-.1.8-.1c.6 0 1 .1 1.2.4.3.2.4.6.4 1.2v3.2h-.5zm-1.6-.5c.4 0 .8-.1 1-.4.2-.2.4-.6.4-1v-.4h-.7c-.6 0-1 .1-1.2.3-.2.2-.4.4-.4.7 0 .3.1.4.2.6.2.2.5.2.7.2z"/>
    <path d="M623.9 70.7c0-.2 0-.3.1-.4.1-.1.2-.1.3-.1.1 0 .2 0 .3.1.1.1.1.2.1.3 0 .2 0 .3-.1.4-.1.1-.2.1-.3.1-.1 0-.2 0-.3-.1s-.1-.1-.1-.3zm.8 5.9h-.7V72h.7v4.6z"/>
    <path d="M626.9 76.6h-.7V70h.7v6.6z"/>
    <path d="M632.7 71.9c.2 0 .4 0 .6.1l-.1.6c-.2 0-.4-.1-.5-.1-.4 0-.7.2-1 .5-.3.3-.4.7-.4 1.1v2.5h-.7V72h.6l.1.9c.2-.3.4-.5.6-.7.3-.2.5-.3.8-.3z"/>
    <path d="M636.1 76.7c-.7 0-1.2-.2-1.6-.6-.4-.4-.6-1-.6-1.7s.2-1.3.5-1.8.9-.7 1.5-.7 1 .2 1.4.6c.3.4.5.9.5 1.5v.4h-3.2c0 .5.2 1 .4 1.2.3.3.6.4 1.1.4.5 0 1-.1 1.5-.3v.6c-.2.1-.5.2-.7.2-.2.2-.5.2-.8.2zm-.2-4.2c-.4 0-.7.1-.9.4-.2.2-.4.6-.4 1h2.4c0-.4-.1-.8-.3-1-.2-.3-.4-.4-.8-.4z"/>
    <path d="M640.6 76.7c-.6 0-1.1-.2-1.4-.6s-.5-1-.5-1.8.2-1.3.5-1.8c.3-.4.8-.6 1.4-.6.6 0 1.1.2 1.5.7l.1-.6h.6v6.7h-.7V76h-.1c-.3.5-.7.7-1.4.7zm.1-.6c.5 0 .8-.1 1-.4.2-.2.3-.7.3-1.3v-.2c0-.6-.1-1.1-.3-1.4-.2-.3-.6-.4-1-.4s-.7.2-.9.5-.3.8-.3 1.4.1 1 .3 1.3c.2.4.5.5.9.5z"/>
    <path d="M644.9 72v3c0 .4.1.7.3.8.2.2.4.3.8.3.5 0 .8-.1 1.1-.4s.3-.7.3-1.3V72h.7v4.6h-.6l-.1-.6c-.1.2-.3.4-.6.5-.3.1-.5.2-.9.2-.6 0-1-.1-1.3-.4s-.4-.7-.4-1.3v-3h.7z"/>
    <path d="M649.5 70.7c0-.2 0-.3.1-.4.1-.1.2-.1.3-.1.1 0 .2 0 .3.1.1.1.1.2.1.3 0 .2 0 .3-.1.4-.1.1-.2.1-.3.1-.1 0-.2 0-.3-.1s-.1-.1-.1-.3zm.8 5.9h-.7V72h.7v4.6z"/>
    <path d="M653.9 71.9c.2 0 .4 0 .6.1l-.1.6c-.2 0-.4-.1-.5-.1-.4 0-.7.2-1 .5s-.4.7-.4 1.1v2.5h-.7V72h.6l.1.9c.2-.3.4-.5.6-.7.2-.2.5-.3.8-.3z"/>
    <path d="M657.2 76.7c-.7 0-1.2-.2-1.6-.6-.4-.4-.6-1-.6-1.7s.2-1.3.6-1.8c.4-.4.9-.7 1.5-.7s1 .2 1.4.6c.3.4.5.9.5 1.5v.4h-3.2c0 .5.2 1 .4 1.2s.6.4 1.1.4c.5 0 1-.1 1.5-.3v.6c-.2.1-.5.2-.7.2-.3.2-.6.2-.9.2zm-.2-4.2c-.4 0-.7.1-.9.4s-.4.6-.4 1h2.4c0-.4-.1-.8-.3-1-.1-.3-.4-.4-.8-.4z"/>
    <path d="M663.3 76c-.4.5-.8.7-1.5.7-.6 0-1.1-.2-1.4-.6-.3-.4-.5-1-.5-1.8s.2-1.4.5-1.8c.3-.4.8-.6 1.4-.6.6 0 1.1.2 1.4.7h.1V70h.7v6.6h-.6l-.1-.6zm-1.4.1c.5 0 .8-.1 1-.4.2-.3.3-.7.3-1.3v-.1c0-.7-.1-1.1-.3-1.4-.2-.3-.6-.4-1-.4s-.7.2-.9.5c-.2.3-.3.8-.3 1.4 0 .6.1 1 .3 1.3.1.3.5.4.9.4z"/>
  </g>
  <g fill="#283D50" enable-background="new">
    <path d="M599.6 83c0-.2 0-.3.1-.4.1-.1.2-.1.3-.1.1 0 .2 0 .3.1.1.1.1.2.1.3 0 .2 0 .3-.1.4s-.2.1-.3.1c-.1 0-.2 0-.3-.1-.1 0-.1-.2-.1-.3zm.8 5.9h-.7v-4.6h.7v4.6z"/>
    <path d="M605 88.9v-3c0-.4-.1-.7-.3-.8-.2-.2-.4-.3-.8-.3-.5 0-.8.1-1.1.4-.2.3-.3.7-.3 1.3v2.4h-.7v-4.6h.6l.1.6c.1-.2.3-.4.6-.5s.5-.2.9-.2c.6 0 1 .1 1.3.4.3.3.4.7.4 1.3v3h-.7z"/>
    <path d="M611.5 84.2c.6 0 1.1.2 1.4.6.3.4.5 1 .5 1.8s-.2 1.3-.5 1.8c-.3.4-.8.6-1.4.6-.3 0-.6-.1-.8-.2-.2-.1-.5-.3-.6-.5h-.1l-.1.6h-.5v-6.6h.7v2.6c.3-.5.8-.7 1.4-.7zm-.1.5c-.5 0-.8.1-1 .4s-.3.7-.3 1.4.1 1.1.3 1.4c.2.3.6.4 1 .4s.8-.2 1-.5.3-.8.3-1.4c0-.6-.1-1.1-.3-1.3-.2-.2-.5-.4-1-.4z"/>
    <path d="M618.7 86.5c0 .8-.2 1.3-.6 1.8-.4.4-.9.6-1.6.6-.4 0-.8-.1-1.1-.3-.3-.2-.6-.5-.7-.8-.2-.4-.3-.8-.3-1.3 0-.8.2-1.3.6-1.8.4-.4.9-.6 1.6-.6.6 0 1.2.2 1.5.6.4.5.6 1.1.6 1.8zm-3.6 0c0 .6.1 1 .4 1.4.2.3.6.5 1 .5.5 0 .8-.2 1-.5.2-.3.4-.8.4-1.4 0-.6-.1-1-.4-1.3-.2-.3-.6-.5-1.1-.5-.5 0-.8.2-1 .5s-.3.7-.3 1.3z"/>
    <path d="M623.9 86.5c0 .8-.2 1.3-.6 1.8-.4.4-.9.6-1.6.6-.4 0-.8-.1-1.1-.3-.3-.2-.6-.5-.7-.8-.2-.4-.3-.8-.3-1.3 0-.8.2-1.3.6-1.8.4-.4.9-.6 1.6-.6.6 0 1.2.2 1.5.6.4.5.6 1.1.6 1.8zm-3.5 0c0 .6.1 1 .4 1.4s.6.5 1 .5.8-.2 1-.5c.2-.3.4-.8.4-1.4 0-.6-.1-1-.4-1.3-.2-.3-.6-.5-1.1-.5-.5 0-.8.2-1 .5s-.3.7-.3 1.3z"/>
    <path d="M625.8 86.5c.1-.2.3-.4.6-.7l1.5-1.6h.8l-1.9 2 2 2.7h-.8l-1.6-2.2-.5.5v1.7h-.7v-6.6h.7v3.5c-.1.1-.1.4-.1.7z"/>
    <path d="M629.6 83c0-.2 0-.3.1-.4.1-.1.2-.1.3-.1.1 0 .2 0 .3.1.1.1.1.2.1.3 0 .2 0 .3-.1.4-.1.1-.2.1-.3.1-.1 0-.2 0-.3-.1s-.1-.2-.1-.3zm.8 5.9h-.7v-4.6h.7v4.6z"/>
    <path d="M635 88.9v-3c0-.4-.1-.7-.3-.8-.2-.2-.4-.3-.8-.3-.5 0-.8.1-1.1.4-.2.3-.3.7-.3 1.3v2.4h-.7v-4.6h.6l.1.6c.1-.2.3-.4.6-.5s.5-.2.9-.2c.6 0 1 .1 1.3.4.3.3.4.7.4 1.3v3h-.7z"/>
    <path d="M640.9 84.2v.4l-.9.1c.1.1.1.2.2.4s.1.3.1.5c0 .5-.2.8-.5 1.1-.3.3-.7.4-1.3.4h-.4c-.3.2-.4.4-.4.6 0 .1.1.2.2.3.1.1.3.1.5.1h.8c.5 0 .9.1 1.2.3s.4.5.4.9c0 .5-.2.9-.6 1.2-.4.3-1 .4-1.8.4-.6 0-1.1-.1-1.4-.3-.3-.2-.5-.5-.5-1 0-.3.1-.5.3-.7s.4-.3.8-.4c-.1-.1-.2-.1-.3-.2-.1-.1-.1-.2-.1-.4s0-.3.1-.4l.4-.4c-.2-.1-.4-.3-.6-.5s-.2-.5-.2-.8c0-.5.2-.9.5-1.2s.7-.4 1.3-.4c.2 0 .5 0 .7.1h1.5zm-3.7 5.4c0 .2.1.4.3.6.2.1.5.2.9.2.6 0 1-.1 1.3-.3.3-.2.4-.4.4-.7 0-.3-.1-.4-.2-.5-.2-.1-.4-.1-.9-.1h-.8c-.3 0-.6.1-.7.2-.2.1-.3.3-.3.6zm.4-3.9c0 .3.1.6.3.7.2.2.4.2.8.2.7 0 1-.3 1-1s-.3-1-1-1c-.3 0-.6.1-.8.3-.2.2-.3.5-.3.8z"/>
    <path d="M646.2 84.8H645v4.1h-.7v-4.1h-.8v-.3l.8-.3v-.3c0-1.1.5-1.7 1.5-1.7.2 0 .5 0 .9.1l-.2.6c-.3-.1-.5-.1-.7-.1-.3 0-.5.1-.6.3-.1.2-.2.5-.2.8v.3h1.2v.6z"/>
    <path d="M651 86.5c0 .8-.2 1.3-.6 1.8-.4.4-.9.6-1.6.6-.4 0-.8-.1-1.1-.3-.3-.2-.6-.5-.7-.8-.2-.4-.3-.8-.3-1.3 0-.8.2-1.3.6-1.8.4-.4.9-.6 1.6-.6.6 0 1.2.2 1.5.6.4.5.6 1.1.6 1.8zm-3.5 0c0 .6.1 1 .4 1.4.2.3.6.5 1 .5.5 0 .8-.2 1-.5s.4-.8.4-1.4c0-.6-.1-1-.4-1.3-.2-.3-.6-.5-1.1-.5-.5 0-.8.2-1 .5s-.3.7-.3 1.3z"/>
    <path d="M654.4 84.1c.2 0 .4 0 .6.1l-.1.6c-.2 0-.4-.1-.5-.1-.4 0-.7.2-1 .5s-.4.7-.4 1.1v2.5h-.7v-4.6h.6l.1.9c.2-.3.4-.5.6-.7.2-.2.5-.3.8-.3z"/>
    <path d="M661.7 88.9v-3c0-.4-.1-.6-.2-.8-.2-.2-.4-.3-.7-.3-.4 0-.8.1-1 .4-.2.3-.3.6-.3 1.2V89h-.7v-3c0-.4-.1-.6-.2-.8-.2-.2-.4-.3-.7-.3-.4 0-.8.1-1 .4-.2.3-.3.7-.3 1.3V89h-.7v-4.6h.6l.1.6c.1-.2.3-.4.6-.5.2-.1.5-.2.8-.2.7 0 1.2.3 1.4.8.1-.2.3-.4.6-.6s.6-.2.9-.2c.5 0 .9.1 1.2.4.3.3.4.7.4 1.3v3h-.8z"/>
    <path d="M665.3 86.5c0 .7-.1 1.4-.3 2.1-.2.6-.5 1.2-.9 1.7h-.7c.4-.5.7-1.1.9-1.8s.3-1.3.3-2-.1-1.4-.3-2-.5-1.2-.9-1.8h.7c.4.5.7 1.1.9 1.7.2.7.3 1.3.3 2.1z"/>
  </g>
</svg>