<svg xmlns="http://www.w3.org/2000/svg" viewBox="0 0 720 398">
  <path fill="none" stroke="#979797" stroke-width=".81" d="M67 255.9l54.5-3.1" stroke-linecap="square"/>
  <path fill="#F6F6F6" d="M0 169.8h146.2v88H0z"/>
  <path fill="none" stroke="#979797" stroke-width=".81" d="M.4 170.2h145.4v87.2H.4z"/>
  <path fill="#909090" d="M0 157h146.2v13H0z"/>
  <path fill="#B6B6B6" d="M10.2 160.1h26.9v6.6H10.2z"/>
  <path fill="#D8D8D8" d="M76.393 162.306h17.7v2.2h-17.7zm20.8 0h17.7v2.2h-17.7zm21.1 0h17.7v2.2h-17.7z"/>
  <path fill="#D8D8D8" d="M19.466 203.657h107.2c1.8 0 3.2 1.5 3.2 3.2v10.4c0 1.8-1.5 3.2-3.2 3.2h-107.2c-1.8 0-3.2-1.5-3.2-3.2v-10.4c0-1.7 1.5-3.2 3.2-3.2z"/>
  <path fill="#FFF" d="M21.566 208.757h20.1v6.8h-20.1z"/>
  <path fill="#4A4A4A" d="M106.166 208.757h20.1v6.8h-20.1z"/>
  <path fill="#FFF" d="M42.266 208.757h31.4v6.8h-31.4zm31.9 0h31.4v6.8h-31.4z"/>
  <ellipse cx="2.9" cy="-.1" fill="#B6B6B6" rx="2.9" ry="2.9" transform="translate(39.66 239.866)"/>
  <path fill="#D8D8D8" d="M49.7 237.9h62.1v3.8H49.7zm-13.1-57.1h73.1v6.6H36.6z"/>
  <path fill="#283D50" d="M5.8 128.8c0 .7-.3 1.3-.8 1.7s-1.3.6-2.2.6c-.9 0-1.6-.2-2.3-.5V129c.5.2 1 .4 1.4.5.4.1.7.1 1 .1.4 0 .7-.1.9-.2.2-.1.3-.4.3-.6 0-.2 0-.3-.1-.4l-.4-.4c-.2-.1-.5-.3-1-.5s-.9-.5-1.1-.7c-.2-.2-.4-.5-.6-.7-.1-.3-.2-.6-.2-1 0-.7.2-1.3.7-1.7.5-.4 1.2-.6 2-.6.4 0 .8 0 1.2.1.4.1.8.2 1.2.4l-.6 1.3c-.4-.2-.8-.3-1.1-.4-.3-.1-.6-.1-.8-.1-.3 0-.6.1-.7.2-.2.2-.3.3-.3.6 0 .2 0 .3.1.4l.3.3c.2.1.5.3 1.1.6.8.4 1.3.7 1.6 1.1.3.5.4.9.4 1.5zm4.1 2.3c-1 0-1.8-.3-2.3-.8-.6-.6-.8-1.3-.8-2.3 0-1 .3-1.8.8-2.4.5-.6 1.2-.8 2.2-.8.9 0 1.6.2 2 .7.5.5.7 1.2.7 2.1v.8h-4c0 .5.2.9.4 1.1.3.3.6.4 1.1.4.4 0 .7 0 1.1-.1.3-.1.7-.2 1-.4v1.3c-.3.1-.6.3-.9.3s-.8.1-1.3.1zm-.2-5.2c-.4 0-.6.1-.8.3-.2.2-.3.5-.3 1H11c0-.4-.1-.7-.3-1-.4-.2-.6-.3-1-.3zm8.1 5.1l-.3-.8c-.3.4-.6.6-.9.7-.3.1-.7.2-1.2.2-.6 0-1.1-.2-1.4-.5s-.5-.8-.5-1.5.2-1.1.7-1.5c.5-.3 1.2-.5 2.1-.5h1.1v-.3c0-.6-.3-.9-1-.9-.5 0-1.1.1-1.7.4l-.6-1.1c.7-.4 1.5-.6 2.4-.6.8 0 1.5.2 1.9.5.4.4.7.9.7 1.7v4.1h-1.3zm-.5-2.9h-.7c-.5 0-.9.1-1.1.3-.2.2-.4.4-.4.7 0 .5.3.7.8.7.4 0 .7-.1.9-.3.2-.2.4-.5.4-.9v-.5zm6.8-3.4h.6l-.1 1.6c-.1 0-.3-.1-.5-.1-.5 0-1 .1-1.3.4-.3.3-.5.7-.5 1.2v3.2h-1.7v-6.2H22l.2 1h.1c.2-.3.5-.6.8-.8s.7-.3 1-.3zm4.2 6.4c-1.9 0-2.9-1.1-2.9-3.2 0-1.1.3-1.9.8-2.4.5-.6 1.3-.8 2.3-.8.7 0 1.4.1 1.9.4l-.5 1.3c-.3-.1-.5-.2-.7-.3s-.5-.1-.7-.1c-.9 0-1.3.6-1.3 1.9 0 1.2.4 1.8 1.3 1.8.3 0 .6 0 .9-.1s.6-.2.8-.4v1.4c-.3.2-.5.3-.8.4s-.6.1-1.1.1zm9.1-.1h-1.7v-3.6c0-.9-.3-1.3-1-1.3-.5 0-.8.2-1 .5-.2.3-.3.8-.3 1.6v2.9h-1.7v-8.6h1.7v3.3h.1c.4-.6 1-.9 1.8-.9.7 0 1.3.2 1.7.6.4.4.6 1 .6 1.7v3.8zm8.1.1c-.7 0-1.3-.3-1.7-.8h-.1c.1.5.1.8.1.9v2.5h-1.7v-8.9h1.4l.2.8h.1c.4-.6 1-.9 1.8-.9.7 0 1.3.3 1.7.8.4.6.6 1.3.6 2.4 0 .7-.1 1.2-.3 1.7-.2.5-.5.9-.8 1.1-.4.3-.9.4-1.3.4zM45 126c-.4 0-.7.1-.9.4-.2.3-.3.7-.3 1.3v.2c0 .7.1 1.1.3 1.4.2.3.5.4.9.4.8 0 1.1-.6 1.1-1.9 0-.6-.1-1.1-.3-1.4s-.4-.4-.8-.4zm8.2 5l-.3-.8c-.3.4-.6.6-.9.7s-.7.2-1.2.2c-.6 0-1.1-.2-1.4-.5s-.5-.8-.5-1.5.2-1.1.7-1.5c.5-.3 1.2-.5 2.1-.5h1.1v-.3c0-.6-.3-.9-1-.9-.5 0-1.1.1-1.7.4l-.6-1.1c.7-.4 1.5-.6 2.4-.6.8 0 1.5.2 1.9.5.4.4.7.9.7 1.7v4.1h-1.3zm-.5-2.9H52c-.5 0-.9.1-1.1.3-.2.2-.4.4-.4.7 0 .5.3.7.8.7.4 0 .7-.1.9-.3.2-.2.4-.5.4-.9v-.5zm8.8-3.3v.9l-1 .2c.2.3.3.6.3.9 0 .7-.2 1.2-.7 1.6-.5.4-1.1.6-1.9.6h-.5c-.2.1-.3.3-.3.4 0 .2.3.4.9.4h1.1c.7 0 1.2.1 1.6.4.4.3.5.7.5 1.3 0 .7-.3 1.3-.9 1.7-.6.4-1.5.6-2.6.6-.9 0-1.5-.2-2-.5s-.7-.7-.7-1.3c0-.4.1-.7.3-.9s.6-.4 1-.5c-.2-.1-.3-.2-.5-.4-.1-.2-.2-.3-.2-.5s.1-.4.2-.6c.1-.2.3-.3.6-.5-.3-.1-.6-.4-.8-.7-.2-.3-.3-.7-.3-1.1 0-.7.2-1.2.7-1.6s1.1-.6 1.9-.6h.6s.4.1.5.1h2.2zm-4.8 7.1c0 .2.1.4.3.5s.5.2.9.2c.6 0 1.1-.1 1.4-.2.3-.2.5-.4.5-.7 0-.2-.1-.4-.3-.5-.2-.1-.5-.1-.9-.1h-.9c-.3 0-.6.1-.8.2-.1.1-.2.3-.2.6zm.6-5.1c0 .3.1.6.2.8.2.2.4.3.7.3.3 0 .5-.1.7-.3.1-.2.2-.5.2-.8 0-.7-.3-1.1-.9-1.1-.6 0-.9.4-.9 1.1zm8 4.3c-1 0-1.8-.3-2.3-.8-.6-.6-.8-1.3-.8-2.3 0-1 .3-1.8.8-2.4.5-.6 1.2-.8 2.2-.8.9 0 1.6.2 2 .7.5.5.7 1.2.7 2.1v.8h-4c0 .5.2.9.4 1.1.3.3.6.4 1.1.4.4 0 .7 0 1.1-.1.3-.1.7-.2 1-.4v1.3c-.3.1-.6.3-.9.3s-.8.1-1.3.1zm-.2-5.2c-.4 0-.6.1-.8.3-.2.2-.3.5-.3 1h2.4c0-.4-.1-.7-.3-1-.4-.2-.7-.3-1-.3zm10.8-3l-3 8.1h-1.5l3-8.1h1.5z"/>
  <path fill="#283D50" d="M2.6 146H.9v-8.6h1.7v8.6zm5.7 0l-.3-.8c-.3.4-.6.6-.9.7-.3.1-.7.2-1.2.2-.6 0-1.1-.2-1.4-.5s-.5-.8-.5-1.5.2-1.1.7-1.5c.5-.3 1.2-.5 2.1-.5h1.1v-.3c0-.6-.3-.9-1-.9-.5 0-1.1.1-1.7.4l-.6-1.1c.7-.4 1.5-.6 2.4-.6.8 0 1.5.2 1.9.5.4.4.7.9.7 1.7v4.1H8.3zm-.5-2.9h-.7c-.5 0-.9.1-1.1.3-.2.2-.4.4-.4.7 0 .5.3.7.8.7.4 0 .7-.1.9-.3.2-.2.4-.5.4-.9v-.5zm9.1 2.9h-1.7v-3.6c0-.4-.1-.8-.2-1-.2-.2-.4-.3-.8-.3-.5 0-.8.2-1 .5-.2.3-.3.8-.3 1.6v2.9h-1.7v-6.2h1.3l.2.8h.1c.2-.3.4-.5.8-.7.3-.2.7-.2 1.1-.2.7 0 1.3.2 1.6.6.4.4.6 1 .6 1.7v3.9zm3.7.1c-.7 0-1.3-.3-1.7-.8-.4-.6-.6-1.3-.6-2.3 0-1 .2-1.8.6-2.4.4-.6 1-.8 1.7-.8.8 0 1.4.3 1.8.9h.1c-.1-.5-.1-.9-.1-1.2v-2h1.7v8.6h-1.3l-.3-.8h-.1c-.4.5-1 .8-1.8.8zm.6-1.3c.4 0 .7-.1.9-.4s.3-.7.3-1.3v-.2c0-.7-.1-1.1-.3-1.4-.2-.3-.5-.4-1-.4-.4 0-.7.2-.9.5-.2.3-.3.8-.3 1.4 0 .6.1 1.1.3 1.4s.6.4 1 .4zm4.6-6.6c0-.5.3-.8.9-.8s.9.3.9.8c0 .3-.1.5-.2.6s-.4.2-.7.2c-.6 0-.9-.2-.9-.8zm1.7 7.8h-1.7v-6.2h1.7v6.2zm7.5 0h-1.7v-3.6c0-.4-.1-.8-.2-1-.2-.2-.4-.3-.8-.3-.5 0-.8.2-1 .5-.2.3-.3.8-.3 1.6v2.9h-1.7v-6.2h1.3l.2.8h.1c.2-.3.4-.5.8-.7.3-.2.7-.2 1.1-.2.7 0 1.3.2 1.6.6.4.4.6 1 .6 1.7v3.9zm7.1-6.2v.9l-1 .2c.2.3.3.6.3.9 0 .7-.2 1.2-.7 1.6s-1.1.6-1.9.6h-.5c-.2.1-.3.3-.3.4 0 .2.3.4.9.4H40c.7 0 1.2.1 1.6.4.4.3.5.7.5 1.3 0 .7-.3 1.3-.9 1.7-.6.4-1.5.6-2.6.6-.9 0-1.5-.2-2-.5s-.7-.7-.7-1.3c0-.4.1-.7.3-.9.2-.3.6-.4 1-.5-.2-.1-.3-.2-.5-.4-.1-.2-.2-.3-.2-.5s.1-.4.2-.6c.1-.2.3-.3.6-.5-.3-.1-.6-.4-.8-.7-.2-.3-.3-.7-.3-1.1 0-.7.2-1.2.7-1.6s1.1-.6 1.9-.6h.6s.4.1.5.1h2.2zm-4.8 7.1c0 .2.1.4.3.5.2.1.5.2.9.2.6 0 1.1-.1 1.4-.2s.5-.4.5-.7c0-.2-.1-.4-.3-.5-.2-.1-.5-.1-.9-.1h-.9c-.3 0-.6.1-.8.2 0 .1-.2.3-.2.6zm.7-5.1c0 .3.1.6.2.8.2.2.4.3.7.3.3 0 .5-.1.7-.3.1-.2.2-.5.2-.8 0-.7-.3-1.1-.9-1.1-.6 0-.9.4-.9 1.1zm11.5 4.3c-.7 0-1.3-.3-1.7-.8h-.1c.1.5.1.8.1.9v2.5h-1.7v-8.9h1.4l.2.8h.1c.4-.6 1-.9 1.8-.9.7 0 1.3.3 1.7.8.4.6.6 1.3.6 2.4 0 .7-.1 1.2-.3 1.7-.2.5-.5.9-.8 1.1-.4.3-.8.4-1.3.4zM49 141c-.4 0-.7.1-.9.4-.2.3-.3.7-.3 1.3v.2c0 .7.1 1.1.3 1.4.2.3.5.4.9.4.8 0 1.1-.6 1.1-1.9 0-.6-.1-1.1-.3-1.4s-.4-.4-.8-.4zm8.2 5l-.3-.8c-.3.4-.6.6-.9.7s-.7.2-1.2.2c-.6 0-1.1-.2-1.4-.5s-.5-.8-.5-1.5.2-1.1.7-1.5c.5-.3 1.2-.5 2.1-.5h1.1v-.3c0-.6-.3-.9-1-.9-.5 0-1.1.1-1.7.4l-.6-1.1c.7-.4 1.5-.6 2.4-.6.8 0 1.5.2 1.9.5.4.4.7.9.7 1.7v4.1h-1.3zm-.5-2.9H56c-.5 0-.9.1-1.1.3-.2.2-.4.4-.4.7 0 .5.3.7.8.7.4 0 .7-.1.9-.3.2-.2.4-.5.4-.9v-.5zm8.8-3.3v.9l-1 .2c.2.3.3.6.3.9 0 .7-.2 1.2-.7 1.6-.5.4-1.1.6-1.9.6h-.5c-.2.1-.3.3-.3.4 0 .2.3.4.9.4h1.1c.7 0 1.2.1 1.6.4.4.3.5.7.5 1.3 0 .7-.3 1.3-.9 1.7-.6.4-1.5.6-2.6.6-.9 0-1.5-.2-2-.5s-.7-.7-.7-1.3c0-.4.1-.7.3-.9s.6-.4 1-.5c-.2-.1-.3-.2-.5-.4-.1-.2-.2-.3-.2-.5s.1-.4.2-.6c.1-.2.3-.3.6-.5-.3-.1-.6-.4-.8-.7-.2-.3-.3-.7-.3-1.1 0-.7.2-1.2.7-1.6s1.1-.6 1.9-.6h.6s.4.1.5.1h2.2zm-4.8 7.1c0 .2.1.4.3.5s.5.2.9.2c.6 0 1.1-.1 1.4-.2.3-.2.5-.4.5-.7 0-.2-.1-.4-.3-.5-.2-.1-.5-.1-.9-.1h-.9c-.3 0-.6.1-.8.2-.1.1-.2.3-.2.6zm.6-5.1c0 .3.1.6.2.8.2.2.4.3.7.3.3 0 .5-.1.7-.3.1-.2.2-.5.2-.8 0-.7-.3-1.1-.9-1.1-.5 0-.9.4-.9 1.1zm8 4.3c-1 0-1.8-.3-2.3-.8-.6-.6-.8-1.3-.8-2.3 0-1 .3-1.8.8-2.4.5-.6 1.2-.8 2.2-.8.9 0 1.6.2 2 .7.5.5.7 1.2.7 2.1v.8h-4c0 .5.2.9.4 1.1.3.3.6.4 1.1.4.4 0 .7 0 1.1-.1.3-.1.7-.2 1-.4v1.3c-.3.1-.6.3-.9.3s-.8.1-1.3.1zm-.2-5.2c-.4 0-.6.1-.8.3-.2.2-.3.5-.3 1h2.4c0-.4-.1-.7-.3-1-.4-.2-.7-.3-1-.3z"/>
  <path fill="#283D50" d="M306.2 9V.9h1.7v6.7h3.3V9h-5zm11.9-3.1c0 1-.3 1.8-.8 2.4s-1.3.9-2.2.9c-.6 0-1.1-.1-1.6-.4-.5-.3-.8-.6-1-1.1-.2-.5-.4-1.1-.4-1.7 0-1 .3-1.8.8-2.4.5-.6 1.3-.8 2.2-.8.6 0 1.1.1 1.6.4.5.3.8.6 1 1.1.2.4.4.9.4 1.6zm-4.3 0c0 .6.1 1.1.3 1.4.2.3.5.5 1 .5s.8-.2 1-.5c.2-.3.3-.8.3-1.4 0-.6-.1-1.1-.3-1.4-.2-.3-.5-.5-1-.5s-.8.2-1 .5c-.2.3-.3.8-.3 1.4zm11.1-3.1v.9l-1 .2c.2.3.3.6.3.9 0 .7-.2 1.2-.7 1.6s-1.2.6-2 .6h-.5c-.2.1-.3.3-.3.4 0 .2.3.4.9.4h1.1c.7 0 1.2.1 1.6.4.4.3.5.7.5 1.3 0 .7-.3 1.3-.9 1.7-.6.4-1.5.6-2.6.6-.9 0-1.5-.2-2-.5s-.7-.7-.7-1.3c0-.4.1-.7.3-.9.2-.3.6-.4 1-.5-.2-.1-.3-.2-.5-.4-.1-.2-.2-.3-.2-.5s.1-.4.2-.6c.1-.2.3-.3.6-.5-.3-.1-.6-.4-.8-.7-.2-.3-.3-.7-.3-1.1 0-.7.2-1.2.7-1.6s1.1-.6 1.9-.6h.6s.4.1.5.1h2.3zm-4.8 7.1c0 .2.1.4.3.5.2.1.5.2.9.2.6 0 1.1-.1 1.4-.2s.5-.4.5-.7c0-.2-.1-.4-.3-.5-.2-.1-.5-.1-.9-.1h-.9c-.3 0-.6.1-.8.2-.1.1-.2.3-.2.6zm.6-5.1c0 .3.1.6.2.8.2.2.4.3.7.3.3 0 .5-.1.7-.3.1-.2.2-.5.2-.8 0-.7-.3-1.1-.9-1.1-.6 0-.9.4-.9 1.1zm8-3.6c0-.5.3-.8.9-.8s.9.3.9.8c0 .3-.1.5-.2.6s-.3.2-.6.2c-.6 0-1-.2-1-.8zm1.8 7.8h-1.7V2.8h1.7V9zm7.5 0h-1.7V5.4c0-.4-.1-.8-.2-1-.2-.2-.4-.3-.8-.3-.5 0-.8.2-1 .5-.2.3-.3.8-.3 1.6V9h-1.7V2.8h1.3l.2.8h.1c.2-.3.4-.5.8-.7.3-.2.7-.2 1.1-.2.7 0 1.3.2 1.6.6.4.4.6 1 .6 1.7v4z"/>
  <path fill="#283D50" d="M641.2 160.2c-.6 0-1.1.2-1.5.7-.4.5-.5 1.2-.5 2 0 1.8.7 2.7 2 2.7.6 0 1.3-.1 2.1-.4v1.4c-.7.3-1.4.4-2.2.4-1.2 0-2.1-.4-2.7-1.1-.6-.7-.9-1.7-.9-3.1 0-.8.2-1.6.5-2.2.3-.6.7-1.1 1.3-1.5.6-.3 1.2-.5 2-.5s1.6.2 2.4.6l-.6 1.4c-.3-.1-.6-.3-.9-.4-.4.1-.7 0-1 0zm9.3 3.7c0 1-.3 1.8-.8 2.4-.5.6-1.3.9-2.2.9-.6 0-1.1-.1-1.6-.4-.5-.3-.8-.6-1-1.1-.2-.5-.4-1.1-.4-1.7 0-1 .3-1.8.8-2.4.5-.6 1.3-.8 2.2-.8.6 0 1.1.1 1.6.4.5.3.8.6 1 1.1.2.4.4.9.4 1.6zm-4.3 0c0 .6.1 1.1.3 1.4.2.3.5.5 1 .5s.8-.2 1-.5c.2-.3.3-.8.3-1.4 0-.6-.1-1.1-.3-1.4-.2-.3-.5-.5-1-.5s-.8.2-1 .5c-.2.3-.3.8-.3 1.4zm11.4 3.1h-1.7v-3.6c0-.4-.1-.8-.2-1-.2-.2-.4-.3-.8-.3-.5 0-.8.2-1 .5-.2.3-.3.8-.3 1.6v2.9h-1.7v-6.2h1.3l.2.8h.1c.2-.3.4-.5.8-.7.3-.2.7-.2 1.1-.2.7 0 1.3.2 1.6.6.4.4.6 1 .6 1.7v3.9zm5.1-4.9h-1.5v4.9h-1.7v-4.9h-.9v-.8l.9-.5v-.5c0-.7.2-1.2.5-1.5.3-.3.9-.5 1.7-.5.6 0 1.1.1 1.6.3l-.4 1.2c-.3-.1-.7-.2-.9-.2-.2 0-.4.1-.5.2-.1.1-.2.3-.2.5v.4h1.5v1.4zm.9-2.9c0-.5.3-.8.9-.8.6 0 .9.3.9.8 0 .3-.1.5-.2.6s-.4.2-.7.2c-.6 0-.9-.2-.9-.8zm1.8 7.8h-1.7v-6.2h1.7v6.2zm5.2-6.3h.6l-.1 1.6c-.1 0-.3-.1-.5-.1-.5 0-1 .1-1.3.4-.3.3-.5.7-.5 1.2v3.2h-1.7v-6.2h1.3l.2 1h.1c.2-.3.5-.6.8-.8.4-.2.7-.3 1.1-.3zm7.3 6.3h-1.7v-3.6c0-.4-.1-.8-.2-1-.1-.2-.4-.3-.7-.3-.4 0-.7.2-.9.5-.2.3-.3.8-.3 1.6v2.9h-1.7v-6.2h1.3l.2.8h.1c.2-.3.4-.5.7-.7.3-.2.7-.2 1.1-.2.9 0 1.6.3 1.9.9h.2c.2-.3.4-.5.7-.7.3-.2.7-.2 1.1-.2.7 0 1.2.2 1.6.5.4.4.5.9.5 1.7v4H680v-3.6c0-.4-.1-.8-.2-1-.1-.2-.4-.3-.7-.3-.4 0-.7.1-.9.4-.2.3-.3.8-.3 1.4v3.1zm9.5 0l-.3-.8c-.3.4-.6.6-.9.7-.3.1-.7.2-1.2.2-.6 0-1.1-.2-1.4-.5-.3-.3-.5-.8-.5-1.5s.2-1.1.7-1.5c.5-.3 1.2-.5 2.1-.5h1.1v-.3c0-.6-.3-.9-1-.9-.5 0-1.1.1-1.7.4l-.6-1.1c.7-.4 1.5-.6 2.4-.6.8 0 1.5.2 1.9.5.4.4.7.9.7 1.7v4.1h-1.3zm-.5-2.9h-.7c-.5 0-.9.1-1.1.3-.2.2-.4.4-.4.7 0 .5.3.7.8.7.4 0 .7-.1.9-.3.2-.2.4-.5.4-.9v-.5zm6 1.7c.3 0 .6-.1 1.1-.2v1.3c-.4.2-.9.3-1.5.3-.7 0-1.2-.2-1.5-.5-.3-.3-.5-.9-.5-1.5v-3h-.8v-.7l.9-.6.5-1.3h1.1v1.3h1.7v1.3h-1.7v3c0 .2.1.4.2.5s.3.1.5.1zm2.2-6.6c0-.5.3-.8.9-.8.6 0 .9.3.9.8 0 .3-.1.5-.2.6-.2.1-.4.2-.7.2-.5 0-.9-.2-.9-.8zm1.8 7.8h-1.7v-6.2h1.7v6.2zm7.4-3.1c0 1-.3 1.8-.8 2.4-.5.6-1.3.9-2.2.9-.6 0-1.1-.1-1.6-.4-.5-.3-.8-.6-1-1.1-.2-.5-.4-1.1-.4-1.7 0-1 .3-1.8.8-2.4.5-.6 1.3-.8 2.2-.8.6 0 1.1.1 1.6.4.5.3.8.6 1 1.1.3.4.4.9.4 1.6zm-4.3 0c0 .6.1 1.1.3 1.4.2.3.5.5 1 .5s.8-.2 1-.5c.2-.3.3-.8.3-1.4 0-.6-.1-1.1-.3-1.4-.2-.3-.5-.5-1-.5s-.8.2-1 .5c-.2.3-.3.8-.3 1.4zm11.4 3.1h-1.7v-3.6c0-.4-.1-.8-.2-1-.2-.2-.4-.3-.8-.3-.5 0-.8.2-1 .5-.2.3-.3.8-.3 1.6v2.9h-1.7v-6.2h1.3l.2.8h.1c.2-.3.4-.5.8-.7.3-.2.7-.2 1.1-.2.7 0 1.3.2 1.6.6s.6 1 .6 1.7v3.9z"/>
  <path fill="#283D50" d="M646.7 182.1c-1 0-1.8-.3-2.3-.8-.6-.6-.8-1.3-.8-2.3 0-1 .3-1.8.8-2.4.5-.6 1.2-.8 2.2-.8.9 0 1.6.2 2 .7.5.5.7 1.2.7 2.1v.8h-4c0 .5.2.9.4 1.1.3.3.6.4 1.1.4.4 0 .7 0 1.1-.1.3-.1.7-.2 1-.4v1.3c-.3.1-.6.3-.9.3s-.8.1-1.3.1zm-.2-5.2c-.4 0-.6.1-.8.3-.2.2-.3.5-.3 1h2.4c0-.4-.1-.7-.3-1-.4-.2-.6-.3-1-.3zm3.6 2.8v-1.4h3v1.4h-3zm9.7 2.3h-1.7v-3.6c0-.4-.1-.8-.2-1-.1-.2-.4-.3-.7-.3-.4 0-.7.2-.9.5-.2.3-.3.8-.3 1.6v2.9h-1.7v-6.2h1.3l.2.8h.1c.2-.3.4-.5.7-.7.3-.2.7-.2 1.1-.2.9 0 1.6.3 1.9.9h.2c.2-.3.4-.5.7-.7.3-.2.7-.2 1.1-.2.7 0 1.2.2 1.6.5.4.4.5.9.5 1.7v4H662v-3.6c0-.4-.1-.8-.2-1-.1-.2-.4-.3-.7-.3-.4 0-.7.1-.9.4-.2.3-.3.8-.3 1.4v3.1zm9.5 0l-.3-.8c-.3.4-.6.6-.9.7-.3.1-.7.2-1.2.2-.6 0-1.1-.2-1.4-.5-.3-.3-.5-.8-.5-1.5s.2-1.1.7-1.5c.5-.3 1.2-.5 2.1-.5h1.1v-.3c0-.6-.3-.9-1-.9-.5 0-1.1.1-1.7.4l-.6-1.1c.7-.4 1.5-.6 2.4-.6.8 0 1.5.2 1.9.5.4.4.7.9.7 1.7v4.1h-1.3zm-.5-2.9h-.7c-.5 0-.9.1-1.1.3-.2.2-.4.4-.4.7 0 .5.3.7.8.7.4 0 .7-.1.9-.3.2-.2.4-.5.4-.9v-.5zm3.4-4.9c0-.5.3-.8.9-.8.6 0 .9.3.9.8 0 .3-.1.5-.2.6s-.4.2-.7.2c-.6 0-.9-.2-.9-.8zm1.8 7.8h-1.7v-6.2h1.7v6.2zm3.4 0h-1.7v-8.6h1.7v8.6zm9-1.8c0 .6-.2 1.1-.7 1.5s-1.1.5-2 .5c-.5 0-.8 0-1.2-.1l-.9-.3v-1.4c.3.1.7.3 1.1.4.4.1.7.1 1 .1.6 0 .9-.2.9-.5 0-.1 0-.2-.1-.3s-.2-.2-.4-.3-.5-.2-.8-.4c-.5-.2-.8-.4-1-.6-.2-.2-.4-.4-.5-.6s-.2-.5-.2-.8c0-.5.2-1 .6-1.3.4-.3 1-.5 1.8-.5.7 0 1.5.2 2.2.5l-.5 1.2-.9-.3s-.5-.1-.8-.1c-.5 0-.7.1-.7.4 0 .2.1.3.2.4.2.1.5.3 1.1.5.5.2.8.4 1.1.5.2.2.4.4.5.6s.2.6.2.9zm4.2 1.9c-1 0-1.8-.3-2.3-.8-.6-.6-.8-1.3-.8-2.3 0-1 .3-1.8.8-2.4.5-.6 1.2-.8 2.2-.8.9 0 1.6.2 2 .7.5.5.7 1.2.7 2.1v.8h-4c0 .5.2.9.4 1.1.3.3.6.4 1.1.4.4 0 .7 0 1.1-.1.3-.1.7-.2 1-.4v1.3c-.3.1-.6.3-.9.3s-.8.1-1.3.1zm-.3-5.2c-.4 0-.6.1-.8.3-.2.2-.3.5-.3 1h2.4c0-.4-.1-.7-.3-1-.3-.2-.6-.3-1-.3zm9.9 5.1h-1.7v-3.6c0-.4-.1-.8-.2-1-.2-.2-.4-.3-.8-.3-.5 0-.8.2-1 .5-.2.3-.3.8-.3 1.6v2.9h-1.7v-6.2h1.3l.2.8h.1c.2-.3.4-.5.8-.7.3-.2.7-.2 1.1-.2.7 0 1.3.2 1.6.6s.6 1 .6 1.7v3.9zm4.3-1.2c.3 0 .6-.1 1.1-.2v1.3c-.4.2-.9.3-1.5.3-.7 0-1.2-.2-1.5-.5-.3-.3-.5-.9-.5-1.5v-3h-.8v-.7l.9-.6.5-1.3h1.1v1.3h1.7v1.3h-1.7v3c0 .2.1.4.2.5s.3.1.5.1z"/>
  <path fill="#F6F6F6" d="M261 32.6h121.8v73.1H261z"/>
  <path fill="none" stroke="#979797" stroke-width=".81" d="M261.4 33h121v72.3h-121z"/>
  <path fill="#D8D8D8" d="M277.4 39.8h89.1v58.9h-89.1z"/>
  <path fill="#4A4A4A" d="M285.3 84.3h20.3v6.1h-20.3zm22 0h20.3v6.1h-20.3z"/>
  <path fill="#FFF" d="M285.3 64.4h42.2v6.1h-42.2zm0 9.4h42.2v6.1h-42.2z"/>
  <path fill="#B6B6B6" d="M295.707 52.366c1.3 0 2.4-1.1 2.4-2.4s-1.1-2.5-2.4-2.5-2.4 1.1-2.4 2.5 1 2.4 2.4 2.4zm-.1.4c2 0 3.6 1.6 3.6 3.6v3.1h-7.2v-3c0-2 1.6-3.7 3.6-3.7z"/>
  <path fill="#909090" d="M261 22h121.8v10.8H261z"/>
  <path fill="#B6B6B6" d="M269.5 24.6h22.4v5.5h-22.4z"/>
  <path fill="#D8D8D8" d="M324.64 26.405h14.8v1.8h-14.8zm17.4 0h14.8v1.8h-14.8zm17.5 0h14.8v1.8h-14.8z"/>
  <path fill="#B6B6B6" d="M333 48h26.5v42.4H333z"/>
  <g fill="#B6B6B6">
    <path d="M315.2 52.548h6.7v1.9h-6.7z"/>
    <path d="M319.6 49.948v7.1h-2v-7.1"/>
  </g>
  <path fill="#F6F6F6" d="M261 129.6h121.6v72.9H261z"/>
  <path fill="none" stroke="#979797" stroke-width=".81" d="M261.4 130h120.8v72.1H261.4z"/>
  <path fill="#D8D8D8" d="M277.417 136.73h88.9v58.8h-88.9z"/>
  <path fill="#4A4A4A" d="M311.317 170.63h20.3v6.1h-20.3zm21.9 0h20.3v6.1h-20.3z"/>
  <path fill="#FFF" d="M311.317 153.13h42.2v6.1h-42.2zm0 8.7h42.2v6.1h-42.2z"/>
  <path fill="#B6B6B6" d="M296.118 157.242c1.3 0 2.3-1 2.3-2.3s-1-2.3-2.3-2.3-2.3 1-2.3 2.3 1.1 2.3 2.3 2.3zm0 .5c1.9 0 3.5 1.5 3.5 3.5v2.9h-7v-2.9c0-2 1.6-3.5 3.5-3.5z"/>
  <path fill="#909090" d="M261 119h121.6v10.8H261z"/>
  <path fill="#B6B6B6" d="M269.5 121.6h22.3v5.5h-22.3z"/>
  <path fill="#D8D8D8" d="M324.54 123.395h14.7v1.8h-14.7zm17.3 0h14.7v1.8h-14.7zm17.5 0h14.7v1.8h-14.7z"/>
  <g fill="#B6B6B6">
    <path d="M299.154 169.184h6.7v1.9h-6.7z"/>
    <path d="M303.554 166.584v7.1h-2v-7.1"/>
  </g>
  <path fill="#B6B6B6" d="M291.9 181.4h61.4v4.4h-61.4z"/>
  <path fill="#F6F6F6" d="M261 225.6h121.9v73.1H261z"/>
  <path fill="none" stroke="#979797" stroke-width=".81" d="M261.4 226h121.1v72.3H261.4z"/>
  <path fill="#D8D8D8" d="M285.845 238.392h72.4v47.8h-72.4z"/>
  <path fill="#4A4A4A" d="M311.845 271.592h20.3v6.1h-20.3z"/>
  <path fill="#FFF" d="M300.945 253.792h42.3v6.1h-42.3zm0 8.7h42.3v6.1h-42.3z"/>
  <path fill="#909090" d="M261 215h121.9v10.8H261z"/>
  <path fill="#B6B6B6" d="M269.5 217.6h22.4v5.5h-22.4z"/>
  <path fill="#D8D8D8" d="M324.713 219.405h14.8v1.8h-14.8zm17.4 0h14.8v1.8h-14.8zm17.5 0h14.8v1.8h-14.8z"/>
  <path fill="#4A4A4A" d="M305.316 244.53c.8 0 1.5-.7 1.5-1.5s-.7-1.5-1.5-1.5-1.5.7-1.5 1.5.6 1.5 1.5 1.5zm0 .3c1.3 0 2.3 1 2.3 2.3v1.9h-4.6v-1.9c0-1.2 1-2.3 2.3-2.3z"/>
  <path fill="#B6B6B6" d="M322.1 238.4h36.1v5.9h-36.1z"/>
  <path fill="#F6F6F6" d="M421 225.6h122.3v72.9H421z"/>
  <path fill="none" stroke="#979797" stroke-width=".81" d="M421.4 226h121.5v72.1H421.4z"/>
  <path fill="#B6B6B6" d="M445.912 238.337h72.6v47.7h-72.6z"/>
  <path fill="#4A4A4A" d="M472.012 271.437h20.4v6.1h-20.4z"/>
  <path fill="#FFF" d="M461.012 253.737h42.4v6.1h-42.4zm0 8.6h42.4v6.1h-42.4z"/>
  <path fill="#909090" d="M421 215h122.3v10.8H421z"/>
  <path fill="#B6B6B6" d="M429.6 217.6h22.5v5.5h-22.5z"/>
  <path fill="#D8D8D8" d="M484.884 219.395h14.8v1.8h-14.8zm17.4 0h14.8v1.8h-14.8zm17.6 0h14.8v1.8h-14.8z"/>
  <g fill="#4A4A4A">
    <path d="M496.805 243.665h6.7v1.9h-6.7z"/>
    <path d="M501.205 241.065v7.1h-2v-7.1"/>
  </g>
  <path fill="#D8D8D8" d="M445.9 238.3h36.2v5.9h-36.2z"/>
  <path fill="#F6F6F6" d="M261 324.6h121.2v73.1H261z"/>
  <path fill="none" stroke="#979797" stroke-width=".81" d="M261.4 325h120.4v72.3H261.4z"/>
  <path fill="#D8D8D8" d="M277.4 331.8h88.7v58.9h-88.7z"/>
  <path fill="#909090" d="M261 314h121.2v10.8H261z"/>
  <path fill="#B6B6B6" d="M269.5 316.6h22.3v5.5h-22.3zm20 23.4h26.4v42.4h-26.4z"/>
  <path fill="#4A4A4A" d="M302.233 353.935c1.3 0 2.4-1.1 2.4-2.4s-1.1-2.5-2.4-2.5-2.4 1.1-2.4 2.5 1 2.4 2.4 2.4zm-.1.4c2 0 3.6 1.6 3.6 3.6v3.1h-7.2v-3c0-2 1.6-3.7 3.6-3.7z"/>
  <path fill="#B6B6B6" d="M328.895 339.974h26.4v42.4h-26.4z"/>
  <path fill="#4A4A4A" d="M331.495 373.274h20.2v6.1h-20.2z"/>
  <g fill="#4A4A4A">
    <path d="M338.746 351.384h6.7v1.9h-6.7z"/>
    <path d="M343.146 348.784v7.1h-2v-7.1"/>
  </g>
  <path fill="#4A4A4A" d="M292 373.2h20.2v6.1H292z"/>
  <path fill="#D8D8D8" d="M324.348 318.405h14.7v1.8h-14.7zm17.3 0h14.7v1.8h-14.7zm17.4 0h14.7v1.8h-14.7z"/>
  <path fill="#CB3232" d="M627.8 212.2l-10.8-3-.4 1.6 5.1 1.4h-30.3V66.6H590v-1.4H391.5V63h-1.6v6h1.6v-2.2h198.2v93.4H393.4V158h-1.6v6h1.6v-2.2h196.3v94.4h-44.4V254h-1.6v6h1.6v-2.2h44.4V355h1.6V213.8h30.3l-5.1 1.4.4 1.6 10.8-3c.4-.1.6-.4.6-.8s-.2-.7-.5-.8zm-207.6 44l-10.8-3-.4 1.6 5.1 1.4H393l5.1-1.4-.4-1.6-10.8 3c-.4.1-.6.4-.6.8s.2.7.6.8l10.8 3 .4-1.6-5.1-1.4h21.1l-5.1 1.4.4 1.6 10.8-3c.4-.1.6-.4.6-.8s-.2-.7-.6-.8z"/>
  <path fill="#CB3232" d="M243 260.8l10.8-3c.4-.1.6-.4.6-.8s-.2-.7-.6-.8l-10.8-3-.4 1.6 5.1 1.4h-31.3v-42.4h.4v-1.6h-.4v-50.4h31.3l-5.1 1.4.4 1.6 10.8-3c.4-.1.6-.4.6-.8s-.2-.7-.6-.8l-10.8-3-.4 1.6 5.1 1.4h-31.3V66.8h30.3l-5.1 1.4.4 1.6 10.8-3c.4-.1.6-.4.6-.8s-.2-.7-.6-.8l-10.8-3-.4 1.6 5.1 1.4H215v1.4h-.3v145.6h-66.9V210h-1.6v2.2h-.2v1.6h.2v2.2h1.6v-2.2h66.9V355h1.6v-.2h31.3l-5.1 1.4.4 1.6 10.8-3c.4-.1.6-.4.6-.8s-.2-.7-.6-.8l-10.8-3-.4 1.6 5.1 1.4h-31.3v-95.4h31.3l-5.1 1.4.5 1.6zm147.1 92.4h199.8v1.6H390.1z"/>
  <path fill="#CB3232" d="M389.2 351h1.6v6h-1.6z"/>
  <g transform="translate(635 191)">
    <path fill="#D8D8D8" d="M0-3h84.6v55.7H0z"/>
    <path fill="none" stroke="#848484" stroke-width=".81" d="M.4-2.6h83.8v54.9H.4z"/>
    <path fill="#4A4A4A" d="M.1-3h84.6v5.7H.1zm29.1 36.6h26.1v5.7H29.2z"/>
    <path fill="#B6B6B6" d="M17 22h50.7v5.7H17z"/>
    <text fill="#FFF" transform="translate(80.84 -.85)" font-family="'OpenSans'" font-size=".597">
      x
    </text>
    <ellipse cx="81.3" cy="-.3" fill="none" stroke="#FFF" stroke-width=".81" rx="1.4" ry="1.4"/>
    <path fill="#4A4A4A" d="M.1-3h84.6v5.7H.1z"/>
  </g>
  <path fill="none" stroke="#FFF" stroke-width="1.62" d="M675.5 205.2l2.2 2.6 4-5.3"/>
</svg>