<svg viewBox="0 0 241 56" xmlns="http://www.w3.org/2000/svg">
  <path d="M84.1 27.2c-2.6 0-5 .7-7.1 1.9-5.7-5.9-11.6-10-16.7-12.8.3-1.1.4-2.2.4-3.3 0-7.2-5.8-13-13-13s-13 5.8-13 12.9c0 .8.1 1.6.2 2.3-7.6 3.4-14.5 7.9-19.3 11.4-1.6-1.3-3.6-2.1-5.8-2.1-5 0-9.1 4.1-9.1 9.1s4.1 9.1 9.1 9.1 9.1-4.1 9.1-9.1c0-1.4-.3-2.7-.9-3.9 4.6-3.3 11.1-7.5 18.2-10.8 2.2 4.1 6.5 6.9 11.5 6.9 4.6 0 8.6-2.4 10.9-6 4.6 2.6 10 6.4 15.1 11.6-2.5 2.6-4 6.1-4 9.9 0 7.9 6.4 14.3 14.3 14.3s14.3-6.4 14.3-14.3S92 27.2 84.1 27.2zm51 11.4c-1.2 1.1-2.6 1.9-4.1 2.4-1.5.6-3.1.9-4.7.9-1.2 0-2.4-.2-3.6-.5-1.2-.3-2.3-.8-3.3-1.4-1-.6-1.9-1.3-2.8-2.2-.8-.8-1.5-1.8-2.2-2.8-.6-1-1.1-2.1-1.4-3.3-.3-1.2-.5-2.4-.5-3.6 0-1.2.2-2.4.5-3.6.3-1.2.8-2.3 1.4-3.3.6-1 1.3-1.9 2.2-2.8.8-.8 1.8-1.5 2.8-2.2 1-.6 2.1-1.1 3.3-1.4 1.2-.3 2.4-.5 3.6-.5 1.6 0 3.2.3 4.7.8 1.5.6 2.9 1.4 4.1 2.4l-2.8 4.6c-.8-.8-1.7-1.5-2.7-1.9-1.1-.4-2.2-.7-3.3-.7-1.2 0-2.3.2-3.3.7-1 .4-1.9 1-2.7 1.8-.8.8-1.4 1.6-1.8 2.7-.4 1.1-.7 2.1-.7 3.3 0 1.2.2 2.2.7 3.3.4 1 1.1 1.9 1.8 2.7.8.8 1.6 1.4 2.7 1.8 1.1.4 2.1.7 3.3.7 1.2 0 2.3-.2 3.3-.7 1.1-.4 2-1.1 2.7-1.9l2.8 4.7zm20.9-7.3c0 1.5-.3 2.8-.8 4.1-.5 1.3-1.2 2.4-2.2 3.3-.9.9-2 1.7-3.2 2.2-1.2.5-2.5.8-3.9.8s-2.7-.3-3.9-.8c-1.2-.5-2.3-1.3-3.2-2.2-.9-.9-1.6-2-2.2-3.3-.5-1.3-.8-2.6-.8-4.1 0-1.5.3-2.9.8-4.2.5-1.3 1.2-2.4 2.2-3.3 1-.9 2-1.6 3.2-2.2 1.2-.5 2.5-.8 3.9-.8s2.7.2 3.9.7c1.2.5 2.3 1.2 3.2 2.1.9.9 1.6 2 2.2 3.3.5 1.4.8 2.8.8 4.4zm-5.1 0c0-.8-.1-1.5-.4-2.2-.3-.7-.6-1.2-1.1-1.7-.5-.5-1-.8-1.6-1.1-.6-.2-1.2-.4-1.9-.4s-1.3.1-1.9.4c-.6.2-1.1.6-1.6 1.1-.4.5-.8 1-1.1 1.7-.3.7-.4 1.4-.4 2.2 0 .8.1 1.5.4 2.1.3.7.6 1.2 1.1 1.7.4.5 1 .9 1.6 1.1.6.3 1.2.4 1.9.4s1.3-.1 1.9-.4c.6-.3 1.1-.6 1.6-1.1.5-.5.8-1 1.1-1.7.3-.6.4-1.3.4-2.1zm12.9 10h-5.1V13.8h5.1v27.5zm8.9 0h-5.1V13.8h5.1v27.5zm22.9 0h-5.1v-1.1s-.7.4-1.3.7c-.6.3-1.2.5-1.8.7-.6.2-1.2.2-1.9.2-1.4 0-2.7-.2-3.9-.7-1.2-.5-2.3-1.2-3.2-2-.9-.9-1.6-2-2.2-3.3-.5-1.3-.8-2.7-.8-4.4 0-1.5.3-2.9.8-4.2.5-1.3 1.2-2.4 2.2-3.3.9-.9 2-1.6 3.2-2.2 1.2-.5 2.5-.8 3.9-.8.6 0 1.3.1 1.9.2.6.2 1.2.4 1.8.7.6.3 1.3.7 1.3.7v-1.4h5.1v20.2zm-5-9.8c0-.7-.1-1.3-.4-2-.3-.6-.6-1.2-1.1-1.7-.5-.5-1-.9-1.6-1.2-.6-.3-1.2-.4-1.9-.4s-1.3.1-1.9.3c-.6.2-1.1.6-1.6 1s-.8 1-1.1 1.7c-.3.7-.4 1.4-.4 2.3 0 .9.1 1.6.4 2.3.3.7.6 1.2 1.1 1.7.4.5 1 .8 1.6 1 .6.2 1.2.3 1.9.3s1.3-.1 1.9-.4c.6-.3 1.1-.7 1.6-1.2s.8-1.1 1.1-1.7c.2-.6.4-1.3.4-2zm28.6-.2c0 1.5-.3 3-.8 4.2-.5 1.3-1.2 2.4-2.2 3.3-1 .9-2 1.6-3.2 2.1-1.2.5-2.5.8-3.9.8s-2.7-.3-3.9-.8c-1.2-.5-2.3-1.2-3.2-2.2-.9-.9-1.6-2-2.2-3.3-.5-1.3-.8-2.7-.8-4.2V13.8h5V23c.3-.3.6-.7 1-.9.4-.3.8-.5 1.2-.7.4-.2.9-.3 1.4-.4.5-.1 1-.1 1.4-.1 1.4 0 2.7.3 3.9.8 1.2.5 2.3 1.2 3.2 2.2.9.9 1.6 2 2.2 3.3.6 1.2.9 2.6.9 4.1zm-5.1 0c0-.8-.1-1.5-.4-2.1-.3-.7-.6-1.2-1.1-1.7-.5-.5-1-.9-1.6-1.1-.6-.3-1.2-.4-1.9-.4s-1.3.1-1.9.4c-.6.3-1.1.7-1.6 1.2s-.8 1.1-1.1 1.7c-.3.6-.4 1.3-.4 2 0 .8.1 1.5.4 2.1.3.7.6 1.2 1.1 1.7.5.5 1 .9 1.6 1.1.6.3 1.2.4 1.9.4s1.3-.1 1.9-.4c.6-.3 1.1-.7 1.6-1.1.5-.5.8-1.1 1.1-1.7.3-.6.4-1.3.4-2.1zm26.9 0c0 1.5-.3 2.8-.8 4.1-.5 1.3-1.2 2.4-2.2 3.3-.9.9-2 1.7-3.2 2.2-1.2.5-2.5.8-3.9.8s-2.7-.3-3.9-.8c-1.2-.5-2.3-1.3-3.2-2.2-.9-.9-1.6-2-2.2-3.3-.5-1.3-.8-2.6-.8-4.1 0-1.5.3-2.9.8-4.2.5-1.3 1.2-2.4 2.2-3.3.9-.9 2-1.6 3.2-2.2 1.2-.5 2.5-.8 3.9-.8s2.7.2 3.9.7c1.2.5 2.3 1.2 3.2 2.1.9.9 1.6 2 2.2 3.3.6 1.4.8 2.8.8 4.4zm-5 0c0-.8-.1-1.5-.4-2.2-.3-.7-.6-1.2-1.1-1.7-.5-.5-1-.8-1.6-1.1-.6-.2-1.2-.4-1.9-.4s-1.3.1-1.9.4c-.6.2-1.1.6-1.6 1.1-.4.5-.8 1-1.1 1.7-.3.7-.4 1.4-.4 2.2 0 .8.1 1.5.4 2.1.3.7.6 1.2 1.1 1.7.4.5 1 .9 1.6 1.1.6.3 1.2.4 1.9.4s1.3-.1 1.9-.4c.6-.3 1.1-.6 1.6-1.1.5-.5.8-1 1.1-1.7.2-.6.4-1.3.4-2.1z" fill="#FFF"/>
</svg>