<svg viewBox="0 0 239 51" xmlns="http://www.w3.org/2000/svg">
  <path d="M36.4 0h-.2C28.5 0 23.9 6.4 22 9.2c-2-1.5-5.4-4-9.3-4C5.9 5.2.1 10.5 0 16.8c0 5.6 3.2 11.1 5.1 13.9.5.7 4.8 6.9 7.6 6.9.5 0 2 0 5.4-5 1.3-1.9 3.6-5.6 4-9.2.6-4.3-1.5-7.4-5.7-8.6h-.3c-.8-1.2-2.1-2.1-3.7-2.1-2.4 0-4.3 1.9-4.3 4.4 0 2.4 1.9 4.3 4.4 4.3 1.2 0 2.3-.4 3-1.3.4-.4.7-.8.9-1.2 1.4.7 1.8 1.6 1.9 2.4.6 3.9-3.9 10.3-5.8 12.2-2.3-1.9-8.7-9.7-8.7-16.6.1-4.3 4.1-7.8 8.9-7.8 2.8 0 5.7 2.3 7.3 3.4 1 .8 1.5 1.2 2.3 1.2 1.2 0 1.8-.8 2.7-2.2 1.7-2.5 5.4-7.7 11.2-7.7h.1c7.7 0 12.8 4.5 12.8 11.4 0 11.4-21.8 28.9-26.6 31.6-1.2-1.2-3.9-4.6-5.2-6.4-.6-.8-1.8-1-2.7-.3-.8.6-1 1.8-.3 2.7 5.2 6.8 6.5 8.1 8.1 8.1 2.2 0 11.1-7.2 16.3-12.2C45.2 32.4 53 23.3 53 15.3 52.9 7.6 47.8 0 36.4 0zM13.6 18.1c-.3.3-.6.4-1 .4-.8 0-1.5-.6-1.5-1.5 0-.8.6-1.5 1.5-1.5.8 0 1.5.6 1.5 1.5-.1.5-.3.8-.5 1.1zm78.1-8h2.6c.4 0 .7.3.7.7v27.1c0 .4-.3.7-.7.7h-2.6c-.4 0-.7-.3-.7-.7V10.8c0-.4.3-.7.7-.7zm13.6 28.4h-2.6c-.4 0-.7-.3-.7-.7V16.2c0-.4.3-.7.7-.7h2.6c.4 0 .7.3.7.7v21.7c0 .3-.3.6-.7.6zm38.2 0h-2.6c-.4 0-.7-.3-.7-.7V16.2c0-.4.3-.7.7-.7h2.6c.4 0 .7.3.7.7v21.7c0 .3-.2.6-.7.6zm26-21.7l-11.1 9.3 12.2 11.2c.5.4.2 1.2-.5 1.2h-3.5c-.4 0-.8-.2-1.1-.4L155 28.4v9.5c0 .4-.3.7-.7.7h-2.6c-.4 0-.7-.3-.7-.7v-27c0-.4.3-.7.7-.7h2.6c.4 0 .7.3.7.7v13l9.5-7.8c.3-.3.6-.4 1-.4h3.6c.6-.1.9.7.4 1.1zm24.7 0L183 26.1l12.2 11.2c.5.4.2 1.2-.5 1.2h-3.5c-.4 0-.8-.2-1.1-.4l-10.5-9.7v9.5c0 .4-.3.7-.7.7h-2.6c-.4 0-.7-.3-.7-.7v-27c0-.4.3-.7.7-.7h2.6c.4 0 .7.3.7.7v13l9.5-7.8c.3-.3.6-.4 1-.4h3.6c.6-.1.9.7.5 1.1zM86 11.4L71 24.2l15 13.1c.5.4.2 1.2-.4 1.2H82c-.4 0-.8-.1-1-.4L69.2 27.7v10.1c0 .4-.3.7-.7.7h-2.6c-.4 0-.7-.3-.7-.7v-27c0-.4.3-.7.7-.7h2.6c.4 0 .7.3.7.7v9.7l11.7-10c.3-.3.7-.4 1-.4h3.7c.6.1.9.9.4 1.3zm37.1 3.7c-5.3 0-9.9 4-10.1 9-.1 3.4 0 13.6 0 13.6 0 .4.3.6.8.6h2.4c.4 0 .8-.2.8-.6 0 0-.3-9.8 0-13.7.2-2.9 3-5.1 6.1-5.1 3.1 0 5.9 2.3 6.1 5.2.2 3.4 0 13.7 0 13.7 0 .4.3.7.8.7h2.4c.4 0 .8-.2.8-.6 0 0 .1-10.3 0-13.7-.2-5.1-4.8-9.1-10.1-9.1zM239 16.2c0-.3-.3-.6-.6-.6-1 0-2.8-.1-4-.1-5.3 0-9.9 3.9-10.1 8.9-.1 3.4 0 13.5 0 13.5 0 .4.4.7.8.7h2.4c.4 0 .8-.3.8-.7 0 0-.3-9.7 0-13.5.2-2.9 3-5.1 6.1-5.1h4c.3 0 .6-.3.6-.6v-2.5zm-30.6-.7c-6 0-10.6 5.2-10.6 11.6 0 6.4 4.6 11.6 10.6 11.6s9.7-4.7 9.7-4.7c.3-.2.3-.5.1-.8l-1.9-1.8c-.2-.3-.6-.3-.8-.1 0 0-3 3.7-7.2 3.7-3.4 0-6-2.6-6.7-6.2h16.6c.3 0 .6-.3.6-.6 0-.4.1-.7.1-1.1 0-6.5-4.6-11.6-10.5-11.6zm-6.7 9.6c.8-3.3 3.3-6 6.7-6 3.4 0 5.9 2.7 6.7 6h-13.4z" fill="#EDEBEB"/>
</svg>