<svg xmlns="http://www.w3.org/2000/svg" viewBox="256 0 88 80">
  <path fill="#444" d="M282.5 3.9c-.6-.6-1.5-1-2.4-1h-.5c-.8 0-1.6.4-2.2 1l-13.7 13.7c-1.2 1.2-1.2 3.1 0 4.3L285 43.2l18.4-18.4-20.9-20.9zm-13.9 15.8l11.3-11.3 2.1 2.1-2.9 2.9 2.1 2.1 2.9-2.9 7.2 7.2-2.9 2.9 2.1 2.1 2.9-2.9 2.9 2.9L285 36.2l-16.4-16.5zm67.7 37.8l-21-21.2-16.9 17-1.6 1.5 1.5 1.7L317.8 76c.3.3.8.8 1.5 1 .3.1.6.1.9.1.8 0 1.5-.3 2.1-.9l13.9-13.9c.6-.6 1-1.4 1-2.3 0-1-.3-1.9-.9-2.5zm-16.1 13.8l-16.4-16.4 11.4-11.5 2.8 2.9-3 3 2.1 2.1 3-3 7.1 7.2-3 3 2.1 2.1 3-3 2.1 2.1-11.2 11.5z"/>
  <path fill="#444" d="M331.7 20.6c-.6-2.4-2.3-4.8-4.9-7.5-3.5-3.5-6.8-5.3-9.9-5.3-2.4 0-4.5 1-6.5 2.9l-38 38c-.5.5-.9 1.2-1 2L268 68v.3c-.1.9.3 1.8.9 2.5s1.5 1.1 2.5 1.1l17.9-3.6c.7-.1 1.4-.4 2-1l38-38c3.1-3.1 3-6.5 2.4-8.7zm-24 0l2 2-30.1 30.1-2-2 30.1-30.1zm4.1 4.1l3.5 3.5-30.1 30.1-3.5-3.5 30.1-30.1zm-35 41.1l-2.7-2.7 2.1-10.2L287 63.7l-10.2 2.1zm12.4-3.5l-1.9-1.9 30.1-30.1 1.9 1.9-30.1 30.1zm36.4-36.4l-4.2 4.2-11.6-11.6 4.2-4.2c1-1 2-1.5 3-1.5 1.7 0 3.8 1.3 6.3 3.8 2 2 3.3 3.8 3.7 5.3.2 1 .3 2.3-1.4 4z"/>
</svg>