<svg xmlns="http://www.w3.org/2000/svg" viewBox="0 0 89.9 85">
  <path fill="none" d="M34.7 45.5L53 31.1 34.6 45.5c-.6.5-1.7.8-2.6.8.9.1 2.1-.2 2.7-.8z"/>
  <path fill="#444" d="M80.8 26.9c-1-1-2.3-1.5-3.7-1.5-1.2 0-2.1.4-3 1.1L58.5 39.2v-8.7c0-1.4-.8-2.6-1.7-3.6-1-1-2.3-1.5-3.7-1.5-1.2 0-2.1.4-3 1.1L34.5 39.2v-28c0-1.4-.8-2.6-1.8-3.6s-2.5-1.5-3.9-1.5H14.3c-1.4 0-2.5.5-3.4 1.5-1 1-1.3 2.3-1.3 3.6V74c0 1.4.4 2.6 1.3 3.6 1 1 2.1 1.5 3.5 1.5H77c1.4 0 2.8-.5 3.8-1.5s1.7-2.2 1.7-3.6V30.5c0-1.4-.7-2.6-1.7-3.6zM77.5 74h-62V11h13v31.6c0 2 1.7 3.7 3.8 3.7.8 0 2-.3 2.7-.8L53.5 31v11.6c0 2.1 1.2 3.7 3.3 3.7.8 0 1.8-.3 2.5-.8L77.5 31v43z"/>
  <path fill="#444" d="M32 46.4c-2 0-4-1.7-4-3.7 0 2 1.9 3.7 4 3.7z"/>
</svg>