<svg xmlns="http://www.w3.org/2000/svg" viewBox="0 0 91 85">
  <path fill="#444" d="M56.4 42.7c0 2.4-.8 4.4-2.3 6.1-1.5 1.7-3.5 2.8-6 3.2v4c0 .2-.1.4-.2.5-.1.1-.3.2-.5.2h-3.1c-.2 0-.4-.1-.5-.2-.1-.1-.2-.3-.2-.5v-4c-1-.1-2-.4-2.9-.7-.9-.3-1.7-.7-2.3-1-.6-.3-1.2-.7-1.7-1.1-.5-.4-.9-.7-1.1-.9l-.4-.4c-.3-.3-.3-.6 0-.9l2.4-3.1c.1-.2.3-.2.5-.3.2 0 .4 0 .6.2 1.7 1.5 3.6 2.5 5.6 2.9.6.1 1.1.2 1.7.2 1.2 0 2.3-.3 3.3-1 .9-.7 1.4-1.6 1.4-2.8 0-.4-.1-.8-.3-1.2-.2-.4-.5-.7-.8-1-.3-.3-.7-.6-1.4-.9-.6-.3-1.1-.6-1.5-.7-.4-.2-1-.4-1.9-.8-.6-.2-1.1-.4-1.4-.6-.3-.1-.8-.3-1.4-.6-.6-.3-1.1-.5-1.4-.7-.4-.2-.8-.5-1.3-.8-.5-.3-.9-.7-1.2-1s-.7-.7-1-1.1c-.4-.4-.6-.9-.8-1.3-.2-.5-.4-1-.5-1.5-.1-.6-.2-1.2-.2-1.8 0-2.1.8-4 2.3-5.6 1.5-1.6 3.5-2.6 5.9-3.1V16c0-.2.1-.4.2-.5.1-.1.3-.2.5-.2h3.1c.2 0 .4.1.5.2.1.1.2.3.2.5v4.1c.9.1 1.7.3 2.6.5.8.3 1.5.5 2 .8.5.3 1 .5 1.5.9.5.3.8.5.9.7.1.1.3.2.3.3.3.3.3.6.1.9l-1.9 3.4c-.1.2-.3.4-.5.4s-.4 0-.6-.2c0 0-.2-.1-.3-.3-.2-.1-.5-.3-.9-.6s-.9-.5-1.4-.7c-.5-.2-1.1-.4-1.7-.6-.7-.2-1.3-.3-2-.3-1.5 0-2.7.3-3.6 1-.9.7-1.4 1.5-1.4 2.6 0 .4.1.8.2 1.1.1.3.4.7.7 1 .3.3.6.6.9.8.3.2.7.4 1.3.7.6.3 1 .5 1.4.6.4.1.9.4 1.6.6.8.3 1.4.6 1.9.7.4.2 1 .4 1.8.8.7.4 1.3.7 1.7 1 .4.3.9.7 1.4 1.2.5.5.9 1 1.2 1.5.3.5.5 1.1.7 1.8.1.5.2 1.2.2 2z"/>
  <path fill="#444" d="M13.6 80.3c-2.4 0-4-.7-4.7-2.2-.4-.9-.6-2.5 1-4.4 4.5-5.3 5.7-9.8 6.4-12.5C6.7 55.1 1.2 46.3 1.2 37c0-17.8 19.9-32.2 44.4-32.2S90 19.2 90 37c0 17.8-19.9 32.2-44.4 32.2-.9 0-3.6.1-6.1.2-5.2 6-19.5 10.9-25.9 10.9zm32-70.5C23.9 9.8 6.2 22 6.2 37c0 7.8 4.9 15.3 13.4 20.5 1.4.9 2.1 2.5 1.7 4.1l-.1.4c-.6 2.5-1.8 7.5-6.2 13.3 6-.6 17.3-4.9 20.9-9.2.8-1 1.7-1.5 2.8-1.5 1.6-.1 5.6-.3 6.9-.3C67.4 64.3 85 52 85 37S67.4 9.8 45.6 9.8z"/>
</svg>