<svg xmlns="http://www.w3.org/2000/svg" viewBox="254.9 0 98.3 80">
  <path fill="#444" d="M342.1 17.9c-.2-1.3-1-2.3-2.2-2.7l-1.3-.5c-1.8-.7-3.7-1-5.7-1-3.5 0-6.9 1.1-9.7 3.1l-36.6 26.1c-1.3-.4-2.8-.7-4.3-.7-3.4 0-6.8 1.1-9.7 3.2-3.2 2.3-5.5 5.5-6.5 9-1 3.7-.5 7.4 1.6 10.3 2.2 3.1 5.9 4.9 10.1 4.9 3.4 0 6.8-1.1 9.7-3.2 3.2-2.3 5.5-5.5 6.5-9 .3-1.1.5-2.3.5-3.4l46.2-32.9c1.1-.7 1.6-1.9 1.4-3.2zm-54 37.9c-.6 2.1-2.1 4.1-4.1 5.6-1.9 1.3-4 2.1-6.1 2.1-2.2 0-4-.8-5-2.3-1-1.3-1.2-3.1-.7-5 .6-2.1 2.1-4.1 4.1-5.6 1.9-1.3 4-2.1 6.1-2.1 2.2 0 4 .8 5 2.3 1 1.3 1.2 3.1.7 5zm5.3-7.1c-.3-.5-.6-1.1-.9-1.6-.4-.5-.8-1-1.2-1.4l34.8-24.8c2-1.4 4.4-2.2 6.8-2.2.8 0 1.5.1 2.3.2l-41.8 29.8z"/>
  <path d="M292.5 32.6c.4-.5.7-1 .9-1.6l6.9 4.9 2.9-4.1-8.7-6.2c-.1-4.5-2.6-9.2-7-12.4-2.9-2.1-6.4-3.2-9.7-3.2-4.2 0-7.9 1.8-10.1 4.9-4.1 5.8-1.9 14.4 4.9 19.3 2.9 2.1 6.4 3.2 9.7 3.2 1.5 0 2.9-.2 4.3-.7l6.3 4.5 2.9-4.1-4.5-3.2c.4-.3.8-.7 1.2-1.3zm-16.2-3.4c-4-2.8-5.5-7.7-3.5-10.6 1-1.5 2.8-2.3 5-2.3 2.1 0 4.2.7 6.1 2.1 4 2.8 5.5 7.7 3.5 10.6-1 1.5-2.8 2.3-5 2.3-2.1 0-4.3-.7-6.1-2.1zm64.4 29.4l-29-20.7-2.9 4.1 26.4 18.8c-3.1.6-6.4-.1-9.1-2L303.9 43l-2.9 4.1 22.2 15.8c2.9 2 6.3 3.1 9.7 3.1 1.9 0 3.8-.3 5.7-1l1.3-.5c1.2-.4 2-1.5 2.2-2.7.2-1.2-.3-2.4-1.4-3.2z" fill="#444"/>
</svg>