<svg xmlns="http://www.w3.org/2000/svg" viewBox="0 0 223 223">
  <g fill="#FAF2EF">
    <path d="M186.2 68.9H37.4c-9.6 0-17.4-7.8-17.4-17.4v-2.4c0-9.6 7.8-17.4 17.4-17.4h148.7c9.6 0 17.4 7.8 17.4 17.4v2.4c0 9.6-7.8 17.4-17.3 17.4zM207.8 81H93.4c-4.8 0-8.7 3.9-8.7 8.7v1.2c0 4.8 3.9 8.7 8.7 8.7h114.4c4.8 0 8.7-3.9 8.7-8.7v-1.2c0-4.8-3.9-8.7-8.7-8.7zm-94.7 67.9H35.4c-8.5 0-15.4-7.9-15.4-17.5s6.9-17.5 16.3-17.5H114c7.5 0 14.4 7.9 14.4 17.5.1 9.6-6.9 17.5-15.3 17.5zM16.2 78.3h49.7c4.9 0 8.8 4 8.8 8.8v8.5c0 4.9-4 8.8-8.8 8.8H16.2c-4.9 0-8.8-4-8.8-8.8v-8.5c0-4.8 4-8.8 8.8-8.8zm127.5 31.4H195c4.4 0 8 3.6 8 8v5.6c0 4.4-3.6 8-8 8h-51.3c-4.4 0-8-3.6-8-8v-5.6c0-4.4 3.6-8 8-8zm-35.9 44.4h61.6c5.3 0 9.7 4.3 9.7 9.7v6.7c0 5.3-4.3 9.7-9.7 9.7h-61.6c-5.3 0-9.7-4.3-9.7-9.7v-6.7c.1-5.4 4.4-9.7 9.7-9.7zm2.8-73.1c2.9 0 5.3-2.7 5.3-6s-2.4-6-5.3-6h56c-2.9 0-5.3 2.7-5.3 6s2.4 6 5.3 6h-56z"/>
    <path d="M96.1 99.4c4.6 0 8.3 3.2 8.3 7.2v.1c0 3.9-3.7 7.2-8.3 7.2h24.2c-4.6 0-8.3-3.2-8.3-7.2v-.1c0-3.9 3.7-7.2 8.3-7.2H96.1zm46.3 32c5.7 0 10.5 5.1 10.5 11.3v.1c0 6.2-4.7 11.3-10.5 11.3h30.3c-5.7 0-10.5-5.1-10.5-11.3v-.1c0-6.2 4.7-11.3 10.5-11.3h-30.3z"/>
  </g>
  <path fill="#C45F1A" d="M166.8 33.2c-3.9 0-7-3.1-7-7s3.1-7 7-7 7 3.1 7 7c0 3.8-3.1 7-7 7zm0-11.1c-2.2 0-4 1.8-4 4s1.8 4 4 4 4-1.8 4-4-1.7-4-4-4zM90.6 192.5c-3.9 0-7-3.1-7-7s3.1-7 7-7 7 3.1 7 7-3.1 7-7 7zm0-11c-2.2 0-4 1.8-4 4s1.8 4 4 4 4-1.8 4-4-1.8-4-4-4z"/>
  <circle fill="#99A8BB" cx="77.1" cy="26" r="4.9"/>
  <path fill="#99A8BB" d="M184.2 148.8c-3.5 0-6.3-2.8-6.3-6.3s2.8-6.3 6.3-6.3 6.3 2.8 6.3 6.3-2.8 6.3-6.3 6.3zm0-9.7c-1.9 0-3.4 1.5-3.4 3.4s1.5 3.4 3.4 3.4 3.4-1.5 3.4-3.4-1.5-3.4-3.4-3.4z"/>
  <g fill="#BA6039">
    <circle cx="17.1" cy="79.1" r="4.9"/>
    <circle cx="211.6" cy="99.6" r="4.9"/>
  </g>
  <path fill="#99A8BB" d="M97.3 67.1l11.9-24.2 18.8 38 42 6.1-30.4 29.6 7.2 41.8-37.6-19.7-37.5 19.7 7.2-41.8L48.5 87l42-6.1 3.6-7.4"/>
  <g fill="#3D464D">
    <path d="M71.7 159.9c-.3 0-.6-.1-.9-.3-.5-.3-.7-.9-.6-1.4l7-41L47.5 88c-.4-.4-.5-1-.4-1.5.2-.5.6-.9 1.2-1l41.2-6 2.4-4.9c.4-.7 1.2-1 2-.7.7.4 1 1.2.7 2l-2.8 5.6c-.2.4-.6.7-1.1.8l-39 5.7 28.2 27.5c.3.3.5.8.4 1.3l-6.7 38.9 34.9-18.3c.4-.2.9-.2 1.4 0l2.7 1.4c.7.4 1 1.3.6 2s-1.3 1-2 .6l-2.1-1.1-36.9 19.4c0 .1-.3.2-.5.2zm49.7-13.4c-.2 0-.5-.1-.7-.2l-4.5-2.3c-.7-.4-1-1.3-.6-2s1.3-1 2-.6l4.5 2.3c.7.4 1 1.3.6 2-.3.5-.8.8-1.3.8zm25.4 13.4c-.2 0-.5-.1-.7-.2l-21-11c-.7-.4-1-1.3-.6-2s1.3-1 2-.6l18.4 9.7-6.7-38.9c-.1-.5.1-1 .4-1.3L166.8 88l-39-5.7c-.5-.1-.9-.4-1.1-.8l-17.4-35.3-11.6 23.6c-.4.7-1.2 1-2 .7-.7-.4-1-1.2-.7-2l12.8-26.3c.2-.5.8-.9 1.3-.9.6 0 1.1.4 1.3.9L129 79.5l41.2 6c.6.1 1 .5 1.2 1 .2.5 0 1.1-.4 1.5l-29.8 29.1 7 41c.1.6-.1 1.1-.6 1.4-.2.3-.5.4-.8.4z"/>
    <path d="M150.5 155.2c-.7 0-1.3-.5-1.5-1.2l-5.9-35.5c-.1-.5.1-.9.4-1.3l11-11c.6-.6 1.5-.6 2.1 0 .6.6.6 1.5 0 2.1l-10.5 10.5 5.7 34.8c.1.8-.4 1.6-1.2 1.7.1-.1 0-.1-.1-.1zm8.6-50c-.4 0-.8-.1-1-.4-.6-.6-.6-1.5 0-2.1l9.3-9.3c.6-.6 1.5-.6 2.1 0 .6.6.6 1.5 0 2.1l-9.3 9.3c-.4.3-.7.4-1.1.4zm-13.2-24.6h-.2l-13.3-1.5c-.5-.1-.9-.3-1.1-.7l-9-16.1c-.4-.7-.1-1.6.6-2 .7-.4 1.6-.1 2 .6l8.6 15.4 12.6 1.4c.8.1 1.4.8 1.3 1.6-.1.7-.7 1.3-1.5 1.3zm-25.2-24.3c-.5 0-1-.3-1.3-.8l-5.3-9.5c-.4-.7-.1-1.6.6-2 .7-.4 1.6-.1 2 .6l5.3 9.5c.4.7.1 1.6-.6 2-.2.2-.5.2-.7.2z"/>
  </g>
</svg>