<svg xmlns="http://www.w3.org/2000/svg" viewBox="0 0 223 223">
  <path fill="#FFF" d="M6.1 166.7h210"/>
  <path fill="#103D51" d="M216.1 167.7H6.1c-.8 0-1.5-.7-1.5-1.5s.7-1.5 1.5-1.5h210c.8 0 1.5.7 1.5 1.5s-.6 1.5-1.5 1.5z"/>
  <path fill="#FFF" d="M8.1 171.7h7"/>
  <path fill="#103D51" d="M15.1 172.7h-7c-.8 0-1.5-.7-1.5-1.5s.7-1.5 1.5-1.5h7c.8 0 1.5.7 1.5 1.5s-.6 1.5-1.5 1.5z"/>
  <path fill="#FFF" d="M202.1 171.7h13"/>
  <path fill="#103D51" d="M215.1 172.7h-13c-.8 0-1.5-.7-1.5-1.5s.7-1.5 1.5-1.5h13c.8 0 1.5.7 1.5 1.5s-.6 1.5-1.5 1.5z"/>
  <path fill="#FFF" d="M187.1 171.7h8"/>
  <path fill="#103D51" d="M195.1 172.7h-8c-.8 0-1.5-.7-1.5-1.5s.7-1.5 1.5-1.5h8c.8 0 1.5.7 1.5 1.5s-.6 1.5-1.5 1.5z"/>
  <path fill="#FFF" d="M21.1 171.7h3"/>
  <path fill="#103D51" d="M24.1 172.7h-3c-.8 0-1.5-.7-1.5-1.5s.7-1.5 1.5-1.5h3c.8 0 1.5.7 1.5 1.5s-.6 1.5-1.5 1.5z"/>
  <path fill="#FFF" d="M28.1 171.7h154"/>
  <path fill="#103D51" d="M182.1 172.7h-154c-.8 0-1.5-.7-1.5-1.5s.7-1.5 1.5-1.5h154c.8 0 1.5.7 1.5 1.5s-.6 1.5-1.5 1.5z"/>
  <path fill="#EBECEE" d="M194.3 165.4h-57.8V86.1H185c5.2 0 9.3 4.2 9.3 9.3v70z"/>
  <path fill="#103D51" d="M194.3 166.9h-57.8c-.8 0-1.5-.7-1.5-1.5V86.1c0-.8.7-1.5 1.5-1.5H185c6 0 10.8 4.9 10.8 10.8v70c0 .9-.7 1.5-1.5 1.5zm-56.4-3h54.8V95.4c0-4.3-3.5-7.8-7.8-7.8h-47v76.3z"/>
  <path fill="#EBECEE" d="M28.9 43.4V19.6c0-3.6 2.9-6.6 6.6-6.6h94.8c3.6 0 6.6 2.9 6.6 6.6v145.8h-108V57.8"/>
  <path fill="#103D51" d="M136.8 166.9h-108c-.8 0-1.5-.7-1.5-1.5V57.8c0-.8.7-1.5 1.5-1.5s1.5.7 1.5 1.5v106.1h105V19.6c0-2.8-2.3-5.1-5.1-5.1H35.5c-2.8 0-5.1 2.3-5.1 5.1v23.8c0 .8-.7 1.5-1.5 1.5s-1.5-.7-1.5-1.5V19.6c0-4.5 3.6-8.1 8.1-8.1h94.8c4.5 0 8.1 3.6 8.1 8.1v145.8c-.1.9-.7 1.5-1.6 1.5z"/>
  <path fill="#D3DAE0" d="M28.7 53.4v-5.6"/>
  <path fill="#103D51" d="M28.7 54.9c-.8 0-1.5-.7-1.5-1.5v-5.6c0-.8.7-1.5 1.5-1.5s1.5.7 1.5 1.5v5.6c0 .8-.7 1.5-1.5 1.5z"/>
  <g fill="#BA6039">
    <path d="M79.9 34.5h5.2v28.4h-5.2z"/>
    <path d="M68.2 46.1h28.4v5.2H68.2z"/>
  </g>
  <path fill="#FFF" d="M41.6 100.5h17.9v23.1H41.6z"/>
  <path fill="#103D51" d="M59.5 125.2H41.6c-.8 0-1.5-.7-1.5-1.5v-23.1c0-.8.7-1.5 1.5-1.5h17.9c.8 0 1.5.7 1.5 1.5v23.1c0 .8-.7 1.5-1.5 1.5zm-16.4-3H58V102H43.1v20.2z"/>
  <path fill="#FFF" d="M106.6 100.5h17.9v23.1h-17.9z"/>
  <path fill="#103D51" d="M124.5 125.2h-17.9c-.8 0-1.5-.7-1.5-1.5v-23.1c0-.8.7-1.5 1.5-1.5h17.9c.8 0 1.5.7 1.5 1.5v23.1c0 .8-.6 1.5-1.5 1.5zm-16.4-3H123V102h-14.9v20.2z"/>
  <path fill="#FFF" d="M74.1 100.5H92v23.1H74.1z"/>
  <path fill="#103D51" d="M92 125.2H74.1c-.8 0-1.5-.7-1.5-1.5v-23.1c0-.8.7-1.5 1.5-1.5H92c.8 0 1.5.7 1.5 1.5v23.1c0 .8-.7 1.5-1.5 1.5zm-16.4-3h14.9V102H75.6v20.2z"/>
  <path fill="#FFF" d="M41.6 133.9h17.9V157H41.6z"/>
  <path fill="#103D51" d="M59.5 158.6H41.6c-.8 0-1.5-.7-1.5-1.5V134c0-.8.7-1.5 1.5-1.5h17.9c.8 0 1.5.7 1.5 1.5v23.1c0 .8-.7 1.5-1.5 1.5zm-16.4-3H58v-20.1H43.1v20.1z"/>
  <path fill="#FFF" d="M169.5 140h12.9v17.1h-12.9z"/>
  <path fill="#103D51" d="M182.3 158.6h-12.9c-.8 0-1.5-.7-1.5-1.5V140c0-.8.7-1.5 1.5-1.5h12.9c.8 0 1.5.7 1.5 1.5v17.1c0 .8-.7 1.5-1.5 1.5zm-11.3-3h9.9v-14.1H171v14.1z"/>
  <path fill="#FFF" d="M146.3 140h12.9v17.1h-12.9z"/>
  <path fill="#103D51" d="M159.2 158.6h-12.9c-.8 0-1.5-.7-1.5-1.5V140c0-.8.7-1.5 1.5-1.5h12.9c.8 0 1.5.7 1.5 1.5v17.1c0 .8-.7 1.5-1.5 1.5zm-11.4-3h9.9v-14.1h-9.9v14.1z"/>
  <path fill="#FFF" d="M169.5 112.1h12.9v17.1h-12.9z"/>
  <path fill="#103D51" d="M182.3 130.7h-12.9c-.8 0-1.5-.7-1.5-1.5v-17.1c0-.8.7-1.5 1.5-1.5h12.9c.8 0 1.5.7 1.5 1.5v17.1c0 .8-.7 1.5-1.5 1.5zm-11.3-3h9.9v-14.1H171v14.1z"/>
  <path fill="#FFF" d="M146.3 112.1h12.9v17.1h-12.9z"/>
  <path fill="#103D51" d="M159.2 130.7h-12.9c-.8 0-1.5-.7-1.5-1.5v-17.1c0-.8.7-1.5 1.5-1.5h12.9c.8 0 1.5.7 1.5 1.5v17.1c0 .8-.7 1.5-1.5 1.5zm-11.4-3h9.9v-14.1h-9.9v14.1z"/>
  <path fill="#FFF" d="M106.6 133.9h17.9V157h-17.9z"/>
  <path fill="#103D51" d="M124.5 158.6h-17.9c-.8 0-1.5-.7-1.5-1.5V134c0-.8.7-1.5 1.5-1.5h17.9c.8 0 1.5.7 1.5 1.5v23.1c0 .8-.6 1.5-1.5 1.5zm-16.4-3H123v-20.1h-14.9v20.1z"/>
  <path fill="#FFF" d="M74.1 133.9H92V157H74.1z"/>
  <path fill="#103D51" d="M92 158.6H74.1c-.8 0-1.5-.7-1.5-1.5V134c0-.8.7-1.5 1.5-1.5H92c.8 0 1.5.7 1.5 1.5v23.1c0 .8-.7 1.5-1.5 1.5zm-16.4-3h14.9v-20.1H75.6v20.1z"/>
  <path fill="#3D464D" d="M78.2 176.3l3.7 7.5 8.2 1.2-5.9 5.7 1.4 8.2-7.4-3.8-7.3 3.8 1.4-8.2-5.9-5.7 8.2-1.2m34.9-7.5l3.6 7.5 8.2 1.2-5.9 5.7 1.4 8.2-7.3-3.8-7.3 3.8 1.4-8.2-6-5.7 8.2-1.2"/>
  <path fill="#CCD4DD" d="M139.7 176.3l3.7 7.5 8.2 1.2-6 5.7 1.4 8.2-7.3-3.8-7.3 3.8 1.4-8.2-6-5.7 8.2-1.2"/>
</svg>