<svg xmlns="http://www.w3.org/2000/svg" viewBox="0 0 223 223">
  <path fill="#FFF" d="M108.6 57.6h5.6v114.5h-5.6z"/>
  <path fill="#FFF" d="M114.2 152.7v19.5h-5.6V59.9h5.6v87.9"/>
  <path fill="#103D51" d="M114.2 173.7h-5.6c-.8 0-1.5-.7-1.5-1.5V59.9c0-.8.7-1.5 1.5-1.5h5.6c.8 0 1.5.7 1.5 1.5v87.9c0 .8-.7 1.5-1.5 1.5s-1.5-.7-1.5-1.5V61.4h-2.6v109.3h2.6v-18c0-.8.7-1.5 1.5-1.5s1.5.7 1.5 1.5v19.5c0 .8-.7 1.5-1.5 1.5z"/>
  <path fill="#FFF" d="M74.6 54.6l-15.9-3.5c-1.5-.3-2.5-1.8-2.1-3.3.3-1.5 1.8-2.5 3.3-2.1l104.2 23c1.5.3 2.5 1.8 2.1 3.3-.3 1.5-1.8 2.5-3.3 2.1l-77.3-17"/>
  <path fill="#103D51" d="M163.4 75.7c-.3 0-.6 0-.9-.1L85.3 58.5c-.8-.2-1.3-1-1.1-1.8.2-.8 1-1.3 1.8-1.1l77.2 17.1c.3.1.7 0 1-.2.3-.2.5-.5.6-.8.1-.3 0-.7-.2-1-.2-.3-.5-.5-.8-.6l-104.2-23c-.7-.2-1.4.3-1.6 1-.2.7.3 1.4 1 1.6l15.9 3.5c.8.2 1.3 1 1.1 1.8-.2.8-1 1.3-1.8 1.1l-15.9-3.5c-2.3-.5-3.8-2.8-3.3-5.1s2.8-3.8 5.1-3.3l104.2 23c1.1.2 2.1.9 2.7 1.9s.8 2.1.6 3.2c-.2 1.1-.9 2.1-1.9 2.7-.6.5-1.4.7-2.3.7z"/>
  <path fill="#EBECEE" d="M92.5 181.3h45.4c.5 0 1 .4 1 1v7.3c0 .5-.4 1-1 1H83.5c-.5 0-1-.4-1-1v-7.3c0-.5.4-1 1-1h4.1"/>
  <path fill="#103D51" d="M137.9 192H83.5c-1.4 0-2.5-1.1-2.5-2.5v-7.3c0-1.4 1.1-2.5 2.5-2.5h4.1c.8 0 1.5.7 1.5 1.5s-.7 1.5-1.5 1.5H84v6.2h53.3v-6.2H92.5c-.8 0-1.5-.7-1.5-1.5s.7-1.5 1.5-1.5h45.4c1.4 0 2.5 1.1 2.5 2.5v7.3c0 1.4-1.1 2.5-2.5 2.5z"/>
  <path fill="#EBECEE" d="M105.8 172.2h19.5c.5 0 1 .4 1 1v7.3c0 .5-.4 1-1 1H96.1c-.5 0-1-.4-1-1v-7.3c0-.5.4-1 1-1h4.6"/>
  <path fill="#103D51" d="M125.4 182.9H96.1c-1.4 0-2.5-1.1-2.5-2.5v-7.3c0-1.4 1.1-2.5 2.5-2.5h4.6c.8 0 1.5.7 1.5 1.5s-.7 1.5-1.5 1.5h-4.1v6.2h28.2v-6.2h-19c-.8 0-1.5-.7-1.5-1.5s.7-1.5 1.5-1.5h19.5c1.4 0 2.5 1.1 2.5 2.5v7.3c0 1.4-1.1 2.5-2.4 2.5zm-37-74.6H39.7c-.5 0-1-.3-1.3-.7-.3-.4-.3-1-.1-1.4l24.4-51.4c.2-.5.8-.9 1.4-.9.6 0 1.1.3 1.4.9L89.7 106c.2.2.3.5.3.8-.1.8-.7 1.5-1.6 1.5zm-46.3-3h44l-22-46.4-22 46.4zm141.6 27H135c-.5 0-1-.3-1.3-.7-.3-.4-.3-1-.1-1.4l23.9-52c.2-.5.8-.9 1.4-.9.6 0 1.1.3 1.4.9L185 130c.2.2.3.5.3.8-.1.8-.7 1.5-1.6 1.5zm-46.3-3h44l-22.4-47-21.6 47z"/>
  <path fill="#99A8BB" d="M64.1 128.8c13.5 0 24.4-7.5 24.4-21.5H39.7c0 14 10.9 21.5 24.4 21.5z"/>
  <path fill="#103D51" d="M64.1 129.8c-15.5 0-25.9-9.3-25.9-23 0-.8.7-1.5 1.5-1.5h48.7c.8 0 1.5.7 1.5 1.5.1 13.8-10.3 23-25.8 23zm-22.8-21.5c.7 11.3 9.5 18.5 22.8 18.5s22.1-7.2 22.8-18.5H41.3z"/>
  <path fill="#99A8BB" d="M159.4 152.8c13.5 0 24.4-8.5 24.4-21.5H135c0 13 10.9 21.5 24.4 21.5z"/>
  <path fill="#103D51" d="M159.4 153.8c-15 0-25.9-9.7-25.9-23 0-.8.7-1.5 1.5-1.5h48.7c.8 0 1.5.7 1.5 1.5.1 13.4-10.8 23-25.8 23zm-22.8-21.5c.8 10.8 10.1 18.5 22.8 18.5s22-7.7 22.8-18.5h-45.6z"/>
  <circle fill="#FFF" cx="111.4" cy="59.9" r="5.6"/>
  <path fill="#103D51" d="M111.4 67c-3.9 0-7.1-3.2-7.1-7.1 0-3.9 3.2-7.1 7.1-7.1s7.1 3.2 7.1 7.1c-.1 3.9-3.2 7.1-7.1 7.1zm0-11.2c-2.2 0-4.1 1.8-4.1 4.1s1.8 4.1 4.1 4.1 4.1-1.8 4.1-4.1-1.9-4.1-4.1-4.1z"/>
  <path fill="#FFF" d="M164.7 195.3h19"/>
  <path fill="#103D51" d="M183.7 196.3h-19c-.8 0-1.5-.7-1.5-1.5s.7-1.5 1.5-1.5h19c.8 0 1.5.7 1.5 1.5s-.6 1.5-1.5 1.5z"/>
  <path fill="#FFF" d="M158.7 195.3h2"/>
  <path fill="#103D51" d="M160.7 196.3h-2c-.8 0-1.5-.7-1.5-1.5s.7-1.5 1.5-1.5h2c.8 0 1.5.7 1.5 1.5s-.6 1.5-1.5 1.5z"/>
  <path fill="#FFF" d="M28.7 195.3h18"/>
  <path fill="#103D51" d="M46.7 196.3h-18c-.8 0-1.5-.7-1.5-1.5s.7-1.5 1.5-1.5h18c.8 0 1.5.7 1.5 1.5s-.6 1.5-1.5 1.5z"/>
  <path fill="#FFF" d="M51.7 195.3h102"/>
  <path fill="#103D51" d="M153.7 196.3h-102c-.8 0-1.5-.7-1.5-1.5s.7-1.5 1.5-1.5h102c.8 0 1.5.7 1.5 1.5s-.6 1.5-1.5 1.5z"/>
  <path fill="#BA6039" d="M63.8 93.6l1.7 3.6 3.9.5-2.8 2.8.7 3.8-3.5-1.8-3.5 1.8.7-3.8-2.8-2.8 3.9-.5m90.9 19.7l1.7 3.6 3.9.5-2.8 2.7.7 3.9-3.5-1.8-3.5 1.8.7-3.9-2.8-2.7 3.9-.5m8.5-13.2l1.8 3.5 3.8.6-2.8 2.7.7 3.8-3.5-1.8-3.4 1.8.6-3.8-2.8-2.7 3.9-.6m8 6.1l1.7 3.6 3.9.5-2.8 2.7.6 3.9-3.4-1.8-3.5 1.8.7-3.9-2.8-2.7 3.8-.5"/>
  <path fill="#FFF" d="M81.8 56.4l-4.1-1"/>
  <path fill="#103D51" d="M81.8 57.9h-.3l-4.1-.9c-.8-.2-1.3-1-1.1-1.8.2-.8 1-1.3 1.8-1.1l4.1.9c.8.2 1.3 1 1.1 1.8-.2.6-.8 1.1-1.5 1.1z"/>
  <path fill="#FFF" d="M188.7 195.3h13"/>
  <path fill="#103D51" d="M201.7 196.3h-13c-.8 0-1.5-.7-1.5-1.5s.7-1.5 1.5-1.5h13c.8 0 1.5.7 1.5 1.5s-.6 1.5-1.5 1.5z"/>
</svg>