<svg xmlns="http://www.w3.org/2000/svg" viewBox="0 0 223 223">
  <path fill="none" d="M30.7 76.7h83"/>
  <path fill="#FAF2EF" d="M5.9 91.3c-5.6 6.3-8.4 15.4-.8 19.2 3.8 1.9 9.7 2 12.2 4.8 2.1 2.3 1.2 5.5.1 8.3-6.1 17.3-12.7 37.1 1.2 50.1 10.1 9.5 29.2 12.5 47 10.3 17.9-2.2 34.8-8.9 50.4-16.4 13.8-6.6 27-13.9 39.4-21.8 14-8.9 27.3-18.8 43.7-25.1 7-2.7 14.9-5 19.6-9.7 5.1-5.1 4.7-11.9.8-16.7s-10.8-7.9-18-10.2c-3.2-1-6.6-2-8.4-4-6-6.8 7.7-16.3 6.3-24.5-2-11.6-71.7-7.3-97.1-2.9C83.8 56.1 24 71.1 5.9 91.3z"/>
  <path fill="#FFF" d="M29.7 50h83.9v115.3H29.7z"/>
  <path fill="#EBECEE" d="M143 157.2l-29.4 8V50l29.4-8.1"/>
  <g fill="#99A8BB">
    <path d="M63 126.4c.3.2.4.3.6.4.6.4 1.1.8 1.5 1.4.1.2.2.2.4.1.2 0 .3-.1.5-.1.1 0 .2-.1.3.1.1.1.1.2 0 .4-.2.5-.5 1-1.1 1.2-.2.1-.4.2-.5.4-.5.5-1.1.8-1.9.8-.3 0-.5.1-.8.4h.8c.3 0 .7.1.8.5.1.4 0 .7-.3.9-.3.3-.5.6-.5 1.1.1.7.1 1.5.3 2.2.1.4.4.6.7.8.2.1.3 0 .4-.1.2-.2.4-.2.5 0 .1.1.2.2.1.3 0 .1-.2.2-.3.2-.3 0-.5.2-.6.4-.2.4-.5.8-.8 1.2-.2.2-.4.3-.7.1-.1-.1-.3-.1-.4 0-.2.1-.4.2-.6.4-.2.1-.3.2-.1.5.1.1.1.2 0 .2-.2.1-.1.3 0 .4 0 .1.1.2.2.2.3.4.3.7-.1 1-.2.2-.4.3-.7.5h.7c.5 0 1-.1 1.4.4 0 0 .1 0 .1.1.1 0 .3.3.4.1.1-.2.1-.4-.1-.5 0 0-.1 0-.1-.1-.4-.2-.4-.2-.1-.5.1-.1.2-.1.2-.3 0-.2.2-.2.3-.2.6-.1 1.2.2 1.8.2.1 0 .1.1.1.1.3.3.7.6 1.1.7.1 0 .1.1.2.1.4.5.8 1 1.3 1.4.1.1.3.2.6.2-.2.3-.2.6-.1.9 0 .1.1.3.1.4.1.7 0 .8-.6 1-.2.1-.3.1-.5.2-.7.3-1.1.2-1.6-.4-.2-.2-1.1-.4-1.3-.3-.2.1-.3.2-.2.4 0 .1.1.1.1.2.1.3 0 .6-.2.8-.2.2-.4.1-.6.1-.1 0-.2-.1-.3-.1-.8-.5-1.6-.3-2.3.2-.1.1-.2.1-.3.2-.4.3-.4.3-.6-.2 0-.2-.2-.2-.3-.2-.4 0-.8.2-1.1.3-.4.2-.8.1-1.2-.1-.2-.2-.4-.4-.4-.7.1-.3-.2-.5-.5-.5-.8-.1-1.6-.3-2.4-.6-.4-.1-.7-.3-1.1-.4-.6-.2-1.1-.2-1.7-.1-.3.1-.7.2-1 .2-.4 0-.7-.1-.6-.5.1-1.3-.4-2.5-.2-3.7.1-.5.2-1 .4-1.4.2-.4.2-.8.1-1.3-.2-.8-.5-1.6-.4-2.4.1-.8.1-1.6-.1-2.4 0-.2-.1-.4-.1-.5-.1-.6-.5-.9-1-1.1-.4-.1-.8-.3-1.2-.5-.4-.2-.8-.5-.9-1 0-.1-.1-.2-.1-.2-.4-.3-.7-.7-.9-1.2 0-.1-.1-.2-.3-.2-.2 0-.2.2-.2.3.1.4.2.8.5 1.1.1.2.2.3.3.5.2.3.1.5 0 .8 0 .1-.1 0-.2 0-.2-.2-.5-.4-.7-.6-.5-.5-1.1-.9-1.8-1.2-.6-.2-.7-.5-.5-1.1.4-.8.8-1.7 1-2.6.2-.6.3-1.1.3-1.7 0-1.4-.1-2.9-.2-4.3 0-.2-.1-.4.1-.5.2 0 .2.2.3.4.2.8.2 1.6.3 2.3v.2c0 .1 0 .3.2.3.1 0 .2-.1.3-.2.1-.1.2-.2.3-.2.5-.3.9-.8 1.4-1.1.1-.1.1-.1 0-.2-.1-.3-.1-.7-.5-.9H46c.2-.6-.4-1-.3-1.5.1-.5-.2-.9-.5-1.2-.3-.2-.6-.5-.9-.6-.1-.1-.2-.2-.3-.1-.1.1-.1.2-.1.3.1.5 0 1.1 0 1.6 0 .2 0 .5-.4.5-.5 0-.5 0-.5-.5.1-.6.1-1.3.1-1.9 0-.9 0-1.7.2-2.6.2-.6.1-1.3.2-1.9 0-.6.1-1.1.2-1.7 0-.1 0-.3.2-.3s.2.1.3.2c.1.2.2.2.4.3.3.1.5.4.8.7.2.2.3.2.5 0 .1-.1.1-.1.1-.2s-.1-.1-.2-.1c-.2.1-.2-.1-.3-.2-.3-.4-.7-.8-1-1.2-.2-.1-.3-.2-.4 0-.2.2-.3.2-.3-.1v-.9c0-1.2 0-2.4.1-3.5 0-.2.1-.4.2-.6.4-.7.7-1.4.9-2.2 0-.2 0-.3.2-.3s.3.1.4.3c.1.2 0 .4 0 .6-.1.7-.1 1.3.6 1.6.2.1.2.2.2.4 0 .3.1.2.3.1.4-.2.7-.3 1.1-.1.4.2.8.2 1.2.5.1.1.2.1.4 0 .1-.1.1-.2 0-.4-.3-.9-.8-1.6-1.6-2.2-.1-.1-.3-.2-.4-.3-.4-.2-.6-.6-.5-1v-.5c0-.2-.1-.3-.3-.3-.2 0-.2.2-.2.3 0 .1.1.3.1.4 0 .3-.2.3-.4.2-.3-.2-.4-.4-.4-.7 0-.8.1-1.6.5-2.4.9-1.8 2-3.4 3.4-4.9.3-.3.6-.7.8-1 .2-.3.6-.5 1-.4.5.1.9.3 1.4.3.4 0 .7-.1 1.1-.3 1.2-.5 2.3-1.1 3.7-.7 1.6.5 3.1.1 4.4-.9.7-.6 1.4-1.2 1.9-1.9.7-1 1.3-2.1 1.8-3.2.3-.6.7-1.2 1.1-1.7.5-.5.9-1.1 1.3-1.7.1-.2.2-.3.4-.5.3-.3.6-.4.9-.2.4.2.7.2 1.1.1.5-.1 1.1-.3 1.6-.4.6-.2 1.1-.5 1.6-.9.6-.6 1.3-1.2 1.9-1.8.5-.4 1.2-.5 1.8-.2.1.1.2.2.1.3l-.3.3c-.3.3-.7.6-1 .8-.8.5-1.2 1.3-1.3 2.3 0 .4-.1.9.1 1.3.1.1.2.3.3.4.8.5 1.1 1.1.8 1.9-.4 1.1-.1 2.2-.1 3.4v.5c.1.8-.1 1.4-.6 2-.6.7-1 1.5-1.3 2.5-.2.7-.5 1.3-.9 1.8-.2.2-.3.4-.3.7-.6 1.8-.5 3.5.1 5.3.1.3.2.7.2 1 0 .1.1.3 0 .3-.1.1-.2-.1-.3-.1-.3-.2-.6-.4-.9-.4-.1 0-.2-.1-.3 0-.3 0-.3.2-.4.4 0 .3.2.2.4.2.8.1 1.5.5 2 1 .1.1 0 .2 0 .2l-.7.7c-.1.1-.2.3.1.3.2 0 .3.1.3.2.1.2.3.4.4.6.5.8.9 1.1 1.9 1 1.1-.1 2.1-.3 3.1-.6.5-.2 1.4.4 1.4.9 0 .4.2.6.5.8.7.5.8.7.3 1.4-.2.4-.4.9-.4 1.4 0 .4-.2.7-.4 1-.2.3-.5.6-.6.9l-.1.1c-.8.5-1.3 1.2-1.2 2.2v.5c-.1.4-.3.5-.6.3-.4-.2-.7-.9-.7-1.3 0-.1 0-.2.2-.2.1 0 .2 0 .1-.1 0-.1-.1-.1-.2-.2-.2 0-.3.1-.5.1-.3.2-.5.5-.7.7-.1.1-.1.2 0 .3.1.2.2.4.3.7.1.4.1.7-.2.8-.2.1-.5.2-.8 0-.2-.2-.2-.7-.1-1 .1-.1.2-.2.1-.3 0-.3-.4-.4-.6-.3 0 0-.1 0-.1.1-.2.1-.3.5-.6.4-.3-.1-.7-1-.7-1.3 0-.1 0-.1.1-.1.3-.1.5-.4.9-.5.2 0 .3-.1.4-.3 0-.1.1-.3.2-.3.3-.3.1-.4-.2-.5-.5-.2-.8 0-1.1.4-.3.5-.4 1.1-.9 1.5-.4.3-.5.7-.5 1.2 0 .6 0 1.2.2 1.7 0 .1.1.2.1.3-.3 1-.1 2-.2 3.1 0 .3-.1.5-.3.7-.3.3-.5.6-.5 1.1 0 .2 0 .5-.2.7-.1.2-.3.2-.4 0l-.3-.6c-.3-.8-1.6-1.2-2.2-.3-.4.6-.5.6.3.7h.7c.1 0 .2 0 .2-.1s-.1-.1-.1-.1c-.1 0-.2-.1-.2-.1-.2-.1-.3-.3-.2-.5.1-.2.3-.2.4-.2.5.1.6.2.5.7 0 .3 0 .6-.4.8-.2.1-.3.9-.1 1.3.1.2.1.4-.1.5-.1.1-.3.2-.3.4-.1.4-.5.5-.9.6-.3 0-.6.1-.9.3-.5.3-1 .3-1.6.1-.2-.1-.4-.3-.7-.1-.1-.3-.4-.3-.6-.5-.5-.1-.8-.1-1.3-.1zm29.5 15.9c-.2-.3-.4-.5-.6-.6-.4-.2-.6-.5-.8-.8-.1-.2-.1-.3.2-.3.3 0 .5-.2.8-.3-.4 0-.6 0-.9-.1-.4-.1-.5-.3-.3-.6.1-.1.2-.3 0-.4-.2-.1-.3 0-.3.2-.1.2-.2.2-.3.1-.7-.1-1.3-.4-2-.5-.4-.1-.9-.2-1.4-.3-.4 0-.7 0-1 .3-.5.4-1.1 0-1.2-.7 0-.2 0-.4-.2-.4.1-.2.3 0 .3-.2s-.1-.4-.2-.6c-.2-.4-.6-.7-.8-1.1-.2-.3-.2-.3 0-.6-.2 0-.3 0-.4.1-.3.3-.5 0-.6-.2-.2-.2 0-.4.2-.5l.6-.3c.5-.3.6-.6.6-1.1-.1-.6-.3-1.1-.6-1.6-.1-.2-.3-.2-.5-.3-.4-.2-.4-.4-.1-.7.1-.1.3-.2.5-.3.3-.2.4-.4.2-.8-.4-.6-.9-1.1-1.6-1.3-.3-.1-.6-.2-1-.3-.1 0-.2-.1-.2-.1 0-.1.1-.2.2-.2.3-.2.6-.2 1-.2-.4-.2-.4-.6-.7-.8-.3-.2-.7-.4-1.1-.4-.1 0-.2 0-.2-.1s.1-.2.2-.2c.6-.2 1.2-.3 1.7 0 .3.1.5.1.8 0l.6-.3c.2-.1.4-.1.6.1.1.1.2.1.2.3 0 .2-.1.2-.2.2s-.2 0-.2.2c.1.2.2 0 .3 0 .2-.1.5-.2.7-.2.6-.1 1.2-.5 1.7-.9.3-.2.4-.5.2-.8 0-.1-.1-.2-.1-.3 0-.1-.1-.2 0-.3.1-.1.2 0 .3 0 .2.1.4.1.6-.1.2-.1.3-.2.5-.3.5-.2.7-.5.6-1.1 0-.6-.3-.9-.8-1-.6-.1-1.2-.3-1.8-.6-.2-.1-.3-.2-.5-.4-.1-.1-.1-.2-.1-.4.1-.1.2-.1.3-.1.1 0 .2.1.3.1 1.3.6 2.8.6 4.1.9.5.1.9 0 1.4-.3.2-.1.5-.3.7-.1.2.2.1.5-.1.7-.3.3-.3.6-.2 1 .1.2.1.4-.2.5-.2.1-.4 0-.5-.2-.2-.2-.4-.3-.7-.3.1.2.2.4.3.5.3.5.5 1 .7 1.5.1.2 0 .2-.1.2-.3 0-.6.1-.9-.1-.1-.1-.2 0-.3.1-.1.1-.2.2-.1.4.1.1.2.1.3.1.1 0 .2-.1.3-.1.6-.2.8-.1 1.1.5.1.2.1.4.3.5.2.1.1.2.1.3 0 .2-.1.3.2.4.1 0 .1.1.1.2s0 .3.1.4c.2-.6.4-1.1.4-1.7-.1-.7.3-1.1.9-1.4.3-.1.3-.3.2-.5-.2-.4-.4-.7-.4-1.1 0-.4.1-.7.5-.7.4-.1.7.2.8.5v.3c0 .4.1.8.3 1.2.4.8.6 1.6.5 2.5-.1.4-.2.7-.7.7-.1 0-.3 0-.3.1s.2.1.3.1c.5 0 .8-.2.8-.7.1-.7 0-1.4-.2-2.1-.2-.8-.4-1.7-.5-2.6 0-.4-.2-.5-.6-.5-.4.1-.8.1-1.1.2-.1 0-.3.1-.4-.1-.1-.2-.2-.4 0-.6.1-.2.3-.3.4-.4 1.3-1.2 2.7-2.2 4.2-3.2.4-.3.9-.3 1.4-.1.9.3 1.7.6 2.6.9.2.1.4.2.6.4.1.1.2.2.4.3.5.3.6.8.3 1.3v.1c0 .3-.1.4-.4.4l-.1.1c-.1.4-.3.8-.5 1.2-.1.2-.1.3 0 .4.1.3.2.5.4.8.2.4.4.8.4 1.3 0 .9.5 1.7.6 2.5.1.8.5 1.6.6 2.4.1.5 0 .8-.4 1-.4.2-.7.4-1.2.2-.4-.2-.5-.5-.5-.9 0-.2-.1-.4-.1-.7-.1.1-.1.2-.2.2-.1.3-.3.5-.7.3h-.4c-1.4.4-2.5 1.1-2.8 2.7-.1.7.1 1.2.6 1.6l.1.1c.5.1 1 .5 1.6.5.1 0 .1 0 .2.1.4.7.9 1.5.9 2.4 0 .4-.1.7-.4 1-.5.3-1 .5-1.5.5s-1.1 0-1.6.2c-.9.3-1.2 1-1.3 1.8 0 .3.2.3.4.3.5.1.7.3.7.7 0 .3-.1.5-.4.6-.2.1-.2.2-.2.4.1.3.3.7.4 1 .1.4-.1.7-.5.8-.3 0-.6.2-.8.4-.4.4-1.2.4-1.6 0-.2-.2-.6-.3-.9-.3-.2 0-.4-.1-.6-.2-.7-.6-1.4-1.1-2.2-1.6-.1-.1-.4-.2-.3-.4.1-.1.3-.1.5-.1.5 0 .9.2 1.3.5.1-.2.2-.1.4-.1z"/>
    <path d="M76.4 142.2c-.2 0-.3.1-.4.2-.4.4-.8.5-1.3.3-.6-.2-1.3-.3-1.9-.5-.4-.1-.7-.3-1-.4-.1-.1-.2-.1-.3-.2-.5-.3-.6-.3-.7.3 0 .1 0 .2-.1.3-.1 0-.2-.1-.2-.2 0-.4-.3-.4-.6-.5-.2 0-.4 0-.6-.1-.3-.1-.5-.3-.3-.6s.5-.4.8-.6c.1-.1.2-.1.1-.3-.2-.5-.5-.9-1.1-.8-.2 0-.3-.1-.5-.2-.1.3.1.6.2.9.1.2.2.4 0 .5-.1.2-.3.1-.5 0-.2 0-.3-.2-.3-.4 0-.4-.1-.8 0-1.2 0-.3 0-.4-.4-.4 0 0-.1 0-.1-.1s.2 0 .2-.1-.1-.1-.2-.1c-.3-.1-.4-.4-.5-.6-.1-.4-.2-.9-.2-1.4v-.6c0-.3-.1-.4-.4-.4-.4-.1-.6-.3-.8-.7 0-.1-.1-.2 0-.3.1-.2.4-.3.1-.6v-.1c.4-.4-.1-.3-.2-.4-.7-.1-.9-.4-.8-1.1 0-.2-.1-.3-.2-.4-.4-.5-.3-.5.2-.7.2-.1.3-.2.5-.3.4-.4.8-.3 1.3-.3.1 0 .2.1.2.2.2.5.6.7 1 .4.8-.5 1.7-.9 2.5-1.3.4-.2.7-.4 1.1-.6.3-.3.8-.3 1.2-.1.1-.1-.1-.3.1-.4.2-.1.3 0 .4.1.6.3 1.2.7 1.5 1.3.1.2.2.3.5.3.2 0 .5 0 .6.3.1.2.3.4-.1.5-.2.1-.1.3-.1.4.1.3 0 .5-.3.6-.3.1-.5.3-.6.6-.1.1 0 .2.1.3.1 0 .3.1.3-.1.1-.3.3-.4.5-.4.3-.1.6-.2 1-.3.2-.1.4-.2.4-.4s-.3-.3-.5-.3h-.2c.1-.2.3-.3.3-.5 0-.1 0-.1.1-.1.3.1.3-.1.2-.3-.1-.3 0-.5.1-.7.1-.1.2-.3 0-.4-.1-.1 0-.1 0-.2.1-.1.2-.1.3 0l.3.3c.2.4.3.7.5 1.1.2.5.4.9.7 1.3.2.2.2.4-.1.5h-.1c-.6.3-.7.3-.3.9.6.9 1.2 1.9 1.7 2.9.1.3.1.4-.2.4-.3 0-.3.2-.3.4 0 .8.1 1.7 0 2.5-.1.9-.4 1.8-.8 2.6-.1.3-.5.4-.6.7-.1.2-.3.1-.4-.1 0-.1 0-.2-.1-.3 0-.1-.1-.2-.3-.2-.1 0-.1.1-.1.2 0 .2.1.3.1.5 0 .3 0 .5.4.5.2 0 .2.2.1.4-.3.5-.8.9-1.4 1-.1 0-.3 0-.4-.1-.3-.3-.5-.8-.6-1.2-.1-.3.2-.4.3-.5.4-.2.8-.4 1.1-.7.1.2.1.1.1.1zm20.1 3.8c.2.3.4.6.5.9.1.2 0 .4-.2.6-.6.5-1.1 1.2-1.4 1.9-.1.3-.2.5-.4.7-.6.6-.7 1.3-.5 2.1.1.4.1.8.2 1.2 0 .3-.1.3-.3.3-.3-.1-.6-.2-.7-.5-.5-.7-.7-1.4-.5-2.2-.2.1-.4.5-.4.7.1.3-.1.3-.2.3-.3 0-.7-.1-1-.2-.3-.1-.6-.2-.9-.2-.7-.1-1.3.1-1.9.5-.3.2-.6.5-.9.7-.1.1-.2.1-.4 0-.7-.5-1.5-1.1-2.2-1.6-.9-.6-1.8-1.2-2.8-1.5-.2-.1-.5-.1-.7-.3-.4-.2-.6-.9-.4-1.3.1-.2.3-.3.6-.3.1 0 .2.1.2.1.2 0 .4 0 .5-.2.1-.2-.1-.3-.2-.4-.1-.2-.3-.3-.4-.5-.4-.6-.4-1 0-1.6.8-1 2.9-1.5 4-.1.1.1.1.2.2.3.1.5.4.7.7 1 .5.4 1 .7 1.6.9.2.1.4.3.5-.1 0-.1.2-.1.3-.1.5-.1.7-.3.7-.8 0-.2 0-.4.2-.5.2-.1.3.1.5.2.1.1.3.2.4.4.2.1.3.1.3-.2 0-.4-.2-.7-.5-1l-.3-.3c.2-.2.4-.3.6-.5.2-.1.4-.1.6 0 .2.1.3.1.5 0 .4-.3.8-.2 1 .2.1.2.3.3.5.3.4-.1.7 0 .9.4.1.3.4.3.7.3.2 0 .3.1.5.1.1 0 .2.1.3 0 .1-.1 0-.2-.1-.4s-.1-.2-.3-.1c-.2.2-.4.1-.6.1-.2-.1-.4-.1-.3-.4 0-.2.2-.4.4-.4.4 0 .6.2.9.3.1-.1 0-.2 0-.3-.1-.3 0-.5.3-.6.2-.1.3-.1.4-.2.3-.2.6-.3.9-.2.4 0 .5-.1.5-.5 0-.2-.1-.4-.1-.5-.1-.2 0-.4.2-.5.2-.1.3-.1.5 0 .5.4 1 .4 1.6.5.6.1 1.2.3 1.6.8.2.2.3.4.3.6.1.6-.4 1-1 .8-.6-.2-1.3-.3-2-.2-.5.1-.8.4-1 .8-.1.2-.2.4-.3.5-.3.3-.7.4-1.1.2-.2.1-.3 0-.6 0zm-15.8-5c-.1 1-.4 2-.9 2.8-.7.9-.9 2-1.3 3-.3.7-.5 1.5-.7 2.3-.1.3-.2.6-.5.7-.2.1-.4.1-.5-.2-.1-.3-.2-.6-.2-.9 0-.4-.1-.8-.3-1.2-.1-.3-.1-.5.1-.7.2-.3.5-.4.8-.6.2-.1.3-.3.1-.5-.3-.4-.2-.9.1-1.3.2-.4.6-.6.6-1.1 0-.1.1-.1.1-.1.8-.3 1.2-1 1.4-1.8.1-.4.2-.8.5-1.2.1-.1.2-.3.4-.3.2.1.3.2.4.4-.1.4-.1.6-.1.7zm-3.2-18.3c-.5.7-.5 1.5-.7 2.3-.1.3-.2.5-.5.5s-.7.1-.9-.4c-.4-.9-.2-1.7.3-2.4.1-.1.2-.3.2-.4.1-.3.1-.6-.3-.7-.3-.1-.4-.3-.3-.5 0-.3 0-.7.1-1 0-.2.1-.3.3-.3.2 0 .3.1.3.3.1.7.3 1.3.8 1.8.1.1.1.3.1.4 0 .4.1.5.6.4zm6.2-34.1c.3 0 .7-.1.7.3.1.4-.3.4-.5.6-.1 0-.2.1-.2.1-.4.1-.6.3-.6.7 0 .4-.2.7-.6.8-.2.1-.3.3-.3.4-.1.1-.1.3-.3.3-.1 0-.2-.1-.2-.3 0-.2-.2-.3-.3-.3l-.9-.6c-.1-.1-.2-.2-.1-.3.4-1.3 1.6-1.3 2.6-1.5.2-.1.5-.1.7-.2zM70.5 144s0-.1.1-.2.2 0 .2 0c.1.1.2.2.4.3.1.1.3.2.4.3.5.2 1 .5 1.3 1 0 .1.2.2.3.1.1 0 .1-.2.1-.2 0-.1.1-.2.2-.2.3.1.4.3.5.6 0 .1 0 .3.1.3s.2-.1.3-.1c.2-.2.4-.2.5 0 .4.4.2.9-.3 1.1-.3.1-.6.2-.8.5-.2.2-.3.2-.5 0-.3-.4-.6-.8-1-1.1-.5-.3-.8-.8-1.1-1.2-.5-.3-.6-.7-.7-1.2zm-23.4-3c.2-.5.2-1 .2-1.4v-1c0-.3.1-.4.4-.5.4-.2.9-.1 1.3 0 .2.1.2.2.2.4-.1.2-.1.3-.2.4-.3.2-.3.5-.2.8v.7c0 .2-.1.4-.4.5-.2 0-.3.2-.4.3-.2.2-.3.3-.5.1-.1-.3-.2-.3-.4-.3zm.6-7.6c0 .3 0 .7-.1 1-.1.3-.2.4-.5.2-.2-.1-.4-.3-.4-.6v-.2c-.4-.4-.3-1-.4-1.5v-.3c.1-.3.3-.4.6-.2.2.2.4.4.7.5.1 0 .2.2.2.3-.1.3-.1.6-.1.8zm42.6-30.7c0 .1-.1.3-.2.4-.3.2-.5.5-.6.9-.1.2-.3.2-.4.1-.3-.2-.5-.5-.7-.8-.1-.2 0-.4.2-.4.5-.1.9-.2 1.4-.3.1-.1.3-.1.3.1zm15 25.6c0 .3 0 .5-.1.7-.1.1-.2.2-.3 0-.2-.3-.4-.7-.4-1.1 0-.2.1-.4.3-.5.3 0 .4.1.5.3-.1.3 0 .5 0 .6zm-21.1-5.4c0 .2 0 .3-.2.3-.5-.2-1-.5-1.2-1.1-.1-.2 0-.3.2-.3.4.2.9.4 1.2.8v.3z"/>
    <path d="M88.8 143.7c.4 0 .5.1.5.4 0 .3-.2.5-.6.5-.4 0-.6-.2-.5-.6 0-.2.2-.3.6-.3zm-15.3.6c-.3-.1-.5-.1-.8-.3-.1-.1-.2-.1-.1-.2.1-.2.3-.3.5-.4.2 0 .4-.2.5.1l.1.1c.1.1.3.2.2.3-.1.2-.2.4-.4.4zm14 .2c0 .3-.7.7-.9.6-.1-.1-.3-.1-.2-.3 0-.2.1-.4.4-.5.2-.1.5 0 .7.1v.1zM72 125.7h-.2c-.1 0-.3 0-.3-.2s.2-.2.3-.2c.2 0 .4-.2.5-.4.1-.1.3-.3.4-.2.1.1.1.3 0 .5 0 .4-.3.5-.7.5zm-23.3 10c.2 0 .4 0 .4.3 0 .2 0 .5-.3.5-.2 0-.6 0-.6-.4 0-.2.2-.4.5-.4zm35.6 3.2c0 .1 0 .2-.1.2s-.2 0-.2-.1c-.2-.3-.4-.6-.4-.9 0-.2.1-.2.2-.2.3.1.5.5.5 1zm-9.8-17.7c0 .2 0 .3-.2.3-.3 0-.6-.3-.6-.7 0-.2.1-.3.3-.3.4.1.5.2.5.7zm-8.6 14.7c0 .2-.1.4-.3.4-.2 0-.3-.2-.3-.4v-.3c0-.2.1-.3.3-.3.2-.1.2.1.2.2.1.2.2.3.1.4zm5.1 6.4c0-.1 0-.2.2-.3.2 0 .5.3.5.5 0 .1 0 .2-.2.2-.2.1-.5-.1-.5-.4zm10.2-6.9c0 .2 0 .3-.1.4-.1.2-.3.2-.5.1s0-.2.1-.3c0-.1.1-.2.2-.2.1-.1.1-.2.2-.1.2-.1.1.1.1.1zm-11.5 6.7c0-.2 0-.3.2-.3s.4.2.4.4-.1.3-.3.3c-.2-.1-.2-.3-.3-.4zm6.7 3.5c-.1.1 0 .4-.2.4s-.3-.2-.3-.4.1-.3.3-.3c.2-.1.1.1.2.3zm21.6-3.4c0 .2-.1.4-.4.4-.2 0-.2-.2-.2-.3 0-.3.2-.4.5-.4.1.1.1.2.1.3zm-9.5 3.7c0 .2-.2.3-.4.3-.1 0-.3-.1-.3-.2 0-.2.2-.3.4-.3s.3.1.3.2zm-26.7-5.1c0-.3 0-.5.1-.7 0-.1.1-.2.2-.1.1 0 .1.1.1.2 0 .2-.1.4-.4.6zM51.4 98.2c.1-.4.3-.8.6-1.1.1-.1.2-.2.4 0s.5.1.7-.1c.3-.2.6-.6.8-.9.2-.2.5-.5.8-.2.1.1.2.1.3 0 .6-.3 1.2-.2 1.7-.6.2-.2.5-.2.7-.3.3-.1.6 0 .7.3.1.2.2.4.4.6.3.4.5.4.9.2.8-.5 1.6-.9 2.5-1.1.3-.1.5-.2.8.1.2.2.6.1.9-.1.6-.4 1.2-.4 1.8-.3.2 0 .5 0 .5-.3 0-.1.1-.1.2-.2s.3-.3.4-.1c.1.1 0 .3-.1.4-.1.1-.2.2-.1.4.1.1.3 0 .4 0 .2 0 .3-.2.4-.3.1.3-.1.4-.3.4-.4.1-.8.1-1.2.1-.6 0-1 .2-1.3.7-.2.4-.5.7-.7 1.1-.1.1-.1.2-.2.3 0 0-.1.1-.2.1s0-.1 0-.2.1-.1.2-.2c.3-.3.3-.4-.1-.6-.5-.2-1.1-.3-1.6-.4-.9-.2-1.5.1-2.1.7-.3.3-.6.6-.9.8-.2.2-.4.4-.3.7 0 .8 0 1.5-.2 2.3-.1.4.1.8.4 1.1.3.3.3.5.2.8-.1.2-.2.5-.4.7-.1.1-.2.2-.1.3.1.1.2.2.3.1.2 0 .3-.1.5-.2.4-.2.6 0 .7.4 0 .4 0 .8-.1 1.1 0 .1-.1.3-.2.1-.3-.3-.6-.2-.9-.2-.2 0-.4.1-.5-.2 0-.2-.2-.2-.4-.1-.2 0-.1.2-.1.3.1.6-.1.9-.6 1.2-.2.1-.3.1-.3-.1-.1-.5 0-1 .4-1.5.7-.9.9-1.9.7-3-.1-.5-.6-.8-1.2-.8-.2 0-.3 0-.6.1.3-.2.5-.4.7-.5.1-.1.2-.2.2-.4s-.2-.2-.4-.2c-.4 0-.8-.1-1 .3-.1.1-.1.2.1.3.2.1.1.3 0 .3-.9.3-1.2 1.2-1.7 1.8-.1.1-.1.2.1.3.2.1.5.2.7.4h-.2c-.8-.1-1.3.3-1.6.9-.2.3-.4.5-.7.6-.3.1-.3.2-.3.5.1.2.2.4.1.7v.1c.4 0 .3.3.4.6.1.2 0 .5 0 .7 0 .2 0 .5-.2.6-.4.1-.8.3-1.2 0-.1-.1-.1-.2-.2-.3-.1-.2-.1-.5-.1-.7 0-.5-.3-.8-.9-.9.8-.4 1.3-.8.9-1.7.2 0 .2.1.3.2 0 .1.1.2.2.1s.1-.2.1-.3c0-.3-.4-.2-.5-.3-.1-.1 0-.4-.3-.5h-.2c-.6.3-1.2-.1-1.7.1l1.2-.6c.2-.1.3-.3.2-.5-.1-.3-.1-.5 0-.8.4.1.6.4.8.7.1.2 0 .3-.2.3-.1 0-.2.1-.1.2 0 .1.2.1.2.1.3-.1.4 0 .6.2.4.6 1.2.7 1.6.2.1-.1.3-.2.3-.4.3-.7.8-1.2 1.3-1.7.3-.4.3-.4.1-.8-.1-.2-.2-.4-.2-.5-.1-.4 0-.5.4-.7.2-.1.3-.2.3-.3.2-.5.3-1.1.3-1.6 0-.1 0-.3-.1-.3-.1-.1-.2 0-.3.1-.3.2-.7.4-.8.9-.1.3-.4.5-.7.6-.5.1-1 .1-1.6.2-.3-.2-.3-.2-.5-.3.1.1.1.1 0 0z"/>
    <path d="M49.8 101.3c-.3 0-.3-.2-.3-.4 0-.3.1-.6.3-.8.6-.4.9-1 1.3-1.5.1-.1.1-.3.3-.4.2.4 0 .8-.1 1.2-.1.2-.2.4.1.5.1.1.1.2 0 .3-.1.1-.3.2-.5.3-.3 0-.6.2-.7.5-.2.2-.3.3-.4.3zm9.7 4.2c.1.3-.1.6 0 .8 0 .3.1.3.4.2.2-.1.5-.1.7-.1l.1.1c0 .1-.1.1-.1.1-.3 0-.6 0-.9.2h-.1c-.2-.2-.4-.4-.4-.7-.1-.3 0-.5.3-.6zm4.3 37.6c.4 0 .7 0 1 .2.1.1.2.2.1.4s-.2.1-.4 0-.4-.3-.7-.6zM96 140c0 .1-.1.1-.1.1-.1-.1-.3-.1-.3-.3 0-.1.1-.2.2-.2.1.1.2.3.2.4zm-2.6 10.2c0 .2 0 .4-.2.5-.2.1-.5 0-.7-.2l-.1-.1c0-.2.5-.8.7-.8.4.2.3.4.3.6zm-1.1-2.1c-.2-.4-.5-.8-.7-1.2.5.1.8.7.7 1.2z"/>
    <path d="M49.8 101.3c.1-.1.2-.3.3-.4.1-.3.3-.4.6-.4.2 0 .4-.1.5-.2.1-.1.2-.1.2-.2s-.1-.1-.2-.1c-.2 0-.2-.2-.1-.3.3-.4.3-.9.3-1.4.6-.1 1.3-.1 1.9-.2.3-.1.6-.5.7-.8 0-.1-.1-.1 0-.2.3-.1.6-.4.9-.6.2-.1.3 0 .3.2.1.7 0 1.5-.4 2.1-.1.1-.2.2-.3.2-.4 0-.4.2-.3.5 0 .3.2.6.4.8.2.2.1.4 0 .6-.3.3-.6.7-.9 1-.2.1-.3.3-.3.5-.1.3-.3.5-.5.7-.6.6-1.5.5-1.9-.3-.1-.1-.1-.2-.2-.1-.1 0-.1.1-.2.1-.2.1-.3 0-.4-.2 0-.2.1-.3.3-.2.3 0 .2-.1.1-.3-.2-.4-.4-.7-.8-.8zm1.7 4.5c0 .3-.1.6-.3.8-.1.2-.2.1-.3 0-.2-.2 0-1 .2-1.2.1 0 .2-.1.2 0 .2.2.2.3.2.4zm6-7.3c0 .2-.1.3-.3.3-.2 0-.4-.2-.4-.4s.1-.2.3-.2c.3 0 .4.1.4.3zM42.8 80.8c0 .1-.1.1-.2.2-.1 0-.1 0-.1-.1s.1-.1.2-.1c0-.1.1-.1.1 0z"/>
  </g>
  <path fill="#FFF" d="M172 128.1V50.5l-29-8.6v115.3l29 8.6v-29"/>
  <path fill="#103D51" d="M169.2 172c-.2 0-.3 0-.5-.1l-10.9-3.4c-.8-.3-1.2-1.1-1-1.9.3-.8 1.1-1.2 1.9-1l10.9 3.4c.8.3 1.2 1.1 1 1.9-.2.7-.8 1.1-1.4 1.1zm-52.8-.9c-.7 0-1.3-.4-1.5-1.1-.2-.8.2-1.7 1.1-1.9l26.7-7.5c.3-.1.6-.1.9 0l9.6 3.1c.8.3 1.2 1.1 1 1.9-.3.8-1.1 1.2-1.9 1l-9.2-3-26.3 7.4c-.1.1-.3.1-.4.1zm-76 .6h-8.1c-.8 0-1.5-.7-1.5-1.5s.7-1.5 1.5-1.5h8.1c.8 0 1.5.7 1.5 1.5s-.7 1.5-1.5 1.5zm70 0h-63c-.8 0-1.5-.7-1.5-1.5s.7-1.5 1.5-1.5h63c.8 0 1.5.7 1.5 1.5.1.8-.6 1.5-1.5 1.5z"/>
  <path fill="#FFF" d="M36.7 131.7h76m-76-43h76m-43 72v-87"/>
  <circle fill="#FFF" cx="70.9" cy="42.5" r="6.7"/>
  <path fill="#FFF" d="M112.2 131.8l30.9-8.5m-30.9-35.2l30.9-8.5m24.1 51.1l-25.1-7.4m25-36.6l-25-7.1"/>
  <path fill="#103D51" d="M29.2 86.4c.8 0 1.5-.7 1.5-1.5V51.7h23.8c.8 0 1.5-.7 1.5-1.5s-.7-1.5-1.5-1.5H29.7c-.8 0-1.9.4-1.9 1.3v35c-.1.8.6 1.4 1.4 1.4z"/>
  <path fill="#3D464D" d="M172.2 129.6c.8 0 1.5-.7 1.5-1.5V50.5c0-.7-.5-1.3-1.2-1.5l-29.1-8.6h-.9s0 .1-.1.1l-29.2 8.1h-27c-.8 0-1.5.7-1.5 1.5s.7 1.5 1.5 1.5h26.6v34h-41V74.3c0-.8-.7-1.5-1.5-1.5s-1.5.7-1.5 1.5v11.4H36.3c-.8 0-1.5 1.2-1.5 2s.7 2 1.5 2h32.4v40H36.3c-.8 0-1.5.7-1.5 1.5s.7 1.5 1.5 1.5h32.4v27.9c0 .8.7 1.5 1.5 1.5s1.5-.7 1.5-1.5v-27.9h39.8c.2 0 .2.6 1.2.7v30.3h-82v-73c0-.8-.7-1.5-1.5-1.5s-1.5.7-1.5 1.5v74.5c0 .8 1.1 1.4 1.9 1.4h84.3l29-7.9 28.6 8.5c.1 0 .3.1.4.1.3 0 .7-.1 1-.3.4-.3.7-.7.7-1.2v-29c0-.8-.7-1.5-1.5-1.5s-1.5.7-1.5 1.5v27l-26-7.7v-30.4l22.2 6.5c.1 0 .2.1.4.1.7 0 1.2-.4 1.4-1.1.2-.8-.1-1.7-.9-1.9l-23-6.8V81.8l22.1 6.3c.1 0 .2.1.4.1.7 0 1.2-.4 1.4-1.1.2-.8-.1-1.7-.9-1.9l-23-6.6V43.9l26 7.7V128c0 .9.7 1.6 1.5 1.6zm-30.5-7.7c-1 .1-.2.2-.4.4l-25.6 7.1V88.9l26-7.3v40.3zm0-43.7c-1 .1-.2.2-.4.4l-25.6 7.1V51.1l26-7.2v34.3zm-70 11.5h39.9c.1 0 .1-.1 1.1-.1v40.1h-41v-40zm44 42.9l26-7.3V156l-26 7.2v-30.6z"/>
  <path fill="#BA6039" d="M70.8 25.6c-7.3 0-13.2 5.9-13.2 13.2C57.6 47.6 69 65 70.8 65 72.5 65 84 47.3 84 38.9c0-7.3-5.9-13.3-13.2-13.3zm0 18.9c-3.7 0-6.6-3-6.6-6.6 0-3.7 3-6.6 6.6-6.6 3.7 0 6.6 3 6.6 6.6 0 3.7-2.9 6.6-6.6 6.6z"/>
</svg>