<svg xmlns="http://www.w3.org/2000/svg" viewBox="0 0 223 223">
  <path fill="#BA6039" d="M86.5 110.5h37v3h-37z"/>
  <ellipse fill="#FFF" cx="85.6" cy="111.9" rx="5.4" ry="5.3"/>
  <path fill="#BA6039" d="M85.6 118.7c-3.8 0-6.9-3.1-6.9-6.8s3.1-6.8 6.9-6.8 6.9 3.1 6.9 6.8-3.1 6.8-6.9 6.8zm0-10.6c-2.1 0-3.9 1.7-3.9 3.8s1.7 3.8 3.9 3.8 3.9-1.7 3.9-3.8-1.7-3.8-3.9-3.8z"/>
  <ellipse fill="#FFF" cx="125.3" cy="111.9" rx="5.4" ry="5.3"/>
  <path fill="#BA6039" d="M125.3 118.7c-3.8 0-6.9-3.1-6.9-6.8s3.1-6.8 6.9-6.8c3.8 0 6.9 3.1 6.9 6.8s-3.1 6.8-6.9 6.8zm0-10.6c-2.1 0-3.9 1.7-3.9 3.8s1.7 3.8 3.9 3.8c2.1 0 3.9-1.7 3.9-3.8s-1.8-3.8-3.9-3.8z"/>
  <path fill="#D3DAE0" d="M74.5 163.5h4"/>
  <path fill="#3D464D" d="M79.4 164.5h-4c-.8 0-1.5-.7-1.5-1.5s.7-1.5 1.5-1.5h4c.8 0 1.5.7 1.5 1.5s-.7 1.5-1.5 1.5z"/>
  <path fill="#EBECEE" d="M56.3 121.1s12 4 19.1 12.4c6.8 8.1 4 23 4 23H2.5s-2.9-15 4-23.1c7.1-8.4 19.1-12.1 19.1-12.1s5.2 8.4 15.1 8.4c9.2 0 15.6-8.6 15.6-8.6z"/>
  <path fill="#3D464D" d="M79.4 157.5H2.5c-.7 0-1.3-.4-1.5-1.1-.1-.6-2.9-15.6 4.3-24.2 7.3-8.6 19.3-12.3 19.8-12.4.7-.2 1.4.1 1.7.7 0 .1 4.9 7.7 13.8 7.7 8.4 0 14.5-7.9 14.5-8 .4-.5 1-.7 1.7-.5.5.2 12.5 4.1 19.8 12.7 7.2 8.5 4.4 23.4 4.3 24-.2.7-.8 1.1-1.5 1.1zm-75.7-3h74.4c.5-3 1.4-14.2-3.8-20.3-5.6-6.6-14.5-10.3-17.4-11.4-2 2.3-8 8.3-16.2 8.3-8.6 0-13.9-5.7-15.7-8.1-3 1.1-11.8 4.5-17.4 11.1-5.2 6.2-4.3 17.4-3.9 20.4z"/>
  <path fill="#3D464D" d="M41.5 122.5H41c-.1 0-.1.1-.2.1-4.9-.2-9.2-2.2-12.9-6.1-8.4-8.8-11.4-25-11.1-31.3 0-.8.7-1.5 1.6-1.4.8 0 1.5.8 1.4 1.6-.2 5.1 2.3 20.8 10.2 29.1 3.2 3.4 7 5.1 11.2 5.2 6.8-.1 12.2-4 16.1-11.5 3-5.9 3.9-11.8 3.9-11.9v-.2c0-.2 4.5-18.3-3.4-28.5-3.6-4.6-9.2-6.9-16.7-7-12.9.1-20.1 6.8-21.2 20-.1.8-.8 1.4-1.6 1.4-.8-.1-1.4-.8-1.4-1.6.9-10.3 5.8-22.6 23.9-22.8l.1-.1h.5l.1.1c8.3.1 14.6 2.9 18.7 8.2 8.6 11.1 4.3 29.5 3.9 31-.1.8-1.1 6.7-4.2 12.7-4.3 8.4-10.6 12.8-18.4 13 .1.1.1 0 0 0z"/>
  <ellipse fill="#3D464D" cx="33.5" cy="92.1" rx="2.4" ry="2.4"/>
  <ellipse fill="#3D464D" cx="49" cy="92.1" rx="2.4" ry="2.4"/>
  <path fill="#3D464D" d="M40.9 112.8c-4.6 0-8.2-3.9-8.4-4.1-.6-.6-.5-1.6.1-2.1.6-.6 1.6-.5 2.1.1 0 0 2.9 3.1 6.1 3.1 3.2 0 6.1-3.1 6.1-3.1.6-.6 1.5-.7 2.1-.1.6.6.7 1.5.1 2.1 0 .2-3.6 4.1-8.2 4.1zm-11.6-29h8.3v2.4h-8.3zm15.5 0h8.3v2.4h-8.3zM46.6 68s-5.4 6-12.9 8c0 0 5.6-3.3 7.3-8 0 0-4.5 4.4-21.8 8 0 0-3.1-10.5 2.7-14.9 4.7-3.5 7.5-2.4 7.5-2.4s6-5.4 15.5-5.4c11.7 0 12.1 6.1 12.1 6.1s4.2.9 6.2 5.4c1 2.3 1 7.8 1 7.8S51.5 70.9 46.6 68z"/>
  <path fill="#D3DAE0" d="M1.5 163.5h54"/>
  <path fill="#3D464D" d="M56.4 164.5h-54c-.8 0-1.5-.7-1.5-1.5s.7-1.5 1.5-1.5h54c.8 0 1.5.7 1.5 1.5s-.7 1.5-1.5 1.5z"/>
  <path fill="#D3DAE0" d="M61.5 163.5h7"/>
  <path fill="#3D464D" d="M69.4 164.5h-7c-.8 0-1.5-.7-1.5-1.5s.7-1.5 1.5-1.5h7c.8 0 1.5.7 1.5 1.5s-.7 1.5-1.5 1.5z"/>
  <path fill="#99A8BB" d="M189 119.3s12 4.9 19.1 13.3c6.8 8.1 4 24 4 24h-76.9s-2.9-15.9 4-24c7.1-8.4 19.1-12.5 19.1-12.5l15.1 15.2 15.6-16z"/>
  <path fill="#103D51" d="M212.1 157.5h-76.9c-.7 0-1.3-.4-1.5-1.1-.1-.7-2.9-16.5 4.3-25.1 7.2-8.6 19.2-12.7 19.7-12.9.5-.2 1.1 0 1.5.4l14 14.2 14.6-14.8c.4-.4 1.1-.6 1.6-.3.5.2 12.5 5 19.7 13.6 7.2 8.5 4.4 24.3 4.3 24.9 0 .7-.6 1.1-1.3 1.1zm-75.6-3h74.3c.5-3 1.4-15-3.8-21.2-5.6-6.7-14.7-11-17.6-12.3l-15 15.2c-.6.6-1.6.6-2.1 0l-14.4-14.6c-2.8 1.1-11.9 4.9-17.6 11.6-5.2 6.2-4.3 18.3-3.8 21.3z"/>
  <path fill="#FCFCFC" d="M151.7 91.6c.3 4.8 4.4 28.9 22.6 28.9h-.5c18.2 0 21.8-24.7 21.8-24.7s9.5-37.3-21.8-37.3h.5c-21.7 0-23.8 17.8-23 28.7"/>
  <path fill="#103D51" d="M174.2 121.5h-.5c-.1 0-.1.1-.2.1-17.5-.5-22.8-21.8-23.4-30.1-.1-.8.6-1.5 1.4-1.6.8-.1 1.5.6 1.6 1.4 0 .3 2.4 27.1 20.8 27.4 6.8-.1 12.3-4 16.1-11.5 3-5.9 3.9-11.8 3.9-11.9v-.2c0-.2 4.5-18.3-3.4-28.5-3.6-4.6-9.2-6.9-16.7-7-6.9 0-12.2 2-15.8 5.8-5.4 5.8-6 14.8-5.5 21.4.1.8-.6 1.5-1.4 1.6-.8.1-1.5-.6-1.6-1.4-.5-7.1.2-17 6.3-23.6 4.1-4.4 10-6.8 17.6-6.9l.1-.1h.5l.1.1c8.3.1 14.6 2.9 18.7 8.2 8.6 11.1 4.3 29.5 3.9 31-.1.8-1.1 6.7-4.2 12.7-4.3 8.4-10.6 12.8-18.4 13 .2.2.2.1.1.1z"/>
  <g fill="#103D51">
    <path d="M176.3 68.1s.1 9.2-25.2 16.3c0 0-4.4-26.3 22.6-27.5s23.1 24.8 23.1 24.8-13-.3-20.5-13.6z"/>
    <path d="M150 86.2l-.3-1.6c-.1-.5-2-12.4 5-20.9 4.2-5.1 10.6-7.9 19.1-8.3h1.8c7.8 0 13.8 2.3 17.8 7 6.7 7.8 5.1 19.1 5 19.6l-.2 1.3h-1.3c-.5 0-12.2-.4-20.1-11.6-2.1 3.7-8.1 9.5-25.2 14.3l-1.6.2zm25.5-27.9h-1.7c-7.6.3-13.2 2.8-16.9 7.2-4.7 5.8-4.7 13.5-4.5 16.8 21.7-6.5 22.4-14.3 22.4-14.4l.3-5.2 2.6 4.5c5.6 10 14.5 12.2 17.9 12.7.2-3.1.1-10.6-4.5-15.8-3.4-3.8-8.7-5.8-15.6-5.8z"/>
  </g>
  <ellipse fill="#103D51" cx="165" cy="90.2" rx="2.4" ry="2.4"/>
  <ellipse fill="#103D51" cx="180.5" cy="90.2" rx="2.4" ry="2.4"/>
  <path fill="#FCFCFC" d="M180.9 103.5s-3.2 3.6-7.3 3.6-7.3-3.6-7.3-3.6"/>
  <path fill="#103D51" d="M173.6 108.6c-4.6 0-8.2-3.9-8.4-4.1-.6-.6-.5-1.6.1-2.1.6-.6 1.6-.5 2.1.1 0 0 2.9 3.1 6.1 3.1 3.2 0 6.1-3.1 6.1-3.1.6-.6 1.5-.7 2.1-.1.6.6.7 1.5.1 2.1 0 .2-3.5 4.1-8.2 4.1z"/>
  <path fill="#FCFCFC" d="M135.5 163.5h7"/>
  <path fill="#103D51" d="M143.4 164.5h-7c-.8 0-1.5-.7-1.5-1.5s.7-1.5 1.5-1.5h7c.8 0 1.5.7 1.5 1.5s-.7 1.5-1.5 1.5z"/>
  <path fill="#FCFCFC" d="M148.5 163.5h55"/>
  <path fill="#103D51" d="M204.4 164.5h-55c-.8 0-1.5-.7-1.5-1.5s.7-1.5 1.5-1.5h55c.8 0 1.5.7 1.5 1.5s-.7 1.5-1.5 1.5z"/>
  <path fill="#FCFCFC" d="M207.5 163.5h5"/>
  <path fill="#103D51" d="M213.4 164.5h-5c-.8 0-1.5-.7-1.5-1.5s.7-1.5 1.5-1.5h5c.8 0 1.5.7 1.5 1.5s-.7 1.5-1.5 1.5z"/>
  <g fill="#103D51">
    <path d="M195.5 93.9s9.4-3.1 11.5 9.6c2.1 12.7 11.5 1.1 14 3.6 1.5 1.5-12.4 19.2-29 0 0 0 2.8-9.5 3.5-13.2z"/>
    <path d="M207.8 117.5c-5.8 0-11.5-3.2-16.9-9.4l-.5-.6.2-.8c0-.1 2.8-9.5 3.5-13.1l.2-.9.8-.3c.1 0 1.3-.4 2.9-.4 3.3 0 9 1.5 10.6 11.2.8 4.8 2.5 4.8 3.1 4.8 1.3 0 2.9-.8 4.3-1.5 1.5-.7 2.9-1.4 4.1-1.4 1 0 1.7.4 2.1.8.4.4.9 1.3.3 2.7-1.4 3.2-7 8.9-14.7 8.9zm-14.1-10.7c4.6 5.2 9.4 7.8 14.1 7.8 5.8 0 9.9-3.9 11.3-6-.6.2-1.3.5-1.9.8-1.7.8-3.7 1.8-5.6 1.8-3.2 0-5.2-2.5-6-7.3-.9-5.7-3.6-8.7-7.6-8.7-.4 0-.8 0-1.2.1-.8 3.3-2.5 9.3-3.1 11.5z"/>
  </g>
  <path fill="#FCFCFC" d="M192.5 121.5v21"/>
  <path fill="#103D51" d="M193 144.2c-.8 0-1.5-.7-1.5-1.5v-21c0-.8.7-1.5 1.5-1.5s1.5.7 1.5 1.5v21c0 .8-.7 1.5-1.5 1.5z"/>
  <path fill="#FCFCFC" d="M152.5 121.5v7"/>
  <path fill="#103D51" d="M153 130.2c-.8 0-1.5-.7-1.5-1.5v-7c0-.8.7-.5 1.5-.5s1.5-.3 1.5.5v7c0 .8-.7 1.5-1.5 1.5z"/>
  <path fill="#103D51" d="M145 147c-.7 0-1.3-.4-1.4-1.1-.1-.4-2.4-9 1.6-14.3 2-2.6 5-3.9 9.1-3.9.8 0 1.5.7 1.5 1.5s-.7 1.5-1.5 1.5c-3.1 0-5.3.9-6.7 2.7-2.6 3.4-1.7 9.6-1.1 11.6.2.8-.2 1.6-1 1.8-.2.2-.4.2-.5.2z"/>
  <path fill="#D3DAE0" d="M143.5 146.1l3.6-1.2"/>
  <path fill="#103D51" d="M143.5 147.6c-.6 0-1.2-.4-1.4-1-.3-.8.2-1.6 1-1.9l3.6-1.2c.8-.3 1.6.2 1.9 1 .3.8-.2 1.6-1 1.9l-3.6 1.2c-.2-.1-.3 0-.5 0zm20-.6c-.1 0-.3 0-.4-.1-.8-.2-1.3-1-1-1.8 0-.1 2-7.6-1.1-11.7-1.4-1.8-3.6-2.7-6.7-2.7-.8 0-1.5-.7-1.5-1.5s.7-1.5 1.5-1.5c4.1 0 7.1 1.3 9.1 3.9 4 5.3 1.7 13.9 1.6 14.3-.2.6-.8 1.1-1.5 1.1z"/>
  <path fill="#D3DAE0" d="M165 146.1l-3.6-1.2"/>
  <path fill="#103D51" d="M165 147.6c-.2 0-.3 0-.5-.1l-3.6-1.2c-.8-.3-1.2-1.1-1-1.9.3-.8 1.1-1.2 1.9-1l3.6 1.2c.8.3 1.2 1.1 1 1.9-.2.7-.8 1.1-1.4 1.1z"/>
  <ellipse fill="#FCFCFC" cx="194.8" cy="142.5" rx="4.5" ry="4.4"/>
  <path fill="#103D51" d="M194.8 148.5c-3.3 0-6-2.7-6-5.9s2.7-5.9 6-5.9 6 2.7 6 5.9-2.7 5.9-6 5.9zm0-8.9c-1.6 0-3 1.3-3 2.9s1.3 2.9 3 2.9 3-1.3 3-2.9-1.4-2.9-3-2.9z"/>
</svg>