<svg xmlns="http://www.w3.org/2000/svg" viewBox="0 0 223 223">
  <ellipse fill="#FAF2EF" cx="44.4" cy="83.8" rx="44" ry="45.6"/>
  <ellipse fill="#FAF2EF" cx="166" cy="144.5" rx="57" ry="59"/>
  <path fill="#EBECEE" d="M22.2 153.6h187.9v6H22.2z"/>
  <path fill="#103D51" d="M210.1 161.2H22.2c-.8 0-1.5-.7-1.5-1.5v-6c0-.8.7-1.5 1.5-1.5h187.9c.8 0 1.5.7 1.5 1.5v6c0 .8-.7 1.5-1.5 1.5zm-186.4-3h184.9v-3H23.7v3z"/>
  <path fill="#99A8BB" d="M204.8 165.5H27.6c-2.9 0-5.2-2.3-5.2-5.2H210c0 2.9-2.3 5.2-5.2 5.2z"/>
  <path fill="#103D51" d="M204.8 167H27.6c-3.7 0-6.7-3-6.7-6.7v-1.5h190.5v1.5c.1 3.7-2.9 6.7-6.6 6.7zm-180.5-5.2c.6 1.3 1.9 2.2 3.4 2.2h177.2c1.5 0 2.8-.9 3.4-2.2h-184zm92.8-7.8h13.5s-.6 1.6-1.1 2c-1.2.9-3.7 1.2-4.7 1.2H117"/>
  <path fill="#103D51" d="M117.3 154h-13.5s.6 1.6 1.1 2c1.2.9 3.7 1.2 4.7 1.2h7.7"/>
  <circle fill="#082B3A" cx="116.2" cy="67.9" r="1.2"/>
  <path fill="#BA6039" d="M141.7 102.2h26v6h-26z"/>
  <path fill="#99A8BB" d="M193.4 153.6H38.9V73.3c0-4.7 3.8-8.5 8.5-8.5h137.4c4.7 0 8.5 3.8 8.5 8.5v80.3z"/>
  <path fill="#FFF" d="M186.6 153.5H45.7V79c0-4.3 3.5-7.8 7.8-7.8h125.2c4.3 0 7.8 3.5 7.8 7.8v74.5z"/>
  <path fill="#103D51" d="M186.6 155H45.7c-.8 0-1.5-.7-1.5-1.5V79c0-5.2 4.2-9.3 9.3-9.3h125.2c5.2 0 9.3 4.2 9.3 9.3v74.5c.1.8-.6 1.5-1.4 1.5zm-139.4-3h137.9V79c0-3.5-2.8-6.3-6.3-6.3H53.6c-3.5 0-6.3 2.8-6.3 6.3v73z"/>
  <path fill="#EFF2F4" d="M56.9 80h117.6v10H56.9zm0 17.9h117.6v15.3H56.9zm0 21.6h117.6v32.4H56.9z"/>
  <path fill="#FFF" d="M89.5 102.2h47.8v6H89.5zm-27.1 0h22.7v6H62.4z"/>
  <path fill="#103D51" d="M38.9 89.6c-.8 0-1.5-.7-1.5-1.5v-5.3c0-.8.7-1.5 1.5-1.5s1.5.7 1.5 1.5v5.3c0 .9-.7 1.5-1.5 1.5zm154.5 65.5H38.9c-.8 0-1.5-.7-1.5-1.5v-61c0-.8.7-1.5 1.5-1.5s1.5.7 1.5 1.5v59.5h151.5v-9.6c0-.8.7-1.5 1.5-1.5s1.5.7 1.5 1.5v11.1c0 .9-.6 1.5-1.5 1.5zm0-14.4c-.8 0-1.5-.7-1.5-1.5V73.3c0-3.9-3.2-7-7-7H47.4c-3.9 0-7 3.2-7 7v5.1c0 .8-.7 1.5-1.5 1.5s-1.5-.7-1.5-1.5v-5.1c0-5.5 4.5-10 10-10h137.4c5.5 0 10 4.5 10 10v65.8c.1.9-.5 1.6-1.4 1.6z"/>
  <path fill="#FFF" d="M198.7 171.3h21"/>
  <path fill="#103D51" d="M217.7 172.3h-21c-.8 0-1.5-.7-1.5-1.5s.7-1.5 1.5-1.5h21c.8 0 1.5.7 1.5 1.5s-.6 1.5-1.5 1.5z"/>
  <path fill="#FFF" d="M184.7 171.3h8"/>
  <path fill="#103D51" d="M191.7 172.3h-8c-.8 0-1.5-.7-1.5-1.5s.7-1.5 1.5-1.5h8c.8 0 1.5.7 1.5 1.5s-.6 1.5-1.5 1.5z"/>
  <path fill="#FFF" d="M26.7 171.3h151"/>
  <path fill="#103D51" d="M177.7 172.3h-151c-.8 0-1.5-.7-1.5-1.5s.7-1.5 1.5-1.5h151c.8 0 1.5.7 1.5 1.5s-.6 1.5-1.5 1.5z"/>
  <path fill="#FFF" d="M21.7 171.3h5m-19 0h9"/>
  <path fill="#103D51" d="M20.7 172.3h-9c-.8 0-1.5-.7-1.5-1.5s.7-1.5 1.5-1.5h9c.8 0 1.5.7 1.5 1.5s-.6 1.5-1.5 1.5z"/>
</svg>